<?xml version="1.0" encoding="utf-8" standalone="no"?>
<!DOCTYPE svg PUBLIC "-//W3C//DTD SVG 1.1//EN"
  "http://www.w3.org/Graphics/SVG/1.1/DTD/svg11.dtd">
<svg xmlns:xlink="http://www.w3.org/1999/xlink" width="460.8pt" height="345.6pt" viewBox="0 0 460.8 345.6" xmlns="http://www.w3.org/2000/svg" version="1.1">
 <metadata>
  <rdf:RDF xmlns:dc="http://purl.org/dc/elements/1.1/" xmlns:cc="http://creativecommons.org/ns#" xmlns:rdf="http://www.w3.org/1999/02/22-rdf-syntax-ns#">
   <cc:Work>
    <dc:type rdf:resource="http://purl.org/dc/dcmitype/StillImage"/>
    <dc:date>2023-12-18T23:00:34.312957</dc:date>
    <dc:format>image/svg+xml</dc:format>
    <dc:creator>
     <cc:Agent>
      <dc:title>Matplotlib v3.8.0, https://matplotlib.org/</dc:title>
     </cc:Agent>
    </dc:creator>
   </cc:Work>
  </rdf:RDF>
 </metadata>
 <defs>
  <style type="text/css">*{stroke-linejoin: round; stroke-linecap: butt}</style>
 </defs>
 <g id="figure_1">
  <g id="patch_1">
   <path d="M 0 345.6 
L 460.8 345.6 
L 460.8 0 
L 0 0 
z
" style="fill: #ffffff"/>
  </g>
  <g id="axes_1">
   <g id="patch_2">
    <path d="M 57.6 162.432 
L 414.72 162.432 
L 414.72 41.472 
L 57.6 41.472 
z
" style="fill: #ffffff"/>
   </g>
   <g id="matplotlib.axis_1">
    <g id="xtick_1">
     <g id="line2d_1">
      <defs>
       <path id="m48bac7d7d0" d="M 0 0 
L 0 3.5 
" style="stroke: #000000; stroke-width: 0.8"/>
      </defs>
      <g>
       <use xlink:href="#m48bac7d7d0" x="73.832727" y="162.432" style="stroke: #000000; stroke-width: 0.8"/>
      </g>
     </g>
     <g id="text_1">
      <!-- 0 -->
      <g transform="translate(70.651477 177.030437) scale(0.1 -0.1)">
       <defs>
        <path id="DejaVuSans-30" d="M 2034 4250 
Q 1547 4250 1301 3770 
Q 1056 3291 1056 2328 
Q 1056 1369 1301 889 
Q 1547 409 2034 409 
Q 2525 409 2770 889 
Q 3016 1369 3016 2328 
Q 3016 3291 2770 3770 
Q 2525 4250 2034 4250 
z
M 2034 4750 
Q 2819 4750 3233 4129 
Q 3647 3509 3647 2328 
Q 3647 1150 3233 529 
Q 2819 -91 2034 -91 
Q 1250 -91 836 529 
Q 422 1150 422 2328 
Q 422 3509 836 4129 
Q 1250 4750 2034 4750 
z
" transform="scale(0.015625)"/>
       </defs>
       <use xlink:href="#DejaVuSans-30"/>
      </g>
     </g>
    </g>
    <g id="xtick_2">
     <g id="line2d_2">
      <g>
       <use xlink:href="#m48bac7d7d0" x="114.928239" y="162.432" style="stroke: #000000; stroke-width: 0.8"/>
      </g>
     </g>
     <g id="text_2">
      <!-- 10 -->
      <g transform="translate(108.565739 177.030437) scale(0.1 -0.1)">
       <defs>
        <path id="DejaVuSans-31" d="M 794 531 
L 1825 531 
L 1825 4091 
L 703 3866 
L 703 4441 
L 1819 4666 
L 2450 4666 
L 2450 531 
L 3481 531 
L 3481 0 
L 794 0 
L 794 531 
z
" transform="scale(0.015625)"/>
       </defs>
       <use xlink:href="#DejaVuSans-31"/>
       <use xlink:href="#DejaVuSans-30" x="63.623047"/>
      </g>
     </g>
    </g>
    <g id="xtick_3">
     <g id="line2d_3">
      <g>
       <use xlink:href="#m48bac7d7d0" x="156.023751" y="162.432" style="stroke: #000000; stroke-width: 0.8"/>
      </g>
     </g>
     <g id="text_3">
      <!-- 20 -->
      <g transform="translate(149.661251 177.030437) scale(0.1 -0.1)">
       <defs>
        <path id="DejaVuSans-32" d="M 1228 531 
L 3431 531 
L 3431 0 
L 469 0 
L 469 531 
Q 828 903 1448 1529 
Q 2069 2156 2228 2338 
Q 2531 2678 2651 2914 
Q 2772 3150 2772 3378 
Q 2772 3750 2511 3984 
Q 2250 4219 1831 4219 
Q 1534 4219 1204 4116 
Q 875 4013 500 3803 
L 500 4441 
Q 881 4594 1212 4672 
Q 1544 4750 1819 4750 
Q 2544 4750 2975 4387 
Q 3406 4025 3406 3419 
Q 3406 3131 3298 2873 
Q 3191 2616 2906 2266 
Q 2828 2175 2409 1742 
Q 1991 1309 1228 531 
z
" transform="scale(0.015625)"/>
       </defs>
       <use xlink:href="#DejaVuSans-32"/>
       <use xlink:href="#DejaVuSans-30" x="63.623047"/>
      </g>
     </g>
    </g>
    <g id="xtick_4">
     <g id="line2d_4">
      <g>
       <use xlink:href="#m48bac7d7d0" x="197.119264" y="162.432" style="stroke: #000000; stroke-width: 0.8"/>
      </g>
     </g>
     <g id="text_4">
      <!-- 30 -->
      <g transform="translate(190.756764 177.030437) scale(0.1 -0.1)">
       <defs>
        <path id="DejaVuSans-33" d="M 2597 2516 
Q 3050 2419 3304 2112 
Q 3559 1806 3559 1356 
Q 3559 666 3084 287 
Q 2609 -91 1734 -91 
Q 1441 -91 1130 -33 
Q 819 25 488 141 
L 488 750 
Q 750 597 1062 519 
Q 1375 441 1716 441 
Q 2309 441 2620 675 
Q 2931 909 2931 1356 
Q 2931 1769 2642 2001 
Q 2353 2234 1838 2234 
L 1294 2234 
L 1294 2753 
L 1863 2753 
Q 2328 2753 2575 2939 
Q 2822 3125 2822 3475 
Q 2822 3834 2567 4026 
Q 2313 4219 1838 4219 
Q 1578 4219 1281 4162 
Q 984 4106 628 3988 
L 628 4550 
Q 988 4650 1302 4700 
Q 1616 4750 1894 4750 
Q 2613 4750 3031 4423 
Q 3450 4097 3450 3541 
Q 3450 3153 3228 2886 
Q 3006 2619 2597 2516 
z
" transform="scale(0.015625)"/>
       </defs>
       <use xlink:href="#DejaVuSans-33"/>
       <use xlink:href="#DejaVuSans-30" x="63.623047"/>
      </g>
     </g>
    </g>
    <g id="xtick_5">
     <g id="line2d_5">
      <g>
       <use xlink:href="#m48bac7d7d0" x="238.214776" y="162.432" style="stroke: #000000; stroke-width: 0.8"/>
      </g>
     </g>
     <g id="text_5">
      <!-- 40 -->
      <g transform="translate(231.852276 177.030437) scale(0.1 -0.1)">
       <defs>
        <path id="DejaVuSans-34" d="M 2419 4116 
L 825 1625 
L 2419 1625 
L 2419 4116 
z
M 2253 4666 
L 3047 4666 
L 3047 1625 
L 3713 1625 
L 3713 1100 
L 3047 1100 
L 3047 0 
L 2419 0 
L 2419 1100 
L 313 1100 
L 313 1709 
L 2253 4666 
z
" transform="scale(0.015625)"/>
       </defs>
       <use xlink:href="#DejaVuSans-34"/>
       <use xlink:href="#DejaVuSans-30" x="63.623047"/>
      </g>
     </g>
    </g>
    <g id="xtick_6">
     <g id="line2d_6">
      <g>
       <use xlink:href="#m48bac7d7d0" x="279.310288" y="162.432" style="stroke: #000000; stroke-width: 0.8"/>
      </g>
     </g>
     <g id="text_6">
      <!-- 50 -->
      <g transform="translate(272.947788 177.030437) scale(0.1 -0.1)">
       <defs>
        <path id="DejaVuSans-35" d="M 691 4666 
L 3169 4666 
L 3169 4134 
L 1269 4134 
L 1269 2991 
Q 1406 3038 1543 3061 
Q 1681 3084 1819 3084 
Q 2600 3084 3056 2656 
Q 3513 2228 3513 1497 
Q 3513 744 3044 326 
Q 2575 -91 1722 -91 
Q 1428 -91 1123 -41 
Q 819 9 494 109 
L 494 744 
Q 775 591 1075 516 
Q 1375 441 1709 441 
Q 2250 441 2565 725 
Q 2881 1009 2881 1497 
Q 2881 1984 2565 2268 
Q 2250 2553 1709 2553 
Q 1456 2553 1204 2497 
Q 953 2441 691 2322 
L 691 4666 
z
" transform="scale(0.015625)"/>
       </defs>
       <use xlink:href="#DejaVuSans-35"/>
       <use xlink:href="#DejaVuSans-30" x="63.623047"/>
      </g>
     </g>
    </g>
    <g id="xtick_7">
     <g id="line2d_7">
      <g>
       <use xlink:href="#m48bac7d7d0" x="320.4058" y="162.432" style="stroke: #000000; stroke-width: 0.8"/>
      </g>
     </g>
     <g id="text_7">
      <!-- 60 -->
      <g transform="translate(314.0433 177.030437) scale(0.1 -0.1)">
       <defs>
        <path id="DejaVuSans-36" d="M 2113 2584 
Q 1688 2584 1439 2293 
Q 1191 2003 1191 1497 
Q 1191 994 1439 701 
Q 1688 409 2113 409 
Q 2538 409 2786 701 
Q 3034 994 3034 1497 
Q 3034 2003 2786 2293 
Q 2538 2584 2113 2584 
z
M 3366 4563 
L 3366 3988 
Q 3128 4100 2886 4159 
Q 2644 4219 2406 4219 
Q 1781 4219 1451 3797 
Q 1122 3375 1075 2522 
Q 1259 2794 1537 2939 
Q 1816 3084 2150 3084 
Q 2853 3084 3261 2657 
Q 3669 2231 3669 1497 
Q 3669 778 3244 343 
Q 2819 -91 2113 -91 
Q 1303 -91 875 529 
Q 447 1150 447 2328 
Q 447 3434 972 4092 
Q 1497 4750 2381 4750 
Q 2619 4750 2861 4703 
Q 3103 4656 3366 4563 
z
" transform="scale(0.015625)"/>
       </defs>
       <use xlink:href="#DejaVuSans-36"/>
       <use xlink:href="#DejaVuSans-30" x="63.623047"/>
      </g>
     </g>
    </g>
    <g id="xtick_8">
     <g id="line2d_8">
      <g>
       <use xlink:href="#m48bac7d7d0" x="361.501312" y="162.432" style="stroke: #000000; stroke-width: 0.8"/>
      </g>
     </g>
     <g id="text_8">
      <!-- 70 -->
      <g transform="translate(355.138812 177.030437) scale(0.1 -0.1)">
       <defs>
        <path id="DejaVuSans-37" d="M 525 4666 
L 3525 4666 
L 3525 4397 
L 1831 0 
L 1172 0 
L 2766 4134 
L 525 4134 
L 525 4666 
z
" transform="scale(0.015625)"/>
       </defs>
       <use xlink:href="#DejaVuSans-37"/>
       <use xlink:href="#DejaVuSans-30" x="63.623047"/>
      </g>
     </g>
    </g>
    <g id="xtick_9">
     <g id="line2d_9">
      <g>
       <use xlink:href="#m48bac7d7d0" x="402.596824" y="162.432" style="stroke: #000000; stroke-width: 0.8"/>
      </g>
     </g>
     <g id="text_9">
      <!-- 80 -->
      <g transform="translate(396.234324 177.030437) scale(0.1 -0.1)">
       <defs>
        <path id="DejaVuSans-38" d="M 2034 2216 
Q 1584 2216 1326 1975 
Q 1069 1734 1069 1313 
Q 1069 891 1326 650 
Q 1584 409 2034 409 
Q 2484 409 2743 651 
Q 3003 894 3003 1313 
Q 3003 1734 2745 1975 
Q 2488 2216 2034 2216 
z
M 1403 2484 
Q 997 2584 770 2862 
Q 544 3141 544 3541 
Q 544 4100 942 4425 
Q 1341 4750 2034 4750 
Q 2731 4750 3128 4425 
Q 3525 4100 3525 3541 
Q 3525 3141 3298 2862 
Q 3072 2584 2669 2484 
Q 3125 2378 3379 2068 
Q 3634 1759 3634 1313 
Q 3634 634 3220 271 
Q 2806 -91 2034 -91 
Q 1263 -91 848 271 
Q 434 634 434 1313 
Q 434 1759 690 2068 
Q 947 2378 1403 2484 
z
M 1172 3481 
Q 1172 3119 1398 2916 
Q 1625 2713 2034 2713 
Q 2441 2713 2670 2916 
Q 2900 3119 2900 3481 
Q 2900 3844 2670 4047 
Q 2441 4250 2034 4250 
Q 1625 4250 1398 4047 
Q 1172 3844 1172 3481 
z
" transform="scale(0.015625)"/>
       </defs>
       <use xlink:href="#DejaVuSans-38"/>
       <use xlink:href="#DejaVuSans-30" x="63.623047"/>
      </g>
     </g>
    </g>
   </g>
   <g id="matplotlib.axis_2">
    <g id="ytick_1">
     <g id="line2d_10">
      <defs>
       <path id="m72c19c14f4" d="M 0 0 
L -3.5 0 
" style="stroke: #000000; stroke-width: 0.8"/>
      </defs>
      <g>
       <use xlink:href="#m72c19c14f4" x="57.6" y="162.432" style="stroke: #000000; stroke-width: 0.8"/>
      </g>
     </g>
     <g id="text_10">
      <!-- 50% -->
      <g transform="translate(28.373438 166.231219) scale(0.1 -0.1)">
       <defs>
        <path id="DejaVuSans-25" d="M 4653 2053 
Q 4381 2053 4226 1822 
Q 4072 1591 4072 1178 
Q 4072 772 4226 539 
Q 4381 306 4653 306 
Q 4919 306 5073 539 
Q 5228 772 5228 1178 
Q 5228 1588 5073 1820 
Q 4919 2053 4653 2053 
z
M 4653 2450 
Q 5147 2450 5437 2106 
Q 5728 1763 5728 1178 
Q 5728 594 5436 251 
Q 5144 -91 4653 -91 
Q 4153 -91 3862 251 
Q 3572 594 3572 1178 
Q 3572 1766 3864 2108 
Q 4156 2450 4653 2450 
z
M 1428 4353 
Q 1159 4353 1004 4120 
Q 850 3888 850 3481 
Q 850 3069 1003 2837 
Q 1156 2606 1428 2606 
Q 1700 2606 1854 2837 
Q 2009 3069 2009 3481 
Q 2009 3884 1853 4118 
Q 1697 4353 1428 4353 
z
M 4250 4750 
L 4750 4750 
L 1831 -91 
L 1331 -91 
L 4250 4750 
z
M 1428 4750 
Q 1922 4750 2215 4408 
Q 2509 4066 2509 3481 
Q 2509 2891 2217 2550 
Q 1925 2209 1428 2209 
Q 931 2209 642 2551 
Q 353 2894 353 3481 
Q 353 4063 643 4406 
Q 934 4750 1428 4750 
z
" transform="scale(0.015625)"/>
       </defs>
       <use xlink:href="#DejaVuSans-35"/>
       <use xlink:href="#DejaVuSans-30" x="63.623047"/>
       <use xlink:href="#DejaVuSans-25" x="127.246094"/>
      </g>
     </g>
    </g>
    <g id="ytick_2">
     <g id="line2d_11">
      <g>
       <use xlink:href="#m72c19c14f4" x="57.6" y="138.24" style="stroke: #000000; stroke-width: 0.8"/>
      </g>
     </g>
     <g id="text_11">
      <!-- 60% -->
      <g transform="translate(28.373438 142.039219) scale(0.1 -0.1)">
       <use xlink:href="#DejaVuSans-36"/>
       <use xlink:href="#DejaVuSans-30" x="63.623047"/>
       <use xlink:href="#DejaVuSans-25" x="127.246094"/>
      </g>
     </g>
    </g>
    <g id="ytick_3">
     <g id="line2d_12">
      <g>
       <use xlink:href="#m72c19c14f4" x="57.6" y="114.048" style="stroke: #000000; stroke-width: 0.8"/>
      </g>
     </g>
     <g id="text_12">
      <!-- 70% -->
      <g transform="translate(28.373438 117.847219) scale(0.1 -0.1)">
       <use xlink:href="#DejaVuSans-37"/>
       <use xlink:href="#DejaVuSans-30" x="63.623047"/>
       <use xlink:href="#DejaVuSans-25" x="127.246094"/>
      </g>
     </g>
    </g>
    <g id="ytick_4">
     <g id="line2d_13">
      <g>
       <use xlink:href="#m72c19c14f4" x="57.6" y="89.856" style="stroke: #000000; stroke-width: 0.8"/>
      </g>
     </g>
     <g id="text_13">
      <!-- 80% -->
      <g transform="translate(28.373438 93.655219) scale(0.1 -0.1)">
       <use xlink:href="#DejaVuSans-38"/>
       <use xlink:href="#DejaVuSans-30" x="63.623047"/>
       <use xlink:href="#DejaVuSans-25" x="127.246094"/>
      </g>
     </g>
    </g>
    <g id="ytick_5">
     <g id="line2d_14">
      <g>
       <use xlink:href="#m72c19c14f4" x="57.6" y="65.664" style="stroke: #000000; stroke-width: 0.8"/>
      </g>
     </g>
     <g id="text_14">
      <!-- 90% -->
      <g transform="translate(28.373438 69.463219) scale(0.1 -0.1)">
       <defs>
        <path id="DejaVuSans-39" d="M 703 97 
L 703 672 
Q 941 559 1184 500 
Q 1428 441 1663 441 
Q 2288 441 2617 861 
Q 2947 1281 2994 2138 
Q 2813 1869 2534 1725 
Q 2256 1581 1919 1581 
Q 1219 1581 811 2004 
Q 403 2428 403 3163 
Q 403 3881 828 4315 
Q 1253 4750 1959 4750 
Q 2769 4750 3195 4129 
Q 3622 3509 3622 2328 
Q 3622 1225 3098 567 
Q 2575 -91 1691 -91 
Q 1453 -91 1209 -44 
Q 966 3 703 97 
z
M 1959 2075 
Q 2384 2075 2632 2365 
Q 2881 2656 2881 3163 
Q 2881 3666 2632 3958 
Q 2384 4250 1959 4250 
Q 1534 4250 1286 3958 
Q 1038 3666 1038 3163 
Q 1038 2656 1286 2365 
Q 1534 2075 1959 2075 
z
" transform="scale(0.015625)"/>
       </defs>
       <use xlink:href="#DejaVuSans-39"/>
       <use xlink:href="#DejaVuSans-30" x="63.623047"/>
       <use xlink:href="#DejaVuSans-25" x="127.246094"/>
      </g>
     </g>
    </g>
    <g id="ytick_6">
     <g id="line2d_15">
      <g>
       <use xlink:href="#m72c19c14f4" x="57.6" y="41.472" style="stroke: #000000; stroke-width: 0.8"/>
      </g>
     </g>
     <g id="text_15">
      <!-- 100% -->
      <g transform="translate(22.010938 45.271219) scale(0.1 -0.1)">
       <use xlink:href="#DejaVuSans-31"/>
       <use xlink:href="#DejaVuSans-30" x="63.623047"/>
       <use xlink:href="#DejaVuSans-30" x="127.246094"/>
       <use xlink:href="#DejaVuSans-25" x="190.869141"/>
      </g>
     </g>
    </g>
    <g id="text_16">
     <!-- Accuracy -->
     <g transform="translate(15.93125 124.780125) rotate(-90) scale(0.1 -0.1)">
      <defs>
       <path id="DejaVuSans-41" d="M 2188 4044 
L 1331 1722 
L 3047 1722 
L 2188 4044 
z
M 1831 4666 
L 2547 4666 
L 4325 0 
L 3669 0 
L 3244 1197 
L 1141 1197 
L 716 0 
L 50 0 
L 1831 4666 
z
" transform="scale(0.015625)"/>
       <path id="DejaVuSans-63" d="M 3122 3366 
L 3122 2828 
Q 2878 2963 2633 3030 
Q 2388 3097 2138 3097 
Q 1578 3097 1268 2742 
Q 959 2388 959 1747 
Q 959 1106 1268 751 
Q 1578 397 2138 397 
Q 2388 397 2633 464 
Q 2878 531 3122 666 
L 3122 134 
Q 2881 22 2623 -34 
Q 2366 -91 2075 -91 
Q 1284 -91 818 406 
Q 353 903 353 1747 
Q 353 2603 823 3093 
Q 1294 3584 2113 3584 
Q 2378 3584 2631 3529 
Q 2884 3475 3122 3366 
z
" transform="scale(0.015625)"/>
       <path id="DejaVuSans-75" d="M 544 1381 
L 544 3500 
L 1119 3500 
L 1119 1403 
Q 1119 906 1312 657 
Q 1506 409 1894 409 
Q 2359 409 2629 706 
Q 2900 1003 2900 1516 
L 2900 3500 
L 3475 3500 
L 3475 0 
L 2900 0 
L 2900 538 
Q 2691 219 2414 64 
Q 2138 -91 1772 -91 
Q 1169 -91 856 284 
Q 544 659 544 1381 
z
M 1991 3584 
L 1991 3584 
z
" transform="scale(0.015625)"/>
       <path id="DejaVuSans-72" d="M 2631 2963 
Q 2534 3019 2420 3045 
Q 2306 3072 2169 3072 
Q 1681 3072 1420 2755 
Q 1159 2438 1159 1844 
L 1159 0 
L 581 0 
L 581 3500 
L 1159 3500 
L 1159 2956 
Q 1341 3275 1631 3429 
Q 1922 3584 2338 3584 
Q 2397 3584 2469 3576 
Q 2541 3569 2628 3553 
L 2631 2963 
z
" transform="scale(0.015625)"/>
       <path id="DejaVuSans-61" d="M 2194 1759 
Q 1497 1759 1228 1600 
Q 959 1441 959 1056 
Q 959 750 1161 570 
Q 1363 391 1709 391 
Q 2188 391 2477 730 
Q 2766 1069 2766 1631 
L 2766 1759 
L 2194 1759 
z
M 3341 1997 
L 3341 0 
L 2766 0 
L 2766 531 
Q 2569 213 2275 61 
Q 1981 -91 1556 -91 
Q 1019 -91 701 211 
Q 384 513 384 1019 
Q 384 1609 779 1909 
Q 1175 2209 1959 2209 
L 2766 2209 
L 2766 2266 
Q 2766 2663 2505 2880 
Q 2244 3097 1772 3097 
Q 1472 3097 1187 3025 
Q 903 2953 641 2809 
L 641 3341 
Q 956 3463 1253 3523 
Q 1550 3584 1831 3584 
Q 2591 3584 2966 3190 
Q 3341 2797 3341 1997 
z
" transform="scale(0.015625)"/>
       <path id="DejaVuSans-79" d="M 2059 -325 
Q 1816 -950 1584 -1140 
Q 1353 -1331 966 -1331 
L 506 -1331 
L 506 -850 
L 844 -850 
Q 1081 -850 1212 -737 
Q 1344 -625 1503 -206 
L 1606 56 
L 191 3500 
L 800 3500 
L 1894 763 
L 2988 3500 
L 3597 3500 
L 2059 -325 
z
" transform="scale(0.015625)"/>
      </defs>
      <use xlink:href="#DejaVuSans-41"/>
      <use xlink:href="#DejaVuSans-63" x="66.658203"/>
      <use xlink:href="#DejaVuSans-63" x="121.638672"/>
      <use xlink:href="#DejaVuSans-75" x="176.619141"/>
      <use xlink:href="#DejaVuSans-72" x="239.998047"/>
      <use xlink:href="#DejaVuSans-61" x="281.111328"/>
      <use xlink:href="#DejaVuSans-63" x="342.390625"/>
      <use xlink:href="#DejaVuSans-79" x="397.371094"/>
     </g>
    </g>
   </g>
   <g id="line2d_16">
    <path d="M 73.832727 138.659517 
L 77.942278 93.91131 
L 82.05183 91.11455 
L 86.161381 87.618587 
L 90.270932 86.919397 
L 94.380483 82.025068 
L 98.490035 86.919397 
L 102.599586 82.025068 
L 106.709137 91.81374 
L 110.818688 86.919397 
L 114.928239 77.829915 
L 119.037791 69.439637 
L 123.147342 77.130725 
L 127.256893 70.138826 
L 131.366444 79.927484 
L 135.475995 76.431535 
L 139.585547 77.130725 
L 143.695098 90.415346 
L 147.804649 70.138826 
L 151.9142 75.732345 
L 156.023751 73.634776 
L 160.133303 76.431535 
L 164.242854 79.927484 
L 168.352405 85.521017 
L 172.461956 73.634776 
L 176.571507 72.236396 
L 180.681059 70.838016 
L 184.79061 82.724258 
L 188.900161 73.773823 
L 193.009712 70.138826 
L 197.119264 81.325878 
L 201.228815 77.130725 
L 205.338366 71.537206 
L 209.447917 72.935586 
L 213.557468 73.634776 
L 217.66702 74.333965 
L 221.776571 68.740432 
L 225.886122 79.927484 
L 229.995673 76.431535 
L 234.105224 74.333965 
L 238.214776 71.537206 
L 242.324327 75.033155 
L 246.433878 75.033155 
L 250.543429 81.325878 
L 254.65298 65.943673 
L 258.762532 79.927484 
L 262.872083 79.228294 
L 266.981634 78.529104 
L 271.091185 74.333965 
L 275.200736 66.642863 
L 279.310288 73.634776 
L 283.419839 80.626688 
L 287.52939 77.130725 
L 291.638941 75.033155 
L 295.748493 67.342053 
L 299.858044 66.642863 
L 303.967595 70.838016 
L 308.077146 75.732345 
L 312.186697 70.838016 
L 316.296249 70.838016 
L 320.4058 81.325878 
L 324.515351 77.829915 
L 328.624902 77.829915 
L 332.734453 73.634776 
L 336.844005 68.041243 
L 340.953556 70.838016 
L 345.063107 73.773823 
L 349.172658 73.634776 
L 353.282209 68.740432 
L 357.391761 70.838016 
L 361.501312 72.935586 
L 365.610863 63.846104 
L 369.720414 63.846104 
L 373.829965 64.545293 
L 377.939517 79.228294 
L 382.049068 73.634776 
L 386.158619 68.041243 
L 390.26817 73.634776 
L 394.377722 72.935586 
L 398.487273 76.431535 
" clip-path="url(#p30d413425b)" style="fill: none; stroke: #1f77b4; stroke-width: 1.5; stroke-linecap: square"/>
    <defs>
     <path id="mfc0770f15b" d="M 0 3 
C 0.795609 3 1.55874 2.683901 2.12132 2.12132 
C 2.683901 1.55874 3 0.795609 3 0 
C 3 -0.795609 2.683901 -1.55874 2.12132 -2.12132 
C 1.55874 -2.683901 0.795609 -3 0 -3 
C -0.795609 -3 -1.55874 -2.683901 -2.12132 -2.12132 
C -2.683901 -1.55874 -3 -0.795609 -3 0 
C -3 0.795609 -2.683901 1.55874 -2.12132 2.12132 
C -1.55874 2.683901 -0.795609 3 0 3 
z
" style="stroke: #1f77b4"/>
    </defs>
    <g clip-path="url(#p30d413425b)">
     <use xlink:href="#mfc0770f15b" x="73.832727" y="138.659517" style="fill: #1f77b4; stroke: #1f77b4"/>
     <use xlink:href="#mfc0770f15b" x="77.942278" y="93.91131" style="fill: #1f77b4; stroke: #1f77b4"/>
     <use xlink:href="#mfc0770f15b" x="82.05183" y="91.11455" style="fill: #1f77b4; stroke: #1f77b4"/>
     <use xlink:href="#mfc0770f15b" x="86.161381" y="87.618587" style="fill: #1f77b4; stroke: #1f77b4"/>
     <use xlink:href="#mfc0770f15b" x="90.270932" y="86.919397" style="fill: #1f77b4; stroke: #1f77b4"/>
     <use xlink:href="#mfc0770f15b" x="94.380483" y="82.025068" style="fill: #1f77b4; stroke: #1f77b4"/>
     <use xlink:href="#mfc0770f15b" x="98.490035" y="86.919397" style="fill: #1f77b4; stroke: #1f77b4"/>
     <use xlink:href="#mfc0770f15b" x="102.599586" y="82.025068" style="fill: #1f77b4; stroke: #1f77b4"/>
     <use xlink:href="#mfc0770f15b" x="106.709137" y="91.81374" style="fill: #1f77b4; stroke: #1f77b4"/>
     <use xlink:href="#mfc0770f15b" x="110.818688" y="86.919397" style="fill: #1f77b4; stroke: #1f77b4"/>
     <use xlink:href="#mfc0770f15b" x="114.928239" y="77.829915" style="fill: #1f77b4; stroke: #1f77b4"/>
     <use xlink:href="#mfc0770f15b" x="119.037791" y="69.439637" style="fill: #1f77b4; stroke: #1f77b4"/>
     <use xlink:href="#mfc0770f15b" x="123.147342" y="77.130725" style="fill: #1f77b4; stroke: #1f77b4"/>
     <use xlink:href="#mfc0770f15b" x="127.256893" y="70.138826" style="fill: #1f77b4; stroke: #1f77b4"/>
     <use xlink:href="#mfc0770f15b" x="131.366444" y="79.927484" style="fill: #1f77b4; stroke: #1f77b4"/>
     <use xlink:href="#mfc0770f15b" x="135.475995" y="76.431535" style="fill: #1f77b4; stroke: #1f77b4"/>
     <use xlink:href="#mfc0770f15b" x="139.585547" y="77.130725" style="fill: #1f77b4; stroke: #1f77b4"/>
     <use xlink:href="#mfc0770f15b" x="143.695098" y="90.415346" style="fill: #1f77b4; stroke: #1f77b4"/>
     <use xlink:href="#mfc0770f15b" x="147.804649" y="70.138826" style="fill: #1f77b4; stroke: #1f77b4"/>
     <use xlink:href="#mfc0770f15b" x="151.9142" y="75.732345" style="fill: #1f77b4; stroke: #1f77b4"/>
     <use xlink:href="#mfc0770f15b" x="156.023751" y="73.634776" style="fill: #1f77b4; stroke: #1f77b4"/>
     <use xlink:href="#mfc0770f15b" x="160.133303" y="76.431535" style="fill: #1f77b4; stroke: #1f77b4"/>
     <use xlink:href="#mfc0770f15b" x="164.242854" y="79.927484" style="fill: #1f77b4; stroke: #1f77b4"/>
     <use xlink:href="#mfc0770f15b" x="168.352405" y="85.521017" style="fill: #1f77b4; stroke: #1f77b4"/>
     <use xlink:href="#mfc0770f15b" x="172.461956" y="73.634776" style="fill: #1f77b4; stroke: #1f77b4"/>
     <use xlink:href="#mfc0770f15b" x="176.571507" y="72.236396" style="fill: #1f77b4; stroke: #1f77b4"/>
     <use xlink:href="#mfc0770f15b" x="180.681059" y="70.838016" style="fill: #1f77b4; stroke: #1f77b4"/>
     <use xlink:href="#mfc0770f15b" x="184.79061" y="82.724258" style="fill: #1f77b4; stroke: #1f77b4"/>
     <use xlink:href="#mfc0770f15b" x="188.900161" y="73.773823" style="fill: #1f77b4; stroke: #1f77b4"/>
     <use xlink:href="#mfc0770f15b" x="193.009712" y="70.138826" style="fill: #1f77b4; stroke: #1f77b4"/>
     <use xlink:href="#mfc0770f15b" x="197.119264" y="81.325878" style="fill: #1f77b4; stroke: #1f77b4"/>
     <use xlink:href="#mfc0770f15b" x="201.228815" y="77.130725" style="fill: #1f77b4; stroke: #1f77b4"/>
     <use xlink:href="#mfc0770f15b" x="205.338366" y="71.537206" style="fill: #1f77b4; stroke: #1f77b4"/>
     <use xlink:href="#mfc0770f15b" x="209.447917" y="72.935586" style="fill: #1f77b4; stroke: #1f77b4"/>
     <use xlink:href="#mfc0770f15b" x="213.557468" y="73.634776" style="fill: #1f77b4; stroke: #1f77b4"/>
     <use xlink:href="#mfc0770f15b" x="217.66702" y="74.333965" style="fill: #1f77b4; stroke: #1f77b4"/>
     <use xlink:href="#mfc0770f15b" x="221.776571" y="68.740432" style="fill: #1f77b4; stroke: #1f77b4"/>
     <use xlink:href="#mfc0770f15b" x="225.886122" y="79.927484" style="fill: #1f77b4; stroke: #1f77b4"/>
     <use xlink:href="#mfc0770f15b" x="229.995673" y="76.431535" style="fill: #1f77b4; stroke: #1f77b4"/>
     <use xlink:href="#mfc0770f15b" x="234.105224" y="74.333965" style="fill: #1f77b4; stroke: #1f77b4"/>
     <use xlink:href="#mfc0770f15b" x="238.214776" y="71.537206" style="fill: #1f77b4; stroke: #1f77b4"/>
     <use xlink:href="#mfc0770f15b" x="242.324327" y="75.033155" style="fill: #1f77b4; stroke: #1f77b4"/>
     <use xlink:href="#mfc0770f15b" x="246.433878" y="75.033155" style="fill: #1f77b4; stroke: #1f77b4"/>
     <use xlink:href="#mfc0770f15b" x="250.543429" y="81.325878" style="fill: #1f77b4; stroke: #1f77b4"/>
     <use xlink:href="#mfc0770f15b" x="254.65298" y="65.943673" style="fill: #1f77b4; stroke: #1f77b4"/>
     <use xlink:href="#mfc0770f15b" x="258.762532" y="79.927484" style="fill: #1f77b4; stroke: #1f77b4"/>
     <use xlink:href="#mfc0770f15b" x="262.872083" y="79.228294" style="fill: #1f77b4; stroke: #1f77b4"/>
     <use xlink:href="#mfc0770f15b" x="266.981634" y="78.529104" style="fill: #1f77b4; stroke: #1f77b4"/>
     <use xlink:href="#mfc0770f15b" x="271.091185" y="74.333965" style="fill: #1f77b4; stroke: #1f77b4"/>
     <use xlink:href="#mfc0770f15b" x="275.200736" y="66.642863" style="fill: #1f77b4; stroke: #1f77b4"/>
     <use xlink:href="#mfc0770f15b" x="279.310288" y="73.634776" style="fill: #1f77b4; stroke: #1f77b4"/>
     <use xlink:href="#mfc0770f15b" x="283.419839" y="80.626688" style="fill: #1f77b4; stroke: #1f77b4"/>
     <use xlink:href="#mfc0770f15b" x="287.52939" y="77.130725" style="fill: #1f77b4; stroke: #1f77b4"/>
     <use xlink:href="#mfc0770f15b" x="291.638941" y="75.033155" style="fill: #1f77b4; stroke: #1f77b4"/>
     <use xlink:href="#mfc0770f15b" x="295.748493" y="67.342053" style="fill: #1f77b4; stroke: #1f77b4"/>
     <use xlink:href="#mfc0770f15b" x="299.858044" y="66.642863" style="fill: #1f77b4; stroke: #1f77b4"/>
     <use xlink:href="#mfc0770f15b" x="303.967595" y="70.838016" style="fill: #1f77b4; stroke: #1f77b4"/>
     <use xlink:href="#mfc0770f15b" x="308.077146" y="75.732345" style="fill: #1f77b4; stroke: #1f77b4"/>
     <use xlink:href="#mfc0770f15b" x="312.186697" y="70.838016" style="fill: #1f77b4; stroke: #1f77b4"/>
     <use xlink:href="#mfc0770f15b" x="316.296249" y="70.838016" style="fill: #1f77b4; stroke: #1f77b4"/>
     <use xlink:href="#mfc0770f15b" x="320.4058" y="81.325878" style="fill: #1f77b4; stroke: #1f77b4"/>
     <use xlink:href="#mfc0770f15b" x="324.515351" y="77.829915" style="fill: #1f77b4; stroke: #1f77b4"/>
     <use xlink:href="#mfc0770f15b" x="328.624902" y="77.829915" style="fill: #1f77b4; stroke: #1f77b4"/>
     <use xlink:href="#mfc0770f15b" x="332.734453" y="73.634776" style="fill: #1f77b4; stroke: #1f77b4"/>
     <use xlink:href="#mfc0770f15b" x="336.844005" y="68.041243" style="fill: #1f77b4; stroke: #1f77b4"/>
     <use xlink:href="#mfc0770f15b" x="340.953556" y="70.838016" style="fill: #1f77b4; stroke: #1f77b4"/>
     <use xlink:href="#mfc0770f15b" x="345.063107" y="73.773823" style="fill: #1f77b4; stroke: #1f77b4"/>
     <use xlink:href="#mfc0770f15b" x="349.172658" y="73.634776" style="fill: #1f77b4; stroke: #1f77b4"/>
     <use xlink:href="#mfc0770f15b" x="353.282209" y="68.740432" style="fill: #1f77b4; stroke: #1f77b4"/>
     <use xlink:href="#mfc0770f15b" x="357.391761" y="70.838016" style="fill: #1f77b4; stroke: #1f77b4"/>
     <use xlink:href="#mfc0770f15b" x="361.501312" y="72.935586" style="fill: #1f77b4; stroke: #1f77b4"/>
     <use xlink:href="#mfc0770f15b" x="365.610863" y="63.846104" style="fill: #1f77b4; stroke: #1f77b4"/>
     <use xlink:href="#mfc0770f15b" x="369.720414" y="63.846104" style="fill: #1f77b4; stroke: #1f77b4"/>
     <use xlink:href="#mfc0770f15b" x="373.829965" y="64.545293" style="fill: #1f77b4; stroke: #1f77b4"/>
     <use xlink:href="#mfc0770f15b" x="377.939517" y="79.228294" style="fill: #1f77b4; stroke: #1f77b4"/>
     <use xlink:href="#mfc0770f15b" x="382.049068" y="73.634776" style="fill: #1f77b4; stroke: #1f77b4"/>
     <use xlink:href="#mfc0770f15b" x="386.158619" y="68.041243" style="fill: #1f77b4; stroke: #1f77b4"/>
     <use xlink:href="#mfc0770f15b" x="390.26817" y="73.634776" style="fill: #1f77b4; stroke: #1f77b4"/>
     <use xlink:href="#mfc0770f15b" x="394.377722" y="72.935586" style="fill: #1f77b4; stroke: #1f77b4"/>
     <use xlink:href="#mfc0770f15b" x="398.487273" y="76.431535" style="fill: #1f77b4; stroke: #1f77b4"/>
    </g>
   </g>
   <g id="line2d_17">
    <path d="M 73.832727 153.792004 
L 77.942278 151.631998 
L 82.05183 138.672004 
L 86.161381 127.872002 
L 90.270932 119.232006 
L 94.380483 127.872002 
L 98.490035 153.792004 
L 102.599586 162.432 
L 106.709137 127.872002 
L 110.818688 142.992002 
L 114.928239 145.151994 
L 119.037791 136.511998 
L 123.147342 123.552004 
L 127.256893 119.232006 
L 131.366444 123.552004 
L 135.475995 149.472006 
L 139.585547 125.711996 
L 143.695098 140.831996 
L 147.804649 142.992002 
L 151.9142 162.432 
L 156.023751 117.072 
L 160.133303 151.631998 
L 164.242854 142.992002 
L 168.352405 155.951996 
L 172.461956 125.711996 
L 176.571507 112.752002 
L 180.681059 134.352006 
L 184.79061 140.831996 
L 188.900161 149.472006 
L 193.009712 127.872002 
L 197.119264 114.911994 
L 201.228815 151.631998 
L 205.338366 134.352006 
L 209.447917 121.391998 
L 213.557468 108.432004 
L 217.66702 112.752002 
L 221.776571 117.072 
L 225.886122 117.072 
L 229.995673 132.192 
L 234.105224 142.992002 
L 238.214776 123.552004 
L 242.324327 130.031994 
L 246.433878 127.872002 
L 250.543429 130.031994 
L 254.65298 117.072 
L 258.762532 123.552004 
L 262.872083 117.072 
L 266.981634 130.031994 
L 271.091185 121.391998 
L 275.200736 138.672004 
L 279.310288 142.992002 
L 283.419839 151.631998 
L 287.52939 130.031994 
L 291.638941 106.271998 
L 295.748493 125.711996 
L 299.858044 110.591996 
L 303.967595 140.831996 
L 308.077146 121.391998 
L 312.186697 130.031994 
L 316.296249 114.911994 
L 320.4058 155.951996 
L 324.515351 134.352006 
L 328.624902 142.992002 
L 332.734453 127.872002 
L 336.844005 119.232006 
L 340.953556 162.432 
L 345.063107 136.511998 
L 349.172658 134.352006 
L 353.282209 132.192 
L 357.391761 151.631998 
L 361.501312 125.711996 
L 365.610863 140.831996 
L 369.720414 123.552004 
L 373.829965 138.672004 
L 377.939517 158.112002 
L 382.049068 123.552004 
L 386.158619 140.831996 
L 390.26817 138.672004 
L 394.377722 119.232006 
L 398.487273 123.552004 
" clip-path="url(#p30d413425b)" style="fill: none; stroke: #ff7f0e; stroke-width: 1.5; stroke-linecap: square"/>
    <defs>
     <path id="m4a2d5f195c" d="M 0 3 
C 0.795609 3 1.55874 2.683901 2.12132 2.12132 
C 2.683901 1.55874 3 0.795609 3 0 
C 3 -0.795609 2.683901 -1.55874 2.12132 -2.12132 
C 1.55874 -2.683901 0.795609 -3 0 -3 
C -0.795609 -3 -1.55874 -2.683901 -2.12132 -2.12132 
C -2.683901 -1.55874 -3 -0.795609 -3 0 
C -3 0.795609 -2.683901 1.55874 -2.12132 2.12132 
C -1.55874 2.683901 -0.795609 3 0 3 
z
" style="stroke: #ff7f0e"/>
    </defs>
    <g clip-path="url(#p30d413425b)">
     <use xlink:href="#m4a2d5f195c" x="73.832727" y="153.792004" style="fill: #ff7f0e; stroke: #ff7f0e"/>
     <use xlink:href="#m4a2d5f195c" x="77.942278" y="151.631998" style="fill: #ff7f0e; stroke: #ff7f0e"/>
     <use xlink:href="#m4a2d5f195c" x="82.05183" y="138.672004" style="fill: #ff7f0e; stroke: #ff7f0e"/>
     <use xlink:href="#m4a2d5f195c" x="86.161381" y="127.872002" style="fill: #ff7f0e; stroke: #ff7f0e"/>
     <use xlink:href="#m4a2d5f195c" x="90.270932" y="119.232006" style="fill: #ff7f0e; stroke: #ff7f0e"/>
     <use xlink:href="#m4a2d5f195c" x="94.380483" y="127.872002" style="fill: #ff7f0e; stroke: #ff7f0e"/>
     <use xlink:href="#m4a2d5f195c" x="98.490035" y="153.792004" style="fill: #ff7f0e; stroke: #ff7f0e"/>
     <use xlink:href="#m4a2d5f195c" x="102.599586" y="162.432" style="fill: #ff7f0e; stroke: #ff7f0e"/>
     <use xlink:href="#m4a2d5f195c" x="106.709137" y="127.872002" style="fill: #ff7f0e; stroke: #ff7f0e"/>
     <use xlink:href="#m4a2d5f195c" x="110.818688" y="142.992002" style="fill: #ff7f0e; stroke: #ff7f0e"/>
     <use xlink:href="#m4a2d5f195c" x="114.928239" y="145.151994" style="fill: #ff7f0e; stroke: #ff7f0e"/>
     <use xlink:href="#m4a2d5f195c" x="119.037791" y="136.511998" style="fill: #ff7f0e; stroke: #ff7f0e"/>
     <use xlink:href="#m4a2d5f195c" x="123.147342" y="123.552004" style="fill: #ff7f0e; stroke: #ff7f0e"/>
     <use xlink:href="#m4a2d5f195c" x="127.256893" y="119.232006" style="fill: #ff7f0e; stroke: #ff7f0e"/>
     <use xlink:href="#m4a2d5f195c" x="131.366444" y="123.552004" style="fill: #ff7f0e; stroke: #ff7f0e"/>
     <use xlink:href="#m4a2d5f195c" x="135.475995" y="149.472006" style="fill: #ff7f0e; stroke: #ff7f0e"/>
     <use xlink:href="#m4a2d5f195c" x="139.585547" y="125.711996" style="fill: #ff7f0e; stroke: #ff7f0e"/>
     <use xlink:href="#m4a2d5f195c" x="143.695098" y="140.831996" style="fill: #ff7f0e; stroke: #ff7f0e"/>
     <use xlink:href="#m4a2d5f195c" x="147.804649" y="142.992002" style="fill: #ff7f0e; stroke: #ff7f0e"/>
     <use xlink:href="#m4a2d5f195c" x="151.9142" y="162.432" style="fill: #ff7f0e; stroke: #ff7f0e"/>
     <use xlink:href="#m4a2d5f195c" x="156.023751" y="117.072" style="fill: #ff7f0e; stroke: #ff7f0e"/>
     <use xlink:href="#m4a2d5f195c" x="160.133303" y="151.631998" style="fill: #ff7f0e; stroke: #ff7f0e"/>
     <use xlink:href="#m4a2d5f195c" x="164.242854" y="142.992002" style="fill: #ff7f0e; stroke: #ff7f0e"/>
     <use xlink:href="#m4a2d5f195c" x="168.352405" y="155.951996" style="fill: #ff7f0e; stroke: #ff7f0e"/>
     <use xlink:href="#m4a2d5f195c" x="172.461956" y="125.711996" style="fill: #ff7f0e; stroke: #ff7f0e"/>
     <use xlink:href="#m4a2d5f195c" x="176.571507" y="112.752002" style="fill: #ff7f0e; stroke: #ff7f0e"/>
     <use xlink:href="#m4a2d5f195c" x="180.681059" y="134.352006" style="fill: #ff7f0e; stroke: #ff7f0e"/>
     <use xlink:href="#m4a2d5f195c" x="184.79061" y="140.831996" style="fill: #ff7f0e; stroke: #ff7f0e"/>
     <use xlink:href="#m4a2d5f195c" x="188.900161" y="149.472006" style="fill: #ff7f0e; stroke: #ff7f0e"/>
     <use xlink:href="#m4a2d5f195c" x="193.009712" y="127.872002" style="fill: #ff7f0e; stroke: #ff7f0e"/>
     <use xlink:href="#m4a2d5f195c" x="197.119264" y="114.911994" style="fill: #ff7f0e; stroke: #ff7f0e"/>
     <use xlink:href="#m4a2d5f195c" x="201.228815" y="151.631998" style="fill: #ff7f0e; stroke: #ff7f0e"/>
     <use xlink:href="#m4a2d5f195c" x="205.338366" y="134.352006" style="fill: #ff7f0e; stroke: #ff7f0e"/>
     <use xlink:href="#m4a2d5f195c" x="209.447917" y="121.391998" style="fill: #ff7f0e; stroke: #ff7f0e"/>
     <use xlink:href="#m4a2d5f195c" x="213.557468" y="108.432004" style="fill: #ff7f0e; stroke: #ff7f0e"/>
     <use xlink:href="#m4a2d5f195c" x="217.66702" y="112.752002" style="fill: #ff7f0e; stroke: #ff7f0e"/>
     <use xlink:href="#m4a2d5f195c" x="221.776571" y="117.072" style="fill: #ff7f0e; stroke: #ff7f0e"/>
     <use xlink:href="#m4a2d5f195c" x="225.886122" y="117.072" style="fill: #ff7f0e; stroke: #ff7f0e"/>
     <use xlink:href="#m4a2d5f195c" x="229.995673" y="132.192" style="fill: #ff7f0e; stroke: #ff7f0e"/>
     <use xlink:href="#m4a2d5f195c" x="234.105224" y="142.992002" style="fill: #ff7f0e; stroke: #ff7f0e"/>
     <use xlink:href="#m4a2d5f195c" x="238.214776" y="123.552004" style="fill: #ff7f0e; stroke: #ff7f0e"/>
     <use xlink:href="#m4a2d5f195c" x="242.324327" y="130.031994" style="fill: #ff7f0e; stroke: #ff7f0e"/>
     <use xlink:href="#m4a2d5f195c" x="246.433878" y="127.872002" style="fill: #ff7f0e; stroke: #ff7f0e"/>
     <use xlink:href="#m4a2d5f195c" x="250.543429" y="130.031994" style="fill: #ff7f0e; stroke: #ff7f0e"/>
     <use xlink:href="#m4a2d5f195c" x="254.65298" y="117.072" style="fill: #ff7f0e; stroke: #ff7f0e"/>
     <use xlink:href="#m4a2d5f195c" x="258.762532" y="123.552004" style="fill: #ff7f0e; stroke: #ff7f0e"/>
     <use xlink:href="#m4a2d5f195c" x="262.872083" y="117.072" style="fill: #ff7f0e; stroke: #ff7f0e"/>
     <use xlink:href="#m4a2d5f195c" x="266.981634" y="130.031994" style="fill: #ff7f0e; stroke: #ff7f0e"/>
     <use xlink:href="#m4a2d5f195c" x="271.091185" y="121.391998" style="fill: #ff7f0e; stroke: #ff7f0e"/>
     <use xlink:href="#m4a2d5f195c" x="275.200736" y="138.672004" style="fill: #ff7f0e; stroke: #ff7f0e"/>
     <use xlink:href="#m4a2d5f195c" x="279.310288" y="142.992002" style="fill: #ff7f0e; stroke: #ff7f0e"/>
     <use xlink:href="#m4a2d5f195c" x="283.419839" y="151.631998" style="fill: #ff7f0e; stroke: #ff7f0e"/>
     <use xlink:href="#m4a2d5f195c" x="287.52939" y="130.031994" style="fill: #ff7f0e; stroke: #ff7f0e"/>
     <use xlink:href="#m4a2d5f195c" x="291.638941" y="106.271998" style="fill: #ff7f0e; stroke: #ff7f0e"/>
     <use xlink:href="#m4a2d5f195c" x="295.748493" y="125.711996" style="fill: #ff7f0e; stroke: #ff7f0e"/>
     <use xlink:href="#m4a2d5f195c" x="299.858044" y="110.591996" style="fill: #ff7f0e; stroke: #ff7f0e"/>
     <use xlink:href="#m4a2d5f195c" x="303.967595" y="140.831996" style="fill: #ff7f0e; stroke: #ff7f0e"/>
     <use xlink:href="#m4a2d5f195c" x="308.077146" y="121.391998" style="fill: #ff7f0e; stroke: #ff7f0e"/>
     <use xlink:href="#m4a2d5f195c" x="312.186697" y="130.031994" style="fill: #ff7f0e; stroke: #ff7f0e"/>
     <use xlink:href="#m4a2d5f195c" x="316.296249" y="114.911994" style="fill: #ff7f0e; stroke: #ff7f0e"/>
     <use xlink:href="#m4a2d5f195c" x="320.4058" y="155.951996" style="fill: #ff7f0e; stroke: #ff7f0e"/>
     <use xlink:href="#m4a2d5f195c" x="324.515351" y="134.352006" style="fill: #ff7f0e; stroke: #ff7f0e"/>
     <use xlink:href="#m4a2d5f195c" x="328.624902" y="142.992002" style="fill: #ff7f0e; stroke: #ff7f0e"/>
     <use xlink:href="#m4a2d5f195c" x="332.734453" y="127.872002" style="fill: #ff7f0e; stroke: #ff7f0e"/>
     <use xlink:href="#m4a2d5f195c" x="336.844005" y="119.232006" style="fill: #ff7f0e; stroke: #ff7f0e"/>
     <use xlink:href="#m4a2d5f195c" x="340.953556" y="162.432" style="fill: #ff7f0e; stroke: #ff7f0e"/>
     <use xlink:href="#m4a2d5f195c" x="345.063107" y="136.511998" style="fill: #ff7f0e; stroke: #ff7f0e"/>
     <use xlink:href="#m4a2d5f195c" x="349.172658" y="134.352006" style="fill: #ff7f0e; stroke: #ff7f0e"/>
     <use xlink:href="#m4a2d5f195c" x="353.282209" y="132.192" style="fill: #ff7f0e; stroke: #ff7f0e"/>
     <use xlink:href="#m4a2d5f195c" x="357.391761" y="151.631998" style="fill: #ff7f0e; stroke: #ff7f0e"/>
     <use xlink:href="#m4a2d5f195c" x="361.501312" y="125.711996" style="fill: #ff7f0e; stroke: #ff7f0e"/>
     <use xlink:href="#m4a2d5f195c" x="365.610863" y="140.831996" style="fill: #ff7f0e; stroke: #ff7f0e"/>
     <use xlink:href="#m4a2d5f195c" x="369.720414" y="123.552004" style="fill: #ff7f0e; stroke: #ff7f0e"/>
     <use xlink:href="#m4a2d5f195c" x="373.829965" y="138.672004" style="fill: #ff7f0e; stroke: #ff7f0e"/>
     <use xlink:href="#m4a2d5f195c" x="377.939517" y="158.112002" style="fill: #ff7f0e; stroke: #ff7f0e"/>
     <use xlink:href="#m4a2d5f195c" x="382.049068" y="123.552004" style="fill: #ff7f0e; stroke: #ff7f0e"/>
     <use xlink:href="#m4a2d5f195c" x="386.158619" y="140.831996" style="fill: #ff7f0e; stroke: #ff7f0e"/>
     <use xlink:href="#m4a2d5f195c" x="390.26817" y="138.672004" style="fill: #ff7f0e; stroke: #ff7f0e"/>
     <use xlink:href="#m4a2d5f195c" x="394.377722" y="119.232006" style="fill: #ff7f0e; stroke: #ff7f0e"/>
     <use xlink:href="#m4a2d5f195c" x="398.487273" y="123.552004" style="fill: #ff7f0e; stroke: #ff7f0e"/>
    </g>
   </g>
   <g id="patch_3">
    <path d="M 57.6 162.432 
L 57.6 41.472 
" style="fill: none; stroke: #000000; stroke-width: 0.8; stroke-linejoin: miter; stroke-linecap: square"/>
   </g>
   <g id="patch_4">
    <path d="M 414.72 162.432 
L 414.72 41.472 
" style="fill: none; stroke: #000000; stroke-width: 0.8; stroke-linejoin: miter; stroke-linecap: square"/>
   </g>
   <g id="patch_5">
    <path d="M 57.6 162.432 
L 414.72 162.432 
" style="fill: none; stroke: #000000; stroke-width: 0.8; stroke-linejoin: miter; stroke-linecap: square"/>
   </g>
   <g id="patch_6">
    <path d="M 57.6 41.472 
L 414.72 41.472 
" style="fill: none; stroke: #000000; stroke-width: 0.8; stroke-linejoin: miter; stroke-linecap: square"/>
   </g>
   <g id="legend_1">
    <g id="patch_7">
     <path d="M 278.18875 118.130125 
L 407.72 118.130125 
Q 409.72 118.130125 409.72 116.130125 
L 409.72 87.773875 
Q 409.72 85.773875 407.72 85.773875 
L 278.18875 85.773875 
Q 276.18875 85.773875 276.18875 87.773875 
L 276.18875 116.130125 
Q 276.18875 118.130125 278.18875 118.130125 
z
" style="fill: #ffffff; opacity: 0.8; stroke: #cccccc; stroke-linejoin: miter"/>
    </g>
    <g id="line2d_18">
     <path d="M 280.18875 93.872312 
L 290.18875 93.872312 
L 300.18875 93.872312 
" style="fill: none; stroke: #1f77b4; stroke-width: 1.5; stroke-linecap: square"/>
     <g>
      <use xlink:href="#mfc0770f15b" x="290.18875" y="93.872312" style="fill: #1f77b4; stroke: #1f77b4"/>
     </g>
    </g>
    <g id="text_17">
     <!-- training accuracy -->
     <g transform="translate(308.18875 97.372312) scale(0.1 -0.1)">
      <defs>
       <path id="DejaVuSans-74" d="M 1172 4494 
L 1172 3500 
L 2356 3500 
L 2356 3053 
L 1172 3053 
L 1172 1153 
Q 1172 725 1289 603 
Q 1406 481 1766 481 
L 2356 481 
L 2356 0 
L 1766 0 
Q 1100 0 847 248 
Q 594 497 594 1153 
L 594 3053 
L 172 3053 
L 172 3500 
L 594 3500 
L 594 4494 
L 1172 4494 
z
" transform="scale(0.015625)"/>
       <path id="DejaVuSans-69" d="M 603 3500 
L 1178 3500 
L 1178 0 
L 603 0 
L 603 3500 
z
M 603 4863 
L 1178 4863 
L 1178 4134 
L 603 4134 
L 603 4863 
z
" transform="scale(0.015625)"/>
       <path id="DejaVuSans-6e" d="M 3513 2113 
L 3513 0 
L 2938 0 
L 2938 2094 
Q 2938 2591 2744 2837 
Q 2550 3084 2163 3084 
Q 1697 3084 1428 2787 
Q 1159 2491 1159 1978 
L 1159 0 
L 581 0 
L 581 3500 
L 1159 3500 
L 1159 2956 
Q 1366 3272 1645 3428 
Q 1925 3584 2291 3584 
Q 2894 3584 3203 3211 
Q 3513 2838 3513 2113 
z
" transform="scale(0.015625)"/>
       <path id="DejaVuSans-67" d="M 2906 1791 
Q 2906 2416 2648 2759 
Q 2391 3103 1925 3103 
Q 1463 3103 1205 2759 
Q 947 2416 947 1791 
Q 947 1169 1205 825 
Q 1463 481 1925 481 
Q 2391 481 2648 825 
Q 2906 1169 2906 1791 
z
M 3481 434 
Q 3481 -459 3084 -895 
Q 2688 -1331 1869 -1331 
Q 1566 -1331 1297 -1286 
Q 1028 -1241 775 -1147 
L 775 -588 
Q 1028 -725 1275 -790 
Q 1522 -856 1778 -856 
Q 2344 -856 2625 -561 
Q 2906 -266 2906 331 
L 2906 616 
Q 2728 306 2450 153 
Q 2172 0 1784 0 
Q 1141 0 747 490 
Q 353 981 353 1791 
Q 353 2603 747 3093 
Q 1141 3584 1784 3584 
Q 2172 3584 2450 3431 
Q 2728 3278 2906 2969 
L 2906 3500 
L 3481 3500 
L 3481 434 
z
" transform="scale(0.015625)"/>
       <path id="DejaVuSans-20" transform="scale(0.015625)"/>
      </defs>
      <use xlink:href="#DejaVuSans-74"/>
      <use xlink:href="#DejaVuSans-72" x="39.208984"/>
      <use xlink:href="#DejaVuSans-61" x="80.322266"/>
      <use xlink:href="#DejaVuSans-69" x="141.601562"/>
      <use xlink:href="#DejaVuSans-6e" x="169.384766"/>
      <use xlink:href="#DejaVuSans-69" x="232.763672"/>
      <use xlink:href="#DejaVuSans-6e" x="260.546875"/>
      <use xlink:href="#DejaVuSans-67" x="323.925781"/>
      <use xlink:href="#DejaVuSans-20" x="387.402344"/>
      <use xlink:href="#DejaVuSans-61" x="419.189453"/>
      <use xlink:href="#DejaVuSans-63" x="480.46875"/>
      <use xlink:href="#DejaVuSans-63" x="535.449219"/>
      <use xlink:href="#DejaVuSans-75" x="590.429688"/>
      <use xlink:href="#DejaVuSans-72" x="653.808594"/>
      <use xlink:href="#DejaVuSans-61" x="694.921875"/>
      <use xlink:href="#DejaVuSans-63" x="756.201172"/>
      <use xlink:href="#DejaVuSans-79" x="811.181641"/>
     </g>
    </g>
    <g id="line2d_19">
     <path d="M 280.18875 108.550437 
L 290.18875 108.550437 
L 300.18875 108.550437 
" style="fill: none; stroke: #ff7f0e; stroke-width: 1.5; stroke-linecap: square"/>
     <g>
      <use xlink:href="#m4a2d5f195c" x="290.18875" y="108.550437" style="fill: #ff7f0e; stroke: #ff7f0e"/>
     </g>
    </g>
    <g id="text_18">
     <!-- validation accuracy -->
     <g transform="translate(308.18875 112.050437) scale(0.1 -0.1)">
      <defs>
       <path id="DejaVuSans-76" d="M 191 3500 
L 800 3500 
L 1894 563 
L 2988 3500 
L 3597 3500 
L 2284 0 
L 1503 0 
L 191 3500 
z
" transform="scale(0.015625)"/>
       <path id="DejaVuSans-6c" d="M 603 4863 
L 1178 4863 
L 1178 0 
L 603 0 
L 603 4863 
z
" transform="scale(0.015625)"/>
       <path id="DejaVuSans-64" d="M 2906 2969 
L 2906 4863 
L 3481 4863 
L 3481 0 
L 2906 0 
L 2906 525 
Q 2725 213 2448 61 
Q 2172 -91 1784 -91 
Q 1150 -91 751 415 
Q 353 922 353 1747 
Q 353 2572 751 3078 
Q 1150 3584 1784 3584 
Q 2172 3584 2448 3432 
Q 2725 3281 2906 2969 
z
M 947 1747 
Q 947 1113 1208 752 
Q 1469 391 1925 391 
Q 2381 391 2643 752 
Q 2906 1113 2906 1747 
Q 2906 2381 2643 2742 
Q 2381 3103 1925 3103 
Q 1469 3103 1208 2742 
Q 947 2381 947 1747 
z
" transform="scale(0.015625)"/>
       <path id="DejaVuSans-6f" d="M 1959 3097 
Q 1497 3097 1228 2736 
Q 959 2375 959 1747 
Q 959 1119 1226 758 
Q 1494 397 1959 397 
Q 2419 397 2687 759 
Q 2956 1122 2956 1747 
Q 2956 2369 2687 2733 
Q 2419 3097 1959 3097 
z
M 1959 3584 
Q 2709 3584 3137 3096 
Q 3566 2609 3566 1747 
Q 3566 888 3137 398 
Q 2709 -91 1959 -91 
Q 1206 -91 779 398 
Q 353 888 353 1747 
Q 353 2609 779 3096 
Q 1206 3584 1959 3584 
z
" transform="scale(0.015625)"/>
      </defs>
      <use xlink:href="#DejaVuSans-76"/>
      <use xlink:href="#DejaVuSans-61" x="59.179688"/>
      <use xlink:href="#DejaVuSans-6c" x="120.458984"/>
      <use xlink:href="#DejaVuSans-69" x="148.242188"/>
      <use xlink:href="#DejaVuSans-64" x="176.025391"/>
      <use xlink:href="#DejaVuSans-61" x="239.501953"/>
      <use xlink:href="#DejaVuSans-74" x="300.78125"/>
      <use xlink:href="#DejaVuSans-69" x="339.990234"/>
      <use xlink:href="#DejaVuSans-6f" x="367.773438"/>
      <use xlink:href="#DejaVuSans-6e" x="428.955078"/>
      <use xlink:href="#DejaVuSans-20" x="492.333984"/>
      <use xlink:href="#DejaVuSans-61" x="524.121094"/>
      <use xlink:href="#DejaVuSans-63" x="585.400391"/>
      <use xlink:href="#DejaVuSans-63" x="640.380859"/>
      <use xlink:href="#DejaVuSans-75" x="695.361328"/>
      <use xlink:href="#DejaVuSans-72" x="758.740234"/>
      <use xlink:href="#DejaVuSans-61" x="799.853516"/>
      <use xlink:href="#DejaVuSans-63" x="861.132812"/>
      <use xlink:href="#DejaVuSans-79" x="916.113281"/>
     </g>
    </g>
   </g>
  </g>
  <g id="axes_2">
   <g id="patch_8">
    <path d="M 57.6 307.584 
L 414.72 307.584 
L 414.72 186.624 
L 57.6 186.624 
z
" style="fill: #ffffff"/>
   </g>
   <g id="matplotlib.axis_3">
    <g id="xtick_10">
     <g id="line2d_20">
      <g>
       <use xlink:href="#m48bac7d7d0" x="73.832727" y="307.584" style="stroke: #000000; stroke-width: 0.8"/>
      </g>
     </g>
     <g id="text_19">
      <!-- 0 -->
      <g transform="translate(70.651477 322.182437) scale(0.1 -0.1)">
       <use xlink:href="#DejaVuSans-30"/>
      </g>
     </g>
    </g>
    <g id="xtick_11">
     <g id="line2d_21">
      <g>
       <use xlink:href="#m48bac7d7d0" x="114.928239" y="307.584" style="stroke: #000000; stroke-width: 0.8"/>
      </g>
     </g>
     <g id="text_20">
      <!-- 10 -->
      <g transform="translate(108.565739 322.182437) scale(0.1 -0.1)">
       <use xlink:href="#DejaVuSans-31"/>
       <use xlink:href="#DejaVuSans-30" x="63.623047"/>
      </g>
     </g>
    </g>
    <g id="xtick_12">
     <g id="line2d_22">
      <g>
       <use xlink:href="#m48bac7d7d0" x="156.023751" y="307.584" style="stroke: #000000; stroke-width: 0.8"/>
      </g>
     </g>
     <g id="text_21">
      <!-- 20 -->
      <g transform="translate(149.661251 322.182437) scale(0.1 -0.1)">
       <use xlink:href="#DejaVuSans-32"/>
       <use xlink:href="#DejaVuSans-30" x="63.623047"/>
      </g>
     </g>
    </g>
    <g id="xtick_13">
     <g id="line2d_23">
      <g>
       <use xlink:href="#m48bac7d7d0" x="197.119264" y="307.584" style="stroke: #000000; stroke-width: 0.8"/>
      </g>
     </g>
     <g id="text_22">
      <!-- 30 -->
      <g transform="translate(190.756764 322.182437) scale(0.1 -0.1)">
       <use xlink:href="#DejaVuSans-33"/>
       <use xlink:href="#DejaVuSans-30" x="63.623047"/>
      </g>
     </g>
    </g>
    <g id="xtick_14">
     <g id="line2d_24">
      <g>
       <use xlink:href="#m48bac7d7d0" x="238.214776" y="307.584" style="stroke: #000000; stroke-width: 0.8"/>
      </g>
     </g>
     <g id="text_23">
      <!-- 40 -->
      <g transform="translate(231.852276 322.182437) scale(0.1 -0.1)">
       <use xlink:href="#DejaVuSans-34"/>
       <use xlink:href="#DejaVuSans-30" x="63.623047"/>
      </g>
     </g>
    </g>
    <g id="xtick_15">
     <g id="line2d_25">
      <g>
       <use xlink:href="#m48bac7d7d0" x="279.310288" y="307.584" style="stroke: #000000; stroke-width: 0.8"/>
      </g>
     </g>
     <g id="text_24">
      <!-- 50 -->
      <g transform="translate(272.947788 322.182437) scale(0.1 -0.1)">
       <use xlink:href="#DejaVuSans-35"/>
       <use xlink:href="#DejaVuSans-30" x="63.623047"/>
      </g>
     </g>
    </g>
    <g id="xtick_16">
     <g id="line2d_26">
      <g>
       <use xlink:href="#m48bac7d7d0" x="320.4058" y="307.584" style="stroke: #000000; stroke-width: 0.8"/>
      </g>
     </g>
     <g id="text_25">
      <!-- 60 -->
      <g transform="translate(314.0433 322.182437) scale(0.1 -0.1)">
       <use xlink:href="#DejaVuSans-36"/>
       <use xlink:href="#DejaVuSans-30" x="63.623047"/>
      </g>
     </g>
    </g>
    <g id="xtick_17">
     <g id="line2d_27">
      <g>
       <use xlink:href="#m48bac7d7d0" x="361.501312" y="307.584" style="stroke: #000000; stroke-width: 0.8"/>
      </g>
     </g>
     <g id="text_26">
      <!-- 70 -->
      <g transform="translate(355.138812 322.182437) scale(0.1 -0.1)">
       <use xlink:href="#DejaVuSans-37"/>
       <use xlink:href="#DejaVuSans-30" x="63.623047"/>
      </g>
     </g>
    </g>
    <g id="xtick_18">
     <g id="line2d_28">
      <g>
       <use xlink:href="#m48bac7d7d0" x="402.596824" y="307.584" style="stroke: #000000; stroke-width: 0.8"/>
      </g>
     </g>
     <g id="text_27">
      <!-- 80 -->
      <g transform="translate(396.234324 322.182437) scale(0.1 -0.1)">
       <use xlink:href="#DejaVuSans-38"/>
       <use xlink:href="#DejaVuSans-30" x="63.623047"/>
      </g>
     </g>
    </g>
    <g id="text_28">
     <!-- Number of epoch -->
     <g transform="translate(192.848281 335.860562) scale(0.1 -0.1)">
      <defs>
       <path id="DejaVuSans-4e" d="M 628 4666 
L 1478 4666 
L 3547 763 
L 3547 4666 
L 4159 4666 
L 4159 0 
L 3309 0 
L 1241 3903 
L 1241 0 
L 628 0 
L 628 4666 
z
" transform="scale(0.015625)"/>
       <path id="DejaVuSans-6d" d="M 3328 2828 
Q 3544 3216 3844 3400 
Q 4144 3584 4550 3584 
Q 5097 3584 5394 3201 
Q 5691 2819 5691 2113 
L 5691 0 
L 5113 0 
L 5113 2094 
Q 5113 2597 4934 2840 
Q 4756 3084 4391 3084 
Q 3944 3084 3684 2787 
Q 3425 2491 3425 1978 
L 3425 0 
L 2847 0 
L 2847 2094 
Q 2847 2600 2669 2842 
Q 2491 3084 2119 3084 
Q 1678 3084 1418 2786 
Q 1159 2488 1159 1978 
L 1159 0 
L 581 0 
L 581 3500 
L 1159 3500 
L 1159 2956 
Q 1356 3278 1631 3431 
Q 1906 3584 2284 3584 
Q 2666 3584 2933 3390 
Q 3200 3197 3328 2828 
z
" transform="scale(0.015625)"/>
       <path id="DejaVuSans-62" d="M 3116 1747 
Q 3116 2381 2855 2742 
Q 2594 3103 2138 3103 
Q 1681 3103 1420 2742 
Q 1159 2381 1159 1747 
Q 1159 1113 1420 752 
Q 1681 391 2138 391 
Q 2594 391 2855 752 
Q 3116 1113 3116 1747 
z
M 1159 2969 
Q 1341 3281 1617 3432 
Q 1894 3584 2278 3584 
Q 2916 3584 3314 3078 
Q 3713 2572 3713 1747 
Q 3713 922 3314 415 
Q 2916 -91 2278 -91 
Q 1894 -91 1617 61 
Q 1341 213 1159 525 
L 1159 0 
L 581 0 
L 581 4863 
L 1159 4863 
L 1159 2969 
z
" transform="scale(0.015625)"/>
       <path id="DejaVuSans-65" d="M 3597 1894 
L 3597 1613 
L 953 1613 
Q 991 1019 1311 708 
Q 1631 397 2203 397 
Q 2534 397 2845 478 
Q 3156 559 3463 722 
L 3463 178 
Q 3153 47 2828 -22 
Q 2503 -91 2169 -91 
Q 1331 -91 842 396 
Q 353 884 353 1716 
Q 353 2575 817 3079 
Q 1281 3584 2069 3584 
Q 2775 3584 3186 3129 
Q 3597 2675 3597 1894 
z
M 3022 2063 
Q 3016 2534 2758 2815 
Q 2500 3097 2075 3097 
Q 1594 3097 1305 2825 
Q 1016 2553 972 2059 
L 3022 2063 
z
" transform="scale(0.015625)"/>
       <path id="DejaVuSans-66" d="M 2375 4863 
L 2375 4384 
L 1825 4384 
Q 1516 4384 1395 4259 
Q 1275 4134 1275 3809 
L 1275 3500 
L 2222 3500 
L 2222 3053 
L 1275 3053 
L 1275 0 
L 697 0 
L 697 3053 
L 147 3053 
L 147 3500 
L 697 3500 
L 697 3744 
Q 697 4328 969 4595 
Q 1241 4863 1831 4863 
L 2375 4863 
z
" transform="scale(0.015625)"/>
       <path id="DejaVuSans-70" d="M 1159 525 
L 1159 -1331 
L 581 -1331 
L 581 3500 
L 1159 3500 
L 1159 2969 
Q 1341 3281 1617 3432 
Q 1894 3584 2278 3584 
Q 2916 3584 3314 3078 
Q 3713 2572 3713 1747 
Q 3713 922 3314 415 
Q 2916 -91 2278 -91 
Q 1894 -91 1617 61 
Q 1341 213 1159 525 
z
M 3116 1747 
Q 3116 2381 2855 2742 
Q 2594 3103 2138 3103 
Q 1681 3103 1420 2742 
Q 1159 2381 1159 1747 
Q 1159 1113 1420 752 
Q 1681 391 2138 391 
Q 2594 391 2855 752 
Q 3116 1113 3116 1747 
z
" transform="scale(0.015625)"/>
       <path id="DejaVuSans-68" d="M 3513 2113 
L 3513 0 
L 2938 0 
L 2938 2094 
Q 2938 2591 2744 2837 
Q 2550 3084 2163 3084 
Q 1697 3084 1428 2787 
Q 1159 2491 1159 1978 
L 1159 0 
L 581 0 
L 581 4863 
L 1159 4863 
L 1159 2956 
Q 1366 3272 1645 3428 
Q 1925 3584 2291 3584 
Q 2894 3584 3203 3211 
Q 3513 2838 3513 2113 
z
" transform="scale(0.015625)"/>
      </defs>
      <use xlink:href="#DejaVuSans-4e"/>
      <use xlink:href="#DejaVuSans-75" x="74.804688"/>
      <use xlink:href="#DejaVuSans-6d" x="138.183594"/>
      <use xlink:href="#DejaVuSans-62" x="235.595703"/>
      <use xlink:href="#DejaVuSans-65" x="299.072266"/>
      <use xlink:href="#DejaVuSans-72" x="360.595703"/>
      <use xlink:href="#DejaVuSans-20" x="401.708984"/>
      <use xlink:href="#DejaVuSans-6f" x="433.496094"/>
      <use xlink:href="#DejaVuSans-66" x="494.677734"/>
      <use xlink:href="#DejaVuSans-20" x="529.882812"/>
      <use xlink:href="#DejaVuSans-65" x="561.669922"/>
      <use xlink:href="#DejaVuSans-70" x="623.193359"/>
      <use xlink:href="#DejaVuSans-6f" x="686.669922"/>
      <use xlink:href="#DejaVuSans-63" x="747.851562"/>
      <use xlink:href="#DejaVuSans-68" x="802.832031"/>
     </g>
    </g>
   </g>
   <g id="matplotlib.axis_4">
    <g id="ytick_7">
     <g id="line2d_29">
      <g>
       <use xlink:href="#m72c19c14f4" x="57.6" y="276.237549" style="stroke: #000000; stroke-width: 0.8"/>
      </g>
     </g>
     <g id="text_29">
      <!-- 500% -->
      <g transform="translate(22.010938 280.036768) scale(0.1 -0.1)">
       <use xlink:href="#DejaVuSans-35"/>
       <use xlink:href="#DejaVuSans-30" x="63.623047"/>
       <use xlink:href="#DejaVuSans-30" x="127.246094"/>
       <use xlink:href="#DejaVuSans-25" x="190.869141"/>
      </g>
     </g>
    </g>
    <g id="ytick_8">
     <g id="line2d_30">
      <g>
       <use xlink:href="#m72c19c14f4" x="57.6" y="244.577453" style="stroke: #000000; stroke-width: 0.8"/>
      </g>
     </g>
     <g id="text_30">
      <!-- 1000% -->
      <g transform="translate(15.648438 248.376672) scale(0.1 -0.1)">
       <use xlink:href="#DejaVuSans-31"/>
       <use xlink:href="#DejaVuSans-30" x="63.623047"/>
       <use xlink:href="#DejaVuSans-30" x="127.246094"/>
       <use xlink:href="#DejaVuSans-30" x="190.869141"/>
       <use xlink:href="#DejaVuSans-25" x="254.492188"/>
      </g>
     </g>
    </g>
    <g id="ytick_9">
     <g id="line2d_31">
      <g>
       <use xlink:href="#m72c19c14f4" x="57.6" y="212.917357" style="stroke: #000000; stroke-width: 0.8"/>
      </g>
     </g>
     <g id="text_31">
      <!-- 1500% -->
      <g transform="translate(15.648438 216.716576) scale(0.1 -0.1)">
       <use xlink:href="#DejaVuSans-31"/>
       <use xlink:href="#DejaVuSans-35" x="63.623047"/>
       <use xlink:href="#DejaVuSans-30" x="127.246094"/>
       <use xlink:href="#DejaVuSans-30" x="190.869141"/>
       <use xlink:href="#DejaVuSans-25" x="254.492188"/>
      </g>
     </g>
    </g>
    <g id="text_32">
     <!-- loss -->
     <g transform="translate(9.56875 256.761812) rotate(-90) scale(0.1 -0.1)">
      <defs>
       <path id="DejaVuSans-73" d="M 2834 3397 
L 2834 2853 
Q 2591 2978 2328 3040 
Q 2066 3103 1784 3103 
Q 1356 3103 1142 2972 
Q 928 2841 928 2578 
Q 928 2378 1081 2264 
Q 1234 2150 1697 2047 
L 1894 2003 
Q 2506 1872 2764 1633 
Q 3022 1394 3022 966 
Q 3022 478 2636 193 
Q 2250 -91 1575 -91 
Q 1294 -91 989 -36 
Q 684 19 347 128 
L 347 722 
Q 666 556 975 473 
Q 1284 391 1588 391 
Q 1994 391 2212 530 
Q 2431 669 2431 922 
Q 2431 1156 2273 1281 
Q 2116 1406 1581 1522 
L 1381 1569 
Q 847 1681 609 1914 
Q 372 2147 372 2553 
Q 372 3047 722 3315 
Q 1072 3584 1716 3584 
Q 2034 3584 2315 3537 
Q 2597 3491 2834 3397 
z
" transform="scale(0.015625)"/>
      </defs>
      <use xlink:href="#DejaVuSans-6c"/>
      <use xlink:href="#DejaVuSans-6f" x="27.783203"/>
      <use xlink:href="#DejaVuSans-73" x="88.964844"/>
      <use xlink:href="#DejaVuSans-73" x="141.064453"/>
     </g>
    </g>
   </g>
   <g id="line2d_32">
    <path d="M 73.832727 192.122182 
L 77.942278 233.756735 
L 82.05183 248.361111 
L 86.161381 259.338751 
L 90.270932 266.32908 
L 94.380483 272.423855 
L 98.490035 276.858386 
L 102.599586 280.657452 
L 106.709137 282.596702 
L 110.818688 285.25117 
L 114.928239 287.703579 
L 119.037791 289.784641 
L 123.147342 291.409899 
L 127.256893 293.409008 
L 131.366444 293.503079 
L 135.475995 295.245814 
L 139.585547 295.610412 
L 143.695098 295.43151 
L 147.804649 297.137128 
L 151.9142 297.673438 
L 156.023751 298.079885 
L 160.133303 298.491267 
L 164.242854 298.045578 
L 168.352405 298.108838 
L 172.461956 298.859956 
L 176.571507 299.416436 
L 180.681059 299.296772 
L 184.79061 299.040428 
L 188.900161 299.720564 
L 193.009712 299.761732 
L 197.119264 299.231477 
L 201.228815 299.30691 
L 205.338366 299.837999 
L 209.447917 300.106592 
L 213.557468 299.892091 
L 217.66702 300.142311 
L 221.776571 300.440389 
L 225.886122 300.295539 
L 229.995673 300.037964 
L 234.105224 300.081364 
L 238.214776 300.500812 
L 242.324327 300.233503 
L 246.433878 300.06453 
L 250.543429 299.742095 
L 254.65298 300.479491 
L 258.762532 299.898764 
L 262.872083 299.792872 
L 266.981634 299.637952 
L 271.091185 300.443517 
L 275.200736 301.231487 
L 279.310288 300.701053 
L 283.419839 300.025308 
L 287.52939 299.663875 
L 291.638941 300.150325 
L 295.748493 301.130766 
L 299.858044 301.112145 
L 303.967595 300.95278 
L 308.077146 300.712282 
L 312.186697 300.584153 
L 316.296249 300.955454 
L 320.4058 300.758997 
L 324.515351 300.98869 
L 328.624902 300.89191 
L 332.734453 301.005216 
L 336.844005 301.376251 
L 340.953556 301.546257 
L 345.063107 301.444936 
L 349.172658 301.026776 
L 353.282209 301.379738 
L 357.391761 301.44688 
L 361.501312 300.758685 
L 365.610863 301.298304 
L 369.720414 301.763847 
L 373.829965 302.085818 
L 377.939517 301.20586 
L 382.049068 301.30899 
L 386.158619 301.365645 
L 390.26817 301.09727 
L 394.377722 301.038894 
L 398.487273 301.363964 
" clip-path="url(#p3c386d24f8)" style="fill: none; stroke: #1f77b4; stroke-width: 1.5; stroke-linecap: square"/>
    <g clip-path="url(#p3c386d24f8)">
     <use xlink:href="#mfc0770f15b" x="73.832727" y="192.122182" style="fill: #1f77b4; stroke: #1f77b4"/>
     <use xlink:href="#mfc0770f15b" x="77.942278" y="233.756735" style="fill: #1f77b4; stroke: #1f77b4"/>
     <use xlink:href="#mfc0770f15b" x="82.05183" y="248.361111" style="fill: #1f77b4; stroke: #1f77b4"/>
     <use xlink:href="#mfc0770f15b" x="86.161381" y="259.338751" style="fill: #1f77b4; stroke: #1f77b4"/>
     <use xlink:href="#mfc0770f15b" x="90.270932" y="266.32908" style="fill: #1f77b4; stroke: #1f77b4"/>
     <use xlink:href="#mfc0770f15b" x="94.380483" y="272.423855" style="fill: #1f77b4; stroke: #1f77b4"/>
     <use xlink:href="#mfc0770f15b" x="98.490035" y="276.858386" style="fill: #1f77b4; stroke: #1f77b4"/>
     <use xlink:href="#mfc0770f15b" x="102.599586" y="280.657452" style="fill: #1f77b4; stroke: #1f77b4"/>
     <use xlink:href="#mfc0770f15b" x="106.709137" y="282.596702" style="fill: #1f77b4; stroke: #1f77b4"/>
     <use xlink:href="#mfc0770f15b" x="110.818688" y="285.25117" style="fill: #1f77b4; stroke: #1f77b4"/>
     <use xlink:href="#mfc0770f15b" x="114.928239" y="287.703579" style="fill: #1f77b4; stroke: #1f77b4"/>
     <use xlink:href="#mfc0770f15b" x="119.037791" y="289.784641" style="fill: #1f77b4; stroke: #1f77b4"/>
     <use xlink:href="#mfc0770f15b" x="123.147342" y="291.409899" style="fill: #1f77b4; stroke: #1f77b4"/>
     <use xlink:href="#mfc0770f15b" x="127.256893" y="293.409008" style="fill: #1f77b4; stroke: #1f77b4"/>
     <use xlink:href="#mfc0770f15b" x="131.366444" y="293.503079" style="fill: #1f77b4; stroke: #1f77b4"/>
     <use xlink:href="#mfc0770f15b" x="135.475995" y="295.245814" style="fill: #1f77b4; stroke: #1f77b4"/>
     <use xlink:href="#mfc0770f15b" x="139.585547" y="295.610412" style="fill: #1f77b4; stroke: #1f77b4"/>
     <use xlink:href="#mfc0770f15b" x="143.695098" y="295.43151" style="fill: #1f77b4; stroke: #1f77b4"/>
     <use xlink:href="#mfc0770f15b" x="147.804649" y="297.137128" style="fill: #1f77b4; stroke: #1f77b4"/>
     <use xlink:href="#mfc0770f15b" x="151.9142" y="297.673438" style="fill: #1f77b4; stroke: #1f77b4"/>
     <use xlink:href="#mfc0770f15b" x="156.023751" y="298.079885" style="fill: #1f77b4; stroke: #1f77b4"/>
     <use xlink:href="#mfc0770f15b" x="160.133303" y="298.491267" style="fill: #1f77b4; stroke: #1f77b4"/>
     <use xlink:href="#mfc0770f15b" x="164.242854" y="298.045578" style="fill: #1f77b4; stroke: #1f77b4"/>
     <use xlink:href="#mfc0770f15b" x="168.352405" y="298.108838" style="fill: #1f77b4; stroke: #1f77b4"/>
     <use xlink:href="#mfc0770f15b" x="172.461956" y="298.859956" style="fill: #1f77b4; stroke: #1f77b4"/>
     <use xlink:href="#mfc0770f15b" x="176.571507" y="299.416436" style="fill: #1f77b4; stroke: #1f77b4"/>
     <use xlink:href="#mfc0770f15b" x="180.681059" y="299.296772" style="fill: #1f77b4; stroke: #1f77b4"/>
     <use xlink:href="#mfc0770f15b" x="184.79061" y="299.040428" style="fill: #1f77b4; stroke: #1f77b4"/>
     <use xlink:href="#mfc0770f15b" x="188.900161" y="299.720564" style="fill: #1f77b4; stroke: #1f77b4"/>
     <use xlink:href="#mfc0770f15b" x="193.009712" y="299.761732" style="fill: #1f77b4; stroke: #1f77b4"/>
     <use xlink:href="#mfc0770f15b" x="197.119264" y="299.231477" style="fill: #1f77b4; stroke: #1f77b4"/>
     <use xlink:href="#mfc0770f15b" x="201.228815" y="299.30691" style="fill: #1f77b4; stroke: #1f77b4"/>
     <use xlink:href="#mfc0770f15b" x="205.338366" y="299.837999" style="fill: #1f77b4; stroke: #1f77b4"/>
     <use xlink:href="#mfc0770f15b" x="209.447917" y="300.106592" style="fill: #1f77b4; stroke: #1f77b4"/>
     <use xlink:href="#mfc0770f15b" x="213.557468" y="299.892091" style="fill: #1f77b4; stroke: #1f77b4"/>
     <use xlink:href="#mfc0770f15b" x="217.66702" y="300.142311" style="fill: #1f77b4; stroke: #1f77b4"/>
     <use xlink:href="#mfc0770f15b" x="221.776571" y="300.440389" style="fill: #1f77b4; stroke: #1f77b4"/>
     <use xlink:href="#mfc0770f15b" x="225.886122" y="300.295539" style="fill: #1f77b4; stroke: #1f77b4"/>
     <use xlink:href="#mfc0770f15b" x="229.995673" y="300.037964" style="fill: #1f77b4; stroke: #1f77b4"/>
     <use xlink:href="#mfc0770f15b" x="234.105224" y="300.081364" style="fill: #1f77b4; stroke: #1f77b4"/>
     <use xlink:href="#mfc0770f15b" x="238.214776" y="300.500812" style="fill: #1f77b4; stroke: #1f77b4"/>
     <use xlink:href="#mfc0770f15b" x="242.324327" y="300.233503" style="fill: #1f77b4; stroke: #1f77b4"/>
     <use xlink:href="#mfc0770f15b" x="246.433878" y="300.06453" style="fill: #1f77b4; stroke: #1f77b4"/>
     <use xlink:href="#mfc0770f15b" x="250.543429" y="299.742095" style="fill: #1f77b4; stroke: #1f77b4"/>
     <use xlink:href="#mfc0770f15b" x="254.65298" y="300.479491" style="fill: #1f77b4; stroke: #1f77b4"/>
     <use xlink:href="#mfc0770f15b" x="258.762532" y="299.898764" style="fill: #1f77b4; stroke: #1f77b4"/>
     <use xlink:href="#mfc0770f15b" x="262.872083" y="299.792872" style="fill: #1f77b4; stroke: #1f77b4"/>
     <use xlink:href="#mfc0770f15b" x="266.981634" y="299.637952" style="fill: #1f77b4; stroke: #1f77b4"/>
     <use xlink:href="#mfc0770f15b" x="271.091185" y="300.443517" style="fill: #1f77b4; stroke: #1f77b4"/>
     <use xlink:href="#mfc0770f15b" x="275.200736" y="301.231487" style="fill: #1f77b4; stroke: #1f77b4"/>
     <use xlink:href="#mfc0770f15b" x="279.310288" y="300.701053" style="fill: #1f77b4; stroke: #1f77b4"/>
     <use xlink:href="#mfc0770f15b" x="283.419839" y="300.025308" style="fill: #1f77b4; stroke: #1f77b4"/>
     <use xlink:href="#mfc0770f15b" x="287.52939" y="299.663875" style="fill: #1f77b4; stroke: #1f77b4"/>
     <use xlink:href="#mfc0770f15b" x="291.638941" y="300.150325" style="fill: #1f77b4; stroke: #1f77b4"/>
     <use xlink:href="#mfc0770f15b" x="295.748493" y="301.130766" style="fill: #1f77b4; stroke: #1f77b4"/>
     <use xlink:href="#mfc0770f15b" x="299.858044" y="301.112145" style="fill: #1f77b4; stroke: #1f77b4"/>
     <use xlink:href="#mfc0770f15b" x="303.967595" y="300.95278" style="fill: #1f77b4; stroke: #1f77b4"/>
     <use xlink:href="#mfc0770f15b" x="308.077146" y="300.712282" style="fill: #1f77b4; stroke: #1f77b4"/>
     <use xlink:href="#mfc0770f15b" x="312.186697" y="300.584153" style="fill: #1f77b4; stroke: #1f77b4"/>
     <use xlink:href="#mfc0770f15b" x="316.296249" y="300.955454" style="fill: #1f77b4; stroke: #1f77b4"/>
     <use xlink:href="#mfc0770f15b" x="320.4058" y="300.758997" style="fill: #1f77b4; stroke: #1f77b4"/>
     <use xlink:href="#mfc0770f15b" x="324.515351" y="300.98869" style="fill: #1f77b4; stroke: #1f77b4"/>
     <use xlink:href="#mfc0770f15b" x="328.624902" y="300.89191" style="fill: #1f77b4; stroke: #1f77b4"/>
     <use xlink:href="#mfc0770f15b" x="332.734453" y="301.005216" style="fill: #1f77b4; stroke: #1f77b4"/>
     <use xlink:href="#mfc0770f15b" x="336.844005" y="301.376251" style="fill: #1f77b4; stroke: #1f77b4"/>
     <use xlink:href="#mfc0770f15b" x="340.953556" y="301.546257" style="fill: #1f77b4; stroke: #1f77b4"/>
     <use xlink:href="#mfc0770f15b" x="345.063107" y="301.444936" style="fill: #1f77b4; stroke: #1f77b4"/>
     <use xlink:href="#mfc0770f15b" x="349.172658" y="301.026776" style="fill: #1f77b4; stroke: #1f77b4"/>
     <use xlink:href="#mfc0770f15b" x="353.282209" y="301.379738" style="fill: #1f77b4; stroke: #1f77b4"/>
     <use xlink:href="#mfc0770f15b" x="357.391761" y="301.44688" style="fill: #1f77b4; stroke: #1f77b4"/>
     <use xlink:href="#mfc0770f15b" x="361.501312" y="300.758685" style="fill: #1f77b4; stroke: #1f77b4"/>
     <use xlink:href="#mfc0770f15b" x="365.610863" y="301.298304" style="fill: #1f77b4; stroke: #1f77b4"/>
     <use xlink:href="#mfc0770f15b" x="369.720414" y="301.763847" style="fill: #1f77b4; stroke: #1f77b4"/>
     <use xlink:href="#mfc0770f15b" x="373.829965" y="302.085818" style="fill: #1f77b4; stroke: #1f77b4"/>
     <use xlink:href="#mfc0770f15b" x="377.939517" y="301.20586" style="fill: #1f77b4; stroke: #1f77b4"/>
     <use xlink:href="#mfc0770f15b" x="382.049068" y="301.30899" style="fill: #1f77b4; stroke: #1f77b4"/>
     <use xlink:href="#mfc0770f15b" x="386.158619" y="301.365645" style="fill: #1f77b4; stroke: #1f77b4"/>
     <use xlink:href="#mfc0770f15b" x="390.26817" y="301.09727" style="fill: #1f77b4; stroke: #1f77b4"/>
     <use xlink:href="#mfc0770f15b" x="394.377722" y="301.038894" style="fill: #1f77b4; stroke: #1f77b4"/>
     <use xlink:href="#mfc0770f15b" x="398.487273" y="301.363964" style="fill: #1f77b4; stroke: #1f77b4"/>
    </g>
   </g>
   <g id="line2d_33">
    <path d="M 73.832727 210.459371 
L 77.942278 225.41573 
L 82.05183 243.41465 
L 86.161381 253.454699 
L 90.270932 264.13176 
L 94.380483 270.50204 
L 98.490035 270.94749 
L 102.599586 267.613575 
L 106.709137 279.264606 
L 110.818688 277.284093 
L 114.928239 280.031238 
L 119.037791 283.860532 
L 123.147342 285.965703 
L 127.256893 288.648484 
L 131.366444 289.80651 
L 135.475995 286.863491 
L 139.585547 288.134782 
L 143.695098 289.738678 
L 147.804649 289.112231 
L 151.9142 287.887845 
L 156.023751 292.792034 
L 160.133303 290.708957 
L 164.242854 288.668101 
L 168.352405 287.360036 
L 172.461956 292.498652 
L 176.571507 294.01861 
L 180.681059 293.111087 
L 184.79061 292.151342 
L 188.900161 293.56283 
L 193.009712 294.699085 
L 197.119264 293.711699 
L 201.228815 289.240773 
L 205.338366 293.368543 
L 209.447917 295.790945 
L 213.557468 295.882234 
L 217.66702 295.062798 
L 221.776571 295.6716 
L 225.886122 292.98696 
L 229.995673 295.337941 
L 234.105224 293.477274 
L 238.214776 294.364871 
L 242.324327 293.886253 
L 246.433878 295.961761 
L 250.543429 294.541141 
L 254.65298 295.572361 
L 258.762532 293.968839 
L 262.872083 295.986137 
L 266.981634 295.703087 
L 271.091185 295.942789 
L 275.200736 295.347187 
L 279.310288 294.543884 
L 283.419839 292.650709 
L 287.52939 295.247391 
L 291.638941 296.136637 
L 295.748493 296.222921 
L 299.858044 296.586365 
L 303.967595 292.656839 
L 308.077146 296.182538 
L 312.186697 295.613173 
L 316.296249 297.726971 
L 320.4058 293.820656 
L 324.515351 295.221658 
L 328.624902 294.576213 
L 332.734453 295.115241 
L 336.844005 296.53176 
L 340.953556 293.370996 
L 345.063107 294.804648 
L 349.172658 293.677262 
L 353.282209 294.802345 
L 357.391761 293.051527 
L 361.501312 294.974777 
L 365.610863 294.309089 
L 369.720414 295.789916 
L 373.829965 293.367957 
L 377.939517 291.309421 
L 382.049068 297.282148 
L 386.158619 293.551818 
L 390.26817 294.473365 
L 394.377722 296.445443 
L 398.487273 296.179427 
" clip-path="url(#p3c386d24f8)" style="fill: none; stroke: #ff7f0e; stroke-width: 1.5; stroke-linecap: square"/>
    <g clip-path="url(#p3c386d24f8)">
     <use xlink:href="#m4a2d5f195c" x="73.832727" y="210.459371" style="fill: #ff7f0e; stroke: #ff7f0e"/>
     <use xlink:href="#m4a2d5f195c" x="77.942278" y="225.41573" style="fill: #ff7f0e; stroke: #ff7f0e"/>
     <use xlink:href="#m4a2d5f195c" x="82.05183" y="243.41465" style="fill: #ff7f0e; stroke: #ff7f0e"/>
     <use xlink:href="#m4a2d5f195c" x="86.161381" y="253.454699" style="fill: #ff7f0e; stroke: #ff7f0e"/>
     <use xlink:href="#m4a2d5f195c" x="90.270932" y="264.13176" style="fill: #ff7f0e; stroke: #ff7f0e"/>
     <use xlink:href="#m4a2d5f195c" x="94.380483" y="270.50204" style="fill: #ff7f0e; stroke: #ff7f0e"/>
     <use xlink:href="#m4a2d5f195c" x="98.490035" y="270.94749" style="fill: #ff7f0e; stroke: #ff7f0e"/>
     <use xlink:href="#m4a2d5f195c" x="102.599586" y="267.613575" style="fill: #ff7f0e; stroke: #ff7f0e"/>
     <use xlink:href="#m4a2d5f195c" x="106.709137" y="279.264606" style="fill: #ff7f0e; stroke: #ff7f0e"/>
     <use xlink:href="#m4a2d5f195c" x="110.818688" y="277.284093" style="fill: #ff7f0e; stroke: #ff7f0e"/>
     <use xlink:href="#m4a2d5f195c" x="114.928239" y="280.031238" style="fill: #ff7f0e; stroke: #ff7f0e"/>
     <use xlink:href="#m4a2d5f195c" x="119.037791" y="283.860532" style="fill: #ff7f0e; stroke: #ff7f0e"/>
     <use xlink:href="#m4a2d5f195c" x="123.147342" y="285.965703" style="fill: #ff7f0e; stroke: #ff7f0e"/>
     <use xlink:href="#m4a2d5f195c" x="127.256893" y="288.648484" style="fill: #ff7f0e; stroke: #ff7f0e"/>
     <use xlink:href="#m4a2d5f195c" x="131.366444" y="289.80651" style="fill: #ff7f0e; stroke: #ff7f0e"/>
     <use xlink:href="#m4a2d5f195c" x="135.475995" y="286.863491" style="fill: #ff7f0e; stroke: #ff7f0e"/>
     <use xlink:href="#m4a2d5f195c" x="139.585547" y="288.134782" style="fill: #ff7f0e; stroke: #ff7f0e"/>
     <use xlink:href="#m4a2d5f195c" x="143.695098" y="289.738678" style="fill: #ff7f0e; stroke: #ff7f0e"/>
     <use xlink:href="#m4a2d5f195c" x="147.804649" y="289.112231" style="fill: #ff7f0e; stroke: #ff7f0e"/>
     <use xlink:href="#m4a2d5f195c" x="151.9142" y="287.887845" style="fill: #ff7f0e; stroke: #ff7f0e"/>
     <use xlink:href="#m4a2d5f195c" x="156.023751" y="292.792034" style="fill: #ff7f0e; stroke: #ff7f0e"/>
     <use xlink:href="#m4a2d5f195c" x="160.133303" y="290.708957" style="fill: #ff7f0e; stroke: #ff7f0e"/>
     <use xlink:href="#m4a2d5f195c" x="164.242854" y="288.668101" style="fill: #ff7f0e; stroke: #ff7f0e"/>
     <use xlink:href="#m4a2d5f195c" x="168.352405" y="287.360036" style="fill: #ff7f0e; stroke: #ff7f0e"/>
     <use xlink:href="#m4a2d5f195c" x="172.461956" y="292.498652" style="fill: #ff7f0e; stroke: #ff7f0e"/>
     <use xlink:href="#m4a2d5f195c" x="176.571507" y="294.01861" style="fill: #ff7f0e; stroke: #ff7f0e"/>
     <use xlink:href="#m4a2d5f195c" x="180.681059" y="293.111087" style="fill: #ff7f0e; stroke: #ff7f0e"/>
     <use xlink:href="#m4a2d5f195c" x="184.79061" y="292.151342" style="fill: #ff7f0e; stroke: #ff7f0e"/>
     <use xlink:href="#m4a2d5f195c" x="188.900161" y="293.56283" style="fill: #ff7f0e; stroke: #ff7f0e"/>
     <use xlink:href="#m4a2d5f195c" x="193.009712" y="294.699085" style="fill: #ff7f0e; stroke: #ff7f0e"/>
     <use xlink:href="#m4a2d5f195c" x="197.119264" y="293.711699" style="fill: #ff7f0e; stroke: #ff7f0e"/>
     <use xlink:href="#m4a2d5f195c" x="201.228815" y="289.240773" style="fill: #ff7f0e; stroke: #ff7f0e"/>
     <use xlink:href="#m4a2d5f195c" x="205.338366" y="293.368543" style="fill: #ff7f0e; stroke: #ff7f0e"/>
     <use xlink:href="#m4a2d5f195c" x="209.447917" y="295.790945" style="fill: #ff7f0e; stroke: #ff7f0e"/>
     <use xlink:href="#m4a2d5f195c" x="213.557468" y="295.882234" style="fill: #ff7f0e; stroke: #ff7f0e"/>
     <use xlink:href="#m4a2d5f195c" x="217.66702" y="295.062798" style="fill: #ff7f0e; stroke: #ff7f0e"/>
     <use xlink:href="#m4a2d5f195c" x="221.776571" y="295.6716" style="fill: #ff7f0e; stroke: #ff7f0e"/>
     <use xlink:href="#m4a2d5f195c" x="225.886122" y="292.98696" style="fill: #ff7f0e; stroke: #ff7f0e"/>
     <use xlink:href="#m4a2d5f195c" x="229.995673" y="295.337941" style="fill: #ff7f0e; stroke: #ff7f0e"/>
     <use xlink:href="#m4a2d5f195c" x="234.105224" y="293.477274" style="fill: #ff7f0e; stroke: #ff7f0e"/>
     <use xlink:href="#m4a2d5f195c" x="238.214776" y="294.364871" style="fill: #ff7f0e; stroke: #ff7f0e"/>
     <use xlink:href="#m4a2d5f195c" x="242.324327" y="293.886253" style="fill: #ff7f0e; stroke: #ff7f0e"/>
     <use xlink:href="#m4a2d5f195c" x="246.433878" y="295.961761" style="fill: #ff7f0e; stroke: #ff7f0e"/>
     <use xlink:href="#m4a2d5f195c" x="250.543429" y="294.541141" style="fill: #ff7f0e; stroke: #ff7f0e"/>
     <use xlink:href="#m4a2d5f195c" x="254.65298" y="295.572361" style="fill: #ff7f0e; stroke: #ff7f0e"/>
     <use xlink:href="#m4a2d5f195c" x="258.762532" y="293.968839" style="fill: #ff7f0e; stroke: #ff7f0e"/>
     <use xlink:href="#m4a2d5f195c" x="262.872083" y="295.986137" style="fill: #ff7f0e; stroke: #ff7f0e"/>
     <use xlink:href="#m4a2d5f195c" x="266.981634" y="295.703087" style="fill: #ff7f0e; stroke: #ff7f0e"/>
     <use xlink:href="#m4a2d5f195c" x="271.091185" y="295.942789" style="fill: #ff7f0e; stroke: #ff7f0e"/>
     <use xlink:href="#m4a2d5f195c" x="275.200736" y="295.347187" style="fill: #ff7f0e; stroke: #ff7f0e"/>
     <use xlink:href="#m4a2d5f195c" x="279.310288" y="294.543884" style="fill: #ff7f0e; stroke: #ff7f0e"/>
     <use xlink:href="#m4a2d5f195c" x="283.419839" y="292.650709" style="fill: #ff7f0e; stroke: #ff7f0e"/>
     <use xlink:href="#m4a2d5f195c" x="287.52939" y="295.247391" style="fill: #ff7f0e; stroke: #ff7f0e"/>
     <use xlink:href="#m4a2d5f195c" x="291.638941" y="296.136637" style="fill: #ff7f0e; stroke: #ff7f0e"/>
     <use xlink:href="#m4a2d5f195c" x="295.748493" y="296.222921" style="fill: #ff7f0e; stroke: #ff7f0e"/>
     <use xlink:href="#m4a2d5f195c" x="299.858044" y="296.586365" style="fill: #ff7f0e; stroke: #ff7f0e"/>
     <use xlink:href="#m4a2d5f195c" x="303.967595" y="292.656839" style="fill: #ff7f0e; stroke: #ff7f0e"/>
     <use xlink:href="#m4a2d5f195c" x="308.077146" y="296.182538" style="fill: #ff7f0e; stroke: #ff7f0e"/>
     <use xlink:href="#m4a2d5f195c" x="312.186697" y="295.613173" style="fill: #ff7f0e; stroke: #ff7f0e"/>
     <use xlink:href="#m4a2d5f195c" x="316.296249" y="297.726971" style="fill: #ff7f0e; stroke: #ff7f0e"/>
     <use xlink:href="#m4a2d5f195c" x="320.4058" y="293.820656" style="fill: #ff7f0e; stroke: #ff7f0e"/>
     <use xlink:href="#m4a2d5f195c" x="324.515351" y="295.221658" style="fill: #ff7f0e; stroke: #ff7f0e"/>
     <use xlink:href="#m4a2d5f195c" x="328.624902" y="294.576213" style="fill: #ff7f0e; stroke: #ff7f0e"/>
     <use xlink:href="#m4a2d5f195c" x="332.734453" y="295.115241" style="fill: #ff7f0e; stroke: #ff7f0e"/>
     <use xlink:href="#m4a2d5f195c" x="336.844005" y="296.53176" style="fill: #ff7f0e; stroke: #ff7f0e"/>
     <use xlink:href="#m4a2d5f195c" x="340.953556" y="293.370996" style="fill: #ff7f0e; stroke: #ff7f0e"/>
     <use xlink:href="#m4a2d5f195c" x="345.063107" y="294.804648" style="fill: #ff7f0e; stroke: #ff7f0e"/>
     <use xlink:href="#m4a2d5f195c" x="349.172658" y="293.677262" style="fill: #ff7f0e; stroke: #ff7f0e"/>
     <use xlink:href="#m4a2d5f195c" x="353.282209" y="294.802345" style="fill: #ff7f0e; stroke: #ff7f0e"/>
     <use xlink:href="#m4a2d5f195c" x="357.391761" y="293.051527" style="fill: #ff7f0e; stroke: #ff7f0e"/>
     <use xlink:href="#m4a2d5f195c" x="361.501312" y="294.974777" style="fill: #ff7f0e; stroke: #ff7f0e"/>
     <use xlink:href="#m4a2d5f195c" x="365.610863" y="294.309089" style="fill: #ff7f0e; stroke: #ff7f0e"/>
     <use xlink:href="#m4a2d5f195c" x="369.720414" y="295.789916" style="fill: #ff7f0e; stroke: #ff7f0e"/>
     <use xlink:href="#m4a2d5f195c" x="373.829965" y="293.367957" style="fill: #ff7f0e; stroke: #ff7f0e"/>
     <use xlink:href="#m4a2d5f195c" x="377.939517" y="291.309421" style="fill: #ff7f0e; stroke: #ff7f0e"/>
     <use xlink:href="#m4a2d5f195c" x="382.049068" y="297.282148" style="fill: #ff7f0e; stroke: #ff7f0e"/>
     <use xlink:href="#m4a2d5f195c" x="386.158619" y="293.551818" style="fill: #ff7f0e; stroke: #ff7f0e"/>
     <use xlink:href="#m4a2d5f195c" x="390.26817" y="294.473365" style="fill: #ff7f0e; stroke: #ff7f0e"/>
     <use xlink:href="#m4a2d5f195c" x="394.377722" y="296.445443" style="fill: #ff7f0e; stroke: #ff7f0e"/>
     <use xlink:href="#m4a2d5f195c" x="398.487273" y="296.179427" style="fill: #ff7f0e; stroke: #ff7f0e"/>
    </g>
   </g>
   <g id="patch_9">
    <path d="M 57.6 307.584 
L 57.6 186.624 
" style="fill: none; stroke: #000000; stroke-width: 0.8; stroke-linejoin: miter; stroke-linecap: square"/>
   </g>
   <g id="patch_10">
    <path d="M 414.72 307.584 
L 414.72 186.624 
" style="fill: none; stroke: #000000; stroke-width: 0.8; stroke-linejoin: miter; stroke-linecap: square"/>
   </g>
   <g id="patch_11">
    <path d="M 57.6 307.584 
L 414.72 307.584 
" style="fill: none; stroke: #000000; stroke-width: 0.8; stroke-linejoin: miter; stroke-linecap: square"/>
   </g>
   <g id="patch_12">
    <path d="M 57.6 186.624 
L 414.72 186.624 
" style="fill: none; stroke: #000000; stroke-width: 0.8; stroke-linejoin: miter; stroke-linecap: square"/>
   </g>
   <g id="legend_2">
    <g id="patch_13">
     <path d="M 303.991875 223.98025 
L 407.72 223.98025 
Q 409.72 223.98025 409.72 221.98025 
L 409.72 193.624 
Q 409.72 191.624 407.72 191.624 
L 303.991875 191.624 
Q 301.991875 191.624 301.991875 193.624 
L 301.991875 221.98025 
Q 301.991875 223.98025 303.991875 223.98025 
z
" style="fill: #ffffff; opacity: 0.8; stroke: #cccccc; stroke-linejoin: miter"/>
    </g>
    <g id="line2d_34">
     <path d="M 305.991875 199.722437 
L 315.991875 199.722437 
L 325.991875 199.722437 
" style="fill: none; stroke: #1f77b4; stroke-width: 1.5; stroke-linecap: square"/>
     <g>
      <use xlink:href="#mfc0770f15b" x="315.991875" y="199.722437" style="fill: #1f77b4; stroke: #1f77b4"/>
     </g>
    </g>
    <g id="text_33">
     <!-- training loss -->
     <g transform="translate(333.991875 203.222437) scale(0.1 -0.1)">
      <use xlink:href="#DejaVuSans-74"/>
      <use xlink:href="#DejaVuSans-72" x="39.208984"/>
      <use xlink:href="#DejaVuSans-61" x="80.322266"/>
      <use xlink:href="#DejaVuSans-69" x="141.601562"/>
      <use xlink:href="#DejaVuSans-6e" x="169.384766"/>
      <use xlink:href="#DejaVuSans-69" x="232.763672"/>
      <use xlink:href="#DejaVuSans-6e" x="260.546875"/>
      <use xlink:href="#DejaVuSans-67" x="323.925781"/>
      <use xlink:href="#DejaVuSans-20" x="387.402344"/>
      <use xlink:href="#DejaVuSans-6c" x="419.189453"/>
      <use xlink:href="#DejaVuSans-6f" x="446.972656"/>
      <use xlink:href="#DejaVuSans-73" x="508.154297"/>
      <use xlink:href="#DejaVuSans-73" x="560.253906"/>
     </g>
    </g>
    <g id="line2d_35">
     <path d="M 305.991875 214.400562 
L 315.991875 214.400562 
L 325.991875 214.400562 
" style="fill: none; stroke: #ff7f0e; stroke-width: 1.5; stroke-linecap: square"/>
     <g>
      <use xlink:href="#m4a2d5f195c" x="315.991875" y="214.400562" style="fill: #ff7f0e; stroke: #ff7f0e"/>
     </g>
    </g>
    <g id="text_34">
     <!-- validation loss -->
     <g transform="translate(333.991875 217.900562) scale(0.1 -0.1)">
      <use xlink:href="#DejaVuSans-76"/>
      <use xlink:href="#DejaVuSans-61" x="59.179688"/>
      <use xlink:href="#DejaVuSans-6c" x="120.458984"/>
      <use xlink:href="#DejaVuSans-69" x="148.242188"/>
      <use xlink:href="#DejaVuSans-64" x="176.025391"/>
      <use xlink:href="#DejaVuSans-61" x="239.501953"/>
      <use xlink:href="#DejaVuSans-74" x="300.78125"/>
      <use xlink:href="#DejaVuSans-69" x="339.990234"/>
      <use xlink:href="#DejaVuSans-6f" x="367.773438"/>
      <use xlink:href="#DejaVuSans-6e" x="428.955078"/>
      <use xlink:href="#DejaVuSans-20" x="492.333984"/>
      <use xlink:href="#DejaVuSans-6c" x="524.121094"/>
      <use xlink:href="#DejaVuSans-6f" x="551.904297"/>
      <use xlink:href="#DejaVuSans-73" x="613.085938"/>
      <use xlink:href="#DejaVuSans-73" x="665.185547"/>
     </g>
    </g>
   </g>
  </g>
 </g>
 <defs>
  <clipPath id="p30d413425b">
   <rect x="57.6" y="41.472" width="357.12" height="120.96"/>
  </clipPath>
  <clipPath id="p3c386d24f8">
   <rect x="57.6" y="186.624" width="357.12" height="120.96"/>
  </clipPath>
 </defs>
</svg>
