<?xml version="1.0" encoding="utf-8" standalone="no"?>
<!DOCTYPE svg PUBLIC "-//W3C//DTD SVG 1.1//EN"
  "http://www.w3.org/Graphics/SVG/1.1/DTD/svg11.dtd">
<svg xmlns:xlink="http://www.w3.org/1999/xlink" width="460.8pt" height="345.6pt" viewBox="0 0 460.8 345.6" xmlns="http://www.w3.org/2000/svg" version="1.1">
 <metadata>
  <rdf:RDF xmlns:dc="http://purl.org/dc/elements/1.1/" xmlns:cc="http://creativecommons.org/ns#" xmlns:rdf="http://www.w3.org/1999/02/22-rdf-syntax-ns#">
   <cc:Work>
    <dc:type rdf:resource="http://purl.org/dc/dcmitype/StillImage"/>
    <dc:date>2023-12-18T21:47:27.812938</dc:date>
    <dc:format>image/svg+xml</dc:format>
    <dc:creator>
     <cc:Agent>
      <dc:title>Matplotlib v3.8.0, https://matplotlib.org/</dc:title>
     </cc:Agent>
    </dc:creator>
   </cc:Work>
  </rdf:RDF>
 </metadata>
 <defs>
  <style type="text/css">*{stroke-linejoin: round; stroke-linecap: butt}</style>
 </defs>
 <g id="figure_1">
  <g id="patch_1">
   <path d="M 0 345.6 
L 460.8 345.6 
L 460.8 0 
L 0 0 
z
" style="fill: #ffffff"/>
  </g>
  <g id="axes_1">
   <g id="patch_2">
    <path d="M 57.6 162.432 
L 414.72 162.432 
L 414.72 41.472 
L 57.6 41.472 
z
" style="fill: #ffffff"/>
   </g>
   <g id="matplotlib.axis_1">
    <g id="xtick_1">
     <g id="line2d_1">
      <defs>
       <path id="mf4bf1bbf5c" d="M 0 0 
L 0 3.5 
" style="stroke: #000000; stroke-width: 0.8"/>
      </defs>
      <g>
       <use xlink:href="#mf4bf1bbf5c" x="73.832727" y="162.432" style="stroke: #000000; stroke-width: 0.8"/>
      </g>
     </g>
     <g id="text_1">
      <!-- 0 -->
      <g transform="translate(70.651477 177.030437) scale(0.1 -0.1)">
       <defs>
        <path id="DejaVuSans-30" d="M 2034 4250 
Q 1547 4250 1301 3770 
Q 1056 3291 1056 2328 
Q 1056 1369 1301 889 
Q 1547 409 2034 409 
Q 2525 409 2770 889 
Q 3016 1369 3016 2328 
Q 3016 3291 2770 3770 
Q 2525 4250 2034 4250 
z
M 2034 4750 
Q 2819 4750 3233 4129 
Q 3647 3509 3647 2328 
Q 3647 1150 3233 529 
Q 2819 -91 2034 -91 
Q 1250 -91 836 529 
Q 422 1150 422 2328 
Q 422 3509 836 4129 
Q 1250 4750 2034 4750 
z
" transform="scale(0.015625)"/>
       </defs>
       <use xlink:href="#DejaVuSans-30"/>
      </g>
     </g>
    </g>
    <g id="xtick_2">
     <g id="line2d_2">
      <g>
       <use xlink:href="#mf4bf1bbf5c" x="114.928239" y="162.432" style="stroke: #000000; stroke-width: 0.8"/>
      </g>
     </g>
     <g id="text_2">
      <!-- 10 -->
      <g transform="translate(108.565739 177.030437) scale(0.1 -0.1)">
       <defs>
        <path id="DejaVuSans-31" d="M 794 531 
L 1825 531 
L 1825 4091 
L 703 3866 
L 703 4441 
L 1819 4666 
L 2450 4666 
L 2450 531 
L 3481 531 
L 3481 0 
L 794 0 
L 794 531 
z
" transform="scale(0.015625)"/>
       </defs>
       <use xlink:href="#DejaVuSans-31"/>
       <use xlink:href="#DejaVuSans-30" x="63.623047"/>
      </g>
     </g>
    </g>
    <g id="xtick_3">
     <g id="line2d_3">
      <g>
       <use xlink:href="#mf4bf1bbf5c" x="156.023751" y="162.432" style="stroke: #000000; stroke-width: 0.8"/>
      </g>
     </g>
     <g id="text_3">
      <!-- 20 -->
      <g transform="translate(149.661251 177.030437) scale(0.1 -0.1)">
       <defs>
        <path id="DejaVuSans-32" d="M 1228 531 
L 3431 531 
L 3431 0 
L 469 0 
L 469 531 
Q 828 903 1448 1529 
Q 2069 2156 2228 2338 
Q 2531 2678 2651 2914 
Q 2772 3150 2772 3378 
Q 2772 3750 2511 3984 
Q 2250 4219 1831 4219 
Q 1534 4219 1204 4116 
Q 875 4013 500 3803 
L 500 4441 
Q 881 4594 1212 4672 
Q 1544 4750 1819 4750 
Q 2544 4750 2975 4387 
Q 3406 4025 3406 3419 
Q 3406 3131 3298 2873 
Q 3191 2616 2906 2266 
Q 2828 2175 2409 1742 
Q 1991 1309 1228 531 
z
" transform="scale(0.015625)"/>
       </defs>
       <use xlink:href="#DejaVuSans-32"/>
       <use xlink:href="#DejaVuSans-30" x="63.623047"/>
      </g>
     </g>
    </g>
    <g id="xtick_4">
     <g id="line2d_4">
      <g>
       <use xlink:href="#mf4bf1bbf5c" x="197.119264" y="162.432" style="stroke: #000000; stroke-width: 0.8"/>
      </g>
     </g>
     <g id="text_4">
      <!-- 30 -->
      <g transform="translate(190.756764 177.030437) scale(0.1 -0.1)">
       <defs>
        <path id="DejaVuSans-33" d="M 2597 2516 
Q 3050 2419 3304 2112 
Q 3559 1806 3559 1356 
Q 3559 666 3084 287 
Q 2609 -91 1734 -91 
Q 1441 -91 1130 -33 
Q 819 25 488 141 
L 488 750 
Q 750 597 1062 519 
Q 1375 441 1716 441 
Q 2309 441 2620 675 
Q 2931 909 2931 1356 
Q 2931 1769 2642 2001 
Q 2353 2234 1838 2234 
L 1294 2234 
L 1294 2753 
L 1863 2753 
Q 2328 2753 2575 2939 
Q 2822 3125 2822 3475 
Q 2822 3834 2567 4026 
Q 2313 4219 1838 4219 
Q 1578 4219 1281 4162 
Q 984 4106 628 3988 
L 628 4550 
Q 988 4650 1302 4700 
Q 1616 4750 1894 4750 
Q 2613 4750 3031 4423 
Q 3450 4097 3450 3541 
Q 3450 3153 3228 2886 
Q 3006 2619 2597 2516 
z
" transform="scale(0.015625)"/>
       </defs>
       <use xlink:href="#DejaVuSans-33"/>
       <use xlink:href="#DejaVuSans-30" x="63.623047"/>
      </g>
     </g>
    </g>
    <g id="xtick_5">
     <g id="line2d_5">
      <g>
       <use xlink:href="#mf4bf1bbf5c" x="238.214776" y="162.432" style="stroke: #000000; stroke-width: 0.8"/>
      </g>
     </g>
     <g id="text_5">
      <!-- 40 -->
      <g transform="translate(231.852276 177.030437) scale(0.1 -0.1)">
       <defs>
        <path id="DejaVuSans-34" d="M 2419 4116 
L 825 1625 
L 2419 1625 
L 2419 4116 
z
M 2253 4666 
L 3047 4666 
L 3047 1625 
L 3713 1625 
L 3713 1100 
L 3047 1100 
L 3047 0 
L 2419 0 
L 2419 1100 
L 313 1100 
L 313 1709 
L 2253 4666 
z
" transform="scale(0.015625)"/>
       </defs>
       <use xlink:href="#DejaVuSans-34"/>
       <use xlink:href="#DejaVuSans-30" x="63.623047"/>
      </g>
     </g>
    </g>
    <g id="xtick_6">
     <g id="line2d_6">
      <g>
       <use xlink:href="#mf4bf1bbf5c" x="279.310288" y="162.432" style="stroke: #000000; stroke-width: 0.8"/>
      </g>
     </g>
     <g id="text_6">
      <!-- 50 -->
      <g transform="translate(272.947788 177.030437) scale(0.1 -0.1)">
       <defs>
        <path id="DejaVuSans-35" d="M 691 4666 
L 3169 4666 
L 3169 4134 
L 1269 4134 
L 1269 2991 
Q 1406 3038 1543 3061 
Q 1681 3084 1819 3084 
Q 2600 3084 3056 2656 
Q 3513 2228 3513 1497 
Q 3513 744 3044 326 
Q 2575 -91 1722 -91 
Q 1428 -91 1123 -41 
Q 819 9 494 109 
L 494 744 
Q 775 591 1075 516 
Q 1375 441 1709 441 
Q 2250 441 2565 725 
Q 2881 1009 2881 1497 
Q 2881 1984 2565 2268 
Q 2250 2553 1709 2553 
Q 1456 2553 1204 2497 
Q 953 2441 691 2322 
L 691 4666 
z
" transform="scale(0.015625)"/>
       </defs>
       <use xlink:href="#DejaVuSans-35"/>
       <use xlink:href="#DejaVuSans-30" x="63.623047"/>
      </g>
     </g>
    </g>
    <g id="xtick_7">
     <g id="line2d_7">
      <g>
       <use xlink:href="#mf4bf1bbf5c" x="320.4058" y="162.432" style="stroke: #000000; stroke-width: 0.8"/>
      </g>
     </g>
     <g id="text_7">
      <!-- 60 -->
      <g transform="translate(314.0433 177.030437) scale(0.1 -0.1)">
       <defs>
        <path id="DejaVuSans-36" d="M 2113 2584 
Q 1688 2584 1439 2293 
Q 1191 2003 1191 1497 
Q 1191 994 1439 701 
Q 1688 409 2113 409 
Q 2538 409 2786 701 
Q 3034 994 3034 1497 
Q 3034 2003 2786 2293 
Q 2538 2584 2113 2584 
z
M 3366 4563 
L 3366 3988 
Q 3128 4100 2886 4159 
Q 2644 4219 2406 4219 
Q 1781 4219 1451 3797 
Q 1122 3375 1075 2522 
Q 1259 2794 1537 2939 
Q 1816 3084 2150 3084 
Q 2853 3084 3261 2657 
Q 3669 2231 3669 1497 
Q 3669 778 3244 343 
Q 2819 -91 2113 -91 
Q 1303 -91 875 529 
Q 447 1150 447 2328 
Q 447 3434 972 4092 
Q 1497 4750 2381 4750 
Q 2619 4750 2861 4703 
Q 3103 4656 3366 4563 
z
" transform="scale(0.015625)"/>
       </defs>
       <use xlink:href="#DejaVuSans-36"/>
       <use xlink:href="#DejaVuSans-30" x="63.623047"/>
      </g>
     </g>
    </g>
    <g id="xtick_8">
     <g id="line2d_8">
      <g>
       <use xlink:href="#mf4bf1bbf5c" x="361.501312" y="162.432" style="stroke: #000000; stroke-width: 0.8"/>
      </g>
     </g>
     <g id="text_8">
      <!-- 70 -->
      <g transform="translate(355.138812 177.030437) scale(0.1 -0.1)">
       <defs>
        <path id="DejaVuSans-37" d="M 525 4666 
L 3525 4666 
L 3525 4397 
L 1831 0 
L 1172 0 
L 2766 4134 
L 525 4134 
L 525 4666 
z
" transform="scale(0.015625)"/>
       </defs>
       <use xlink:href="#DejaVuSans-37"/>
       <use xlink:href="#DejaVuSans-30" x="63.623047"/>
      </g>
     </g>
    </g>
    <g id="xtick_9">
     <g id="line2d_9">
      <g>
       <use xlink:href="#mf4bf1bbf5c" x="402.596824" y="162.432" style="stroke: #000000; stroke-width: 0.8"/>
      </g>
     </g>
     <g id="text_9">
      <!-- 80 -->
      <g transform="translate(396.234324 177.030437) scale(0.1 -0.1)">
       <defs>
        <path id="DejaVuSans-38" d="M 2034 2216 
Q 1584 2216 1326 1975 
Q 1069 1734 1069 1313 
Q 1069 891 1326 650 
Q 1584 409 2034 409 
Q 2484 409 2743 651 
Q 3003 894 3003 1313 
Q 3003 1734 2745 1975 
Q 2488 2216 2034 2216 
z
M 1403 2484 
Q 997 2584 770 2862 
Q 544 3141 544 3541 
Q 544 4100 942 4425 
Q 1341 4750 2034 4750 
Q 2731 4750 3128 4425 
Q 3525 4100 3525 3541 
Q 3525 3141 3298 2862 
Q 3072 2584 2669 2484 
Q 3125 2378 3379 2068 
Q 3634 1759 3634 1313 
Q 3634 634 3220 271 
Q 2806 -91 2034 -91 
Q 1263 -91 848 271 
Q 434 634 434 1313 
Q 434 1759 690 2068 
Q 947 2378 1403 2484 
z
M 1172 3481 
Q 1172 3119 1398 2916 
Q 1625 2713 2034 2713 
Q 2441 2713 2670 2916 
Q 2900 3119 2900 3481 
Q 2900 3844 2670 4047 
Q 2441 4250 2034 4250 
Q 1625 4250 1398 4047 
Q 1172 3844 1172 3481 
z
" transform="scale(0.015625)"/>
       </defs>
       <use xlink:href="#DejaVuSans-38"/>
       <use xlink:href="#DejaVuSans-30" x="63.623047"/>
      </g>
     </g>
    </g>
   </g>
   <g id="matplotlib.axis_2">
    <g id="ytick_1">
     <g id="line2d_10">
      <defs>
       <path id="m3acc57d7b7" d="M 0 0 
L -3.5 0 
" style="stroke: #000000; stroke-width: 0.8"/>
      </defs>
      <g>
       <use xlink:href="#m3acc57d7b7" x="57.6" y="162.432" style="stroke: #000000; stroke-width: 0.8"/>
      </g>
     </g>
     <g id="text_10">
      <!-- 50% -->
      <g transform="translate(28.373438 166.231219) scale(0.1 -0.1)">
       <defs>
        <path id="DejaVuSans-25" d="M 4653 2053 
Q 4381 2053 4226 1822 
Q 4072 1591 4072 1178 
Q 4072 772 4226 539 
Q 4381 306 4653 306 
Q 4919 306 5073 539 
Q 5228 772 5228 1178 
Q 5228 1588 5073 1820 
Q 4919 2053 4653 2053 
z
M 4653 2450 
Q 5147 2450 5437 2106 
Q 5728 1763 5728 1178 
Q 5728 594 5436 251 
Q 5144 -91 4653 -91 
Q 4153 -91 3862 251 
Q 3572 594 3572 1178 
Q 3572 1766 3864 2108 
Q 4156 2450 4653 2450 
z
M 1428 4353 
Q 1159 4353 1004 4120 
Q 850 3888 850 3481 
Q 850 3069 1003 2837 
Q 1156 2606 1428 2606 
Q 1700 2606 1854 2837 
Q 2009 3069 2009 3481 
Q 2009 3884 1853 4118 
Q 1697 4353 1428 4353 
z
M 4250 4750 
L 4750 4750 
L 1831 -91 
L 1331 -91 
L 4250 4750 
z
M 1428 4750 
Q 1922 4750 2215 4408 
Q 2509 4066 2509 3481 
Q 2509 2891 2217 2550 
Q 1925 2209 1428 2209 
Q 931 2209 642 2551 
Q 353 2894 353 3481 
Q 353 4063 643 4406 
Q 934 4750 1428 4750 
z
" transform="scale(0.015625)"/>
       </defs>
       <use xlink:href="#DejaVuSans-35"/>
       <use xlink:href="#DejaVuSans-30" x="63.623047"/>
       <use xlink:href="#DejaVuSans-25" x="127.246094"/>
      </g>
     </g>
    </g>
    <g id="ytick_2">
     <g id="line2d_11">
      <g>
       <use xlink:href="#m3acc57d7b7" x="57.6" y="138.24" style="stroke: #000000; stroke-width: 0.8"/>
      </g>
     </g>
     <g id="text_11">
      <!-- 60% -->
      <g transform="translate(28.373438 142.039219) scale(0.1 -0.1)">
       <use xlink:href="#DejaVuSans-36"/>
       <use xlink:href="#DejaVuSans-30" x="63.623047"/>
       <use xlink:href="#DejaVuSans-25" x="127.246094"/>
      </g>
     </g>
    </g>
    <g id="ytick_3">
     <g id="line2d_12">
      <g>
       <use xlink:href="#m3acc57d7b7" x="57.6" y="114.048" style="stroke: #000000; stroke-width: 0.8"/>
      </g>
     </g>
     <g id="text_12">
      <!-- 70% -->
      <g transform="translate(28.373438 117.847219) scale(0.1 -0.1)">
       <use xlink:href="#DejaVuSans-37"/>
       <use xlink:href="#DejaVuSans-30" x="63.623047"/>
       <use xlink:href="#DejaVuSans-25" x="127.246094"/>
      </g>
     </g>
    </g>
    <g id="ytick_4">
     <g id="line2d_13">
      <g>
       <use xlink:href="#m3acc57d7b7" x="57.6" y="89.856" style="stroke: #000000; stroke-width: 0.8"/>
      </g>
     </g>
     <g id="text_13">
      <!-- 80% -->
      <g transform="translate(28.373438 93.655219) scale(0.1 -0.1)">
       <use xlink:href="#DejaVuSans-38"/>
       <use xlink:href="#DejaVuSans-30" x="63.623047"/>
       <use xlink:href="#DejaVuSans-25" x="127.246094"/>
      </g>
     </g>
    </g>
    <g id="ytick_5">
     <g id="line2d_14">
      <g>
       <use xlink:href="#m3acc57d7b7" x="57.6" y="65.664" style="stroke: #000000; stroke-width: 0.8"/>
      </g>
     </g>
     <g id="text_14">
      <!-- 90% -->
      <g transform="translate(28.373438 69.463219) scale(0.1 -0.1)">
       <defs>
        <path id="DejaVuSans-39" d="M 703 97 
L 703 672 
Q 941 559 1184 500 
Q 1428 441 1663 441 
Q 2288 441 2617 861 
Q 2947 1281 2994 2138 
Q 2813 1869 2534 1725 
Q 2256 1581 1919 1581 
Q 1219 1581 811 2004 
Q 403 2428 403 3163 
Q 403 3881 828 4315 
Q 1253 4750 1959 4750 
Q 2769 4750 3195 4129 
Q 3622 3509 3622 2328 
Q 3622 1225 3098 567 
Q 2575 -91 1691 -91 
Q 1453 -91 1209 -44 
Q 966 3 703 97 
z
M 1959 2075 
Q 2384 2075 2632 2365 
Q 2881 2656 2881 3163 
Q 2881 3666 2632 3958 
Q 2384 4250 1959 4250 
Q 1534 4250 1286 3958 
Q 1038 3666 1038 3163 
Q 1038 2656 1286 2365 
Q 1534 2075 1959 2075 
z
" transform="scale(0.015625)"/>
       </defs>
       <use xlink:href="#DejaVuSans-39"/>
       <use xlink:href="#DejaVuSans-30" x="63.623047"/>
       <use xlink:href="#DejaVuSans-25" x="127.246094"/>
      </g>
     </g>
    </g>
    <g id="ytick_6">
     <g id="line2d_15">
      <g>
       <use xlink:href="#m3acc57d7b7" x="57.6" y="41.472" style="stroke: #000000; stroke-width: 0.8"/>
      </g>
     </g>
     <g id="text_15">
      <!-- 100% -->
      <g transform="translate(22.010938 45.271219) scale(0.1 -0.1)">
       <use xlink:href="#DejaVuSans-31"/>
       <use xlink:href="#DejaVuSans-30" x="63.623047"/>
       <use xlink:href="#DejaVuSans-30" x="127.246094"/>
       <use xlink:href="#DejaVuSans-25" x="190.869141"/>
      </g>
     </g>
    </g>
    <g id="text_16">
     <!-- Accuracy -->
     <g transform="translate(15.93125 124.780125) rotate(-90) scale(0.1 -0.1)">
      <defs>
       <path id="DejaVuSans-41" d="M 2188 4044 
L 1331 1722 
L 3047 1722 
L 2188 4044 
z
M 1831 4666 
L 2547 4666 
L 4325 0 
L 3669 0 
L 3244 1197 
L 1141 1197 
L 716 0 
L 50 0 
L 1831 4666 
z
" transform="scale(0.015625)"/>
       <path id="DejaVuSans-63" d="M 3122 3366 
L 3122 2828 
Q 2878 2963 2633 3030 
Q 2388 3097 2138 3097 
Q 1578 3097 1268 2742 
Q 959 2388 959 1747 
Q 959 1106 1268 751 
Q 1578 397 2138 397 
Q 2388 397 2633 464 
Q 2878 531 3122 666 
L 3122 134 
Q 2881 22 2623 -34 
Q 2366 -91 2075 -91 
Q 1284 -91 818 406 
Q 353 903 353 1747 
Q 353 2603 823 3093 
Q 1294 3584 2113 3584 
Q 2378 3584 2631 3529 
Q 2884 3475 3122 3366 
z
" transform="scale(0.015625)"/>
       <path id="DejaVuSans-75" d="M 544 1381 
L 544 3500 
L 1119 3500 
L 1119 1403 
Q 1119 906 1312 657 
Q 1506 409 1894 409 
Q 2359 409 2629 706 
Q 2900 1003 2900 1516 
L 2900 3500 
L 3475 3500 
L 3475 0 
L 2900 0 
L 2900 538 
Q 2691 219 2414 64 
Q 2138 -91 1772 -91 
Q 1169 -91 856 284 
Q 544 659 544 1381 
z
M 1991 3584 
L 1991 3584 
z
" transform="scale(0.015625)"/>
       <path id="DejaVuSans-72" d="M 2631 2963 
Q 2534 3019 2420 3045 
Q 2306 3072 2169 3072 
Q 1681 3072 1420 2755 
Q 1159 2438 1159 1844 
L 1159 0 
L 581 0 
L 581 3500 
L 1159 3500 
L 1159 2956 
Q 1341 3275 1631 3429 
Q 1922 3584 2338 3584 
Q 2397 3584 2469 3576 
Q 2541 3569 2628 3553 
L 2631 2963 
z
" transform="scale(0.015625)"/>
       <path id="DejaVuSans-61" d="M 2194 1759 
Q 1497 1759 1228 1600 
Q 959 1441 959 1056 
Q 959 750 1161 570 
Q 1363 391 1709 391 
Q 2188 391 2477 730 
Q 2766 1069 2766 1631 
L 2766 1759 
L 2194 1759 
z
M 3341 1997 
L 3341 0 
L 2766 0 
L 2766 531 
Q 2569 213 2275 61 
Q 1981 -91 1556 -91 
Q 1019 -91 701 211 
Q 384 513 384 1019 
Q 384 1609 779 1909 
Q 1175 2209 1959 2209 
L 2766 2209 
L 2766 2266 
Q 2766 2663 2505 2880 
Q 2244 3097 1772 3097 
Q 1472 3097 1187 3025 
Q 903 2953 641 2809 
L 641 3341 
Q 956 3463 1253 3523 
Q 1550 3584 1831 3584 
Q 2591 3584 2966 3190 
Q 3341 2797 3341 1997 
z
" transform="scale(0.015625)"/>
       <path id="DejaVuSans-79" d="M 2059 -325 
Q 1816 -950 1584 -1140 
Q 1353 -1331 966 -1331 
L 506 -1331 
L 506 -850 
L 844 -850 
Q 1081 -850 1212 -737 
Q 1344 -625 1503 -206 
L 1606 56 
L 191 3500 
L 800 3500 
L 1894 763 
L 2988 3500 
L 3597 3500 
L 2059 -325 
z
" transform="scale(0.015625)"/>
      </defs>
      <use xlink:href="#DejaVuSans-41"/>
      <use xlink:href="#DejaVuSans-63" x="66.658203"/>
      <use xlink:href="#DejaVuSans-63" x="121.638672"/>
      <use xlink:href="#DejaVuSans-75" x="176.619141"/>
      <use xlink:href="#DejaVuSans-72" x="239.998047"/>
      <use xlink:href="#DejaVuSans-61" x="281.111328"/>
      <use xlink:href="#DejaVuSans-63" x="342.390625"/>
      <use xlink:href="#DejaVuSans-79" x="397.371094"/>
     </g>
    </g>
   </g>
   <g id="line2d_16">
    <path d="M 73.832727 158.033459 
L 77.942278 107.450177 
L 82.05183 95.720733 
L 86.161381 93.521448 
L 90.270932 94.987643 
L 94.380483 80.325824 
L 98.490035 86.190546 
L 102.599586 73.773823 
L 106.709137 80.325824 
L 110.818688 74.461088 
L 114.928239 83.991275 
L 119.037791 70.795637 
L 123.147342 91.322178 
L 127.256893 92.788358 
L 131.366444 80.646544 
L 135.475995 78.126539 
L 139.585547 72.994908 
L 143.695098 72.994908 
L 147.804649 71.528727 
L 151.9142 75.927269 
L 156.023751 81.792005 
L 160.133303 72.994908 
L 164.242854 72.994908 
L 168.352405 74.461088 
L 172.461956 64.930916 
L 176.571507 70.795637 
L 180.681059 75.194178 
L 184.79061 79.592734 
L 188.900161 77.393449 
L 193.009712 65.664006 
L 197.119264 75.927269 
L 201.228815 75.194178 
L 205.338366 74.461088 
L 209.447917 68.596367 
L 213.557468 72.994908 
L 217.66702 73.727998 
L 221.776571 73.727998 
L 225.886122 74.461088 
L 229.995673 78.126539 
L 234.105224 78.126539 
L 238.214776 72.994908 
L 242.324327 74.461088 
L 246.433878 74.461088 
L 250.543429 69.329457 
L 254.65298 66.397096 
L 258.762532 64.930916 
L 262.872083 67.863276 
L 266.981634 66.397096 
L 271.091185 71.528727 
L 275.200736 73.727998 
L 279.310288 60.715632 
L 283.419839 80.325824 
L 287.52939 73.727998 
L 291.638941 72.261818 
L 295.748493 69.329457 
L 299.858044 73.727998 
L 303.967595 67.130186 
L 308.077146 69.329457 
L 312.186697 78.126539 
L 316.296249 70.795637 
L 320.4058 66.397096 
L 324.515351 76.660359 
L 328.624902 66.397096 
L 332.734453 70.795637 
L 336.844005 67.863276 
L 340.953556 74.461088 
L 345.063107 68.962912 
L 349.172658 66.397096 
L 353.282209 77.393449 
L 357.391761 70.795637 
L 361.501312 78.85963 
L 365.610863 78.126539 
L 369.720414 67.863276 
L 373.829965 79.592734 
L 377.939517 78.584721 
L 382.049068 78.85963 
L 386.158619 73.773823 
L 390.26817 76.660359 
L 394.377722 81.792005 
L 398.487273 73.727998 
" clip-path="url(#p407f853d0c)" style="fill: none; stroke: #1f77b4; stroke-width: 1.5; stroke-linecap: square"/>
    <defs>
     <path id="ma8361b9386" d="M 0 3 
C 0.795609 3 1.55874 2.683901 2.12132 2.12132 
C 2.683901 1.55874 3 0.795609 3 0 
C 3 -0.795609 2.683901 -1.55874 2.12132 -2.12132 
C 1.55874 -2.683901 0.795609 -3 0 -3 
C -0.795609 -3 -1.55874 -2.683901 -2.12132 -2.12132 
C -2.683901 -1.55874 -3 -0.795609 -3 0 
C -3 0.795609 -2.683901 1.55874 -2.12132 2.12132 
C -1.55874 2.683901 -0.795609 3 0 3 
z
" style="stroke: #1f77b4"/>
    </defs>
    <g clip-path="url(#p407f853d0c)">
     <use xlink:href="#ma8361b9386" x="73.832727" y="158.033459" style="fill: #1f77b4; stroke: #1f77b4"/>
     <use xlink:href="#ma8361b9386" x="77.942278" y="107.450177" style="fill: #1f77b4; stroke: #1f77b4"/>
     <use xlink:href="#ma8361b9386" x="82.05183" y="95.720733" style="fill: #1f77b4; stroke: #1f77b4"/>
     <use xlink:href="#ma8361b9386" x="86.161381" y="93.521448" style="fill: #1f77b4; stroke: #1f77b4"/>
     <use xlink:href="#ma8361b9386" x="90.270932" y="94.987643" style="fill: #1f77b4; stroke: #1f77b4"/>
     <use xlink:href="#ma8361b9386" x="94.380483" y="80.325824" style="fill: #1f77b4; stroke: #1f77b4"/>
     <use xlink:href="#ma8361b9386" x="98.490035" y="86.190546" style="fill: #1f77b4; stroke: #1f77b4"/>
     <use xlink:href="#ma8361b9386" x="102.599586" y="73.773823" style="fill: #1f77b4; stroke: #1f77b4"/>
     <use xlink:href="#ma8361b9386" x="106.709137" y="80.325824" style="fill: #1f77b4; stroke: #1f77b4"/>
     <use xlink:href="#ma8361b9386" x="110.818688" y="74.461088" style="fill: #1f77b4; stroke: #1f77b4"/>
     <use xlink:href="#ma8361b9386" x="114.928239" y="83.991275" style="fill: #1f77b4; stroke: #1f77b4"/>
     <use xlink:href="#ma8361b9386" x="119.037791" y="70.795637" style="fill: #1f77b4; stroke: #1f77b4"/>
     <use xlink:href="#ma8361b9386" x="123.147342" y="91.322178" style="fill: #1f77b4; stroke: #1f77b4"/>
     <use xlink:href="#ma8361b9386" x="127.256893" y="92.788358" style="fill: #1f77b4; stroke: #1f77b4"/>
     <use xlink:href="#ma8361b9386" x="131.366444" y="80.646544" style="fill: #1f77b4; stroke: #1f77b4"/>
     <use xlink:href="#ma8361b9386" x="135.475995" y="78.126539" style="fill: #1f77b4; stroke: #1f77b4"/>
     <use xlink:href="#ma8361b9386" x="139.585547" y="72.994908" style="fill: #1f77b4; stroke: #1f77b4"/>
     <use xlink:href="#ma8361b9386" x="143.695098" y="72.994908" style="fill: #1f77b4; stroke: #1f77b4"/>
     <use xlink:href="#ma8361b9386" x="147.804649" y="71.528727" style="fill: #1f77b4; stroke: #1f77b4"/>
     <use xlink:href="#ma8361b9386" x="151.9142" y="75.927269" style="fill: #1f77b4; stroke: #1f77b4"/>
     <use xlink:href="#ma8361b9386" x="156.023751" y="81.792005" style="fill: #1f77b4; stroke: #1f77b4"/>
     <use xlink:href="#ma8361b9386" x="160.133303" y="72.994908" style="fill: #1f77b4; stroke: #1f77b4"/>
     <use xlink:href="#ma8361b9386" x="164.242854" y="72.994908" style="fill: #1f77b4; stroke: #1f77b4"/>
     <use xlink:href="#ma8361b9386" x="168.352405" y="74.461088" style="fill: #1f77b4; stroke: #1f77b4"/>
     <use xlink:href="#ma8361b9386" x="172.461956" y="64.930916" style="fill: #1f77b4; stroke: #1f77b4"/>
     <use xlink:href="#ma8361b9386" x="176.571507" y="70.795637" style="fill: #1f77b4; stroke: #1f77b4"/>
     <use xlink:href="#ma8361b9386" x="180.681059" y="75.194178" style="fill: #1f77b4; stroke: #1f77b4"/>
     <use xlink:href="#ma8361b9386" x="184.79061" y="79.592734" style="fill: #1f77b4; stroke: #1f77b4"/>
     <use xlink:href="#ma8361b9386" x="188.900161" y="77.393449" style="fill: #1f77b4; stroke: #1f77b4"/>
     <use xlink:href="#ma8361b9386" x="193.009712" y="65.664006" style="fill: #1f77b4; stroke: #1f77b4"/>
     <use xlink:href="#ma8361b9386" x="197.119264" y="75.927269" style="fill: #1f77b4; stroke: #1f77b4"/>
     <use xlink:href="#ma8361b9386" x="201.228815" y="75.194178" style="fill: #1f77b4; stroke: #1f77b4"/>
     <use xlink:href="#ma8361b9386" x="205.338366" y="74.461088" style="fill: #1f77b4; stroke: #1f77b4"/>
     <use xlink:href="#ma8361b9386" x="209.447917" y="68.596367" style="fill: #1f77b4; stroke: #1f77b4"/>
     <use xlink:href="#ma8361b9386" x="213.557468" y="72.994908" style="fill: #1f77b4; stroke: #1f77b4"/>
     <use xlink:href="#ma8361b9386" x="217.66702" y="73.727998" style="fill: #1f77b4; stroke: #1f77b4"/>
     <use xlink:href="#ma8361b9386" x="221.776571" y="73.727998" style="fill: #1f77b4; stroke: #1f77b4"/>
     <use xlink:href="#ma8361b9386" x="225.886122" y="74.461088" style="fill: #1f77b4; stroke: #1f77b4"/>
     <use xlink:href="#ma8361b9386" x="229.995673" y="78.126539" style="fill: #1f77b4; stroke: #1f77b4"/>
     <use xlink:href="#ma8361b9386" x="234.105224" y="78.126539" style="fill: #1f77b4; stroke: #1f77b4"/>
     <use xlink:href="#ma8361b9386" x="238.214776" y="72.994908" style="fill: #1f77b4; stroke: #1f77b4"/>
     <use xlink:href="#ma8361b9386" x="242.324327" y="74.461088" style="fill: #1f77b4; stroke: #1f77b4"/>
     <use xlink:href="#ma8361b9386" x="246.433878" y="74.461088" style="fill: #1f77b4; stroke: #1f77b4"/>
     <use xlink:href="#ma8361b9386" x="250.543429" y="69.329457" style="fill: #1f77b4; stroke: #1f77b4"/>
     <use xlink:href="#ma8361b9386" x="254.65298" y="66.397096" style="fill: #1f77b4; stroke: #1f77b4"/>
     <use xlink:href="#ma8361b9386" x="258.762532" y="64.930916" style="fill: #1f77b4; stroke: #1f77b4"/>
     <use xlink:href="#ma8361b9386" x="262.872083" y="67.863276" style="fill: #1f77b4; stroke: #1f77b4"/>
     <use xlink:href="#ma8361b9386" x="266.981634" y="66.397096" style="fill: #1f77b4; stroke: #1f77b4"/>
     <use xlink:href="#ma8361b9386" x="271.091185" y="71.528727" style="fill: #1f77b4; stroke: #1f77b4"/>
     <use xlink:href="#ma8361b9386" x="275.200736" y="73.727998" style="fill: #1f77b4; stroke: #1f77b4"/>
     <use xlink:href="#ma8361b9386" x="279.310288" y="60.715632" style="fill: #1f77b4; stroke: #1f77b4"/>
     <use xlink:href="#ma8361b9386" x="283.419839" y="80.325824" style="fill: #1f77b4; stroke: #1f77b4"/>
     <use xlink:href="#ma8361b9386" x="287.52939" y="73.727998" style="fill: #1f77b4; stroke: #1f77b4"/>
     <use xlink:href="#ma8361b9386" x="291.638941" y="72.261818" style="fill: #1f77b4; stroke: #1f77b4"/>
     <use xlink:href="#ma8361b9386" x="295.748493" y="69.329457" style="fill: #1f77b4; stroke: #1f77b4"/>
     <use xlink:href="#ma8361b9386" x="299.858044" y="73.727998" style="fill: #1f77b4; stroke: #1f77b4"/>
     <use xlink:href="#ma8361b9386" x="303.967595" y="67.130186" style="fill: #1f77b4; stroke: #1f77b4"/>
     <use xlink:href="#ma8361b9386" x="308.077146" y="69.329457" style="fill: #1f77b4; stroke: #1f77b4"/>
     <use xlink:href="#ma8361b9386" x="312.186697" y="78.126539" style="fill: #1f77b4; stroke: #1f77b4"/>
     <use xlink:href="#ma8361b9386" x="316.296249" y="70.795637" style="fill: #1f77b4; stroke: #1f77b4"/>
     <use xlink:href="#ma8361b9386" x="320.4058" y="66.397096" style="fill: #1f77b4; stroke: #1f77b4"/>
     <use xlink:href="#ma8361b9386" x="324.515351" y="76.660359" style="fill: #1f77b4; stroke: #1f77b4"/>
     <use xlink:href="#ma8361b9386" x="328.624902" y="66.397096" style="fill: #1f77b4; stroke: #1f77b4"/>
     <use xlink:href="#ma8361b9386" x="332.734453" y="70.795637" style="fill: #1f77b4; stroke: #1f77b4"/>
     <use xlink:href="#ma8361b9386" x="336.844005" y="67.863276" style="fill: #1f77b4; stroke: #1f77b4"/>
     <use xlink:href="#ma8361b9386" x="340.953556" y="74.461088" style="fill: #1f77b4; stroke: #1f77b4"/>
     <use xlink:href="#ma8361b9386" x="345.063107" y="68.962912" style="fill: #1f77b4; stroke: #1f77b4"/>
     <use xlink:href="#ma8361b9386" x="349.172658" y="66.397096" style="fill: #1f77b4; stroke: #1f77b4"/>
     <use xlink:href="#ma8361b9386" x="353.282209" y="77.393449" style="fill: #1f77b4; stroke: #1f77b4"/>
     <use xlink:href="#ma8361b9386" x="357.391761" y="70.795637" style="fill: #1f77b4; stroke: #1f77b4"/>
     <use xlink:href="#ma8361b9386" x="361.501312" y="78.85963" style="fill: #1f77b4; stroke: #1f77b4"/>
     <use xlink:href="#ma8361b9386" x="365.610863" y="78.126539" style="fill: #1f77b4; stroke: #1f77b4"/>
     <use xlink:href="#ma8361b9386" x="369.720414" y="67.863276" style="fill: #1f77b4; stroke: #1f77b4"/>
     <use xlink:href="#ma8361b9386" x="373.829965" y="79.592734" style="fill: #1f77b4; stroke: #1f77b4"/>
     <use xlink:href="#ma8361b9386" x="377.939517" y="78.584721" style="fill: #1f77b4; stroke: #1f77b4"/>
     <use xlink:href="#ma8361b9386" x="382.049068" y="78.85963" style="fill: #1f77b4; stroke: #1f77b4"/>
     <use xlink:href="#ma8361b9386" x="386.158619" y="73.773823" style="fill: #1f77b4; stroke: #1f77b4"/>
     <use xlink:href="#ma8361b9386" x="390.26817" y="76.660359" style="fill: #1f77b4; stroke: #1f77b4"/>
     <use xlink:href="#ma8361b9386" x="394.377722" y="81.792005" style="fill: #1f77b4; stroke: #1f77b4"/>
     <use xlink:href="#ma8361b9386" x="398.487273" y="73.727998" style="fill: #1f77b4; stroke: #1f77b4"/>
    </g>
   </g>
   <g id="line2d_17">
    <path d="M 73.832727 217.871998 
L 77.942278 154.872 
L 82.05183 159.911995 
L 86.161381 152.351995 
L 90.270932 109.512 
L 94.380483 142.272005 
L 98.490035 119.592005 
L 102.599586 129.671995 
L 106.709137 119.592005 
L 110.818688 127.152005 
L 114.928239 124.632 
L 119.037791 117.072 
L 123.147342 132.192 
L 127.256893 142.272005 
L 131.366444 137.231995 
L 135.475995 159.911995 
L 139.585547 144.791995 
L 143.695098 132.192 
L 147.804649 122.111995 
L 151.9142 117.072 
L 156.023751 142.272005 
L 160.133303 142.272005 
L 164.242854 119.592005 
L 168.352405 114.551995 
L 172.461956 139.752 
L 176.571507 119.592005 
L 180.681059 149.832005 
L 184.79061 149.832005 
L 188.900161 119.592005 
L 193.009712 132.192 
L 197.119264 129.671995 
L 201.228815 127.152005 
L 205.338366 119.592005 
L 209.447917 129.671995 
L 213.557468 127.152005 
L 217.66702 112.032005 
L 221.776571 147.312 
L 225.886122 134.712005 
L 229.995673 119.592005 
L 234.105224 117.072 
L 238.214776 152.351995 
L 242.324327 159.911995 
L 246.433878 139.752 
L 250.543429 157.392005 
L 254.65298 122.111995 
L 258.762532 149.832005 
L 262.872083 96.912005 
L 266.981634 127.152005 
L 271.091185 109.512 
L 275.200736 119.592005 
L 279.310288 94.392 
L 283.419839 127.152005 
L 287.52939 127.152005 
L 291.638941 154.872 
L 295.748493 152.351995 
L 299.858044 144.791995 
L 303.967595 175.032002 
L 308.077146 127.152005 
L 312.186697 139.752 
L 316.296249 157.392005 
L 320.4058 129.671995 
L 324.515351 124.632 
L 328.624902 129.671995 
L 332.734453 119.592005 
L 336.844005 132.192 
L 340.953556 139.752 
L 345.063107 112.032005 
L 349.172658 117.072 
L 353.282209 149.832005 
L 357.391761 139.752 
L 361.501312 124.632 
L 365.610863 122.111995 
L 369.720414 129.671995 
L 373.829965 137.231995 
L 377.939517 117.072 
L 382.049068 167.472002 
L 386.158619 112.032005 
L 390.26817 177.552 
L 394.377722 159.911995 
L 398.487273 144.791995 
" clip-path="url(#p407f853d0c)" style="fill: none; stroke: #ff7f0e; stroke-width: 1.5; stroke-linecap: square"/>
    <defs>
     <path id="m5fe98eeb6b" d="M 0 3 
C 0.795609 3 1.55874 2.683901 2.12132 2.12132 
C 2.683901 1.55874 3 0.795609 3 0 
C 3 -0.795609 2.683901 -1.55874 2.12132 -2.12132 
C 1.55874 -2.683901 0.795609 -3 0 -3 
C -0.795609 -3 -1.55874 -2.683901 -2.12132 -2.12132 
C -2.683901 -1.55874 -3 -0.795609 -3 0 
C -3 0.795609 -2.683901 1.55874 -2.12132 2.12132 
C -1.55874 2.683901 -0.795609 3 0 3 
z
" style="stroke: #ff7f0e"/>
    </defs>
    <g clip-path="url(#p407f853d0c)">
     <use xlink:href="#m5fe98eeb6b" x="73.832727" y="217.871998" style="fill: #ff7f0e; stroke: #ff7f0e"/>
     <use xlink:href="#m5fe98eeb6b" x="77.942278" y="154.872" style="fill: #ff7f0e; stroke: #ff7f0e"/>
     <use xlink:href="#m5fe98eeb6b" x="82.05183" y="159.911995" style="fill: #ff7f0e; stroke: #ff7f0e"/>
     <use xlink:href="#m5fe98eeb6b" x="86.161381" y="152.351995" style="fill: #ff7f0e; stroke: #ff7f0e"/>
     <use xlink:href="#m5fe98eeb6b" x="90.270932" y="109.512" style="fill: #ff7f0e; stroke: #ff7f0e"/>
     <use xlink:href="#m5fe98eeb6b" x="94.380483" y="142.272005" style="fill: #ff7f0e; stroke: #ff7f0e"/>
     <use xlink:href="#m5fe98eeb6b" x="98.490035" y="119.592005" style="fill: #ff7f0e; stroke: #ff7f0e"/>
     <use xlink:href="#m5fe98eeb6b" x="102.599586" y="129.671995" style="fill: #ff7f0e; stroke: #ff7f0e"/>
     <use xlink:href="#m5fe98eeb6b" x="106.709137" y="119.592005" style="fill: #ff7f0e; stroke: #ff7f0e"/>
     <use xlink:href="#m5fe98eeb6b" x="110.818688" y="127.152005" style="fill: #ff7f0e; stroke: #ff7f0e"/>
     <use xlink:href="#m5fe98eeb6b" x="114.928239" y="124.632" style="fill: #ff7f0e; stroke: #ff7f0e"/>
     <use xlink:href="#m5fe98eeb6b" x="119.037791" y="117.072" style="fill: #ff7f0e; stroke: #ff7f0e"/>
     <use xlink:href="#m5fe98eeb6b" x="123.147342" y="132.192" style="fill: #ff7f0e; stroke: #ff7f0e"/>
     <use xlink:href="#m5fe98eeb6b" x="127.256893" y="142.272005" style="fill: #ff7f0e; stroke: #ff7f0e"/>
     <use xlink:href="#m5fe98eeb6b" x="131.366444" y="137.231995" style="fill: #ff7f0e; stroke: #ff7f0e"/>
     <use xlink:href="#m5fe98eeb6b" x="135.475995" y="159.911995" style="fill: #ff7f0e; stroke: #ff7f0e"/>
     <use xlink:href="#m5fe98eeb6b" x="139.585547" y="144.791995" style="fill: #ff7f0e; stroke: #ff7f0e"/>
     <use xlink:href="#m5fe98eeb6b" x="143.695098" y="132.192" style="fill: #ff7f0e; stroke: #ff7f0e"/>
     <use xlink:href="#m5fe98eeb6b" x="147.804649" y="122.111995" style="fill: #ff7f0e; stroke: #ff7f0e"/>
     <use xlink:href="#m5fe98eeb6b" x="151.9142" y="117.072" style="fill: #ff7f0e; stroke: #ff7f0e"/>
     <use xlink:href="#m5fe98eeb6b" x="156.023751" y="142.272005" style="fill: #ff7f0e; stroke: #ff7f0e"/>
     <use xlink:href="#m5fe98eeb6b" x="160.133303" y="142.272005" style="fill: #ff7f0e; stroke: #ff7f0e"/>
     <use xlink:href="#m5fe98eeb6b" x="164.242854" y="119.592005" style="fill: #ff7f0e; stroke: #ff7f0e"/>
     <use xlink:href="#m5fe98eeb6b" x="168.352405" y="114.551995" style="fill: #ff7f0e; stroke: #ff7f0e"/>
     <use xlink:href="#m5fe98eeb6b" x="172.461956" y="139.752" style="fill: #ff7f0e; stroke: #ff7f0e"/>
     <use xlink:href="#m5fe98eeb6b" x="176.571507" y="119.592005" style="fill: #ff7f0e; stroke: #ff7f0e"/>
     <use xlink:href="#m5fe98eeb6b" x="180.681059" y="149.832005" style="fill: #ff7f0e; stroke: #ff7f0e"/>
     <use xlink:href="#m5fe98eeb6b" x="184.79061" y="149.832005" style="fill: #ff7f0e; stroke: #ff7f0e"/>
     <use xlink:href="#m5fe98eeb6b" x="188.900161" y="119.592005" style="fill: #ff7f0e; stroke: #ff7f0e"/>
     <use xlink:href="#m5fe98eeb6b" x="193.009712" y="132.192" style="fill: #ff7f0e; stroke: #ff7f0e"/>
     <use xlink:href="#m5fe98eeb6b" x="197.119264" y="129.671995" style="fill: #ff7f0e; stroke: #ff7f0e"/>
     <use xlink:href="#m5fe98eeb6b" x="201.228815" y="127.152005" style="fill: #ff7f0e; stroke: #ff7f0e"/>
     <use xlink:href="#m5fe98eeb6b" x="205.338366" y="119.592005" style="fill: #ff7f0e; stroke: #ff7f0e"/>
     <use xlink:href="#m5fe98eeb6b" x="209.447917" y="129.671995" style="fill: #ff7f0e; stroke: #ff7f0e"/>
     <use xlink:href="#m5fe98eeb6b" x="213.557468" y="127.152005" style="fill: #ff7f0e; stroke: #ff7f0e"/>
     <use xlink:href="#m5fe98eeb6b" x="217.66702" y="112.032005" style="fill: #ff7f0e; stroke: #ff7f0e"/>
     <use xlink:href="#m5fe98eeb6b" x="221.776571" y="147.312" style="fill: #ff7f0e; stroke: #ff7f0e"/>
     <use xlink:href="#m5fe98eeb6b" x="225.886122" y="134.712005" style="fill: #ff7f0e; stroke: #ff7f0e"/>
     <use xlink:href="#m5fe98eeb6b" x="229.995673" y="119.592005" style="fill: #ff7f0e; stroke: #ff7f0e"/>
     <use xlink:href="#m5fe98eeb6b" x="234.105224" y="117.072" style="fill: #ff7f0e; stroke: #ff7f0e"/>
     <use xlink:href="#m5fe98eeb6b" x="238.214776" y="152.351995" style="fill: #ff7f0e; stroke: #ff7f0e"/>
     <use xlink:href="#m5fe98eeb6b" x="242.324327" y="159.911995" style="fill: #ff7f0e; stroke: #ff7f0e"/>
     <use xlink:href="#m5fe98eeb6b" x="246.433878" y="139.752" style="fill: #ff7f0e; stroke: #ff7f0e"/>
     <use xlink:href="#m5fe98eeb6b" x="250.543429" y="157.392005" style="fill: #ff7f0e; stroke: #ff7f0e"/>
     <use xlink:href="#m5fe98eeb6b" x="254.65298" y="122.111995" style="fill: #ff7f0e; stroke: #ff7f0e"/>
     <use xlink:href="#m5fe98eeb6b" x="258.762532" y="149.832005" style="fill: #ff7f0e; stroke: #ff7f0e"/>
     <use xlink:href="#m5fe98eeb6b" x="262.872083" y="96.912005" style="fill: #ff7f0e; stroke: #ff7f0e"/>
     <use xlink:href="#m5fe98eeb6b" x="266.981634" y="127.152005" style="fill: #ff7f0e; stroke: #ff7f0e"/>
     <use xlink:href="#m5fe98eeb6b" x="271.091185" y="109.512" style="fill: #ff7f0e; stroke: #ff7f0e"/>
     <use xlink:href="#m5fe98eeb6b" x="275.200736" y="119.592005" style="fill: #ff7f0e; stroke: #ff7f0e"/>
     <use xlink:href="#m5fe98eeb6b" x="279.310288" y="94.392" style="fill: #ff7f0e; stroke: #ff7f0e"/>
     <use xlink:href="#m5fe98eeb6b" x="283.419839" y="127.152005" style="fill: #ff7f0e; stroke: #ff7f0e"/>
     <use xlink:href="#m5fe98eeb6b" x="287.52939" y="127.152005" style="fill: #ff7f0e; stroke: #ff7f0e"/>
     <use xlink:href="#m5fe98eeb6b" x="291.638941" y="154.872" style="fill: #ff7f0e; stroke: #ff7f0e"/>
     <use xlink:href="#m5fe98eeb6b" x="295.748493" y="152.351995" style="fill: #ff7f0e; stroke: #ff7f0e"/>
     <use xlink:href="#m5fe98eeb6b" x="299.858044" y="144.791995" style="fill: #ff7f0e; stroke: #ff7f0e"/>
     <use xlink:href="#m5fe98eeb6b" x="303.967595" y="175.032002" style="fill: #ff7f0e; stroke: #ff7f0e"/>
     <use xlink:href="#m5fe98eeb6b" x="308.077146" y="127.152005" style="fill: #ff7f0e; stroke: #ff7f0e"/>
     <use xlink:href="#m5fe98eeb6b" x="312.186697" y="139.752" style="fill: #ff7f0e; stroke: #ff7f0e"/>
     <use xlink:href="#m5fe98eeb6b" x="316.296249" y="157.392005" style="fill: #ff7f0e; stroke: #ff7f0e"/>
     <use xlink:href="#m5fe98eeb6b" x="320.4058" y="129.671995" style="fill: #ff7f0e; stroke: #ff7f0e"/>
     <use xlink:href="#m5fe98eeb6b" x="324.515351" y="124.632" style="fill: #ff7f0e; stroke: #ff7f0e"/>
     <use xlink:href="#m5fe98eeb6b" x="328.624902" y="129.671995" style="fill: #ff7f0e; stroke: #ff7f0e"/>
     <use xlink:href="#m5fe98eeb6b" x="332.734453" y="119.592005" style="fill: #ff7f0e; stroke: #ff7f0e"/>
     <use xlink:href="#m5fe98eeb6b" x="336.844005" y="132.192" style="fill: #ff7f0e; stroke: #ff7f0e"/>
     <use xlink:href="#m5fe98eeb6b" x="340.953556" y="139.752" style="fill: #ff7f0e; stroke: #ff7f0e"/>
     <use xlink:href="#m5fe98eeb6b" x="345.063107" y="112.032005" style="fill: #ff7f0e; stroke: #ff7f0e"/>
     <use xlink:href="#m5fe98eeb6b" x="349.172658" y="117.072" style="fill: #ff7f0e; stroke: #ff7f0e"/>
     <use xlink:href="#m5fe98eeb6b" x="353.282209" y="149.832005" style="fill: #ff7f0e; stroke: #ff7f0e"/>
     <use xlink:href="#m5fe98eeb6b" x="357.391761" y="139.752" style="fill: #ff7f0e; stroke: #ff7f0e"/>
     <use xlink:href="#m5fe98eeb6b" x="361.501312" y="124.632" style="fill: #ff7f0e; stroke: #ff7f0e"/>
     <use xlink:href="#m5fe98eeb6b" x="365.610863" y="122.111995" style="fill: #ff7f0e; stroke: #ff7f0e"/>
     <use xlink:href="#m5fe98eeb6b" x="369.720414" y="129.671995" style="fill: #ff7f0e; stroke: #ff7f0e"/>
     <use xlink:href="#m5fe98eeb6b" x="373.829965" y="137.231995" style="fill: #ff7f0e; stroke: #ff7f0e"/>
     <use xlink:href="#m5fe98eeb6b" x="377.939517" y="117.072" style="fill: #ff7f0e; stroke: #ff7f0e"/>
     <use xlink:href="#m5fe98eeb6b" x="382.049068" y="167.472002" style="fill: #ff7f0e; stroke: #ff7f0e"/>
     <use xlink:href="#m5fe98eeb6b" x="386.158619" y="112.032005" style="fill: #ff7f0e; stroke: #ff7f0e"/>
     <use xlink:href="#m5fe98eeb6b" x="390.26817" y="177.552" style="fill: #ff7f0e; stroke: #ff7f0e"/>
     <use xlink:href="#m5fe98eeb6b" x="394.377722" y="159.911995" style="fill: #ff7f0e; stroke: #ff7f0e"/>
     <use xlink:href="#m5fe98eeb6b" x="398.487273" y="144.791995" style="fill: #ff7f0e; stroke: #ff7f0e"/>
    </g>
   </g>
   <g id="patch_3">
    <path d="M 57.6 162.432 
L 57.6 41.472 
" style="fill: none; stroke: #000000; stroke-width: 0.8; stroke-linejoin: miter; stroke-linecap: square"/>
   </g>
   <g id="patch_4">
    <path d="M 414.72 162.432 
L 414.72 41.472 
" style="fill: none; stroke: #000000; stroke-width: 0.8; stroke-linejoin: miter; stroke-linecap: square"/>
   </g>
   <g id="patch_5">
    <path d="M 57.6 162.432 
L 414.72 162.432 
" style="fill: none; stroke: #000000; stroke-width: 0.8; stroke-linejoin: miter; stroke-linecap: square"/>
   </g>
   <g id="patch_6">
    <path d="M 57.6 41.472 
L 414.72 41.472 
" style="fill: none; stroke: #000000; stroke-width: 0.8; stroke-linejoin: miter; stroke-linecap: square"/>
   </g>
   <g id="legend_1">
    <g id="patch_7">
     <path d="M 278.18875 118.130125 
L 407.72 118.130125 
Q 409.72 118.130125 409.72 116.130125 
L 409.72 87.773875 
Q 409.72 85.773875 407.72 85.773875 
L 278.18875 85.773875 
Q 276.18875 85.773875 276.18875 87.773875 
L 276.18875 116.130125 
Q 276.18875 118.130125 278.18875 118.130125 
z
" style="fill: #ffffff; opacity: 0.8; stroke: #cccccc; stroke-linejoin: miter"/>
    </g>
    <g id="line2d_18">
     <path d="M 280.18875 93.872312 
L 290.18875 93.872312 
L 300.18875 93.872312 
" style="fill: none; stroke: #1f77b4; stroke-width: 1.5; stroke-linecap: square"/>
     <g>
      <use xlink:href="#ma8361b9386" x="290.18875" y="93.872312" style="fill: #1f77b4; stroke: #1f77b4"/>
     </g>
    </g>
    <g id="text_17">
     <!-- training accuracy -->
     <g transform="translate(308.18875 97.372312) scale(0.1 -0.1)">
      <defs>
       <path id="DejaVuSans-74" d="M 1172 4494 
L 1172 3500 
L 2356 3500 
L 2356 3053 
L 1172 3053 
L 1172 1153 
Q 1172 725 1289 603 
Q 1406 481 1766 481 
L 2356 481 
L 2356 0 
L 1766 0 
Q 1100 0 847 248 
Q 594 497 594 1153 
L 594 3053 
L 172 3053 
L 172 3500 
L 594 3500 
L 594 4494 
L 1172 4494 
z
" transform="scale(0.015625)"/>
       <path id="DejaVuSans-69" d="M 603 3500 
L 1178 3500 
L 1178 0 
L 603 0 
L 603 3500 
z
M 603 4863 
L 1178 4863 
L 1178 4134 
L 603 4134 
L 603 4863 
z
" transform="scale(0.015625)"/>
       <path id="DejaVuSans-6e" d="M 3513 2113 
L 3513 0 
L 2938 0 
L 2938 2094 
Q 2938 2591 2744 2837 
Q 2550 3084 2163 3084 
Q 1697 3084 1428 2787 
Q 1159 2491 1159 1978 
L 1159 0 
L 581 0 
L 581 3500 
L 1159 3500 
L 1159 2956 
Q 1366 3272 1645 3428 
Q 1925 3584 2291 3584 
Q 2894 3584 3203 3211 
Q 3513 2838 3513 2113 
z
" transform="scale(0.015625)"/>
       <path id="DejaVuSans-67" d="M 2906 1791 
Q 2906 2416 2648 2759 
Q 2391 3103 1925 3103 
Q 1463 3103 1205 2759 
Q 947 2416 947 1791 
Q 947 1169 1205 825 
Q 1463 481 1925 481 
Q 2391 481 2648 825 
Q 2906 1169 2906 1791 
z
M 3481 434 
Q 3481 -459 3084 -895 
Q 2688 -1331 1869 -1331 
Q 1566 -1331 1297 -1286 
Q 1028 -1241 775 -1147 
L 775 -588 
Q 1028 -725 1275 -790 
Q 1522 -856 1778 -856 
Q 2344 -856 2625 -561 
Q 2906 -266 2906 331 
L 2906 616 
Q 2728 306 2450 153 
Q 2172 0 1784 0 
Q 1141 0 747 490 
Q 353 981 353 1791 
Q 353 2603 747 3093 
Q 1141 3584 1784 3584 
Q 2172 3584 2450 3431 
Q 2728 3278 2906 2969 
L 2906 3500 
L 3481 3500 
L 3481 434 
z
" transform="scale(0.015625)"/>
       <path id="DejaVuSans-20" transform="scale(0.015625)"/>
      </defs>
      <use xlink:href="#DejaVuSans-74"/>
      <use xlink:href="#DejaVuSans-72" x="39.208984"/>
      <use xlink:href="#DejaVuSans-61" x="80.322266"/>
      <use xlink:href="#DejaVuSans-69" x="141.601562"/>
      <use xlink:href="#DejaVuSans-6e" x="169.384766"/>
      <use xlink:href="#DejaVuSans-69" x="232.763672"/>
      <use xlink:href="#DejaVuSans-6e" x="260.546875"/>
      <use xlink:href="#DejaVuSans-67" x="323.925781"/>
      <use xlink:href="#DejaVuSans-20" x="387.402344"/>
      <use xlink:href="#DejaVuSans-61" x="419.189453"/>
      <use xlink:href="#DejaVuSans-63" x="480.46875"/>
      <use xlink:href="#DejaVuSans-63" x="535.449219"/>
      <use xlink:href="#DejaVuSans-75" x="590.429688"/>
      <use xlink:href="#DejaVuSans-72" x="653.808594"/>
      <use xlink:href="#DejaVuSans-61" x="694.921875"/>
      <use xlink:href="#DejaVuSans-63" x="756.201172"/>
      <use xlink:href="#DejaVuSans-79" x="811.181641"/>
     </g>
    </g>
    <g id="line2d_19">
     <path d="M 280.18875 108.550437 
L 290.18875 108.550437 
L 300.18875 108.550437 
" style="fill: none; stroke: #ff7f0e; stroke-width: 1.5; stroke-linecap: square"/>
     <g>
      <use xlink:href="#m5fe98eeb6b" x="290.18875" y="108.550437" style="fill: #ff7f0e; stroke: #ff7f0e"/>
     </g>
    </g>
    <g id="text_18">
     <!-- validation accuracy -->
     <g transform="translate(308.18875 112.050437) scale(0.1 -0.1)">
      <defs>
       <path id="DejaVuSans-76" d="M 191 3500 
L 800 3500 
L 1894 563 
L 2988 3500 
L 3597 3500 
L 2284 0 
L 1503 0 
L 191 3500 
z
" transform="scale(0.015625)"/>
       <path id="DejaVuSans-6c" d="M 603 4863 
L 1178 4863 
L 1178 0 
L 603 0 
L 603 4863 
z
" transform="scale(0.015625)"/>
       <path id="DejaVuSans-64" d="M 2906 2969 
L 2906 4863 
L 3481 4863 
L 3481 0 
L 2906 0 
L 2906 525 
Q 2725 213 2448 61 
Q 2172 -91 1784 -91 
Q 1150 -91 751 415 
Q 353 922 353 1747 
Q 353 2572 751 3078 
Q 1150 3584 1784 3584 
Q 2172 3584 2448 3432 
Q 2725 3281 2906 2969 
z
M 947 1747 
Q 947 1113 1208 752 
Q 1469 391 1925 391 
Q 2381 391 2643 752 
Q 2906 1113 2906 1747 
Q 2906 2381 2643 2742 
Q 2381 3103 1925 3103 
Q 1469 3103 1208 2742 
Q 947 2381 947 1747 
z
" transform="scale(0.015625)"/>
       <path id="DejaVuSans-6f" d="M 1959 3097 
Q 1497 3097 1228 2736 
Q 959 2375 959 1747 
Q 959 1119 1226 758 
Q 1494 397 1959 397 
Q 2419 397 2687 759 
Q 2956 1122 2956 1747 
Q 2956 2369 2687 2733 
Q 2419 3097 1959 3097 
z
M 1959 3584 
Q 2709 3584 3137 3096 
Q 3566 2609 3566 1747 
Q 3566 888 3137 398 
Q 2709 -91 1959 -91 
Q 1206 -91 779 398 
Q 353 888 353 1747 
Q 353 2609 779 3096 
Q 1206 3584 1959 3584 
z
" transform="scale(0.015625)"/>
      </defs>
      <use xlink:href="#DejaVuSans-76"/>
      <use xlink:href="#DejaVuSans-61" x="59.179688"/>
      <use xlink:href="#DejaVuSans-6c" x="120.458984"/>
      <use xlink:href="#DejaVuSans-69" x="148.242188"/>
      <use xlink:href="#DejaVuSans-64" x="176.025391"/>
      <use xlink:href="#DejaVuSans-61" x="239.501953"/>
      <use xlink:href="#DejaVuSans-74" x="300.78125"/>
      <use xlink:href="#DejaVuSans-69" x="339.990234"/>
      <use xlink:href="#DejaVuSans-6f" x="367.773438"/>
      <use xlink:href="#DejaVuSans-6e" x="428.955078"/>
      <use xlink:href="#DejaVuSans-20" x="492.333984"/>
      <use xlink:href="#DejaVuSans-61" x="524.121094"/>
      <use xlink:href="#DejaVuSans-63" x="585.400391"/>
      <use xlink:href="#DejaVuSans-63" x="640.380859"/>
      <use xlink:href="#DejaVuSans-75" x="695.361328"/>
      <use xlink:href="#DejaVuSans-72" x="758.740234"/>
      <use xlink:href="#DejaVuSans-61" x="799.853516"/>
      <use xlink:href="#DejaVuSans-63" x="861.132812"/>
      <use xlink:href="#DejaVuSans-79" x="916.113281"/>
     </g>
    </g>
   </g>
  </g>
  <g id="axes_2">
   <g id="patch_8">
    <path d="M 57.6 307.584 
L 414.72 307.584 
L 414.72 186.624 
L 57.6 186.624 
z
" style="fill: #ffffff"/>
   </g>
   <g id="matplotlib.axis_3">
    <g id="xtick_10">
     <g id="line2d_20">
      <g>
       <use xlink:href="#mf4bf1bbf5c" x="73.832727" y="307.584" style="stroke: #000000; stroke-width: 0.8"/>
      </g>
     </g>
     <g id="text_19">
      <!-- 0 -->
      <g transform="translate(70.651477 322.182437) scale(0.1 -0.1)">
       <use xlink:href="#DejaVuSans-30"/>
      </g>
     </g>
    </g>
    <g id="xtick_11">
     <g id="line2d_21">
      <g>
       <use xlink:href="#mf4bf1bbf5c" x="114.928239" y="307.584" style="stroke: #000000; stroke-width: 0.8"/>
      </g>
     </g>
     <g id="text_20">
      <!-- 10 -->
      <g transform="translate(108.565739 322.182437) scale(0.1 -0.1)">
       <use xlink:href="#DejaVuSans-31"/>
       <use xlink:href="#DejaVuSans-30" x="63.623047"/>
      </g>
     </g>
    </g>
    <g id="xtick_12">
     <g id="line2d_22">
      <g>
       <use xlink:href="#mf4bf1bbf5c" x="156.023751" y="307.584" style="stroke: #000000; stroke-width: 0.8"/>
      </g>
     </g>
     <g id="text_21">
      <!-- 20 -->
      <g transform="translate(149.661251 322.182437) scale(0.1 -0.1)">
       <use xlink:href="#DejaVuSans-32"/>
       <use xlink:href="#DejaVuSans-30" x="63.623047"/>
      </g>
     </g>
    </g>
    <g id="xtick_13">
     <g id="line2d_23">
      <g>
       <use xlink:href="#mf4bf1bbf5c" x="197.119264" y="307.584" style="stroke: #000000; stroke-width: 0.8"/>
      </g>
     </g>
     <g id="text_22">
      <!-- 30 -->
      <g transform="translate(190.756764 322.182437) scale(0.1 -0.1)">
       <use xlink:href="#DejaVuSans-33"/>
       <use xlink:href="#DejaVuSans-30" x="63.623047"/>
      </g>
     </g>
    </g>
    <g id="xtick_14">
     <g id="line2d_24">
      <g>
       <use xlink:href="#mf4bf1bbf5c" x="238.214776" y="307.584" style="stroke: #000000; stroke-width: 0.8"/>
      </g>
     </g>
     <g id="text_23">
      <!-- 40 -->
      <g transform="translate(231.852276 322.182437) scale(0.1 -0.1)">
       <use xlink:href="#DejaVuSans-34"/>
       <use xlink:href="#DejaVuSans-30" x="63.623047"/>
      </g>
     </g>
    </g>
    <g id="xtick_15">
     <g id="line2d_25">
      <g>
       <use xlink:href="#mf4bf1bbf5c" x="279.310288" y="307.584" style="stroke: #000000; stroke-width: 0.8"/>
      </g>
     </g>
     <g id="text_24">
      <!-- 50 -->
      <g transform="translate(272.947788 322.182437) scale(0.1 -0.1)">
       <use xlink:href="#DejaVuSans-35"/>
       <use xlink:href="#DejaVuSans-30" x="63.623047"/>
      </g>
     </g>
    </g>
    <g id="xtick_16">
     <g id="line2d_26">
      <g>
       <use xlink:href="#mf4bf1bbf5c" x="320.4058" y="307.584" style="stroke: #000000; stroke-width: 0.8"/>
      </g>
     </g>
     <g id="text_25">
      <!-- 60 -->
      <g transform="translate(314.0433 322.182437) scale(0.1 -0.1)">
       <use xlink:href="#DejaVuSans-36"/>
       <use xlink:href="#DejaVuSans-30" x="63.623047"/>
      </g>
     </g>
    </g>
    <g id="xtick_17">
     <g id="line2d_27">
      <g>
       <use xlink:href="#mf4bf1bbf5c" x="361.501312" y="307.584" style="stroke: #000000; stroke-width: 0.8"/>
      </g>
     </g>
     <g id="text_26">
      <!-- 70 -->
      <g transform="translate(355.138812 322.182437) scale(0.1 -0.1)">
       <use xlink:href="#DejaVuSans-37"/>
       <use xlink:href="#DejaVuSans-30" x="63.623047"/>
      </g>
     </g>
    </g>
    <g id="xtick_18">
     <g id="line2d_28">
      <g>
       <use xlink:href="#mf4bf1bbf5c" x="402.596824" y="307.584" style="stroke: #000000; stroke-width: 0.8"/>
      </g>
     </g>
     <g id="text_27">
      <!-- 80 -->
      <g transform="translate(396.234324 322.182437) scale(0.1 -0.1)">
       <use xlink:href="#DejaVuSans-38"/>
       <use xlink:href="#DejaVuSans-30" x="63.623047"/>
      </g>
     </g>
    </g>
    <g id="text_28">
     <!-- Number of epoch -->
     <g transform="translate(192.848281 335.860562) scale(0.1 -0.1)">
      <defs>
       <path id="DejaVuSans-4e" d="M 628 4666 
L 1478 4666 
L 3547 763 
L 3547 4666 
L 4159 4666 
L 4159 0 
L 3309 0 
L 1241 3903 
L 1241 0 
L 628 0 
L 628 4666 
z
" transform="scale(0.015625)"/>
       <path id="DejaVuSans-6d" d="M 3328 2828 
Q 3544 3216 3844 3400 
Q 4144 3584 4550 3584 
Q 5097 3584 5394 3201 
Q 5691 2819 5691 2113 
L 5691 0 
L 5113 0 
L 5113 2094 
Q 5113 2597 4934 2840 
Q 4756 3084 4391 3084 
Q 3944 3084 3684 2787 
Q 3425 2491 3425 1978 
L 3425 0 
L 2847 0 
L 2847 2094 
Q 2847 2600 2669 2842 
Q 2491 3084 2119 3084 
Q 1678 3084 1418 2786 
Q 1159 2488 1159 1978 
L 1159 0 
L 581 0 
L 581 3500 
L 1159 3500 
L 1159 2956 
Q 1356 3278 1631 3431 
Q 1906 3584 2284 3584 
Q 2666 3584 2933 3390 
Q 3200 3197 3328 2828 
z
" transform="scale(0.015625)"/>
       <path id="DejaVuSans-62" d="M 3116 1747 
Q 3116 2381 2855 2742 
Q 2594 3103 2138 3103 
Q 1681 3103 1420 2742 
Q 1159 2381 1159 1747 
Q 1159 1113 1420 752 
Q 1681 391 2138 391 
Q 2594 391 2855 752 
Q 3116 1113 3116 1747 
z
M 1159 2969 
Q 1341 3281 1617 3432 
Q 1894 3584 2278 3584 
Q 2916 3584 3314 3078 
Q 3713 2572 3713 1747 
Q 3713 922 3314 415 
Q 2916 -91 2278 -91 
Q 1894 -91 1617 61 
Q 1341 213 1159 525 
L 1159 0 
L 581 0 
L 581 4863 
L 1159 4863 
L 1159 2969 
z
" transform="scale(0.015625)"/>
       <path id="DejaVuSans-65" d="M 3597 1894 
L 3597 1613 
L 953 1613 
Q 991 1019 1311 708 
Q 1631 397 2203 397 
Q 2534 397 2845 478 
Q 3156 559 3463 722 
L 3463 178 
Q 3153 47 2828 -22 
Q 2503 -91 2169 -91 
Q 1331 -91 842 396 
Q 353 884 353 1716 
Q 353 2575 817 3079 
Q 1281 3584 2069 3584 
Q 2775 3584 3186 3129 
Q 3597 2675 3597 1894 
z
M 3022 2063 
Q 3016 2534 2758 2815 
Q 2500 3097 2075 3097 
Q 1594 3097 1305 2825 
Q 1016 2553 972 2059 
L 3022 2063 
z
" transform="scale(0.015625)"/>
       <path id="DejaVuSans-66" d="M 2375 4863 
L 2375 4384 
L 1825 4384 
Q 1516 4384 1395 4259 
Q 1275 4134 1275 3809 
L 1275 3500 
L 2222 3500 
L 2222 3053 
L 1275 3053 
L 1275 0 
L 697 0 
L 697 3053 
L 147 3053 
L 147 3500 
L 697 3500 
L 697 3744 
Q 697 4328 969 4595 
Q 1241 4863 1831 4863 
L 2375 4863 
z
" transform="scale(0.015625)"/>
       <path id="DejaVuSans-70" d="M 1159 525 
L 1159 -1331 
L 581 -1331 
L 581 3500 
L 1159 3500 
L 1159 2969 
Q 1341 3281 1617 3432 
Q 1894 3584 2278 3584 
Q 2916 3584 3314 3078 
Q 3713 2572 3713 1747 
Q 3713 922 3314 415 
Q 2916 -91 2278 -91 
Q 1894 -91 1617 61 
Q 1341 213 1159 525 
z
M 3116 1747 
Q 3116 2381 2855 2742 
Q 2594 3103 2138 3103 
Q 1681 3103 1420 2742 
Q 1159 2381 1159 1747 
Q 1159 1113 1420 752 
Q 1681 391 2138 391 
Q 2594 391 2855 752 
Q 3116 1113 3116 1747 
z
" transform="scale(0.015625)"/>
       <path id="DejaVuSans-68" d="M 3513 2113 
L 3513 0 
L 2938 0 
L 2938 2094 
Q 2938 2591 2744 2837 
Q 2550 3084 2163 3084 
Q 1697 3084 1428 2787 
Q 1159 2491 1159 1978 
L 1159 0 
L 581 0 
L 581 4863 
L 1159 4863 
L 1159 2956 
Q 1366 3272 1645 3428 
Q 1925 3584 2291 3584 
Q 2894 3584 3203 3211 
Q 3513 2838 3513 2113 
z
" transform="scale(0.015625)"/>
      </defs>
      <use xlink:href="#DejaVuSans-4e"/>
      <use xlink:href="#DejaVuSans-75" x="74.804688"/>
      <use xlink:href="#DejaVuSans-6d" x="138.183594"/>
      <use xlink:href="#DejaVuSans-62" x="235.595703"/>
      <use xlink:href="#DejaVuSans-65" x="299.072266"/>
      <use xlink:href="#DejaVuSans-72" x="360.595703"/>
      <use xlink:href="#DejaVuSans-20" x="401.708984"/>
      <use xlink:href="#DejaVuSans-6f" x="433.496094"/>
      <use xlink:href="#DejaVuSans-66" x="494.677734"/>
      <use xlink:href="#DejaVuSans-20" x="529.882812"/>
      <use xlink:href="#DejaVuSans-65" x="561.669922"/>
      <use xlink:href="#DejaVuSans-70" x="623.193359"/>
      <use xlink:href="#DejaVuSans-6f" x="686.669922"/>
      <use xlink:href="#DejaVuSans-63" x="747.851562"/>
      <use xlink:href="#DejaVuSans-68" x="802.832031"/>
     </g>
    </g>
   </g>
   <g id="matplotlib.axis_4">
    <g id="ytick_7">
     <g id="line2d_29">
      <g>
       <use xlink:href="#m3acc57d7b7" x="57.6" y="279.028588" style="stroke: #000000; stroke-width: 0.8"/>
      </g>
     </g>
     <g id="text_29">
      <!-- 500% -->
      <g transform="translate(22.010938 282.827807) scale(0.1 -0.1)">
       <use xlink:href="#DejaVuSans-35"/>
       <use xlink:href="#DejaVuSans-30" x="63.623047"/>
       <use xlink:href="#DejaVuSans-30" x="127.246094"/>
       <use xlink:href="#DejaVuSans-25" x="190.869141"/>
      </g>
     </g>
    </g>
    <g id="ytick_8">
     <g id="line2d_30">
      <g>
       <use xlink:href="#m3acc57d7b7" x="57.6" y="250.330571" style="stroke: #000000; stroke-width: 0.8"/>
      </g>
     </g>
     <g id="text_30">
      <!-- 1000% -->
      <g transform="translate(15.648438 254.12979) scale(0.1 -0.1)">
       <use xlink:href="#DejaVuSans-31"/>
       <use xlink:href="#DejaVuSans-30" x="63.623047"/>
       <use xlink:href="#DejaVuSans-30" x="127.246094"/>
       <use xlink:href="#DejaVuSans-30" x="190.869141"/>
       <use xlink:href="#DejaVuSans-25" x="254.492188"/>
      </g>
     </g>
    </g>
    <g id="ytick_9">
     <g id="line2d_31">
      <g>
       <use xlink:href="#m3acc57d7b7" x="57.6" y="221.632553" style="stroke: #000000; stroke-width: 0.8"/>
      </g>
     </g>
     <g id="text_31">
      <!-- 1500% -->
      <g transform="translate(15.648438 225.431772) scale(0.1 -0.1)">
       <use xlink:href="#DejaVuSans-31"/>
       <use xlink:href="#DejaVuSans-35" x="63.623047"/>
       <use xlink:href="#DejaVuSans-30" x="127.246094"/>
       <use xlink:href="#DejaVuSans-30" x="190.869141"/>
       <use xlink:href="#DejaVuSans-25" x="254.492188"/>
      </g>
     </g>
    </g>
    <g id="ytick_10">
     <g id="line2d_32">
      <g>
       <use xlink:href="#m3acc57d7b7" x="57.6" y="192.934535" style="stroke: #000000; stroke-width: 0.8"/>
      </g>
     </g>
     <g id="text_32">
      <!-- 2000% -->
      <g transform="translate(15.648438 196.733754) scale(0.1 -0.1)">
       <use xlink:href="#DejaVuSans-32"/>
       <use xlink:href="#DejaVuSans-30" x="63.623047"/>
       <use xlink:href="#DejaVuSans-30" x="127.246094"/>
       <use xlink:href="#DejaVuSans-30" x="190.869141"/>
       <use xlink:href="#DejaVuSans-25" x="254.492188"/>
      </g>
     </g>
    </g>
    <g id="text_33">
     <!-- loss -->
     <g transform="translate(9.56875 256.761812) rotate(-90) scale(0.1 -0.1)">
      <defs>
       <path id="DejaVuSans-73" d="M 2834 3397 
L 2834 2853 
Q 2591 2978 2328 3040 
Q 2066 3103 1784 3103 
Q 1356 3103 1142 2972 
Q 928 2841 928 2578 
Q 928 2378 1081 2264 
Q 1234 2150 1697 2047 
L 1894 2003 
Q 2506 1872 2764 1633 
Q 3022 1394 3022 966 
Q 3022 478 2636 193 
Q 2250 -91 1575 -91 
Q 1294 -91 989 -36 
Q 684 19 347 128 
L 347 722 
Q 666 556 975 473 
Q 1284 391 1588 391 
Q 1994 391 2212 530 
Q 2431 669 2431 922 
Q 2431 1156 2273 1281 
Q 2116 1406 1581 1522 
L 1381 1569 
Q 847 1681 609 1914 
Q 372 2147 372 2553 
Q 372 3047 722 3315 
Q 1072 3584 1716 3584 
Q 2034 3584 2315 3537 
Q 2597 3491 2834 3397 
z
" transform="scale(0.015625)"/>
      </defs>
      <use xlink:href="#DejaVuSans-6c"/>
      <use xlink:href="#DejaVuSans-6f" x="27.783203"/>
      <use xlink:href="#DejaVuSans-73" x="88.964844"/>
      <use xlink:href="#DejaVuSans-73" x="141.064453"/>
     </g>
    </g>
   </g>
   <g id="line2d_33">
    <path d="M 73.832727 192.122182 
L 77.942278 214.499441 
L 82.05183 227.761819 
L 86.161381 237.75256 
L 90.270932 245.261639 
L 94.380483 252.335635 
L 98.490035 257.565527 
L 102.599586 262.774585 
L 106.709137 266.661332 
L 110.818688 270.535242 
L 114.928239 273.215394 
L 119.037791 276.810115 
L 123.147342 278.358417 
L 127.256893 280.34717 
L 131.366444 282.729275 
L 135.475995 284.695682 
L 139.585547 286.683489 
L 143.695098 287.804471 
L 147.804649 289.610441 
L 151.9142 289.948544 
L 156.023751 291.448502 
L 160.133303 292.39478 
L 164.242854 293.411623 
L 168.352405 293.806537 
L 172.461956 294.795667 
L 176.571507 295.162028 
L 180.681059 295.712812 
L 184.79061 296.04305 
L 188.900161 296.15665 
L 193.009712 296.970697 
L 197.119264 297.212759 
L 201.228815 297.612481 
L 205.338366 298.16303 
L 209.447917 298.8575 
L 213.557468 298.315439 
L 217.66702 298.806314 
L 221.776571 299.229742 
L 225.886122 299.215087 
L 229.995673 299.41158 
L 234.105224 299.205074 
L 238.214776 300.089033 
L 242.324327 300.153048 
L 246.433878 300.169829 
L 250.543429 300.442647 
L 254.65298 300.98174 
L 258.762532 301.264748 
L 262.872083 300.946353 
L 266.981634 301.107961 
L 271.091185 301.204462 
L 275.200736 301.273575 
L 279.310288 301.912809 
L 283.419839 301.259134 
L 287.52939 301.437482 
L 291.638941 301.479666 
L 295.748493 301.664262 
L 299.858044 301.541867 
L 303.967595 301.572547 
L 308.077146 301.596353 
L 312.186697 301.132385 
L 316.296249 301.409866 
L 320.4058 301.769337 
L 324.515351 301.207057 
L 328.624902 301.776722 
L 332.734453 301.878874 
L 336.844005 301.929533 
L 340.953556 301.786892 
L 345.063107 301.933759 
L 349.172658 302.085818 
L 353.282209 301.505695 
L 357.391761 302.004996 
L 361.501312 301.659398 
L 365.610863 301.588408 
L 369.720414 301.951972 
L 373.829965 301.32132 
L 377.939517 301.008616 
L 382.049068 301.716973 
L 386.158619 301.650661 
L 390.26817 302.017816 
L 394.377722 301.360329 
L 398.487273 301.404652 
" clip-path="url(#pac43d17746)" style="fill: none; stroke: #1f77b4; stroke-width: 1.5; stroke-linecap: square"/>
    <g clip-path="url(#pac43d17746)">
     <use xlink:href="#ma8361b9386" x="73.832727" y="192.122182" style="fill: #1f77b4; stroke: #1f77b4"/>
     <use xlink:href="#ma8361b9386" x="77.942278" y="214.499441" style="fill: #1f77b4; stroke: #1f77b4"/>
     <use xlink:href="#ma8361b9386" x="82.05183" y="227.761819" style="fill: #1f77b4; stroke: #1f77b4"/>
     <use xlink:href="#ma8361b9386" x="86.161381" y="237.75256" style="fill: #1f77b4; stroke: #1f77b4"/>
     <use xlink:href="#ma8361b9386" x="90.270932" y="245.261639" style="fill: #1f77b4; stroke: #1f77b4"/>
     <use xlink:href="#ma8361b9386" x="94.380483" y="252.335635" style="fill: #1f77b4; stroke: #1f77b4"/>
     <use xlink:href="#ma8361b9386" x="98.490035" y="257.565527" style="fill: #1f77b4; stroke: #1f77b4"/>
     <use xlink:href="#ma8361b9386" x="102.599586" y="262.774585" style="fill: #1f77b4; stroke: #1f77b4"/>
     <use xlink:href="#ma8361b9386" x="106.709137" y="266.661332" style="fill: #1f77b4; stroke: #1f77b4"/>
     <use xlink:href="#ma8361b9386" x="110.818688" y="270.535242" style="fill: #1f77b4; stroke: #1f77b4"/>
     <use xlink:href="#ma8361b9386" x="114.928239" y="273.215394" style="fill: #1f77b4; stroke: #1f77b4"/>
     <use xlink:href="#ma8361b9386" x="119.037791" y="276.810115" style="fill: #1f77b4; stroke: #1f77b4"/>
     <use xlink:href="#ma8361b9386" x="123.147342" y="278.358417" style="fill: #1f77b4; stroke: #1f77b4"/>
     <use xlink:href="#ma8361b9386" x="127.256893" y="280.34717" style="fill: #1f77b4; stroke: #1f77b4"/>
     <use xlink:href="#ma8361b9386" x="131.366444" y="282.729275" style="fill: #1f77b4; stroke: #1f77b4"/>
     <use xlink:href="#ma8361b9386" x="135.475995" y="284.695682" style="fill: #1f77b4; stroke: #1f77b4"/>
     <use xlink:href="#ma8361b9386" x="139.585547" y="286.683489" style="fill: #1f77b4; stroke: #1f77b4"/>
     <use xlink:href="#ma8361b9386" x="143.695098" y="287.804471" style="fill: #1f77b4; stroke: #1f77b4"/>
     <use xlink:href="#ma8361b9386" x="147.804649" y="289.610441" style="fill: #1f77b4; stroke: #1f77b4"/>
     <use xlink:href="#ma8361b9386" x="151.9142" y="289.948544" style="fill: #1f77b4; stroke: #1f77b4"/>
     <use xlink:href="#ma8361b9386" x="156.023751" y="291.448502" style="fill: #1f77b4; stroke: #1f77b4"/>
     <use xlink:href="#ma8361b9386" x="160.133303" y="292.39478" style="fill: #1f77b4; stroke: #1f77b4"/>
     <use xlink:href="#ma8361b9386" x="164.242854" y="293.411623" style="fill: #1f77b4; stroke: #1f77b4"/>
     <use xlink:href="#ma8361b9386" x="168.352405" y="293.806537" style="fill: #1f77b4; stroke: #1f77b4"/>
     <use xlink:href="#ma8361b9386" x="172.461956" y="294.795667" style="fill: #1f77b4; stroke: #1f77b4"/>
     <use xlink:href="#ma8361b9386" x="176.571507" y="295.162028" style="fill: #1f77b4; stroke: #1f77b4"/>
     <use xlink:href="#ma8361b9386" x="180.681059" y="295.712812" style="fill: #1f77b4; stroke: #1f77b4"/>
     <use xlink:href="#ma8361b9386" x="184.79061" y="296.04305" style="fill: #1f77b4; stroke: #1f77b4"/>
     <use xlink:href="#ma8361b9386" x="188.900161" y="296.15665" style="fill: #1f77b4; stroke: #1f77b4"/>
     <use xlink:href="#ma8361b9386" x="193.009712" y="296.970697" style="fill: #1f77b4; stroke: #1f77b4"/>
     <use xlink:href="#ma8361b9386" x="197.119264" y="297.212759" style="fill: #1f77b4; stroke: #1f77b4"/>
     <use xlink:href="#ma8361b9386" x="201.228815" y="297.612481" style="fill: #1f77b4; stroke: #1f77b4"/>
     <use xlink:href="#ma8361b9386" x="205.338366" y="298.16303" style="fill: #1f77b4; stroke: #1f77b4"/>
     <use xlink:href="#ma8361b9386" x="209.447917" y="298.8575" style="fill: #1f77b4; stroke: #1f77b4"/>
     <use xlink:href="#ma8361b9386" x="213.557468" y="298.315439" style="fill: #1f77b4; stroke: #1f77b4"/>
     <use xlink:href="#ma8361b9386" x="217.66702" y="298.806314" style="fill: #1f77b4; stroke: #1f77b4"/>
     <use xlink:href="#ma8361b9386" x="221.776571" y="299.229742" style="fill: #1f77b4; stroke: #1f77b4"/>
     <use xlink:href="#ma8361b9386" x="225.886122" y="299.215087" style="fill: #1f77b4; stroke: #1f77b4"/>
     <use xlink:href="#ma8361b9386" x="229.995673" y="299.41158" style="fill: #1f77b4; stroke: #1f77b4"/>
     <use xlink:href="#ma8361b9386" x="234.105224" y="299.205074" style="fill: #1f77b4; stroke: #1f77b4"/>
     <use xlink:href="#ma8361b9386" x="238.214776" y="300.089033" style="fill: #1f77b4; stroke: #1f77b4"/>
     <use xlink:href="#ma8361b9386" x="242.324327" y="300.153048" style="fill: #1f77b4; stroke: #1f77b4"/>
     <use xlink:href="#ma8361b9386" x="246.433878" y="300.169829" style="fill: #1f77b4; stroke: #1f77b4"/>
     <use xlink:href="#ma8361b9386" x="250.543429" y="300.442647" style="fill: #1f77b4; stroke: #1f77b4"/>
     <use xlink:href="#ma8361b9386" x="254.65298" y="300.98174" style="fill: #1f77b4; stroke: #1f77b4"/>
     <use xlink:href="#ma8361b9386" x="258.762532" y="301.264748" style="fill: #1f77b4; stroke: #1f77b4"/>
     <use xlink:href="#ma8361b9386" x="262.872083" y="300.946353" style="fill: #1f77b4; stroke: #1f77b4"/>
     <use xlink:href="#ma8361b9386" x="266.981634" y="301.107961" style="fill: #1f77b4; stroke: #1f77b4"/>
     <use xlink:href="#ma8361b9386" x="271.091185" y="301.204462" style="fill: #1f77b4; stroke: #1f77b4"/>
     <use xlink:href="#ma8361b9386" x="275.200736" y="301.273575" style="fill: #1f77b4; stroke: #1f77b4"/>
     <use xlink:href="#ma8361b9386" x="279.310288" y="301.912809" style="fill: #1f77b4; stroke: #1f77b4"/>
     <use xlink:href="#ma8361b9386" x="283.419839" y="301.259134" style="fill: #1f77b4; stroke: #1f77b4"/>
     <use xlink:href="#ma8361b9386" x="287.52939" y="301.437482" style="fill: #1f77b4; stroke: #1f77b4"/>
     <use xlink:href="#ma8361b9386" x="291.638941" y="301.479666" style="fill: #1f77b4; stroke: #1f77b4"/>
     <use xlink:href="#ma8361b9386" x="295.748493" y="301.664262" style="fill: #1f77b4; stroke: #1f77b4"/>
     <use xlink:href="#ma8361b9386" x="299.858044" y="301.541867" style="fill: #1f77b4; stroke: #1f77b4"/>
     <use xlink:href="#ma8361b9386" x="303.967595" y="301.572547" style="fill: #1f77b4; stroke: #1f77b4"/>
     <use xlink:href="#ma8361b9386" x="308.077146" y="301.596353" style="fill: #1f77b4; stroke: #1f77b4"/>
     <use xlink:href="#ma8361b9386" x="312.186697" y="301.132385" style="fill: #1f77b4; stroke: #1f77b4"/>
     <use xlink:href="#ma8361b9386" x="316.296249" y="301.409866" style="fill: #1f77b4; stroke: #1f77b4"/>
     <use xlink:href="#ma8361b9386" x="320.4058" y="301.769337" style="fill: #1f77b4; stroke: #1f77b4"/>
     <use xlink:href="#ma8361b9386" x="324.515351" y="301.207057" style="fill: #1f77b4; stroke: #1f77b4"/>
     <use xlink:href="#ma8361b9386" x="328.624902" y="301.776722" style="fill: #1f77b4; stroke: #1f77b4"/>
     <use xlink:href="#ma8361b9386" x="332.734453" y="301.878874" style="fill: #1f77b4; stroke: #1f77b4"/>
     <use xlink:href="#ma8361b9386" x="336.844005" y="301.929533" style="fill: #1f77b4; stroke: #1f77b4"/>
     <use xlink:href="#ma8361b9386" x="340.953556" y="301.786892" style="fill: #1f77b4; stroke: #1f77b4"/>
     <use xlink:href="#ma8361b9386" x="345.063107" y="301.933759" style="fill: #1f77b4; stroke: #1f77b4"/>
     <use xlink:href="#ma8361b9386" x="349.172658" y="302.085818" style="fill: #1f77b4; stroke: #1f77b4"/>
     <use xlink:href="#ma8361b9386" x="353.282209" y="301.505695" style="fill: #1f77b4; stroke: #1f77b4"/>
     <use xlink:href="#ma8361b9386" x="357.391761" y="302.004996" style="fill: #1f77b4; stroke: #1f77b4"/>
     <use xlink:href="#ma8361b9386" x="361.501312" y="301.659398" style="fill: #1f77b4; stroke: #1f77b4"/>
     <use xlink:href="#ma8361b9386" x="365.610863" y="301.588408" style="fill: #1f77b4; stroke: #1f77b4"/>
     <use xlink:href="#ma8361b9386" x="369.720414" y="301.951972" style="fill: #1f77b4; stroke: #1f77b4"/>
     <use xlink:href="#ma8361b9386" x="373.829965" y="301.32132" style="fill: #1f77b4; stroke: #1f77b4"/>
     <use xlink:href="#ma8361b9386" x="377.939517" y="301.008616" style="fill: #1f77b4; stroke: #1f77b4"/>
     <use xlink:href="#ma8361b9386" x="382.049068" y="301.716973" style="fill: #1f77b4; stroke: #1f77b4"/>
     <use xlink:href="#ma8361b9386" x="386.158619" y="301.650661" style="fill: #1f77b4; stroke: #1f77b4"/>
     <use xlink:href="#ma8361b9386" x="390.26817" y="302.017816" style="fill: #1f77b4; stroke: #1f77b4"/>
     <use xlink:href="#ma8361b9386" x="394.377722" y="301.360329" style="fill: #1f77b4; stroke: #1f77b4"/>
     <use xlink:href="#ma8361b9386" x="398.487273" y="301.404652" style="fill: #1f77b4; stroke: #1f77b4"/>
    </g>
   </g>
   <g id="line2d_34">
    <path d="M 73.832727 193.974103 
L 77.942278 216.908986 
L 82.05183 223.169791 
L 86.161381 233.415754 
L 90.270932 245.9119 
L 94.380483 249.121225 
L 98.490035 254.628284 
L 102.599586 260.194792 
L 106.709137 264.739681 
L 110.818688 268.6842 
L 114.928239 271.45929 
L 119.037791 275.001274 
L 123.147342 275.434272 
L 127.256893 277.056029 
L 131.366444 277.793229 
L 135.475995 279.630765 
L 139.585547 282.199034 
L 143.695098 284.360526 
L 147.804649 286.251698 
L 151.9142 286.829692 
L 156.023751 283.835928 
L 160.133303 287.534657 
L 164.242854 289.30075 
L 168.352405 290.517031 
L 172.461956 288.454791 
L 176.571507 291.402748 
L 180.681059 289.203658 
L 184.79061 288.485912 
L 188.900161 292.355454 
L 193.009712 290.706502 
L 197.119264 293.340906 
L 201.228815 292.54476 
L 205.338366 294.872538 
L 209.447917 293.748101 
L 213.557468 294.305553 
L 217.66702 295.529403 
L 221.776571 291.3479 
L 225.886122 294.527115 
L 229.995673 295.018276 
L 234.105224 294.298853 
L 238.214776 293.265784 
L 242.324327 291.422327 
L 246.433878 292.502485 
L 250.543429 294.17941 
L 254.65298 295.26427 
L 258.762532 295.554683 
L 262.872083 297.793309 
L 266.981634 296.731593 
L 271.091185 297.376783 
L 275.200736 298.408271 
L 279.310288 298.932373 
L 283.419839 296.422389 
L 287.52939 296.003943 
L 291.638941 296.238526 
L 295.748493 294.706357 
L 299.858044 293.158564 
L 303.967595 291.710699 
L 308.077146 297.245785 
L 312.186697 294.35744 
L 316.296249 296.144183 
L 320.4058 297.682163 
L 324.515351 297.624877 
L 328.624902 296.733738 
L 332.734453 297.116286 
L 336.844005 297.179483 
L 340.953556 295.949968 
L 345.063107 297.348296 
L 349.172658 297.900595 
L 353.282209 296.293712 
L 357.391761 296.349933 
L 361.501312 297.449563 
L 365.610863 298.04334 
L 369.720414 296.513133 
L 373.829965 296.207386 
L 377.939517 298.346264 
L 382.049068 294.853364 
L 386.158619 299.545992 
L 390.26817 292.096367 
L 394.377722 293.454274 
L 398.487273 291.093104 
" clip-path="url(#pac43d17746)" style="fill: none; stroke: #ff7f0e; stroke-width: 1.5; stroke-linecap: square"/>
    <g clip-path="url(#pac43d17746)">
     <use xlink:href="#m5fe98eeb6b" x="73.832727" y="193.974103" style="fill: #ff7f0e; stroke: #ff7f0e"/>
     <use xlink:href="#m5fe98eeb6b" x="77.942278" y="216.908986" style="fill: #ff7f0e; stroke: #ff7f0e"/>
     <use xlink:href="#m5fe98eeb6b" x="82.05183" y="223.169791" style="fill: #ff7f0e; stroke: #ff7f0e"/>
     <use xlink:href="#m5fe98eeb6b" x="86.161381" y="233.415754" style="fill: #ff7f0e; stroke: #ff7f0e"/>
     <use xlink:href="#m5fe98eeb6b" x="90.270932" y="245.9119" style="fill: #ff7f0e; stroke: #ff7f0e"/>
     <use xlink:href="#m5fe98eeb6b" x="94.380483" y="249.121225" style="fill: #ff7f0e; stroke: #ff7f0e"/>
     <use xlink:href="#m5fe98eeb6b" x="98.490035" y="254.628284" style="fill: #ff7f0e; stroke: #ff7f0e"/>
     <use xlink:href="#m5fe98eeb6b" x="102.599586" y="260.194792" style="fill: #ff7f0e; stroke: #ff7f0e"/>
     <use xlink:href="#m5fe98eeb6b" x="106.709137" y="264.739681" style="fill: #ff7f0e; stroke: #ff7f0e"/>
     <use xlink:href="#m5fe98eeb6b" x="110.818688" y="268.6842" style="fill: #ff7f0e; stroke: #ff7f0e"/>
     <use xlink:href="#m5fe98eeb6b" x="114.928239" y="271.45929" style="fill: #ff7f0e; stroke: #ff7f0e"/>
     <use xlink:href="#m5fe98eeb6b" x="119.037791" y="275.001274" style="fill: #ff7f0e; stroke: #ff7f0e"/>
     <use xlink:href="#m5fe98eeb6b" x="123.147342" y="275.434272" style="fill: #ff7f0e; stroke: #ff7f0e"/>
     <use xlink:href="#m5fe98eeb6b" x="127.256893" y="277.056029" style="fill: #ff7f0e; stroke: #ff7f0e"/>
     <use xlink:href="#m5fe98eeb6b" x="131.366444" y="277.793229" style="fill: #ff7f0e; stroke: #ff7f0e"/>
     <use xlink:href="#m5fe98eeb6b" x="135.475995" y="279.630765" style="fill: #ff7f0e; stroke: #ff7f0e"/>
     <use xlink:href="#m5fe98eeb6b" x="139.585547" y="282.199034" style="fill: #ff7f0e; stroke: #ff7f0e"/>
     <use xlink:href="#m5fe98eeb6b" x="143.695098" y="284.360526" style="fill: #ff7f0e; stroke: #ff7f0e"/>
     <use xlink:href="#m5fe98eeb6b" x="147.804649" y="286.251698" style="fill: #ff7f0e; stroke: #ff7f0e"/>
     <use xlink:href="#m5fe98eeb6b" x="151.9142" y="286.829692" style="fill: #ff7f0e; stroke: #ff7f0e"/>
     <use xlink:href="#m5fe98eeb6b" x="156.023751" y="283.835928" style="fill: #ff7f0e; stroke: #ff7f0e"/>
     <use xlink:href="#m5fe98eeb6b" x="160.133303" y="287.534657" style="fill: #ff7f0e; stroke: #ff7f0e"/>
     <use xlink:href="#m5fe98eeb6b" x="164.242854" y="289.30075" style="fill: #ff7f0e; stroke: #ff7f0e"/>
     <use xlink:href="#m5fe98eeb6b" x="168.352405" y="290.517031" style="fill: #ff7f0e; stroke: #ff7f0e"/>
     <use xlink:href="#m5fe98eeb6b" x="172.461956" y="288.454791" style="fill: #ff7f0e; stroke: #ff7f0e"/>
     <use xlink:href="#m5fe98eeb6b" x="176.571507" y="291.402748" style="fill: #ff7f0e; stroke: #ff7f0e"/>
     <use xlink:href="#m5fe98eeb6b" x="180.681059" y="289.203658" style="fill: #ff7f0e; stroke: #ff7f0e"/>
     <use xlink:href="#m5fe98eeb6b" x="184.79061" y="288.485912" style="fill: #ff7f0e; stroke: #ff7f0e"/>
     <use xlink:href="#m5fe98eeb6b" x="188.900161" y="292.355454" style="fill: #ff7f0e; stroke: #ff7f0e"/>
     <use xlink:href="#m5fe98eeb6b" x="193.009712" y="290.706502" style="fill: #ff7f0e; stroke: #ff7f0e"/>
     <use xlink:href="#m5fe98eeb6b" x="197.119264" y="293.340906" style="fill: #ff7f0e; stroke: #ff7f0e"/>
     <use xlink:href="#m5fe98eeb6b" x="201.228815" y="292.54476" style="fill: #ff7f0e; stroke: #ff7f0e"/>
     <use xlink:href="#m5fe98eeb6b" x="205.338366" y="294.872538" style="fill: #ff7f0e; stroke: #ff7f0e"/>
     <use xlink:href="#m5fe98eeb6b" x="209.447917" y="293.748101" style="fill: #ff7f0e; stroke: #ff7f0e"/>
     <use xlink:href="#m5fe98eeb6b" x="213.557468" y="294.305553" style="fill: #ff7f0e; stroke: #ff7f0e"/>
     <use xlink:href="#m5fe98eeb6b" x="217.66702" y="295.529403" style="fill: #ff7f0e; stroke: #ff7f0e"/>
     <use xlink:href="#m5fe98eeb6b" x="221.776571" y="291.3479" style="fill: #ff7f0e; stroke: #ff7f0e"/>
     <use xlink:href="#m5fe98eeb6b" x="225.886122" y="294.527115" style="fill: #ff7f0e; stroke: #ff7f0e"/>
     <use xlink:href="#m5fe98eeb6b" x="229.995673" y="295.018276" style="fill: #ff7f0e; stroke: #ff7f0e"/>
     <use xlink:href="#m5fe98eeb6b" x="234.105224" y="294.298853" style="fill: #ff7f0e; stroke: #ff7f0e"/>
     <use xlink:href="#m5fe98eeb6b" x="238.214776" y="293.265784" style="fill: #ff7f0e; stroke: #ff7f0e"/>
     <use xlink:href="#m5fe98eeb6b" x="242.324327" y="291.422327" style="fill: #ff7f0e; stroke: #ff7f0e"/>
     <use xlink:href="#m5fe98eeb6b" x="246.433878" y="292.502485" style="fill: #ff7f0e; stroke: #ff7f0e"/>
     <use xlink:href="#m5fe98eeb6b" x="250.543429" y="294.17941" style="fill: #ff7f0e; stroke: #ff7f0e"/>
     <use xlink:href="#m5fe98eeb6b" x="254.65298" y="295.26427" style="fill: #ff7f0e; stroke: #ff7f0e"/>
     <use xlink:href="#m5fe98eeb6b" x="258.762532" y="295.554683" style="fill: #ff7f0e; stroke: #ff7f0e"/>
     <use xlink:href="#m5fe98eeb6b" x="262.872083" y="297.793309" style="fill: #ff7f0e; stroke: #ff7f0e"/>
     <use xlink:href="#m5fe98eeb6b" x="266.981634" y="296.731593" style="fill: #ff7f0e; stroke: #ff7f0e"/>
     <use xlink:href="#m5fe98eeb6b" x="271.091185" y="297.376783" style="fill: #ff7f0e; stroke: #ff7f0e"/>
     <use xlink:href="#m5fe98eeb6b" x="275.200736" y="298.408271" style="fill: #ff7f0e; stroke: #ff7f0e"/>
     <use xlink:href="#m5fe98eeb6b" x="279.310288" y="298.932373" style="fill: #ff7f0e; stroke: #ff7f0e"/>
     <use xlink:href="#m5fe98eeb6b" x="283.419839" y="296.422389" style="fill: #ff7f0e; stroke: #ff7f0e"/>
     <use xlink:href="#m5fe98eeb6b" x="287.52939" y="296.003943" style="fill: #ff7f0e; stroke: #ff7f0e"/>
     <use xlink:href="#m5fe98eeb6b" x="291.638941" y="296.238526" style="fill: #ff7f0e; stroke: #ff7f0e"/>
     <use xlink:href="#m5fe98eeb6b" x="295.748493" y="294.706357" style="fill: #ff7f0e; stroke: #ff7f0e"/>
     <use xlink:href="#m5fe98eeb6b" x="299.858044" y="293.158564" style="fill: #ff7f0e; stroke: #ff7f0e"/>
     <use xlink:href="#m5fe98eeb6b" x="303.967595" y="291.710699" style="fill: #ff7f0e; stroke: #ff7f0e"/>
     <use xlink:href="#m5fe98eeb6b" x="308.077146" y="297.245785" style="fill: #ff7f0e; stroke: #ff7f0e"/>
     <use xlink:href="#m5fe98eeb6b" x="312.186697" y="294.35744" style="fill: #ff7f0e; stroke: #ff7f0e"/>
     <use xlink:href="#m5fe98eeb6b" x="316.296249" y="296.144183" style="fill: #ff7f0e; stroke: #ff7f0e"/>
     <use xlink:href="#m5fe98eeb6b" x="320.4058" y="297.682163" style="fill: #ff7f0e; stroke: #ff7f0e"/>
     <use xlink:href="#m5fe98eeb6b" x="324.515351" y="297.624877" style="fill: #ff7f0e; stroke: #ff7f0e"/>
     <use xlink:href="#m5fe98eeb6b" x="328.624902" y="296.733738" style="fill: #ff7f0e; stroke: #ff7f0e"/>
     <use xlink:href="#m5fe98eeb6b" x="332.734453" y="297.116286" style="fill: #ff7f0e; stroke: #ff7f0e"/>
     <use xlink:href="#m5fe98eeb6b" x="336.844005" y="297.179483" style="fill: #ff7f0e; stroke: #ff7f0e"/>
     <use xlink:href="#m5fe98eeb6b" x="340.953556" y="295.949968" style="fill: #ff7f0e; stroke: #ff7f0e"/>
     <use xlink:href="#m5fe98eeb6b" x="345.063107" y="297.348296" style="fill: #ff7f0e; stroke: #ff7f0e"/>
     <use xlink:href="#m5fe98eeb6b" x="349.172658" y="297.900595" style="fill: #ff7f0e; stroke: #ff7f0e"/>
     <use xlink:href="#m5fe98eeb6b" x="353.282209" y="296.293712" style="fill: #ff7f0e; stroke: #ff7f0e"/>
     <use xlink:href="#m5fe98eeb6b" x="357.391761" y="296.349933" style="fill: #ff7f0e; stroke: #ff7f0e"/>
     <use xlink:href="#m5fe98eeb6b" x="361.501312" y="297.449563" style="fill: #ff7f0e; stroke: #ff7f0e"/>
     <use xlink:href="#m5fe98eeb6b" x="365.610863" y="298.04334" style="fill: #ff7f0e; stroke: #ff7f0e"/>
     <use xlink:href="#m5fe98eeb6b" x="369.720414" y="296.513133" style="fill: #ff7f0e; stroke: #ff7f0e"/>
     <use xlink:href="#m5fe98eeb6b" x="373.829965" y="296.207386" style="fill: #ff7f0e; stroke: #ff7f0e"/>
     <use xlink:href="#m5fe98eeb6b" x="377.939517" y="298.346264" style="fill: #ff7f0e; stroke: #ff7f0e"/>
     <use xlink:href="#m5fe98eeb6b" x="382.049068" y="294.853364" style="fill: #ff7f0e; stroke: #ff7f0e"/>
     <use xlink:href="#m5fe98eeb6b" x="386.158619" y="299.545992" style="fill: #ff7f0e; stroke: #ff7f0e"/>
     <use xlink:href="#m5fe98eeb6b" x="390.26817" y="292.096367" style="fill: #ff7f0e; stroke: #ff7f0e"/>
     <use xlink:href="#m5fe98eeb6b" x="394.377722" y="293.454274" style="fill: #ff7f0e; stroke: #ff7f0e"/>
     <use xlink:href="#m5fe98eeb6b" x="398.487273" y="291.093104" style="fill: #ff7f0e; stroke: #ff7f0e"/>
    </g>
   </g>
   <g id="patch_9">
    <path d="M 57.6 307.584 
L 57.6 186.624 
" style="fill: none; stroke: #000000; stroke-width: 0.8; stroke-linejoin: miter; stroke-linecap: square"/>
   </g>
   <g id="patch_10">
    <path d="M 414.72 307.584 
L 414.72 186.624 
" style="fill: none; stroke: #000000; stroke-width: 0.8; stroke-linejoin: miter; stroke-linecap: square"/>
   </g>
   <g id="patch_11">
    <path d="M 57.6 307.584 
L 414.72 307.584 
" style="fill: none; stroke: #000000; stroke-width: 0.8; stroke-linejoin: miter; stroke-linecap: square"/>
   </g>
   <g id="patch_12">
    <path d="M 57.6 186.624 
L 414.72 186.624 
" style="fill: none; stroke: #000000; stroke-width: 0.8; stroke-linejoin: miter; stroke-linecap: square"/>
   </g>
   <g id="legend_2">
    <g id="patch_13">
     <path d="M 303.991875 223.98025 
L 407.72 223.98025 
Q 409.72 223.98025 409.72 221.98025 
L 409.72 193.624 
Q 409.72 191.624 407.72 191.624 
L 303.991875 191.624 
Q 301.991875 191.624 301.991875 193.624 
L 301.991875 221.98025 
Q 301.991875 223.98025 303.991875 223.98025 
z
" style="fill: #ffffff; opacity: 0.8; stroke: #cccccc; stroke-linejoin: miter"/>
    </g>
    <g id="line2d_35">
     <path d="M 305.991875 199.722437 
L 315.991875 199.722437 
L 325.991875 199.722437 
" style="fill: none; stroke: #1f77b4; stroke-width: 1.5; stroke-linecap: square"/>
     <g>
      <use xlink:href="#ma8361b9386" x="315.991875" y="199.722437" style="fill: #1f77b4; stroke: #1f77b4"/>
     </g>
    </g>
    <g id="text_34">
     <!-- training loss -->
     <g transform="translate(333.991875 203.222437) scale(0.1 -0.1)">
      <use xlink:href="#DejaVuSans-74"/>
      <use xlink:href="#DejaVuSans-72" x="39.208984"/>
      <use xlink:href="#DejaVuSans-61" x="80.322266"/>
      <use xlink:href="#DejaVuSans-69" x="141.601562"/>
      <use xlink:href="#DejaVuSans-6e" x="169.384766"/>
      <use xlink:href="#DejaVuSans-69" x="232.763672"/>
      <use xlink:href="#DejaVuSans-6e" x="260.546875"/>
      <use xlink:href="#DejaVuSans-67" x="323.925781"/>
      <use xlink:href="#DejaVuSans-20" x="387.402344"/>
      <use xlink:href="#DejaVuSans-6c" x="419.189453"/>
      <use xlink:href="#DejaVuSans-6f" x="446.972656"/>
      <use xlink:href="#DejaVuSans-73" x="508.154297"/>
      <use xlink:href="#DejaVuSans-73" x="560.253906"/>
     </g>
    </g>
    <g id="line2d_36">
     <path d="M 305.991875 214.400562 
L 315.991875 214.400562 
L 325.991875 214.400562 
" style="fill: none; stroke: #ff7f0e; stroke-width: 1.5; stroke-linecap: square"/>
     <g>
      <use xlink:href="#m5fe98eeb6b" x="315.991875" y="214.400562" style="fill: #ff7f0e; stroke: #ff7f0e"/>
     </g>
    </g>
    <g id="text_35">
     <!-- validation loss -->
     <g transform="translate(333.991875 217.900562) scale(0.1 -0.1)">
      <use xlink:href="#DejaVuSans-76"/>
      <use xlink:href="#DejaVuSans-61" x="59.179688"/>
      <use xlink:href="#DejaVuSans-6c" x="120.458984"/>
      <use xlink:href="#DejaVuSans-69" x="148.242188"/>
      <use xlink:href="#DejaVuSans-64" x="176.025391"/>
      <use xlink:href="#DejaVuSans-61" x="239.501953"/>
      <use xlink:href="#DejaVuSans-74" x="300.78125"/>
      <use xlink:href="#DejaVuSans-69" x="339.990234"/>
      <use xlink:href="#DejaVuSans-6f" x="367.773438"/>
      <use xlink:href="#DejaVuSans-6e" x="428.955078"/>
      <use xlink:href="#DejaVuSans-20" x="492.333984"/>
      <use xlink:href="#DejaVuSans-6c" x="524.121094"/>
      <use xlink:href="#DejaVuSans-6f" x="551.904297"/>
      <use xlink:href="#DejaVuSans-73" x="613.085938"/>
      <use xlink:href="#DejaVuSans-73" x="665.185547"/>
     </g>
    </g>
   </g>
  </g>
 </g>
 <defs>
  <clipPath id="p407f853d0c">
   <rect x="57.6" y="41.472" width="357.12" height="120.96"/>
  </clipPath>
  <clipPath id="pac43d17746">
   <rect x="57.6" y="186.624" width="357.12" height="120.96"/>
  </clipPath>
 </defs>
</svg>
