<?xml version="1.0" encoding="utf-8" standalone="no"?>
<!DOCTYPE svg PUBLIC "-//W3C//DTD SVG 1.1//EN"
  "http://www.w3.org/Graphics/SVG/1.1/DTD/svg11.dtd">
<svg xmlns:xlink="http://www.w3.org/1999/xlink" width="460.8pt" height="345.6pt" viewBox="0 0 460.8 345.6" xmlns="http://www.w3.org/2000/svg" version="1.1">
 <metadata>
  <rdf:RDF xmlns:dc="http://purl.org/dc/elements/1.1/" xmlns:cc="http://creativecommons.org/ns#" xmlns:rdf="http://www.w3.org/1999/02/22-rdf-syntax-ns#">
   <cc:Work>
    <dc:type rdf:resource="http://purl.org/dc/dcmitype/StillImage"/>
    <dc:date>2023-12-19T13:23:08.296633</dc:date>
    <dc:format>image/svg+xml</dc:format>
    <dc:creator>
     <cc:Agent>
      <dc:title>Matplotlib v3.8.0, https://matplotlib.org/</dc:title>
     </cc:Agent>
    </dc:creator>
   </cc:Work>
  </rdf:RDF>
 </metadata>
 <defs>
  <style type="text/css">*{stroke-linejoin: round; stroke-linecap: butt}</style>
 </defs>
 <g id="figure_1">
  <g id="patch_1">
   <path d="M 0 345.6 
L 460.8 345.6 
L 460.8 0 
L 0 0 
z
" style="fill: #ffffff"/>
  </g>
  <g id="axes_1">
   <g id="patch_2">
    <path d="M 57.6 162.432 
L 414.72 162.432 
L 414.72 41.472 
L 57.6 41.472 
z
" style="fill: #ffffff"/>
   </g>
   <g id="matplotlib.axis_1">
    <g id="xtick_1">
     <g id="line2d_1">
      <defs>
       <path id="m1aaf38ba6e" d="M 0 0 
L 0 3.5 
" style="stroke: #000000; stroke-width: 0.8"/>
      </defs>
      <g>
       <use xlink:href="#m1aaf38ba6e" x="73.832727" y="162.432" style="stroke: #000000; stroke-width: 0.8"/>
      </g>
     </g>
     <g id="text_1">
      <!-- 0 -->
      <g transform="translate(70.651477 177.030437) scale(0.1 -0.1)">
       <defs>
        <path id="DejaVuSans-30" d="M 2034 4250 
Q 1547 4250 1301 3770 
Q 1056 3291 1056 2328 
Q 1056 1369 1301 889 
Q 1547 409 2034 409 
Q 2525 409 2770 889 
Q 3016 1369 3016 2328 
Q 3016 3291 2770 3770 
Q 2525 4250 2034 4250 
z
M 2034 4750 
Q 2819 4750 3233 4129 
Q 3647 3509 3647 2328 
Q 3647 1150 3233 529 
Q 2819 -91 2034 -91 
Q 1250 -91 836 529 
Q 422 1150 422 2328 
Q 422 3509 836 4129 
Q 1250 4750 2034 4750 
z
" transform="scale(0.015625)"/>
       </defs>
       <use xlink:href="#DejaVuSans-30"/>
      </g>
     </g>
    </g>
    <g id="xtick_2">
     <g id="line2d_2">
      <g>
       <use xlink:href="#m1aaf38ba6e" x="114.928239" y="162.432" style="stroke: #000000; stroke-width: 0.8"/>
      </g>
     </g>
     <g id="text_2">
      <!-- 10 -->
      <g transform="translate(108.565739 177.030437) scale(0.1 -0.1)">
       <defs>
        <path id="DejaVuSans-31" d="M 794 531 
L 1825 531 
L 1825 4091 
L 703 3866 
L 703 4441 
L 1819 4666 
L 2450 4666 
L 2450 531 
L 3481 531 
L 3481 0 
L 794 0 
L 794 531 
z
" transform="scale(0.015625)"/>
       </defs>
       <use xlink:href="#DejaVuSans-31"/>
       <use xlink:href="#DejaVuSans-30" x="63.623047"/>
      </g>
     </g>
    </g>
    <g id="xtick_3">
     <g id="line2d_3">
      <g>
       <use xlink:href="#m1aaf38ba6e" x="156.023751" y="162.432" style="stroke: #000000; stroke-width: 0.8"/>
      </g>
     </g>
     <g id="text_3">
      <!-- 20 -->
      <g transform="translate(149.661251 177.030437) scale(0.1 -0.1)">
       <defs>
        <path id="DejaVuSans-32" d="M 1228 531 
L 3431 531 
L 3431 0 
L 469 0 
L 469 531 
Q 828 903 1448 1529 
Q 2069 2156 2228 2338 
Q 2531 2678 2651 2914 
Q 2772 3150 2772 3378 
Q 2772 3750 2511 3984 
Q 2250 4219 1831 4219 
Q 1534 4219 1204 4116 
Q 875 4013 500 3803 
L 500 4441 
Q 881 4594 1212 4672 
Q 1544 4750 1819 4750 
Q 2544 4750 2975 4387 
Q 3406 4025 3406 3419 
Q 3406 3131 3298 2873 
Q 3191 2616 2906 2266 
Q 2828 2175 2409 1742 
Q 1991 1309 1228 531 
z
" transform="scale(0.015625)"/>
       </defs>
       <use xlink:href="#DejaVuSans-32"/>
       <use xlink:href="#DejaVuSans-30" x="63.623047"/>
      </g>
     </g>
    </g>
    <g id="xtick_4">
     <g id="line2d_4">
      <g>
       <use xlink:href="#m1aaf38ba6e" x="197.119264" y="162.432" style="stroke: #000000; stroke-width: 0.8"/>
      </g>
     </g>
     <g id="text_4">
      <!-- 30 -->
      <g transform="translate(190.756764 177.030437) scale(0.1 -0.1)">
       <defs>
        <path id="DejaVuSans-33" d="M 2597 2516 
Q 3050 2419 3304 2112 
Q 3559 1806 3559 1356 
Q 3559 666 3084 287 
Q 2609 -91 1734 -91 
Q 1441 -91 1130 -33 
Q 819 25 488 141 
L 488 750 
Q 750 597 1062 519 
Q 1375 441 1716 441 
Q 2309 441 2620 675 
Q 2931 909 2931 1356 
Q 2931 1769 2642 2001 
Q 2353 2234 1838 2234 
L 1294 2234 
L 1294 2753 
L 1863 2753 
Q 2328 2753 2575 2939 
Q 2822 3125 2822 3475 
Q 2822 3834 2567 4026 
Q 2313 4219 1838 4219 
Q 1578 4219 1281 4162 
Q 984 4106 628 3988 
L 628 4550 
Q 988 4650 1302 4700 
Q 1616 4750 1894 4750 
Q 2613 4750 3031 4423 
Q 3450 4097 3450 3541 
Q 3450 3153 3228 2886 
Q 3006 2619 2597 2516 
z
" transform="scale(0.015625)"/>
       </defs>
       <use xlink:href="#DejaVuSans-33"/>
       <use xlink:href="#DejaVuSans-30" x="63.623047"/>
      </g>
     </g>
    </g>
    <g id="xtick_5">
     <g id="line2d_5">
      <g>
       <use xlink:href="#m1aaf38ba6e" x="238.214776" y="162.432" style="stroke: #000000; stroke-width: 0.8"/>
      </g>
     </g>
     <g id="text_5">
      <!-- 40 -->
      <g transform="translate(231.852276 177.030437) scale(0.1 -0.1)">
       <defs>
        <path id="DejaVuSans-34" d="M 2419 4116 
L 825 1625 
L 2419 1625 
L 2419 4116 
z
M 2253 4666 
L 3047 4666 
L 3047 1625 
L 3713 1625 
L 3713 1100 
L 3047 1100 
L 3047 0 
L 2419 0 
L 2419 1100 
L 313 1100 
L 313 1709 
L 2253 4666 
z
" transform="scale(0.015625)"/>
       </defs>
       <use xlink:href="#DejaVuSans-34"/>
       <use xlink:href="#DejaVuSans-30" x="63.623047"/>
      </g>
     </g>
    </g>
    <g id="xtick_6">
     <g id="line2d_6">
      <g>
       <use xlink:href="#m1aaf38ba6e" x="279.310288" y="162.432" style="stroke: #000000; stroke-width: 0.8"/>
      </g>
     </g>
     <g id="text_6">
      <!-- 50 -->
      <g transform="translate(272.947788 177.030437) scale(0.1 -0.1)">
       <defs>
        <path id="DejaVuSans-35" d="M 691 4666 
L 3169 4666 
L 3169 4134 
L 1269 4134 
L 1269 2991 
Q 1406 3038 1543 3061 
Q 1681 3084 1819 3084 
Q 2600 3084 3056 2656 
Q 3513 2228 3513 1497 
Q 3513 744 3044 326 
Q 2575 -91 1722 -91 
Q 1428 -91 1123 -41 
Q 819 9 494 109 
L 494 744 
Q 775 591 1075 516 
Q 1375 441 1709 441 
Q 2250 441 2565 725 
Q 2881 1009 2881 1497 
Q 2881 1984 2565 2268 
Q 2250 2553 1709 2553 
Q 1456 2553 1204 2497 
Q 953 2441 691 2322 
L 691 4666 
z
" transform="scale(0.015625)"/>
       </defs>
       <use xlink:href="#DejaVuSans-35"/>
       <use xlink:href="#DejaVuSans-30" x="63.623047"/>
      </g>
     </g>
    </g>
    <g id="xtick_7">
     <g id="line2d_7">
      <g>
       <use xlink:href="#m1aaf38ba6e" x="320.4058" y="162.432" style="stroke: #000000; stroke-width: 0.8"/>
      </g>
     </g>
     <g id="text_7">
      <!-- 60 -->
      <g transform="translate(314.0433 177.030437) scale(0.1 -0.1)">
       <defs>
        <path id="DejaVuSans-36" d="M 2113 2584 
Q 1688 2584 1439 2293 
Q 1191 2003 1191 1497 
Q 1191 994 1439 701 
Q 1688 409 2113 409 
Q 2538 409 2786 701 
Q 3034 994 3034 1497 
Q 3034 2003 2786 2293 
Q 2538 2584 2113 2584 
z
M 3366 4563 
L 3366 3988 
Q 3128 4100 2886 4159 
Q 2644 4219 2406 4219 
Q 1781 4219 1451 3797 
Q 1122 3375 1075 2522 
Q 1259 2794 1537 2939 
Q 1816 3084 2150 3084 
Q 2853 3084 3261 2657 
Q 3669 2231 3669 1497 
Q 3669 778 3244 343 
Q 2819 -91 2113 -91 
Q 1303 -91 875 529 
Q 447 1150 447 2328 
Q 447 3434 972 4092 
Q 1497 4750 2381 4750 
Q 2619 4750 2861 4703 
Q 3103 4656 3366 4563 
z
" transform="scale(0.015625)"/>
       </defs>
       <use xlink:href="#DejaVuSans-36"/>
       <use xlink:href="#DejaVuSans-30" x="63.623047"/>
      </g>
     </g>
    </g>
    <g id="xtick_8">
     <g id="line2d_8">
      <g>
       <use xlink:href="#m1aaf38ba6e" x="361.501312" y="162.432" style="stroke: #000000; stroke-width: 0.8"/>
      </g>
     </g>
     <g id="text_8">
      <!-- 70 -->
      <g transform="translate(355.138812 177.030437) scale(0.1 -0.1)">
       <defs>
        <path id="DejaVuSans-37" d="M 525 4666 
L 3525 4666 
L 3525 4397 
L 1831 0 
L 1172 0 
L 2766 4134 
L 525 4134 
L 525 4666 
z
" transform="scale(0.015625)"/>
       </defs>
       <use xlink:href="#DejaVuSans-37"/>
       <use xlink:href="#DejaVuSans-30" x="63.623047"/>
      </g>
     </g>
    </g>
    <g id="xtick_9">
     <g id="line2d_9">
      <g>
       <use xlink:href="#m1aaf38ba6e" x="402.596824" y="162.432" style="stroke: #000000; stroke-width: 0.8"/>
      </g>
     </g>
     <g id="text_9">
      <!-- 80 -->
      <g transform="translate(396.234324 177.030437) scale(0.1 -0.1)">
       <defs>
        <path id="DejaVuSans-38" d="M 2034 2216 
Q 1584 2216 1326 1975 
Q 1069 1734 1069 1313 
Q 1069 891 1326 650 
Q 1584 409 2034 409 
Q 2484 409 2743 651 
Q 3003 894 3003 1313 
Q 3003 1734 2745 1975 
Q 2488 2216 2034 2216 
z
M 1403 2484 
Q 997 2584 770 2862 
Q 544 3141 544 3541 
Q 544 4100 942 4425 
Q 1341 4750 2034 4750 
Q 2731 4750 3128 4425 
Q 3525 4100 3525 3541 
Q 3525 3141 3298 2862 
Q 3072 2584 2669 2484 
Q 3125 2378 3379 2068 
Q 3634 1759 3634 1313 
Q 3634 634 3220 271 
Q 2806 -91 2034 -91 
Q 1263 -91 848 271 
Q 434 634 434 1313 
Q 434 1759 690 2068 
Q 947 2378 1403 2484 
z
M 1172 3481 
Q 1172 3119 1398 2916 
Q 1625 2713 2034 2713 
Q 2441 2713 2670 2916 
Q 2900 3119 2900 3481 
Q 2900 3844 2670 4047 
Q 2441 4250 2034 4250 
Q 1625 4250 1398 4047 
Q 1172 3844 1172 3481 
z
" transform="scale(0.015625)"/>
       </defs>
       <use xlink:href="#DejaVuSans-38"/>
       <use xlink:href="#DejaVuSans-30" x="63.623047"/>
      </g>
     </g>
    </g>
   </g>
   <g id="matplotlib.axis_2">
    <g id="ytick_1">
     <g id="line2d_10">
      <defs>
       <path id="md4190423b0" d="M 0 0 
L -3.5 0 
" style="stroke: #000000; stroke-width: 0.8"/>
      </defs>
      <g>
       <use xlink:href="#md4190423b0" x="57.6" y="162.432" style="stroke: #000000; stroke-width: 0.8"/>
      </g>
     </g>
     <g id="text_10">
      <!-- 50% -->
      <g transform="translate(28.373438 166.231219) scale(0.1 -0.1)">
       <defs>
        <path id="DejaVuSans-25" d="M 4653 2053 
Q 4381 2053 4226 1822 
Q 4072 1591 4072 1178 
Q 4072 772 4226 539 
Q 4381 306 4653 306 
Q 4919 306 5073 539 
Q 5228 772 5228 1178 
Q 5228 1588 5073 1820 
Q 4919 2053 4653 2053 
z
M 4653 2450 
Q 5147 2450 5437 2106 
Q 5728 1763 5728 1178 
Q 5728 594 5436 251 
Q 5144 -91 4653 -91 
Q 4153 -91 3862 251 
Q 3572 594 3572 1178 
Q 3572 1766 3864 2108 
Q 4156 2450 4653 2450 
z
M 1428 4353 
Q 1159 4353 1004 4120 
Q 850 3888 850 3481 
Q 850 3069 1003 2837 
Q 1156 2606 1428 2606 
Q 1700 2606 1854 2837 
Q 2009 3069 2009 3481 
Q 2009 3884 1853 4118 
Q 1697 4353 1428 4353 
z
M 4250 4750 
L 4750 4750 
L 1831 -91 
L 1331 -91 
L 4250 4750 
z
M 1428 4750 
Q 1922 4750 2215 4408 
Q 2509 4066 2509 3481 
Q 2509 2891 2217 2550 
Q 1925 2209 1428 2209 
Q 931 2209 642 2551 
Q 353 2894 353 3481 
Q 353 4063 643 4406 
Q 934 4750 1428 4750 
z
" transform="scale(0.015625)"/>
       </defs>
       <use xlink:href="#DejaVuSans-35"/>
       <use xlink:href="#DejaVuSans-30" x="63.623047"/>
       <use xlink:href="#DejaVuSans-25" x="127.246094"/>
      </g>
     </g>
    </g>
    <g id="ytick_2">
     <g id="line2d_11">
      <g>
       <use xlink:href="#md4190423b0" x="57.6" y="138.24" style="stroke: #000000; stroke-width: 0.8"/>
      </g>
     </g>
     <g id="text_11">
      <!-- 60% -->
      <g transform="translate(28.373438 142.039219) scale(0.1 -0.1)">
       <use xlink:href="#DejaVuSans-36"/>
       <use xlink:href="#DejaVuSans-30" x="63.623047"/>
       <use xlink:href="#DejaVuSans-25" x="127.246094"/>
      </g>
     </g>
    </g>
    <g id="ytick_3">
     <g id="line2d_12">
      <g>
       <use xlink:href="#md4190423b0" x="57.6" y="114.048" style="stroke: #000000; stroke-width: 0.8"/>
      </g>
     </g>
     <g id="text_12">
      <!-- 70% -->
      <g transform="translate(28.373438 117.847219) scale(0.1 -0.1)">
       <use xlink:href="#DejaVuSans-37"/>
       <use xlink:href="#DejaVuSans-30" x="63.623047"/>
       <use xlink:href="#DejaVuSans-25" x="127.246094"/>
      </g>
     </g>
    </g>
    <g id="ytick_4">
     <g id="line2d_13">
      <g>
       <use xlink:href="#md4190423b0" x="57.6" y="89.856" style="stroke: #000000; stroke-width: 0.8"/>
      </g>
     </g>
     <g id="text_13">
      <!-- 80% -->
      <g transform="translate(28.373438 93.655219) scale(0.1 -0.1)">
       <use xlink:href="#DejaVuSans-38"/>
       <use xlink:href="#DejaVuSans-30" x="63.623047"/>
       <use xlink:href="#DejaVuSans-25" x="127.246094"/>
      </g>
     </g>
    </g>
    <g id="ytick_5">
     <g id="line2d_14">
      <g>
       <use xlink:href="#md4190423b0" x="57.6" y="65.664" style="stroke: #000000; stroke-width: 0.8"/>
      </g>
     </g>
     <g id="text_14">
      <!-- 90% -->
      <g transform="translate(28.373438 69.463219) scale(0.1 -0.1)">
       <defs>
        <path id="DejaVuSans-39" d="M 703 97 
L 703 672 
Q 941 559 1184 500 
Q 1428 441 1663 441 
Q 2288 441 2617 861 
Q 2947 1281 2994 2138 
Q 2813 1869 2534 1725 
Q 2256 1581 1919 1581 
Q 1219 1581 811 2004 
Q 403 2428 403 3163 
Q 403 3881 828 4315 
Q 1253 4750 1959 4750 
Q 2769 4750 3195 4129 
Q 3622 3509 3622 2328 
Q 3622 1225 3098 567 
Q 2575 -91 1691 -91 
Q 1453 -91 1209 -44 
Q 966 3 703 97 
z
M 1959 2075 
Q 2384 2075 2632 2365 
Q 2881 2656 2881 3163 
Q 2881 3666 2632 3958 
Q 2384 4250 1959 4250 
Q 1534 4250 1286 3958 
Q 1038 3666 1038 3163 
Q 1038 2656 1286 2365 
Q 1534 2075 1959 2075 
z
" transform="scale(0.015625)"/>
       </defs>
       <use xlink:href="#DejaVuSans-39"/>
       <use xlink:href="#DejaVuSans-30" x="63.623047"/>
       <use xlink:href="#DejaVuSans-25" x="127.246094"/>
      </g>
     </g>
    </g>
    <g id="ytick_6">
     <g id="line2d_15">
      <g>
       <use xlink:href="#md4190423b0" x="57.6" y="41.472" style="stroke: #000000; stroke-width: 0.8"/>
      </g>
     </g>
     <g id="text_15">
      <!-- 100% -->
      <g transform="translate(22.010938 45.271219) scale(0.1 -0.1)">
       <use xlink:href="#DejaVuSans-31"/>
       <use xlink:href="#DejaVuSans-30" x="63.623047"/>
       <use xlink:href="#DejaVuSans-30" x="127.246094"/>
       <use xlink:href="#DejaVuSans-25" x="190.869141"/>
      </g>
     </g>
    </g>
    <g id="text_16">
     <!-- Accuracy -->
     <g transform="translate(15.93125 124.780125) rotate(-90) scale(0.1 -0.1)">
      <defs>
       <path id="DejaVuSans-41" d="M 2188 4044 
L 1331 1722 
L 3047 1722 
L 2188 4044 
z
M 1831 4666 
L 2547 4666 
L 4325 0 
L 3669 0 
L 3244 1197 
L 1141 1197 
L 716 0 
L 50 0 
L 1831 4666 
z
" transform="scale(0.015625)"/>
       <path id="DejaVuSans-63" d="M 3122 3366 
L 3122 2828 
Q 2878 2963 2633 3030 
Q 2388 3097 2138 3097 
Q 1578 3097 1268 2742 
Q 959 2388 959 1747 
Q 959 1106 1268 751 
Q 1578 397 2138 397 
Q 2388 397 2633 464 
Q 2878 531 3122 666 
L 3122 134 
Q 2881 22 2623 -34 
Q 2366 -91 2075 -91 
Q 1284 -91 818 406 
Q 353 903 353 1747 
Q 353 2603 823 3093 
Q 1294 3584 2113 3584 
Q 2378 3584 2631 3529 
Q 2884 3475 3122 3366 
z
" transform="scale(0.015625)"/>
       <path id="DejaVuSans-75" d="M 544 1381 
L 544 3500 
L 1119 3500 
L 1119 1403 
Q 1119 906 1312 657 
Q 1506 409 1894 409 
Q 2359 409 2629 706 
Q 2900 1003 2900 1516 
L 2900 3500 
L 3475 3500 
L 3475 0 
L 2900 0 
L 2900 538 
Q 2691 219 2414 64 
Q 2138 -91 1772 -91 
Q 1169 -91 856 284 
Q 544 659 544 1381 
z
M 1991 3584 
L 1991 3584 
z
" transform="scale(0.015625)"/>
       <path id="DejaVuSans-72" d="M 2631 2963 
Q 2534 3019 2420 3045 
Q 2306 3072 2169 3072 
Q 1681 3072 1420 2755 
Q 1159 2438 1159 1844 
L 1159 0 
L 581 0 
L 581 3500 
L 1159 3500 
L 1159 2956 
Q 1341 3275 1631 3429 
Q 1922 3584 2338 3584 
Q 2397 3584 2469 3576 
Q 2541 3569 2628 3553 
L 2631 2963 
z
" transform="scale(0.015625)"/>
       <path id="DejaVuSans-61" d="M 2194 1759 
Q 1497 1759 1228 1600 
Q 959 1441 959 1056 
Q 959 750 1161 570 
Q 1363 391 1709 391 
Q 2188 391 2477 730 
Q 2766 1069 2766 1631 
L 2766 1759 
L 2194 1759 
z
M 3341 1997 
L 3341 0 
L 2766 0 
L 2766 531 
Q 2569 213 2275 61 
Q 1981 -91 1556 -91 
Q 1019 -91 701 211 
Q 384 513 384 1019 
Q 384 1609 779 1909 
Q 1175 2209 1959 2209 
L 2766 2209 
L 2766 2266 
Q 2766 2663 2505 2880 
Q 2244 3097 1772 3097 
Q 1472 3097 1187 3025 
Q 903 2953 641 2809 
L 641 3341 
Q 956 3463 1253 3523 
Q 1550 3584 1831 3584 
Q 2591 3584 2966 3190 
Q 3341 2797 3341 1997 
z
" transform="scale(0.015625)"/>
       <path id="DejaVuSans-79" d="M 2059 -325 
Q 1816 -950 1584 -1140 
Q 1353 -1331 966 -1331 
L 506 -1331 
L 506 -850 
L 844 -850 
Q 1081 -850 1212 -737 
Q 1344 -625 1503 -206 
L 1606 56 
L 191 3500 
L 800 3500 
L 1894 763 
L 2988 3500 
L 3597 3500 
L 2059 -325 
z
" transform="scale(0.015625)"/>
      </defs>
      <use xlink:href="#DejaVuSans-41"/>
      <use xlink:href="#DejaVuSans-63" x="66.658203"/>
      <use xlink:href="#DejaVuSans-63" x="121.638672"/>
      <use xlink:href="#DejaVuSans-75" x="176.619141"/>
      <use xlink:href="#DejaVuSans-72" x="239.998047"/>
      <use xlink:href="#DejaVuSans-61" x="281.111328"/>
      <use xlink:href="#DejaVuSans-63" x="342.390625"/>
      <use xlink:href="#DejaVuSans-79" x="397.371094"/>
     </g>
    </g>
   </g>
   <g id="line2d_16">
    <path d="M 73.832727 206.013175 
L 77.942278 150.86965 
L 82.05183 146.422587 
L 86.161381 133.970825 
L 90.270932 122.111995 
L 94.380483 128.63435 
L 98.490035 118.850825 
L 102.599586 121.440001 
L 106.709137 115.392006 
L 110.818688 119.740238 
L 114.928239 117.072 
L 119.037791 118.079999 
L 123.147342 106.399063 
L 127.256893 109.343998 
L 131.366444 108.177888 
L 135.475995 109.067301 
L 139.585547 104.620238 
L 143.695098 107.328 
L 147.804649 112.624937 
L 151.9142 110.688001 
L 156.023751 98.39435 
L 160.133303 104.640007 
L 164.242854 95.726112 
L 168.352405 99.936002 
L 172.461956 95.726112 
L 176.571507 94.560002 
L 180.681059 97.504937 
L 184.79061 97.504937 
L 188.900161 102.841413 
L 193.009712 94.836699 
L 197.119264 102.841413 
L 201.228815 101.062587 
L 205.338366 99.283762 
L 209.447917 95.904006 
L 213.557468 103.967998 
L 217.66702 95.726112 
L 221.776571 98.39435 
L 225.886122 90.38965 
L 229.995673 95.726112 
L 234.105224 93.057888 
L 238.214776 95.726112 
L 242.324327 89.500238 
L 246.433878 102.841413 
L 250.543429 93.057888 
L 254.65298 93.887993 
L 258.762532 98.39435 
L 262.872083 98.39435 
L 266.981634 98.39435 
L 271.091185 89.855997 
L 275.200736 93.947301 
L 279.310288 95.231997 
L 283.419839 101.952 
L 287.52939 91.200001 
L 291.638941 85.942587 
L 295.748493 93.887993 
L 299.858044 93.057888 
L 303.967595 89.500238 
L 308.077146 92.168476 
L 312.186697 93.947301 
L 316.296249 90.38965 
L 320.4058 100.173175 
L 324.515351 99.283762 
L 328.624902 90.38965 
L 332.734453 97.504937 
L 336.844005 102.841413 
L 340.953556 89.500238 
L 345.063107 99.283762 
L 349.172658 93.057888 
L 353.282209 84.163762 
L 357.391761 90.38965 
L 361.501312 90.528006 
L 365.610863 84.163762 
L 369.720414 92.168476 
L 373.829965 99.283762 
L 377.939517 91.279063 
L 382.049068 87.839999 
L 386.158619 82.463999 
L 390.26817 88.610825 
L 394.377722 93.057888 
L 398.487273 103.296004 
" clip-path="url(#p02afa9faf5)" style="fill: none; stroke: #1f77b4; stroke-width: 1.5; stroke-linecap: square"/>
    <defs>
     <path id="m7706bffaf7" d="M 0 3 
C 0.795609 3 1.55874 2.683901 2.12132 2.12132 
C 2.683901 1.55874 3 0.795609 3 0 
C 3 -0.795609 2.683901 -1.55874 2.12132 -2.12132 
C 1.55874 -2.683901 0.795609 -3 0 -3 
C -0.795609 -3 -1.55874 -2.683901 -2.12132 -2.12132 
C -2.683901 -1.55874 -3 -0.795609 -3 0 
C -3 0.795609 -2.683901 1.55874 -2.12132 2.12132 
C -1.55874 2.683901 -0.795609 3 0 3 
z
" style="stroke: #1f77b4"/>
    </defs>
    <g clip-path="url(#p02afa9faf5)">
     <use xlink:href="#m7706bffaf7" x="73.832727" y="206.013175" style="fill: #1f77b4; stroke: #1f77b4"/>
     <use xlink:href="#m7706bffaf7" x="77.942278" y="150.86965" style="fill: #1f77b4; stroke: #1f77b4"/>
     <use xlink:href="#m7706bffaf7" x="82.05183" y="146.422587" style="fill: #1f77b4; stroke: #1f77b4"/>
     <use xlink:href="#m7706bffaf7" x="86.161381" y="133.970825" style="fill: #1f77b4; stroke: #1f77b4"/>
     <use xlink:href="#m7706bffaf7" x="90.270932" y="122.111995" style="fill: #1f77b4; stroke: #1f77b4"/>
     <use xlink:href="#m7706bffaf7" x="94.380483" y="128.63435" style="fill: #1f77b4; stroke: #1f77b4"/>
     <use xlink:href="#m7706bffaf7" x="98.490035" y="118.850825" style="fill: #1f77b4; stroke: #1f77b4"/>
     <use xlink:href="#m7706bffaf7" x="102.599586" y="121.440001" style="fill: #1f77b4; stroke: #1f77b4"/>
     <use xlink:href="#m7706bffaf7" x="106.709137" y="115.392006" style="fill: #1f77b4; stroke: #1f77b4"/>
     <use xlink:href="#m7706bffaf7" x="110.818688" y="119.740238" style="fill: #1f77b4; stroke: #1f77b4"/>
     <use xlink:href="#m7706bffaf7" x="114.928239" y="117.072" style="fill: #1f77b4; stroke: #1f77b4"/>
     <use xlink:href="#m7706bffaf7" x="119.037791" y="118.079999" style="fill: #1f77b4; stroke: #1f77b4"/>
     <use xlink:href="#m7706bffaf7" x="123.147342" y="106.399063" style="fill: #1f77b4; stroke: #1f77b4"/>
     <use xlink:href="#m7706bffaf7" x="127.256893" y="109.343998" style="fill: #1f77b4; stroke: #1f77b4"/>
     <use xlink:href="#m7706bffaf7" x="131.366444" y="108.177888" style="fill: #1f77b4; stroke: #1f77b4"/>
     <use xlink:href="#m7706bffaf7" x="135.475995" y="109.067301" style="fill: #1f77b4; stroke: #1f77b4"/>
     <use xlink:href="#m7706bffaf7" x="139.585547" y="104.620238" style="fill: #1f77b4; stroke: #1f77b4"/>
     <use xlink:href="#m7706bffaf7" x="143.695098" y="107.328" style="fill: #1f77b4; stroke: #1f77b4"/>
     <use xlink:href="#m7706bffaf7" x="147.804649" y="112.624937" style="fill: #1f77b4; stroke: #1f77b4"/>
     <use xlink:href="#m7706bffaf7" x="151.9142" y="110.688001" style="fill: #1f77b4; stroke: #1f77b4"/>
     <use xlink:href="#m7706bffaf7" x="156.023751" y="98.39435" style="fill: #1f77b4; stroke: #1f77b4"/>
     <use xlink:href="#m7706bffaf7" x="160.133303" y="104.640007" style="fill: #1f77b4; stroke: #1f77b4"/>
     <use xlink:href="#m7706bffaf7" x="164.242854" y="95.726112" style="fill: #1f77b4; stroke: #1f77b4"/>
     <use xlink:href="#m7706bffaf7" x="168.352405" y="99.936002" style="fill: #1f77b4; stroke: #1f77b4"/>
     <use xlink:href="#m7706bffaf7" x="172.461956" y="95.726112" style="fill: #1f77b4; stroke: #1f77b4"/>
     <use xlink:href="#m7706bffaf7" x="176.571507" y="94.560002" style="fill: #1f77b4; stroke: #1f77b4"/>
     <use xlink:href="#m7706bffaf7" x="180.681059" y="97.504937" style="fill: #1f77b4; stroke: #1f77b4"/>
     <use xlink:href="#m7706bffaf7" x="184.79061" y="97.504937" style="fill: #1f77b4; stroke: #1f77b4"/>
     <use xlink:href="#m7706bffaf7" x="188.900161" y="102.841413" style="fill: #1f77b4; stroke: #1f77b4"/>
     <use xlink:href="#m7706bffaf7" x="193.009712" y="94.836699" style="fill: #1f77b4; stroke: #1f77b4"/>
     <use xlink:href="#m7706bffaf7" x="197.119264" y="102.841413" style="fill: #1f77b4; stroke: #1f77b4"/>
     <use xlink:href="#m7706bffaf7" x="201.228815" y="101.062587" style="fill: #1f77b4; stroke: #1f77b4"/>
     <use xlink:href="#m7706bffaf7" x="205.338366" y="99.283762" style="fill: #1f77b4; stroke: #1f77b4"/>
     <use xlink:href="#m7706bffaf7" x="209.447917" y="95.904006" style="fill: #1f77b4; stroke: #1f77b4"/>
     <use xlink:href="#m7706bffaf7" x="213.557468" y="103.967998" style="fill: #1f77b4; stroke: #1f77b4"/>
     <use xlink:href="#m7706bffaf7" x="217.66702" y="95.726112" style="fill: #1f77b4; stroke: #1f77b4"/>
     <use xlink:href="#m7706bffaf7" x="221.776571" y="98.39435" style="fill: #1f77b4; stroke: #1f77b4"/>
     <use xlink:href="#m7706bffaf7" x="225.886122" y="90.38965" style="fill: #1f77b4; stroke: #1f77b4"/>
     <use xlink:href="#m7706bffaf7" x="229.995673" y="95.726112" style="fill: #1f77b4; stroke: #1f77b4"/>
     <use xlink:href="#m7706bffaf7" x="234.105224" y="93.057888" style="fill: #1f77b4; stroke: #1f77b4"/>
     <use xlink:href="#m7706bffaf7" x="238.214776" y="95.726112" style="fill: #1f77b4; stroke: #1f77b4"/>
     <use xlink:href="#m7706bffaf7" x="242.324327" y="89.500238" style="fill: #1f77b4; stroke: #1f77b4"/>
     <use xlink:href="#m7706bffaf7" x="246.433878" y="102.841413" style="fill: #1f77b4; stroke: #1f77b4"/>
     <use xlink:href="#m7706bffaf7" x="250.543429" y="93.057888" style="fill: #1f77b4; stroke: #1f77b4"/>
     <use xlink:href="#m7706bffaf7" x="254.65298" y="93.887993" style="fill: #1f77b4; stroke: #1f77b4"/>
     <use xlink:href="#m7706bffaf7" x="258.762532" y="98.39435" style="fill: #1f77b4; stroke: #1f77b4"/>
     <use xlink:href="#m7706bffaf7" x="262.872083" y="98.39435" style="fill: #1f77b4; stroke: #1f77b4"/>
     <use xlink:href="#m7706bffaf7" x="266.981634" y="98.39435" style="fill: #1f77b4; stroke: #1f77b4"/>
     <use xlink:href="#m7706bffaf7" x="271.091185" y="89.855997" style="fill: #1f77b4; stroke: #1f77b4"/>
     <use xlink:href="#m7706bffaf7" x="275.200736" y="93.947301" style="fill: #1f77b4; stroke: #1f77b4"/>
     <use xlink:href="#m7706bffaf7" x="279.310288" y="95.231997" style="fill: #1f77b4; stroke: #1f77b4"/>
     <use xlink:href="#m7706bffaf7" x="283.419839" y="101.952" style="fill: #1f77b4; stroke: #1f77b4"/>
     <use xlink:href="#m7706bffaf7" x="287.52939" y="91.200001" style="fill: #1f77b4; stroke: #1f77b4"/>
     <use xlink:href="#m7706bffaf7" x="291.638941" y="85.942587" style="fill: #1f77b4; stroke: #1f77b4"/>
     <use xlink:href="#m7706bffaf7" x="295.748493" y="93.887993" style="fill: #1f77b4; stroke: #1f77b4"/>
     <use xlink:href="#m7706bffaf7" x="299.858044" y="93.057888" style="fill: #1f77b4; stroke: #1f77b4"/>
     <use xlink:href="#m7706bffaf7" x="303.967595" y="89.500238" style="fill: #1f77b4; stroke: #1f77b4"/>
     <use xlink:href="#m7706bffaf7" x="308.077146" y="92.168476" style="fill: #1f77b4; stroke: #1f77b4"/>
     <use xlink:href="#m7706bffaf7" x="312.186697" y="93.947301" style="fill: #1f77b4; stroke: #1f77b4"/>
     <use xlink:href="#m7706bffaf7" x="316.296249" y="90.38965" style="fill: #1f77b4; stroke: #1f77b4"/>
     <use xlink:href="#m7706bffaf7" x="320.4058" y="100.173175" style="fill: #1f77b4; stroke: #1f77b4"/>
     <use xlink:href="#m7706bffaf7" x="324.515351" y="99.283762" style="fill: #1f77b4; stroke: #1f77b4"/>
     <use xlink:href="#m7706bffaf7" x="328.624902" y="90.38965" style="fill: #1f77b4; stroke: #1f77b4"/>
     <use xlink:href="#m7706bffaf7" x="332.734453" y="97.504937" style="fill: #1f77b4; stroke: #1f77b4"/>
     <use xlink:href="#m7706bffaf7" x="336.844005" y="102.841413" style="fill: #1f77b4; stroke: #1f77b4"/>
     <use xlink:href="#m7706bffaf7" x="340.953556" y="89.500238" style="fill: #1f77b4; stroke: #1f77b4"/>
     <use xlink:href="#m7706bffaf7" x="345.063107" y="99.283762" style="fill: #1f77b4; stroke: #1f77b4"/>
     <use xlink:href="#m7706bffaf7" x="349.172658" y="93.057888" style="fill: #1f77b4; stroke: #1f77b4"/>
     <use xlink:href="#m7706bffaf7" x="353.282209" y="84.163762" style="fill: #1f77b4; stroke: #1f77b4"/>
     <use xlink:href="#m7706bffaf7" x="357.391761" y="90.38965" style="fill: #1f77b4; stroke: #1f77b4"/>
     <use xlink:href="#m7706bffaf7" x="361.501312" y="90.528006" style="fill: #1f77b4; stroke: #1f77b4"/>
     <use xlink:href="#m7706bffaf7" x="365.610863" y="84.163762" style="fill: #1f77b4; stroke: #1f77b4"/>
     <use xlink:href="#m7706bffaf7" x="369.720414" y="92.168476" style="fill: #1f77b4; stroke: #1f77b4"/>
     <use xlink:href="#m7706bffaf7" x="373.829965" y="99.283762" style="fill: #1f77b4; stroke: #1f77b4"/>
     <use xlink:href="#m7706bffaf7" x="377.939517" y="91.279063" style="fill: #1f77b4; stroke: #1f77b4"/>
     <use xlink:href="#m7706bffaf7" x="382.049068" y="87.839999" style="fill: #1f77b4; stroke: #1f77b4"/>
     <use xlink:href="#m7706bffaf7" x="386.158619" y="82.463999" style="fill: #1f77b4; stroke: #1f77b4"/>
     <use xlink:href="#m7706bffaf7" x="390.26817" y="88.610825" style="fill: #1f77b4; stroke: #1f77b4"/>
     <use xlink:href="#m7706bffaf7" x="394.377722" y="93.057888" style="fill: #1f77b4; stroke: #1f77b4"/>
     <use xlink:href="#m7706bffaf7" x="398.487273" y="103.296004" style="fill: #1f77b4; stroke: #1f77b4"/>
    </g>
   </g>
   <g id="line2d_17">
    <path d="M 73.832727 283.392 
L 77.942278 283.392 
L 82.05183 264.575999 
L 86.161381 251.135998 
L 90.270932 232.319999 
L 94.380483 197.375998 
L 98.490035 191.999998 
L 102.599586 197.375998 
L 106.709137 224.256 
L 110.818688 200.063998 
L 114.928239 205.439997 
L 119.037791 189.311998 
L 123.147342 205.439997 
L 127.256893 200.063998 
L 131.366444 197.375998 
L 135.475995 205.439997 
L 139.585547 216.191997 
L 143.695098 200.063998 
L 147.804649 186.623999 
L 151.9142 194.687998 
L 156.023751 205.439997 
L 160.133303 194.687998 
L 164.242854 186.623999 
L 168.352405 208.127997 
L 172.461956 191.999998 
L 176.571507 183.935999 
L 180.681059 189.311998 
L 184.79061 178.559999 
L 188.900161 170.496 
L 193.009712 159.743993 
L 197.119264 159.743993 
L 201.228815 170.496 
L 205.338366 175.871999 
L 209.447917 157.056 
L 213.557468 159.743993 
L 217.66702 159.743993 
L 221.776571 159.743993 
L 225.886122 151.680001 
L 229.995673 148.991994 
L 234.105224 143.615994 
L 238.214776 165.12 
L 242.324327 146.304001 
L 246.433878 140.928001 
L 250.543429 143.615994 
L 254.65298 140.928001 
L 258.762532 151.680001 
L 262.872083 130.176002 
L 266.981634 127.487995 
L 271.091185 130.176002 
L 275.200736 138.239994 
L 279.310288 151.680001 
L 283.419839 122.111995 
L 287.52939 127.487995 
L 291.638941 122.111995 
L 295.748493 130.176002 
L 299.858044 132.863995 
L 303.967595 132.863995 
L 308.077146 146.304001 
L 312.186697 119.424003 
L 316.296249 127.487995 
L 320.4058 138.239994 
L 324.515351 130.176002 
L 328.624902 119.424003 
L 332.734453 140.928001 
L 336.844005 140.928001 
L 340.953556 122.111995 
L 345.063107 130.176002 
L 349.172658 130.176002 
L 353.282209 122.111995 
L 357.391761 119.424003 
L 361.501312 132.863995 
L 365.610863 130.176002 
L 369.720414 135.552002 
L 373.829965 124.800002 
L 377.939517 116.735996 
L 382.049068 105.983996 
L 386.158619 124.800002 
L 390.26817 127.487995 
L 394.377722 127.487995 
L 398.487273 111.359996 
" clip-path="url(#p02afa9faf5)" style="fill: none; stroke: #ff7f0e; stroke-width: 1.5; stroke-linecap: square"/>
    <defs>
     <path id="m2ce622067c" d="M 0 3 
C 0.795609 3 1.55874 2.683901 2.12132 2.12132 
C 2.683901 1.55874 3 0.795609 3 0 
C 3 -0.795609 2.683901 -1.55874 2.12132 -2.12132 
C 1.55874 -2.683901 0.795609 -3 0 -3 
C -0.795609 -3 -1.55874 -2.683901 -2.12132 -2.12132 
C -2.683901 -1.55874 -3 -0.795609 -3 0 
C -3 0.795609 -2.683901 1.55874 -2.12132 2.12132 
C -1.55874 2.683901 -0.795609 3 0 3 
z
" style="stroke: #ff7f0e"/>
    </defs>
    <g clip-path="url(#p02afa9faf5)">
     <use xlink:href="#m2ce622067c" x="73.832727" y="283.392" style="fill: #ff7f0e; stroke: #ff7f0e"/>
     <use xlink:href="#m2ce622067c" x="77.942278" y="283.392" style="fill: #ff7f0e; stroke: #ff7f0e"/>
     <use xlink:href="#m2ce622067c" x="82.05183" y="264.575999" style="fill: #ff7f0e; stroke: #ff7f0e"/>
     <use xlink:href="#m2ce622067c" x="86.161381" y="251.135998" style="fill: #ff7f0e; stroke: #ff7f0e"/>
     <use xlink:href="#m2ce622067c" x="90.270932" y="232.319999" style="fill: #ff7f0e; stroke: #ff7f0e"/>
     <use xlink:href="#m2ce622067c" x="94.380483" y="197.375998" style="fill: #ff7f0e; stroke: #ff7f0e"/>
     <use xlink:href="#m2ce622067c" x="98.490035" y="191.999998" style="fill: #ff7f0e; stroke: #ff7f0e"/>
     <use xlink:href="#m2ce622067c" x="102.599586" y="197.375998" style="fill: #ff7f0e; stroke: #ff7f0e"/>
     <use xlink:href="#m2ce622067c" x="106.709137" y="224.256" style="fill: #ff7f0e; stroke: #ff7f0e"/>
     <use xlink:href="#m2ce622067c" x="110.818688" y="200.063998" style="fill: #ff7f0e; stroke: #ff7f0e"/>
     <use xlink:href="#m2ce622067c" x="114.928239" y="205.439997" style="fill: #ff7f0e; stroke: #ff7f0e"/>
     <use xlink:href="#m2ce622067c" x="119.037791" y="189.311998" style="fill: #ff7f0e; stroke: #ff7f0e"/>
     <use xlink:href="#m2ce622067c" x="123.147342" y="205.439997" style="fill: #ff7f0e; stroke: #ff7f0e"/>
     <use xlink:href="#m2ce622067c" x="127.256893" y="200.063998" style="fill: #ff7f0e; stroke: #ff7f0e"/>
     <use xlink:href="#m2ce622067c" x="131.366444" y="197.375998" style="fill: #ff7f0e; stroke: #ff7f0e"/>
     <use xlink:href="#m2ce622067c" x="135.475995" y="205.439997" style="fill: #ff7f0e; stroke: #ff7f0e"/>
     <use xlink:href="#m2ce622067c" x="139.585547" y="216.191997" style="fill: #ff7f0e; stroke: #ff7f0e"/>
     <use xlink:href="#m2ce622067c" x="143.695098" y="200.063998" style="fill: #ff7f0e; stroke: #ff7f0e"/>
     <use xlink:href="#m2ce622067c" x="147.804649" y="186.623999" style="fill: #ff7f0e; stroke: #ff7f0e"/>
     <use xlink:href="#m2ce622067c" x="151.9142" y="194.687998" style="fill: #ff7f0e; stroke: #ff7f0e"/>
     <use xlink:href="#m2ce622067c" x="156.023751" y="205.439997" style="fill: #ff7f0e; stroke: #ff7f0e"/>
     <use xlink:href="#m2ce622067c" x="160.133303" y="194.687998" style="fill: #ff7f0e; stroke: #ff7f0e"/>
     <use xlink:href="#m2ce622067c" x="164.242854" y="186.623999" style="fill: #ff7f0e; stroke: #ff7f0e"/>
     <use xlink:href="#m2ce622067c" x="168.352405" y="208.127997" style="fill: #ff7f0e; stroke: #ff7f0e"/>
     <use xlink:href="#m2ce622067c" x="172.461956" y="191.999998" style="fill: #ff7f0e; stroke: #ff7f0e"/>
     <use xlink:href="#m2ce622067c" x="176.571507" y="183.935999" style="fill: #ff7f0e; stroke: #ff7f0e"/>
     <use xlink:href="#m2ce622067c" x="180.681059" y="189.311998" style="fill: #ff7f0e; stroke: #ff7f0e"/>
     <use xlink:href="#m2ce622067c" x="184.79061" y="178.559999" style="fill: #ff7f0e; stroke: #ff7f0e"/>
     <use xlink:href="#m2ce622067c" x="188.900161" y="170.496" style="fill: #ff7f0e; stroke: #ff7f0e"/>
     <use xlink:href="#m2ce622067c" x="193.009712" y="159.743993" style="fill: #ff7f0e; stroke: #ff7f0e"/>
     <use xlink:href="#m2ce622067c" x="197.119264" y="159.743993" style="fill: #ff7f0e; stroke: #ff7f0e"/>
     <use xlink:href="#m2ce622067c" x="201.228815" y="170.496" style="fill: #ff7f0e; stroke: #ff7f0e"/>
     <use xlink:href="#m2ce622067c" x="205.338366" y="175.871999" style="fill: #ff7f0e; stroke: #ff7f0e"/>
     <use xlink:href="#m2ce622067c" x="209.447917" y="157.056" style="fill: #ff7f0e; stroke: #ff7f0e"/>
     <use xlink:href="#m2ce622067c" x="213.557468" y="159.743993" style="fill: #ff7f0e; stroke: #ff7f0e"/>
     <use xlink:href="#m2ce622067c" x="217.66702" y="159.743993" style="fill: #ff7f0e; stroke: #ff7f0e"/>
     <use xlink:href="#m2ce622067c" x="221.776571" y="159.743993" style="fill: #ff7f0e; stroke: #ff7f0e"/>
     <use xlink:href="#m2ce622067c" x="225.886122" y="151.680001" style="fill: #ff7f0e; stroke: #ff7f0e"/>
     <use xlink:href="#m2ce622067c" x="229.995673" y="148.991994" style="fill: #ff7f0e; stroke: #ff7f0e"/>
     <use xlink:href="#m2ce622067c" x="234.105224" y="143.615994" style="fill: #ff7f0e; stroke: #ff7f0e"/>
     <use xlink:href="#m2ce622067c" x="238.214776" y="165.12" style="fill: #ff7f0e; stroke: #ff7f0e"/>
     <use xlink:href="#m2ce622067c" x="242.324327" y="146.304001" style="fill: #ff7f0e; stroke: #ff7f0e"/>
     <use xlink:href="#m2ce622067c" x="246.433878" y="140.928001" style="fill: #ff7f0e; stroke: #ff7f0e"/>
     <use xlink:href="#m2ce622067c" x="250.543429" y="143.615994" style="fill: #ff7f0e; stroke: #ff7f0e"/>
     <use xlink:href="#m2ce622067c" x="254.65298" y="140.928001" style="fill: #ff7f0e; stroke: #ff7f0e"/>
     <use xlink:href="#m2ce622067c" x="258.762532" y="151.680001" style="fill: #ff7f0e; stroke: #ff7f0e"/>
     <use xlink:href="#m2ce622067c" x="262.872083" y="130.176002" style="fill: #ff7f0e; stroke: #ff7f0e"/>
     <use xlink:href="#m2ce622067c" x="266.981634" y="127.487995" style="fill: #ff7f0e; stroke: #ff7f0e"/>
     <use xlink:href="#m2ce622067c" x="271.091185" y="130.176002" style="fill: #ff7f0e; stroke: #ff7f0e"/>
     <use xlink:href="#m2ce622067c" x="275.200736" y="138.239994" style="fill: #ff7f0e; stroke: #ff7f0e"/>
     <use xlink:href="#m2ce622067c" x="279.310288" y="151.680001" style="fill: #ff7f0e; stroke: #ff7f0e"/>
     <use xlink:href="#m2ce622067c" x="283.419839" y="122.111995" style="fill: #ff7f0e; stroke: #ff7f0e"/>
     <use xlink:href="#m2ce622067c" x="287.52939" y="127.487995" style="fill: #ff7f0e; stroke: #ff7f0e"/>
     <use xlink:href="#m2ce622067c" x="291.638941" y="122.111995" style="fill: #ff7f0e; stroke: #ff7f0e"/>
     <use xlink:href="#m2ce622067c" x="295.748493" y="130.176002" style="fill: #ff7f0e; stroke: #ff7f0e"/>
     <use xlink:href="#m2ce622067c" x="299.858044" y="132.863995" style="fill: #ff7f0e; stroke: #ff7f0e"/>
     <use xlink:href="#m2ce622067c" x="303.967595" y="132.863995" style="fill: #ff7f0e; stroke: #ff7f0e"/>
     <use xlink:href="#m2ce622067c" x="308.077146" y="146.304001" style="fill: #ff7f0e; stroke: #ff7f0e"/>
     <use xlink:href="#m2ce622067c" x="312.186697" y="119.424003" style="fill: #ff7f0e; stroke: #ff7f0e"/>
     <use xlink:href="#m2ce622067c" x="316.296249" y="127.487995" style="fill: #ff7f0e; stroke: #ff7f0e"/>
     <use xlink:href="#m2ce622067c" x="320.4058" y="138.239994" style="fill: #ff7f0e; stroke: #ff7f0e"/>
     <use xlink:href="#m2ce622067c" x="324.515351" y="130.176002" style="fill: #ff7f0e; stroke: #ff7f0e"/>
     <use xlink:href="#m2ce622067c" x="328.624902" y="119.424003" style="fill: #ff7f0e; stroke: #ff7f0e"/>
     <use xlink:href="#m2ce622067c" x="332.734453" y="140.928001" style="fill: #ff7f0e; stroke: #ff7f0e"/>
     <use xlink:href="#m2ce622067c" x="336.844005" y="140.928001" style="fill: #ff7f0e; stroke: #ff7f0e"/>
     <use xlink:href="#m2ce622067c" x="340.953556" y="122.111995" style="fill: #ff7f0e; stroke: #ff7f0e"/>
     <use xlink:href="#m2ce622067c" x="345.063107" y="130.176002" style="fill: #ff7f0e; stroke: #ff7f0e"/>
     <use xlink:href="#m2ce622067c" x="349.172658" y="130.176002" style="fill: #ff7f0e; stroke: #ff7f0e"/>
     <use xlink:href="#m2ce622067c" x="353.282209" y="122.111995" style="fill: #ff7f0e; stroke: #ff7f0e"/>
     <use xlink:href="#m2ce622067c" x="357.391761" y="119.424003" style="fill: #ff7f0e; stroke: #ff7f0e"/>
     <use xlink:href="#m2ce622067c" x="361.501312" y="132.863995" style="fill: #ff7f0e; stroke: #ff7f0e"/>
     <use xlink:href="#m2ce622067c" x="365.610863" y="130.176002" style="fill: #ff7f0e; stroke: #ff7f0e"/>
     <use xlink:href="#m2ce622067c" x="369.720414" y="135.552002" style="fill: #ff7f0e; stroke: #ff7f0e"/>
     <use xlink:href="#m2ce622067c" x="373.829965" y="124.800002" style="fill: #ff7f0e; stroke: #ff7f0e"/>
     <use xlink:href="#m2ce622067c" x="377.939517" y="116.735996" style="fill: #ff7f0e; stroke: #ff7f0e"/>
     <use xlink:href="#m2ce622067c" x="382.049068" y="105.983996" style="fill: #ff7f0e; stroke: #ff7f0e"/>
     <use xlink:href="#m2ce622067c" x="386.158619" y="124.800002" style="fill: #ff7f0e; stroke: #ff7f0e"/>
     <use xlink:href="#m2ce622067c" x="390.26817" y="127.487995" style="fill: #ff7f0e; stroke: #ff7f0e"/>
     <use xlink:href="#m2ce622067c" x="394.377722" y="127.487995" style="fill: #ff7f0e; stroke: #ff7f0e"/>
     <use xlink:href="#m2ce622067c" x="398.487273" y="111.359996" style="fill: #ff7f0e; stroke: #ff7f0e"/>
    </g>
   </g>
   <g id="patch_3">
    <path d="M 57.6 162.432 
L 57.6 41.472 
" style="fill: none; stroke: #000000; stroke-width: 0.8; stroke-linejoin: miter; stroke-linecap: square"/>
   </g>
   <g id="patch_4">
    <path d="M 414.72 162.432 
L 414.72 41.472 
" style="fill: none; stroke: #000000; stroke-width: 0.8; stroke-linejoin: miter; stroke-linecap: square"/>
   </g>
   <g id="patch_5">
    <path d="M 57.6 162.432 
L 414.72 162.432 
" style="fill: none; stroke: #000000; stroke-width: 0.8; stroke-linejoin: miter; stroke-linecap: square"/>
   </g>
   <g id="patch_6">
    <path d="M 57.6 41.472 
L 414.72 41.472 
" style="fill: none; stroke: #000000; stroke-width: 0.8; stroke-linejoin: miter; stroke-linecap: square"/>
   </g>
   <g id="legend_1">
    <g id="patch_7">
     <path d="M 278.18875 78.82825 
L 407.72 78.82825 
Q 409.72 78.82825 409.72 76.82825 
L 409.72 48.472 
Q 409.72 46.472 407.72 46.472 
L 278.18875 46.472 
Q 276.18875 46.472 276.18875 48.472 
L 276.18875 76.82825 
Q 276.18875 78.82825 278.18875 78.82825 
z
" style="fill: #ffffff; opacity: 0.8; stroke: #cccccc; stroke-linejoin: miter"/>
    </g>
    <g id="line2d_18">
     <path d="M 280.18875 54.570437 
L 290.18875 54.570437 
L 300.18875 54.570437 
" style="fill: none; stroke: #1f77b4; stroke-width: 1.5; stroke-linecap: square"/>
     <g>
      <use xlink:href="#m7706bffaf7" x="290.18875" y="54.570437" style="fill: #1f77b4; stroke: #1f77b4"/>
     </g>
    </g>
    <g id="text_17">
     <!-- training accuracy -->
     <g transform="translate(308.18875 58.070437) scale(0.1 -0.1)">
      <defs>
       <path id="DejaVuSans-74" d="M 1172 4494 
L 1172 3500 
L 2356 3500 
L 2356 3053 
L 1172 3053 
L 1172 1153 
Q 1172 725 1289 603 
Q 1406 481 1766 481 
L 2356 481 
L 2356 0 
L 1766 0 
Q 1100 0 847 248 
Q 594 497 594 1153 
L 594 3053 
L 172 3053 
L 172 3500 
L 594 3500 
L 594 4494 
L 1172 4494 
z
" transform="scale(0.015625)"/>
       <path id="DejaVuSans-69" d="M 603 3500 
L 1178 3500 
L 1178 0 
L 603 0 
L 603 3500 
z
M 603 4863 
L 1178 4863 
L 1178 4134 
L 603 4134 
L 603 4863 
z
" transform="scale(0.015625)"/>
       <path id="DejaVuSans-6e" d="M 3513 2113 
L 3513 0 
L 2938 0 
L 2938 2094 
Q 2938 2591 2744 2837 
Q 2550 3084 2163 3084 
Q 1697 3084 1428 2787 
Q 1159 2491 1159 1978 
L 1159 0 
L 581 0 
L 581 3500 
L 1159 3500 
L 1159 2956 
Q 1366 3272 1645 3428 
Q 1925 3584 2291 3584 
Q 2894 3584 3203 3211 
Q 3513 2838 3513 2113 
z
" transform="scale(0.015625)"/>
       <path id="DejaVuSans-67" d="M 2906 1791 
Q 2906 2416 2648 2759 
Q 2391 3103 1925 3103 
Q 1463 3103 1205 2759 
Q 947 2416 947 1791 
Q 947 1169 1205 825 
Q 1463 481 1925 481 
Q 2391 481 2648 825 
Q 2906 1169 2906 1791 
z
M 3481 434 
Q 3481 -459 3084 -895 
Q 2688 -1331 1869 -1331 
Q 1566 -1331 1297 -1286 
Q 1028 -1241 775 -1147 
L 775 -588 
Q 1028 -725 1275 -790 
Q 1522 -856 1778 -856 
Q 2344 -856 2625 -561 
Q 2906 -266 2906 331 
L 2906 616 
Q 2728 306 2450 153 
Q 2172 0 1784 0 
Q 1141 0 747 490 
Q 353 981 353 1791 
Q 353 2603 747 3093 
Q 1141 3584 1784 3584 
Q 2172 3584 2450 3431 
Q 2728 3278 2906 2969 
L 2906 3500 
L 3481 3500 
L 3481 434 
z
" transform="scale(0.015625)"/>
       <path id="DejaVuSans-20" transform="scale(0.015625)"/>
      </defs>
      <use xlink:href="#DejaVuSans-74"/>
      <use xlink:href="#DejaVuSans-72" x="39.208984"/>
      <use xlink:href="#DejaVuSans-61" x="80.322266"/>
      <use xlink:href="#DejaVuSans-69" x="141.601562"/>
      <use xlink:href="#DejaVuSans-6e" x="169.384766"/>
      <use xlink:href="#DejaVuSans-69" x="232.763672"/>
      <use xlink:href="#DejaVuSans-6e" x="260.546875"/>
      <use xlink:href="#DejaVuSans-67" x="323.925781"/>
      <use xlink:href="#DejaVuSans-20" x="387.402344"/>
      <use xlink:href="#DejaVuSans-61" x="419.189453"/>
      <use xlink:href="#DejaVuSans-63" x="480.46875"/>
      <use xlink:href="#DejaVuSans-63" x="535.449219"/>
      <use xlink:href="#DejaVuSans-75" x="590.429688"/>
      <use xlink:href="#DejaVuSans-72" x="653.808594"/>
      <use xlink:href="#DejaVuSans-61" x="694.921875"/>
      <use xlink:href="#DejaVuSans-63" x="756.201172"/>
      <use xlink:href="#DejaVuSans-79" x="811.181641"/>
     </g>
    </g>
    <g id="line2d_19">
     <path d="M 280.18875 69.248562 
L 290.18875 69.248562 
L 300.18875 69.248562 
" style="fill: none; stroke: #ff7f0e; stroke-width: 1.5; stroke-linecap: square"/>
     <g>
      <use xlink:href="#m2ce622067c" x="290.18875" y="69.248562" style="fill: #ff7f0e; stroke: #ff7f0e"/>
     </g>
    </g>
    <g id="text_18">
     <!-- validation accuracy -->
     <g transform="translate(308.18875 72.748562) scale(0.1 -0.1)">
      <defs>
       <path id="DejaVuSans-76" d="M 191 3500 
L 800 3500 
L 1894 563 
L 2988 3500 
L 3597 3500 
L 2284 0 
L 1503 0 
L 191 3500 
z
" transform="scale(0.015625)"/>
       <path id="DejaVuSans-6c" d="M 603 4863 
L 1178 4863 
L 1178 0 
L 603 0 
L 603 4863 
z
" transform="scale(0.015625)"/>
       <path id="DejaVuSans-64" d="M 2906 2969 
L 2906 4863 
L 3481 4863 
L 3481 0 
L 2906 0 
L 2906 525 
Q 2725 213 2448 61 
Q 2172 -91 1784 -91 
Q 1150 -91 751 415 
Q 353 922 353 1747 
Q 353 2572 751 3078 
Q 1150 3584 1784 3584 
Q 2172 3584 2448 3432 
Q 2725 3281 2906 2969 
z
M 947 1747 
Q 947 1113 1208 752 
Q 1469 391 1925 391 
Q 2381 391 2643 752 
Q 2906 1113 2906 1747 
Q 2906 2381 2643 2742 
Q 2381 3103 1925 3103 
Q 1469 3103 1208 2742 
Q 947 2381 947 1747 
z
" transform="scale(0.015625)"/>
       <path id="DejaVuSans-6f" d="M 1959 3097 
Q 1497 3097 1228 2736 
Q 959 2375 959 1747 
Q 959 1119 1226 758 
Q 1494 397 1959 397 
Q 2419 397 2687 759 
Q 2956 1122 2956 1747 
Q 2956 2369 2687 2733 
Q 2419 3097 1959 3097 
z
M 1959 3584 
Q 2709 3584 3137 3096 
Q 3566 2609 3566 1747 
Q 3566 888 3137 398 
Q 2709 -91 1959 -91 
Q 1206 -91 779 398 
Q 353 888 353 1747 
Q 353 2609 779 3096 
Q 1206 3584 1959 3584 
z
" transform="scale(0.015625)"/>
      </defs>
      <use xlink:href="#DejaVuSans-76"/>
      <use xlink:href="#DejaVuSans-61" x="59.179688"/>
      <use xlink:href="#DejaVuSans-6c" x="120.458984"/>
      <use xlink:href="#DejaVuSans-69" x="148.242188"/>
      <use xlink:href="#DejaVuSans-64" x="176.025391"/>
      <use xlink:href="#DejaVuSans-61" x="239.501953"/>
      <use xlink:href="#DejaVuSans-74" x="300.78125"/>
      <use xlink:href="#DejaVuSans-69" x="339.990234"/>
      <use xlink:href="#DejaVuSans-6f" x="367.773438"/>
      <use xlink:href="#DejaVuSans-6e" x="428.955078"/>
      <use xlink:href="#DejaVuSans-20" x="492.333984"/>
      <use xlink:href="#DejaVuSans-61" x="524.121094"/>
      <use xlink:href="#DejaVuSans-63" x="585.400391"/>
      <use xlink:href="#DejaVuSans-63" x="640.380859"/>
      <use xlink:href="#DejaVuSans-75" x="695.361328"/>
      <use xlink:href="#DejaVuSans-72" x="758.740234"/>
      <use xlink:href="#DejaVuSans-61" x="799.853516"/>
      <use xlink:href="#DejaVuSans-63" x="861.132812"/>
      <use xlink:href="#DejaVuSans-79" x="916.113281"/>
     </g>
    </g>
   </g>
  </g>
  <g id="axes_2">
   <g id="patch_8">
    <path d="M 57.6 307.584 
L 414.72 307.584 
L 414.72 186.624 
L 57.6 186.624 
z
" style="fill: #ffffff"/>
   </g>
   <g id="matplotlib.axis_3">
    <g id="xtick_10">
     <g id="line2d_20">
      <g>
       <use xlink:href="#m1aaf38ba6e" x="73.832727" y="307.584" style="stroke: #000000; stroke-width: 0.8"/>
      </g>
     </g>
     <g id="text_19">
      <!-- 0 -->
      <g transform="translate(70.651477 322.182437) scale(0.1 -0.1)">
       <use xlink:href="#DejaVuSans-30"/>
      </g>
     </g>
    </g>
    <g id="xtick_11">
     <g id="line2d_21">
      <g>
       <use xlink:href="#m1aaf38ba6e" x="114.928239" y="307.584" style="stroke: #000000; stroke-width: 0.8"/>
      </g>
     </g>
     <g id="text_20">
      <!-- 10 -->
      <g transform="translate(108.565739 322.182437) scale(0.1 -0.1)">
       <use xlink:href="#DejaVuSans-31"/>
       <use xlink:href="#DejaVuSans-30" x="63.623047"/>
      </g>
     </g>
    </g>
    <g id="xtick_12">
     <g id="line2d_22">
      <g>
       <use xlink:href="#m1aaf38ba6e" x="156.023751" y="307.584" style="stroke: #000000; stroke-width: 0.8"/>
      </g>
     </g>
     <g id="text_21">
      <!-- 20 -->
      <g transform="translate(149.661251 322.182437) scale(0.1 -0.1)">
       <use xlink:href="#DejaVuSans-32"/>
       <use xlink:href="#DejaVuSans-30" x="63.623047"/>
      </g>
     </g>
    </g>
    <g id="xtick_13">
     <g id="line2d_23">
      <g>
       <use xlink:href="#m1aaf38ba6e" x="197.119264" y="307.584" style="stroke: #000000; stroke-width: 0.8"/>
      </g>
     </g>
     <g id="text_22">
      <!-- 30 -->
      <g transform="translate(190.756764 322.182437) scale(0.1 -0.1)">
       <use xlink:href="#DejaVuSans-33"/>
       <use xlink:href="#DejaVuSans-30" x="63.623047"/>
      </g>
     </g>
    </g>
    <g id="xtick_14">
     <g id="line2d_24">
      <g>
       <use xlink:href="#m1aaf38ba6e" x="238.214776" y="307.584" style="stroke: #000000; stroke-width: 0.8"/>
      </g>
     </g>
     <g id="text_23">
      <!-- 40 -->
      <g transform="translate(231.852276 322.182437) scale(0.1 -0.1)">
       <use xlink:href="#DejaVuSans-34"/>
       <use xlink:href="#DejaVuSans-30" x="63.623047"/>
      </g>
     </g>
    </g>
    <g id="xtick_15">
     <g id="line2d_25">
      <g>
       <use xlink:href="#m1aaf38ba6e" x="279.310288" y="307.584" style="stroke: #000000; stroke-width: 0.8"/>
      </g>
     </g>
     <g id="text_24">
      <!-- 50 -->
      <g transform="translate(272.947788 322.182437) scale(0.1 -0.1)">
       <use xlink:href="#DejaVuSans-35"/>
       <use xlink:href="#DejaVuSans-30" x="63.623047"/>
      </g>
     </g>
    </g>
    <g id="xtick_16">
     <g id="line2d_26">
      <g>
       <use xlink:href="#m1aaf38ba6e" x="320.4058" y="307.584" style="stroke: #000000; stroke-width: 0.8"/>
      </g>
     </g>
     <g id="text_25">
      <!-- 60 -->
      <g transform="translate(314.0433 322.182437) scale(0.1 -0.1)">
       <use xlink:href="#DejaVuSans-36"/>
       <use xlink:href="#DejaVuSans-30" x="63.623047"/>
      </g>
     </g>
    </g>
    <g id="xtick_17">
     <g id="line2d_27">
      <g>
       <use xlink:href="#m1aaf38ba6e" x="361.501312" y="307.584" style="stroke: #000000; stroke-width: 0.8"/>
      </g>
     </g>
     <g id="text_26">
      <!-- 70 -->
      <g transform="translate(355.138812 322.182437) scale(0.1 -0.1)">
       <use xlink:href="#DejaVuSans-37"/>
       <use xlink:href="#DejaVuSans-30" x="63.623047"/>
      </g>
     </g>
    </g>
    <g id="xtick_18">
     <g id="line2d_28">
      <g>
       <use xlink:href="#m1aaf38ba6e" x="402.596824" y="307.584" style="stroke: #000000; stroke-width: 0.8"/>
      </g>
     </g>
     <g id="text_27">
      <!-- 80 -->
      <g transform="translate(396.234324 322.182437) scale(0.1 -0.1)">
       <use xlink:href="#DejaVuSans-38"/>
       <use xlink:href="#DejaVuSans-30" x="63.623047"/>
      </g>
     </g>
    </g>
    <g id="text_28">
     <!-- Number of epoch -->
     <g transform="translate(192.848281 335.860562) scale(0.1 -0.1)">
      <defs>
       <path id="DejaVuSans-4e" d="M 628 4666 
L 1478 4666 
L 3547 763 
L 3547 4666 
L 4159 4666 
L 4159 0 
L 3309 0 
L 1241 3903 
L 1241 0 
L 628 0 
L 628 4666 
z
" transform="scale(0.015625)"/>
       <path id="DejaVuSans-6d" d="M 3328 2828 
Q 3544 3216 3844 3400 
Q 4144 3584 4550 3584 
Q 5097 3584 5394 3201 
Q 5691 2819 5691 2113 
L 5691 0 
L 5113 0 
L 5113 2094 
Q 5113 2597 4934 2840 
Q 4756 3084 4391 3084 
Q 3944 3084 3684 2787 
Q 3425 2491 3425 1978 
L 3425 0 
L 2847 0 
L 2847 2094 
Q 2847 2600 2669 2842 
Q 2491 3084 2119 3084 
Q 1678 3084 1418 2786 
Q 1159 2488 1159 1978 
L 1159 0 
L 581 0 
L 581 3500 
L 1159 3500 
L 1159 2956 
Q 1356 3278 1631 3431 
Q 1906 3584 2284 3584 
Q 2666 3584 2933 3390 
Q 3200 3197 3328 2828 
z
" transform="scale(0.015625)"/>
       <path id="DejaVuSans-62" d="M 3116 1747 
Q 3116 2381 2855 2742 
Q 2594 3103 2138 3103 
Q 1681 3103 1420 2742 
Q 1159 2381 1159 1747 
Q 1159 1113 1420 752 
Q 1681 391 2138 391 
Q 2594 391 2855 752 
Q 3116 1113 3116 1747 
z
M 1159 2969 
Q 1341 3281 1617 3432 
Q 1894 3584 2278 3584 
Q 2916 3584 3314 3078 
Q 3713 2572 3713 1747 
Q 3713 922 3314 415 
Q 2916 -91 2278 -91 
Q 1894 -91 1617 61 
Q 1341 213 1159 525 
L 1159 0 
L 581 0 
L 581 4863 
L 1159 4863 
L 1159 2969 
z
" transform="scale(0.015625)"/>
       <path id="DejaVuSans-65" d="M 3597 1894 
L 3597 1613 
L 953 1613 
Q 991 1019 1311 708 
Q 1631 397 2203 397 
Q 2534 397 2845 478 
Q 3156 559 3463 722 
L 3463 178 
Q 3153 47 2828 -22 
Q 2503 -91 2169 -91 
Q 1331 -91 842 396 
Q 353 884 353 1716 
Q 353 2575 817 3079 
Q 1281 3584 2069 3584 
Q 2775 3584 3186 3129 
Q 3597 2675 3597 1894 
z
M 3022 2063 
Q 3016 2534 2758 2815 
Q 2500 3097 2075 3097 
Q 1594 3097 1305 2825 
Q 1016 2553 972 2059 
L 3022 2063 
z
" transform="scale(0.015625)"/>
       <path id="DejaVuSans-66" d="M 2375 4863 
L 2375 4384 
L 1825 4384 
Q 1516 4384 1395 4259 
Q 1275 4134 1275 3809 
L 1275 3500 
L 2222 3500 
L 2222 3053 
L 1275 3053 
L 1275 0 
L 697 0 
L 697 3053 
L 147 3053 
L 147 3500 
L 697 3500 
L 697 3744 
Q 697 4328 969 4595 
Q 1241 4863 1831 4863 
L 2375 4863 
z
" transform="scale(0.015625)"/>
       <path id="DejaVuSans-70" d="M 1159 525 
L 1159 -1331 
L 581 -1331 
L 581 3500 
L 1159 3500 
L 1159 2969 
Q 1341 3281 1617 3432 
Q 1894 3584 2278 3584 
Q 2916 3584 3314 3078 
Q 3713 2572 3713 1747 
Q 3713 922 3314 415 
Q 2916 -91 2278 -91 
Q 1894 -91 1617 61 
Q 1341 213 1159 525 
z
M 3116 1747 
Q 3116 2381 2855 2742 
Q 2594 3103 2138 3103 
Q 1681 3103 1420 2742 
Q 1159 2381 1159 1747 
Q 1159 1113 1420 752 
Q 1681 391 2138 391 
Q 2594 391 2855 752 
Q 3116 1113 3116 1747 
z
" transform="scale(0.015625)"/>
       <path id="DejaVuSans-68" d="M 3513 2113 
L 3513 0 
L 2938 0 
L 2938 2094 
Q 2938 2591 2744 2837 
Q 2550 3084 2163 3084 
Q 1697 3084 1428 2787 
Q 1159 2491 1159 1978 
L 1159 0 
L 581 0 
L 581 4863 
L 1159 4863 
L 1159 2956 
Q 1366 3272 1645 3428 
Q 1925 3584 2291 3584 
Q 2894 3584 3203 3211 
Q 3513 2838 3513 2113 
z
" transform="scale(0.015625)"/>
      </defs>
      <use xlink:href="#DejaVuSans-4e"/>
      <use xlink:href="#DejaVuSans-75" x="74.804688"/>
      <use xlink:href="#DejaVuSans-6d" x="138.183594"/>
      <use xlink:href="#DejaVuSans-62" x="235.595703"/>
      <use xlink:href="#DejaVuSans-65" x="299.072266"/>
      <use xlink:href="#DejaVuSans-72" x="360.595703"/>
      <use xlink:href="#DejaVuSans-20" x="401.708984"/>
      <use xlink:href="#DejaVuSans-6f" x="433.496094"/>
      <use xlink:href="#DejaVuSans-66" x="494.677734"/>
      <use xlink:href="#DejaVuSans-20" x="529.882812"/>
      <use xlink:href="#DejaVuSans-65" x="561.669922"/>
      <use xlink:href="#DejaVuSans-70" x="623.193359"/>
      <use xlink:href="#DejaVuSans-6f" x="686.669922"/>
      <use xlink:href="#DejaVuSans-63" x="747.851562"/>
      <use xlink:href="#DejaVuSans-68" x="802.832031"/>
     </g>
    </g>
   </g>
   <g id="matplotlib.axis_4">
    <g id="ytick_7">
     <g id="line2d_29">
      <g>
       <use xlink:href="#md4190423b0" x="57.6" y="274.311555" style="stroke: #000000; stroke-width: 0.8"/>
      </g>
     </g>
     <g id="text_29">
      <!-- 1000% -->
      <g transform="translate(15.648438 278.110774) scale(0.1 -0.1)">
       <use xlink:href="#DejaVuSans-31"/>
       <use xlink:href="#DejaVuSans-30" x="63.623047"/>
       <use xlink:href="#DejaVuSans-30" x="127.246094"/>
       <use xlink:href="#DejaVuSans-30" x="190.869141"/>
       <use xlink:href="#DejaVuSans-25" x="254.492188"/>
      </g>
     </g>
    </g>
    <g id="ytick_8">
     <g id="line2d_30">
      <g>
       <use xlink:href="#md4190423b0" x="57.6" y="238.531505" style="stroke: #000000; stroke-width: 0.8"/>
      </g>
     </g>
     <g id="text_30">
      <!-- 1500% -->
      <g transform="translate(15.648438 242.330723) scale(0.1 -0.1)">
       <use xlink:href="#DejaVuSans-31"/>
       <use xlink:href="#DejaVuSans-35" x="63.623047"/>
       <use xlink:href="#DejaVuSans-30" x="127.246094"/>
       <use xlink:href="#DejaVuSans-30" x="190.869141"/>
       <use xlink:href="#DejaVuSans-25" x="254.492188"/>
      </g>
     </g>
    </g>
    <g id="ytick_9">
     <g id="line2d_31">
      <g>
       <use xlink:href="#md4190423b0" x="57.6" y="202.751454" style="stroke: #000000; stroke-width: 0.8"/>
      </g>
     </g>
     <g id="text_31">
      <!-- 2000% -->
      <g transform="translate(15.648438 206.550673) scale(0.1 -0.1)">
       <use xlink:href="#DejaVuSans-32"/>
       <use xlink:href="#DejaVuSans-30" x="63.623047"/>
       <use xlink:href="#DejaVuSans-30" x="127.246094"/>
       <use xlink:href="#DejaVuSans-30" x="190.869141"/>
       <use xlink:href="#DejaVuSans-25" x="254.492188"/>
      </g>
     </g>
    </g>
    <g id="text_32">
     <!-- loss -->
     <g transform="translate(9.56875 256.761812) rotate(-90) scale(0.1 -0.1)">
      <defs>
       <path id="DejaVuSans-73" d="M 2834 3397 
L 2834 2853 
Q 2591 2978 2328 3040 
Q 2066 3103 1784 3103 
Q 1356 3103 1142 2972 
Q 928 2841 928 2578 
Q 928 2378 1081 2264 
Q 1234 2150 1697 2047 
L 1894 2003 
Q 2506 1872 2764 1633 
Q 3022 1394 3022 966 
Q 3022 478 2636 193 
Q 2250 -91 1575 -91 
Q 1294 -91 989 -36 
Q 684 19 347 128 
L 347 722 
Q 666 556 975 473 
Q 1284 391 1588 391 
Q 1994 391 2212 530 
Q 2431 669 2431 922 
Q 2431 1156 2273 1281 
Q 2116 1406 1581 1522 
L 1381 1569 
Q 847 1681 609 1914 
Q 372 2147 372 2553 
Q 372 3047 722 3315 
Q 1072 3584 1716 3584 
Q 2034 3584 2315 3537 
Q 2597 3491 2834 3397 
z
" transform="scale(0.015625)"/>
      </defs>
      <use xlink:href="#DejaVuSans-6c"/>
      <use xlink:href="#DejaVuSans-6f" x="27.783203"/>
      <use xlink:href="#DejaVuSans-73" x="88.964844"/>
      <use xlink:href="#DejaVuSans-73" x="141.064453"/>
     </g>
    </g>
   </g>
   <g id="line2d_32">
    <path d="M 73.832727 192.122182 
L 77.942278 212.17623 
L 82.05183 230.848001 
L 86.161381 243.010501 
L 90.270932 253.100549 
L 94.380483 260.237089 
L 98.490035 268.193388 
L 102.599586 273.084598 
L 106.709137 278.112373 
L 110.818688 281.740136 
L 114.928239 283.791274 
L 119.037791 286.744168 
L 123.147342 288.855301 
L 127.256893 291.149474 
L 131.366444 291.906325 
L 135.475995 293.486958 
L 139.585547 294.809966 
L 143.695098 295.92163 
L 147.804649 295.413696 
L 151.9142 296.198425 
L 156.023751 297.261133 
L 160.133303 297.097594 
L 164.242854 298.097777 
L 168.352405 298.319781 
L 172.461956 298.647535 
L 176.571507 298.935382 
L 180.681059 298.672113 
L 184.79061 298.879141 
L 188.900161 298.646487 
L 193.009712 299.331984 
L 197.119264 298.282106 
L 201.228815 298.8432 
L 205.338366 298.627416 
L 209.447917 299.698764 
L 213.557468 299.210396 
L 217.66702 299.591749 
L 221.776571 299.421211 
L 225.886122 300.092797 
L 229.995673 299.916981 
L 234.105224 299.668016 
L 238.214776 299.606797 
L 242.324327 300.472963 
L 246.433878 299.816838 
L 250.543429 300.376806 
L 254.65298 300.290162 
L 258.762532 299.983803 
L 262.872083 300.072283 
L 266.981634 300.419749 
L 271.091185 300.710855 
L 275.200736 300.446897 
L 279.310288 300.744663 
L 283.419839 300.75012 
L 287.52939 300.972957 
L 291.638941 301.389852 
L 295.748493 301.089304 
L 299.858044 301.299055 
L 303.967595 301.610434 
L 308.077146 301.260821 
L 312.186697 301.348359 
L 316.296249 301.288781 
L 320.4058 301.02541 
L 324.515351 301.421535 
L 328.624902 301.865868 
L 332.734453 301.188195 
L 336.844005 301.094822 
L 340.953556 301.520626 
L 345.063107 301.409759 
L 349.172658 301.345994 
L 353.282209 302.085818 
L 357.391761 301.502371 
L 361.501312 301.629856 
L 365.610863 301.958381 
L 369.720414 301.698674 
L 373.829965 301.405282 
L 377.939517 301.731118 
L 382.049068 301.787437 
L 386.158619 301.929636 
L 390.26817 301.362175 
L 394.377722 301.34046 
L 398.487273 301.056949 
" clip-path="url(#pdc34d1ab24)" style="fill: none; stroke: #1f77b4; stroke-width: 1.5; stroke-linecap: square"/>
    <g clip-path="url(#pdc34d1ab24)">
     <use xlink:href="#m7706bffaf7" x="73.832727" y="192.122182" style="fill: #1f77b4; stroke: #1f77b4"/>
     <use xlink:href="#m7706bffaf7" x="77.942278" y="212.17623" style="fill: #1f77b4; stroke: #1f77b4"/>
     <use xlink:href="#m7706bffaf7" x="82.05183" y="230.848001" style="fill: #1f77b4; stroke: #1f77b4"/>
     <use xlink:href="#m7706bffaf7" x="86.161381" y="243.010501" style="fill: #1f77b4; stroke: #1f77b4"/>
     <use xlink:href="#m7706bffaf7" x="90.270932" y="253.100549" style="fill: #1f77b4; stroke: #1f77b4"/>
     <use xlink:href="#m7706bffaf7" x="94.380483" y="260.237089" style="fill: #1f77b4; stroke: #1f77b4"/>
     <use xlink:href="#m7706bffaf7" x="98.490035" y="268.193388" style="fill: #1f77b4; stroke: #1f77b4"/>
     <use xlink:href="#m7706bffaf7" x="102.599586" y="273.084598" style="fill: #1f77b4; stroke: #1f77b4"/>
     <use xlink:href="#m7706bffaf7" x="106.709137" y="278.112373" style="fill: #1f77b4; stroke: #1f77b4"/>
     <use xlink:href="#m7706bffaf7" x="110.818688" y="281.740136" style="fill: #1f77b4; stroke: #1f77b4"/>
     <use xlink:href="#m7706bffaf7" x="114.928239" y="283.791274" style="fill: #1f77b4; stroke: #1f77b4"/>
     <use xlink:href="#m7706bffaf7" x="119.037791" y="286.744168" style="fill: #1f77b4; stroke: #1f77b4"/>
     <use xlink:href="#m7706bffaf7" x="123.147342" y="288.855301" style="fill: #1f77b4; stroke: #1f77b4"/>
     <use xlink:href="#m7706bffaf7" x="127.256893" y="291.149474" style="fill: #1f77b4; stroke: #1f77b4"/>
     <use xlink:href="#m7706bffaf7" x="131.366444" y="291.906325" style="fill: #1f77b4; stroke: #1f77b4"/>
     <use xlink:href="#m7706bffaf7" x="135.475995" y="293.486958" style="fill: #1f77b4; stroke: #1f77b4"/>
     <use xlink:href="#m7706bffaf7" x="139.585547" y="294.809966" style="fill: #1f77b4; stroke: #1f77b4"/>
     <use xlink:href="#m7706bffaf7" x="143.695098" y="295.92163" style="fill: #1f77b4; stroke: #1f77b4"/>
     <use xlink:href="#m7706bffaf7" x="147.804649" y="295.413696" style="fill: #1f77b4; stroke: #1f77b4"/>
     <use xlink:href="#m7706bffaf7" x="151.9142" y="296.198425" style="fill: #1f77b4; stroke: #1f77b4"/>
     <use xlink:href="#m7706bffaf7" x="156.023751" y="297.261133" style="fill: #1f77b4; stroke: #1f77b4"/>
     <use xlink:href="#m7706bffaf7" x="160.133303" y="297.097594" style="fill: #1f77b4; stroke: #1f77b4"/>
     <use xlink:href="#m7706bffaf7" x="164.242854" y="298.097777" style="fill: #1f77b4; stroke: #1f77b4"/>
     <use xlink:href="#m7706bffaf7" x="168.352405" y="298.319781" style="fill: #1f77b4; stroke: #1f77b4"/>
     <use xlink:href="#m7706bffaf7" x="172.461956" y="298.647535" style="fill: #1f77b4; stroke: #1f77b4"/>
     <use xlink:href="#m7706bffaf7" x="176.571507" y="298.935382" style="fill: #1f77b4; stroke: #1f77b4"/>
     <use xlink:href="#m7706bffaf7" x="180.681059" y="298.672113" style="fill: #1f77b4; stroke: #1f77b4"/>
     <use xlink:href="#m7706bffaf7" x="184.79061" y="298.879141" style="fill: #1f77b4; stroke: #1f77b4"/>
     <use xlink:href="#m7706bffaf7" x="188.900161" y="298.646487" style="fill: #1f77b4; stroke: #1f77b4"/>
     <use xlink:href="#m7706bffaf7" x="193.009712" y="299.331984" style="fill: #1f77b4; stroke: #1f77b4"/>
     <use xlink:href="#m7706bffaf7" x="197.119264" y="298.282106" style="fill: #1f77b4; stroke: #1f77b4"/>
     <use xlink:href="#m7706bffaf7" x="201.228815" y="298.8432" style="fill: #1f77b4; stroke: #1f77b4"/>
     <use xlink:href="#m7706bffaf7" x="205.338366" y="298.627416" style="fill: #1f77b4; stroke: #1f77b4"/>
     <use xlink:href="#m7706bffaf7" x="209.447917" y="299.698764" style="fill: #1f77b4; stroke: #1f77b4"/>
     <use xlink:href="#m7706bffaf7" x="213.557468" y="299.210396" style="fill: #1f77b4; stroke: #1f77b4"/>
     <use xlink:href="#m7706bffaf7" x="217.66702" y="299.591749" style="fill: #1f77b4; stroke: #1f77b4"/>
     <use xlink:href="#m7706bffaf7" x="221.776571" y="299.421211" style="fill: #1f77b4; stroke: #1f77b4"/>
     <use xlink:href="#m7706bffaf7" x="225.886122" y="300.092797" style="fill: #1f77b4; stroke: #1f77b4"/>
     <use xlink:href="#m7706bffaf7" x="229.995673" y="299.916981" style="fill: #1f77b4; stroke: #1f77b4"/>
     <use xlink:href="#m7706bffaf7" x="234.105224" y="299.668016" style="fill: #1f77b4; stroke: #1f77b4"/>
     <use xlink:href="#m7706bffaf7" x="238.214776" y="299.606797" style="fill: #1f77b4; stroke: #1f77b4"/>
     <use xlink:href="#m7706bffaf7" x="242.324327" y="300.472963" style="fill: #1f77b4; stroke: #1f77b4"/>
     <use xlink:href="#m7706bffaf7" x="246.433878" y="299.816838" style="fill: #1f77b4; stroke: #1f77b4"/>
     <use xlink:href="#m7706bffaf7" x="250.543429" y="300.376806" style="fill: #1f77b4; stroke: #1f77b4"/>
     <use xlink:href="#m7706bffaf7" x="254.65298" y="300.290162" style="fill: #1f77b4; stroke: #1f77b4"/>
     <use xlink:href="#m7706bffaf7" x="258.762532" y="299.983803" style="fill: #1f77b4; stroke: #1f77b4"/>
     <use xlink:href="#m7706bffaf7" x="262.872083" y="300.072283" style="fill: #1f77b4; stroke: #1f77b4"/>
     <use xlink:href="#m7706bffaf7" x="266.981634" y="300.419749" style="fill: #1f77b4; stroke: #1f77b4"/>
     <use xlink:href="#m7706bffaf7" x="271.091185" y="300.710855" style="fill: #1f77b4; stroke: #1f77b4"/>
     <use xlink:href="#m7706bffaf7" x="275.200736" y="300.446897" style="fill: #1f77b4; stroke: #1f77b4"/>
     <use xlink:href="#m7706bffaf7" x="279.310288" y="300.744663" style="fill: #1f77b4; stroke: #1f77b4"/>
     <use xlink:href="#m7706bffaf7" x="283.419839" y="300.75012" style="fill: #1f77b4; stroke: #1f77b4"/>
     <use xlink:href="#m7706bffaf7" x="287.52939" y="300.972957" style="fill: #1f77b4; stroke: #1f77b4"/>
     <use xlink:href="#m7706bffaf7" x="291.638941" y="301.389852" style="fill: #1f77b4; stroke: #1f77b4"/>
     <use xlink:href="#m7706bffaf7" x="295.748493" y="301.089304" style="fill: #1f77b4; stroke: #1f77b4"/>
     <use xlink:href="#m7706bffaf7" x="299.858044" y="301.299055" style="fill: #1f77b4; stroke: #1f77b4"/>
     <use xlink:href="#m7706bffaf7" x="303.967595" y="301.610434" style="fill: #1f77b4; stroke: #1f77b4"/>
     <use xlink:href="#m7706bffaf7" x="308.077146" y="301.260821" style="fill: #1f77b4; stroke: #1f77b4"/>
     <use xlink:href="#m7706bffaf7" x="312.186697" y="301.348359" style="fill: #1f77b4; stroke: #1f77b4"/>
     <use xlink:href="#m7706bffaf7" x="316.296249" y="301.288781" style="fill: #1f77b4; stroke: #1f77b4"/>
     <use xlink:href="#m7706bffaf7" x="320.4058" y="301.02541" style="fill: #1f77b4; stroke: #1f77b4"/>
     <use xlink:href="#m7706bffaf7" x="324.515351" y="301.421535" style="fill: #1f77b4; stroke: #1f77b4"/>
     <use xlink:href="#m7706bffaf7" x="328.624902" y="301.865868" style="fill: #1f77b4; stroke: #1f77b4"/>
     <use xlink:href="#m7706bffaf7" x="332.734453" y="301.188195" style="fill: #1f77b4; stroke: #1f77b4"/>
     <use xlink:href="#m7706bffaf7" x="336.844005" y="301.094822" style="fill: #1f77b4; stroke: #1f77b4"/>
     <use xlink:href="#m7706bffaf7" x="340.953556" y="301.520626" style="fill: #1f77b4; stroke: #1f77b4"/>
     <use xlink:href="#m7706bffaf7" x="345.063107" y="301.409759" style="fill: #1f77b4; stroke: #1f77b4"/>
     <use xlink:href="#m7706bffaf7" x="349.172658" y="301.345994" style="fill: #1f77b4; stroke: #1f77b4"/>
     <use xlink:href="#m7706bffaf7" x="353.282209" y="302.085818" style="fill: #1f77b4; stroke: #1f77b4"/>
     <use xlink:href="#m7706bffaf7" x="357.391761" y="301.502371" style="fill: #1f77b4; stroke: #1f77b4"/>
     <use xlink:href="#m7706bffaf7" x="361.501312" y="301.629856" style="fill: #1f77b4; stroke: #1f77b4"/>
     <use xlink:href="#m7706bffaf7" x="365.610863" y="301.958381" style="fill: #1f77b4; stroke: #1f77b4"/>
     <use xlink:href="#m7706bffaf7" x="369.720414" y="301.698674" style="fill: #1f77b4; stroke: #1f77b4"/>
     <use xlink:href="#m7706bffaf7" x="373.829965" y="301.405282" style="fill: #1f77b4; stroke: #1f77b4"/>
     <use xlink:href="#m7706bffaf7" x="377.939517" y="301.731118" style="fill: #1f77b4; stroke: #1f77b4"/>
     <use xlink:href="#m7706bffaf7" x="382.049068" y="301.787437" style="fill: #1f77b4; stroke: #1f77b4"/>
     <use xlink:href="#m7706bffaf7" x="386.158619" y="301.929636" style="fill: #1f77b4; stroke: #1f77b4"/>
     <use xlink:href="#m7706bffaf7" x="390.26817" y="301.362175" style="fill: #1f77b4; stroke: #1f77b4"/>
     <use xlink:href="#m7706bffaf7" x="394.377722" y="301.34046" style="fill: #1f77b4; stroke: #1f77b4"/>
     <use xlink:href="#m7706bffaf7" x="398.487273" y="301.056949" style="fill: #1f77b4; stroke: #1f77b4"/>
    </g>
   </g>
   <g id="line2d_33">
    <path d="M 73.832727 199.043948 
L 77.942278 215.787975 
L 82.05183 228.076885 
L 86.161381 238.609106 
L 90.270932 249.362271 
L 94.380483 257.99339 
L 98.490035 264.96245 
L 102.599586 269.285718 
L 106.709137 272.490941 
L 110.818688 277.025912 
L 114.928239 279.88342 
L 119.037791 282.384799 
L 123.147342 283.581898 
L 127.256893 284.613231 
L 131.366444 285.780364 
L 135.475995 286.749723 
L 139.585547 287.928131 
L 143.695098 288.337819 
L 147.804649 289.202532 
L 151.9142 290.099094 
L 156.023751 290.326787 
L 160.133303 290.636257 
L 164.242854 291.255032 
L 168.352405 290.911909 
L 172.461956 291.002389 
L 176.571507 292.150778 
L 180.681059 291.538535 
L 184.79061 291.975457 
L 188.900161 292.461563 
L 193.009712 293.146187 
L 197.119264 293.963735 
L 201.228815 293.540298 
L 205.338366 293.309664 
L 209.447917 294.204633 
L 213.557468 294.234371 
L 217.66702 294.245819 
L 221.776571 294.621153 
L 225.886122 294.885046 
L 229.995673 295.00398 
L 234.105224 295.034673 
L 238.214776 295.352146 
L 242.324327 295.393997 
L 246.433878 295.935433 
L 250.543429 295.715418 
L 254.65298 295.958578 
L 258.762532 296.353007 
L 262.872083 296.188966 
L 266.981634 297.093322 
L 271.091185 296.589694 
L 275.200736 296.756144 
L 279.310288 296.365694 
L 283.419839 297.857237 
L 287.52939 297.372827 
L 291.638941 296.960722 
L 295.748493 296.891945 
L 299.858044 297.56785 
L 303.967595 297.033441 
L 308.077146 298.0008 
L 312.186697 297.873322 
L 316.296249 297.232842 
L 320.4058 297.22306 
L 324.515351 297.22194 
L 328.624902 298.068755 
L 332.734453 296.595236 
L 336.844005 296.92603 
L 340.953556 297.904346 
L 345.063107 297.964211 
L 349.172658 297.622549 
L 353.282209 298.259944 
L 357.391761 297.617526 
L 361.501312 297.915115 
L 365.610863 297.491013 
L 369.720414 297.681639 
L 373.829965 297.303408 
L 377.939517 298.67615 
L 382.049068 298.796193 
L 386.158619 297.316426 
L 390.26817 298.17171 
L 394.377722 297.035004 
L 398.487273 297.445651 
" clip-path="url(#pdc34d1ab24)" style="fill: none; stroke: #ff7f0e; stroke-width: 1.5; stroke-linecap: square"/>
    <g clip-path="url(#pdc34d1ab24)">
     <use xlink:href="#m2ce622067c" x="73.832727" y="199.043948" style="fill: #ff7f0e; stroke: #ff7f0e"/>
     <use xlink:href="#m2ce622067c" x="77.942278" y="215.787975" style="fill: #ff7f0e; stroke: #ff7f0e"/>
     <use xlink:href="#m2ce622067c" x="82.05183" y="228.076885" style="fill: #ff7f0e; stroke: #ff7f0e"/>
     <use xlink:href="#m2ce622067c" x="86.161381" y="238.609106" style="fill: #ff7f0e; stroke: #ff7f0e"/>
     <use xlink:href="#m2ce622067c" x="90.270932" y="249.362271" style="fill: #ff7f0e; stroke: #ff7f0e"/>
     <use xlink:href="#m2ce622067c" x="94.380483" y="257.99339" style="fill: #ff7f0e; stroke: #ff7f0e"/>
     <use xlink:href="#m2ce622067c" x="98.490035" y="264.96245" style="fill: #ff7f0e; stroke: #ff7f0e"/>
     <use xlink:href="#m2ce622067c" x="102.599586" y="269.285718" style="fill: #ff7f0e; stroke: #ff7f0e"/>
     <use xlink:href="#m2ce622067c" x="106.709137" y="272.490941" style="fill: #ff7f0e; stroke: #ff7f0e"/>
     <use xlink:href="#m2ce622067c" x="110.818688" y="277.025912" style="fill: #ff7f0e; stroke: #ff7f0e"/>
     <use xlink:href="#m2ce622067c" x="114.928239" y="279.88342" style="fill: #ff7f0e; stroke: #ff7f0e"/>
     <use xlink:href="#m2ce622067c" x="119.037791" y="282.384799" style="fill: #ff7f0e; stroke: #ff7f0e"/>
     <use xlink:href="#m2ce622067c" x="123.147342" y="283.581898" style="fill: #ff7f0e; stroke: #ff7f0e"/>
     <use xlink:href="#m2ce622067c" x="127.256893" y="284.613231" style="fill: #ff7f0e; stroke: #ff7f0e"/>
     <use xlink:href="#m2ce622067c" x="131.366444" y="285.780364" style="fill: #ff7f0e; stroke: #ff7f0e"/>
     <use xlink:href="#m2ce622067c" x="135.475995" y="286.749723" style="fill: #ff7f0e; stroke: #ff7f0e"/>
     <use xlink:href="#m2ce622067c" x="139.585547" y="287.928131" style="fill: #ff7f0e; stroke: #ff7f0e"/>
     <use xlink:href="#m2ce622067c" x="143.695098" y="288.337819" style="fill: #ff7f0e; stroke: #ff7f0e"/>
     <use xlink:href="#m2ce622067c" x="147.804649" y="289.202532" style="fill: #ff7f0e; stroke: #ff7f0e"/>
     <use xlink:href="#m2ce622067c" x="151.9142" y="290.099094" style="fill: #ff7f0e; stroke: #ff7f0e"/>
     <use xlink:href="#m2ce622067c" x="156.023751" y="290.326787" style="fill: #ff7f0e; stroke: #ff7f0e"/>
     <use xlink:href="#m2ce622067c" x="160.133303" y="290.636257" style="fill: #ff7f0e; stroke: #ff7f0e"/>
     <use xlink:href="#m2ce622067c" x="164.242854" y="291.255032" style="fill: #ff7f0e; stroke: #ff7f0e"/>
     <use xlink:href="#m2ce622067c" x="168.352405" y="290.911909" style="fill: #ff7f0e; stroke: #ff7f0e"/>
     <use xlink:href="#m2ce622067c" x="172.461956" y="291.002389" style="fill: #ff7f0e; stroke: #ff7f0e"/>
     <use xlink:href="#m2ce622067c" x="176.571507" y="292.150778" style="fill: #ff7f0e; stroke: #ff7f0e"/>
     <use xlink:href="#m2ce622067c" x="180.681059" y="291.538535" style="fill: #ff7f0e; stroke: #ff7f0e"/>
     <use xlink:href="#m2ce622067c" x="184.79061" y="291.975457" style="fill: #ff7f0e; stroke: #ff7f0e"/>
     <use xlink:href="#m2ce622067c" x="188.900161" y="292.461563" style="fill: #ff7f0e; stroke: #ff7f0e"/>
     <use xlink:href="#m2ce622067c" x="193.009712" y="293.146187" style="fill: #ff7f0e; stroke: #ff7f0e"/>
     <use xlink:href="#m2ce622067c" x="197.119264" y="293.963735" style="fill: #ff7f0e; stroke: #ff7f0e"/>
     <use xlink:href="#m2ce622067c" x="201.228815" y="293.540298" style="fill: #ff7f0e; stroke: #ff7f0e"/>
     <use xlink:href="#m2ce622067c" x="205.338366" y="293.309664" style="fill: #ff7f0e; stroke: #ff7f0e"/>
     <use xlink:href="#m2ce622067c" x="209.447917" y="294.204633" style="fill: #ff7f0e; stroke: #ff7f0e"/>
     <use xlink:href="#m2ce622067c" x="213.557468" y="294.234371" style="fill: #ff7f0e; stroke: #ff7f0e"/>
     <use xlink:href="#m2ce622067c" x="217.66702" y="294.245819" style="fill: #ff7f0e; stroke: #ff7f0e"/>
     <use xlink:href="#m2ce622067c" x="221.776571" y="294.621153" style="fill: #ff7f0e; stroke: #ff7f0e"/>
     <use xlink:href="#m2ce622067c" x="225.886122" y="294.885046" style="fill: #ff7f0e; stroke: #ff7f0e"/>
     <use xlink:href="#m2ce622067c" x="229.995673" y="295.00398" style="fill: #ff7f0e; stroke: #ff7f0e"/>
     <use xlink:href="#m2ce622067c" x="234.105224" y="295.034673" style="fill: #ff7f0e; stroke: #ff7f0e"/>
     <use xlink:href="#m2ce622067c" x="238.214776" y="295.352146" style="fill: #ff7f0e; stroke: #ff7f0e"/>
     <use xlink:href="#m2ce622067c" x="242.324327" y="295.393997" style="fill: #ff7f0e; stroke: #ff7f0e"/>
     <use xlink:href="#m2ce622067c" x="246.433878" y="295.935433" style="fill: #ff7f0e; stroke: #ff7f0e"/>
     <use xlink:href="#m2ce622067c" x="250.543429" y="295.715418" style="fill: #ff7f0e; stroke: #ff7f0e"/>
     <use xlink:href="#m2ce622067c" x="254.65298" y="295.958578" style="fill: #ff7f0e; stroke: #ff7f0e"/>
     <use xlink:href="#m2ce622067c" x="258.762532" y="296.353007" style="fill: #ff7f0e; stroke: #ff7f0e"/>
     <use xlink:href="#m2ce622067c" x="262.872083" y="296.188966" style="fill: #ff7f0e; stroke: #ff7f0e"/>
     <use xlink:href="#m2ce622067c" x="266.981634" y="297.093322" style="fill: #ff7f0e; stroke: #ff7f0e"/>
     <use xlink:href="#m2ce622067c" x="271.091185" y="296.589694" style="fill: #ff7f0e; stroke: #ff7f0e"/>
     <use xlink:href="#m2ce622067c" x="275.200736" y="296.756144" style="fill: #ff7f0e; stroke: #ff7f0e"/>
     <use xlink:href="#m2ce622067c" x="279.310288" y="296.365694" style="fill: #ff7f0e; stroke: #ff7f0e"/>
     <use xlink:href="#m2ce622067c" x="283.419839" y="297.857237" style="fill: #ff7f0e; stroke: #ff7f0e"/>
     <use xlink:href="#m2ce622067c" x="287.52939" y="297.372827" style="fill: #ff7f0e; stroke: #ff7f0e"/>
     <use xlink:href="#m2ce622067c" x="291.638941" y="296.960722" style="fill: #ff7f0e; stroke: #ff7f0e"/>
     <use xlink:href="#m2ce622067c" x="295.748493" y="296.891945" style="fill: #ff7f0e; stroke: #ff7f0e"/>
     <use xlink:href="#m2ce622067c" x="299.858044" y="297.56785" style="fill: #ff7f0e; stroke: #ff7f0e"/>
     <use xlink:href="#m2ce622067c" x="303.967595" y="297.033441" style="fill: #ff7f0e; stroke: #ff7f0e"/>
     <use xlink:href="#m2ce622067c" x="308.077146" y="298.0008" style="fill: #ff7f0e; stroke: #ff7f0e"/>
     <use xlink:href="#m2ce622067c" x="312.186697" y="297.873322" style="fill: #ff7f0e; stroke: #ff7f0e"/>
     <use xlink:href="#m2ce622067c" x="316.296249" y="297.232842" style="fill: #ff7f0e; stroke: #ff7f0e"/>
     <use xlink:href="#m2ce622067c" x="320.4058" y="297.22306" style="fill: #ff7f0e; stroke: #ff7f0e"/>
     <use xlink:href="#m2ce622067c" x="324.515351" y="297.22194" style="fill: #ff7f0e; stroke: #ff7f0e"/>
     <use xlink:href="#m2ce622067c" x="328.624902" y="298.068755" style="fill: #ff7f0e; stroke: #ff7f0e"/>
     <use xlink:href="#m2ce622067c" x="332.734453" y="296.595236" style="fill: #ff7f0e; stroke: #ff7f0e"/>
     <use xlink:href="#m2ce622067c" x="336.844005" y="296.92603" style="fill: #ff7f0e; stroke: #ff7f0e"/>
     <use xlink:href="#m2ce622067c" x="340.953556" y="297.904346" style="fill: #ff7f0e; stroke: #ff7f0e"/>
     <use xlink:href="#m2ce622067c" x="345.063107" y="297.964211" style="fill: #ff7f0e; stroke: #ff7f0e"/>
     <use xlink:href="#m2ce622067c" x="349.172658" y="297.622549" style="fill: #ff7f0e; stroke: #ff7f0e"/>
     <use xlink:href="#m2ce622067c" x="353.282209" y="298.259944" style="fill: #ff7f0e; stroke: #ff7f0e"/>
     <use xlink:href="#m2ce622067c" x="357.391761" y="297.617526" style="fill: #ff7f0e; stroke: #ff7f0e"/>
     <use xlink:href="#m2ce622067c" x="361.501312" y="297.915115" style="fill: #ff7f0e; stroke: #ff7f0e"/>
     <use xlink:href="#m2ce622067c" x="365.610863" y="297.491013" style="fill: #ff7f0e; stroke: #ff7f0e"/>
     <use xlink:href="#m2ce622067c" x="369.720414" y="297.681639" style="fill: #ff7f0e; stroke: #ff7f0e"/>
     <use xlink:href="#m2ce622067c" x="373.829965" y="297.303408" style="fill: #ff7f0e; stroke: #ff7f0e"/>
     <use xlink:href="#m2ce622067c" x="377.939517" y="298.67615" style="fill: #ff7f0e; stroke: #ff7f0e"/>
     <use xlink:href="#m2ce622067c" x="382.049068" y="298.796193" style="fill: #ff7f0e; stroke: #ff7f0e"/>
     <use xlink:href="#m2ce622067c" x="386.158619" y="297.316426" style="fill: #ff7f0e; stroke: #ff7f0e"/>
     <use xlink:href="#m2ce622067c" x="390.26817" y="298.17171" style="fill: #ff7f0e; stroke: #ff7f0e"/>
     <use xlink:href="#m2ce622067c" x="394.377722" y="297.035004" style="fill: #ff7f0e; stroke: #ff7f0e"/>
     <use xlink:href="#m2ce622067c" x="398.487273" y="297.445651" style="fill: #ff7f0e; stroke: #ff7f0e"/>
    </g>
   </g>
   <g id="patch_9">
    <path d="M 57.6 307.584 
L 57.6 186.624 
" style="fill: none; stroke: #000000; stroke-width: 0.8; stroke-linejoin: miter; stroke-linecap: square"/>
   </g>
   <g id="patch_10">
    <path d="M 414.72 307.584 
L 414.72 186.624 
" style="fill: none; stroke: #000000; stroke-width: 0.8; stroke-linejoin: miter; stroke-linecap: square"/>
   </g>
   <g id="patch_11">
    <path d="M 57.6 307.584 
L 414.72 307.584 
" style="fill: none; stroke: #000000; stroke-width: 0.8; stroke-linejoin: miter; stroke-linecap: square"/>
   </g>
   <g id="patch_12">
    <path d="M 57.6 186.624 
L 414.72 186.624 
" style="fill: none; stroke: #000000; stroke-width: 0.8; stroke-linejoin: miter; stroke-linecap: square"/>
   </g>
   <g id="legend_2">
    <g id="patch_13">
     <path d="M 303.991875 223.98025 
L 407.72 223.98025 
Q 409.72 223.98025 409.72 221.98025 
L 409.72 193.624 
Q 409.72 191.624 407.72 191.624 
L 303.991875 191.624 
Q 301.991875 191.624 301.991875 193.624 
L 301.991875 221.98025 
Q 301.991875 223.98025 303.991875 223.98025 
z
" style="fill: #ffffff; opacity: 0.8; stroke: #cccccc; stroke-linejoin: miter"/>
    </g>
    <g id="line2d_34">
     <path d="M 305.991875 199.722437 
L 315.991875 199.722437 
L 325.991875 199.722437 
" style="fill: none; stroke: #1f77b4; stroke-width: 1.5; stroke-linecap: square"/>
     <g>
      <use xlink:href="#m7706bffaf7" x="315.991875" y="199.722437" style="fill: #1f77b4; stroke: #1f77b4"/>
     </g>
    </g>
    <g id="text_33">
     <!-- training loss -->
     <g transform="translate(333.991875 203.222437) scale(0.1 -0.1)">
      <use xlink:href="#DejaVuSans-74"/>
      <use xlink:href="#DejaVuSans-72" x="39.208984"/>
      <use xlink:href="#DejaVuSans-61" x="80.322266"/>
      <use xlink:href="#DejaVuSans-69" x="141.601562"/>
      <use xlink:href="#DejaVuSans-6e" x="169.384766"/>
      <use xlink:href="#DejaVuSans-69" x="232.763672"/>
      <use xlink:href="#DejaVuSans-6e" x="260.546875"/>
      <use xlink:href="#DejaVuSans-67" x="323.925781"/>
      <use xlink:href="#DejaVuSans-20" x="387.402344"/>
      <use xlink:href="#DejaVuSans-6c" x="419.189453"/>
      <use xlink:href="#DejaVuSans-6f" x="446.972656"/>
      <use xlink:href="#DejaVuSans-73" x="508.154297"/>
      <use xlink:href="#DejaVuSans-73" x="560.253906"/>
     </g>
    </g>
    <g id="line2d_35">
     <path d="M 305.991875 214.400562 
L 315.991875 214.400562 
L 325.991875 214.400562 
" style="fill: none; stroke: #ff7f0e; stroke-width: 1.5; stroke-linecap: square"/>
     <g>
      <use xlink:href="#m2ce622067c" x="315.991875" y="214.400562" style="fill: #ff7f0e; stroke: #ff7f0e"/>
     </g>
    </g>
    <g id="text_34">
     <!-- validation loss -->
     <g transform="translate(333.991875 217.900562) scale(0.1 -0.1)">
      <use xlink:href="#DejaVuSans-76"/>
      <use xlink:href="#DejaVuSans-61" x="59.179688"/>
      <use xlink:href="#DejaVuSans-6c" x="120.458984"/>
      <use xlink:href="#DejaVuSans-69" x="148.242188"/>
      <use xlink:href="#DejaVuSans-64" x="176.025391"/>
      <use xlink:href="#DejaVuSans-61" x="239.501953"/>
      <use xlink:href="#DejaVuSans-74" x="300.78125"/>
      <use xlink:href="#DejaVuSans-69" x="339.990234"/>
      <use xlink:href="#DejaVuSans-6f" x="367.773438"/>
      <use xlink:href="#DejaVuSans-6e" x="428.955078"/>
      <use xlink:href="#DejaVuSans-20" x="492.333984"/>
      <use xlink:href="#DejaVuSans-6c" x="524.121094"/>
      <use xlink:href="#DejaVuSans-6f" x="551.904297"/>
      <use xlink:href="#DejaVuSans-73" x="613.085938"/>
      <use xlink:href="#DejaVuSans-73" x="665.185547"/>
     </g>
    </g>
   </g>
  </g>
 </g>
 <defs>
  <clipPath id="p02afa9faf5">
   <rect x="57.6" y="41.472" width="357.12" height="120.96"/>
  </clipPath>
  <clipPath id="pdc34d1ab24">
   <rect x="57.6" y="186.624" width="357.12" height="120.96"/>
  </clipPath>
 </defs>
</svg>
