<?xml version="1.0" encoding="utf-8" standalone="no"?>
<!DOCTYPE svg PUBLIC "-//W3C//DTD SVG 1.1//EN"
  "http://www.w3.org/Graphics/SVG/1.1/DTD/svg11.dtd">
<svg xmlns:xlink="http://www.w3.org/1999/xlink" width="460.8pt" height="345.6pt" viewBox="0 0 460.8 345.6" xmlns="http://www.w3.org/2000/svg" version="1.1">
 <metadata>
  <rdf:RDF xmlns:dc="http://purl.org/dc/elements/1.1/" xmlns:cc="http://creativecommons.org/ns#" xmlns:rdf="http://www.w3.org/1999/02/22-rdf-syntax-ns#">
   <cc:Work>
    <dc:type rdf:resource="http://purl.org/dc/dcmitype/StillImage"/>
    <dc:date>2023-12-18T19:40:50.638371</dc:date>
    <dc:format>image/svg+xml</dc:format>
    <dc:creator>
     <cc:Agent>
      <dc:title>Matplotlib v3.8.0, https://matplotlib.org/</dc:title>
     </cc:Agent>
    </dc:creator>
   </cc:Work>
  </rdf:RDF>
 </metadata>
 <defs>
  <style type="text/css">*{stroke-linejoin: round; stroke-linecap: butt}</style>
 </defs>
 <g id="figure_1">
  <g id="patch_1">
   <path d="M 0 345.6 
L 460.8 345.6 
L 460.8 0 
L 0 0 
z
" style="fill: #ffffff"/>
  </g>
  <g id="axes_1">
   <g id="patch_2">
    <path d="M 57.6 162.432 
L 414.72 162.432 
L 414.72 41.472 
L 57.6 41.472 
z
" style="fill: #ffffff"/>
   </g>
   <g id="matplotlib.axis_1">
    <g id="xtick_1">
     <g id="line2d_1">
      <defs>
       <path id="m9bb5e56cf8" d="M 0 0 
L 0 3.5 
" style="stroke: #000000; stroke-width: 0.8"/>
      </defs>
      <g>
       <use xlink:href="#m9bb5e56cf8" x="73.832727" y="162.432" style="stroke: #000000; stroke-width: 0.8"/>
      </g>
     </g>
     <g id="text_1">
      <!-- 0 -->
      <g transform="translate(70.651477 177.030437) scale(0.1 -0.1)">
       <defs>
        <path id="DejaVuSans-30" d="M 2034 4250 
Q 1547 4250 1301 3770 
Q 1056 3291 1056 2328 
Q 1056 1369 1301 889 
Q 1547 409 2034 409 
Q 2525 409 2770 889 
Q 3016 1369 3016 2328 
Q 3016 3291 2770 3770 
Q 2525 4250 2034 4250 
z
M 2034 4750 
Q 2819 4750 3233 4129 
Q 3647 3509 3647 2328 
Q 3647 1150 3233 529 
Q 2819 -91 2034 -91 
Q 1250 -91 836 529 
Q 422 1150 422 2328 
Q 422 3509 836 4129 
Q 1250 4750 2034 4750 
z
" transform="scale(0.015625)"/>
       </defs>
       <use xlink:href="#DejaVuSans-30"/>
      </g>
     </g>
    </g>
    <g id="xtick_2">
     <g id="line2d_2">
      <g>
       <use xlink:href="#m9bb5e56cf8" x="114.928239" y="162.432" style="stroke: #000000; stroke-width: 0.8"/>
      </g>
     </g>
     <g id="text_2">
      <!-- 10 -->
      <g transform="translate(108.565739 177.030437) scale(0.1 -0.1)">
       <defs>
        <path id="DejaVuSans-31" d="M 794 531 
L 1825 531 
L 1825 4091 
L 703 3866 
L 703 4441 
L 1819 4666 
L 2450 4666 
L 2450 531 
L 3481 531 
L 3481 0 
L 794 0 
L 794 531 
z
" transform="scale(0.015625)"/>
       </defs>
       <use xlink:href="#DejaVuSans-31"/>
       <use xlink:href="#DejaVuSans-30" x="63.623047"/>
      </g>
     </g>
    </g>
    <g id="xtick_3">
     <g id="line2d_3">
      <g>
       <use xlink:href="#m9bb5e56cf8" x="156.023751" y="162.432" style="stroke: #000000; stroke-width: 0.8"/>
      </g>
     </g>
     <g id="text_3">
      <!-- 20 -->
      <g transform="translate(149.661251 177.030437) scale(0.1 -0.1)">
       <defs>
        <path id="DejaVuSans-32" d="M 1228 531 
L 3431 531 
L 3431 0 
L 469 0 
L 469 531 
Q 828 903 1448 1529 
Q 2069 2156 2228 2338 
Q 2531 2678 2651 2914 
Q 2772 3150 2772 3378 
Q 2772 3750 2511 3984 
Q 2250 4219 1831 4219 
Q 1534 4219 1204 4116 
Q 875 4013 500 3803 
L 500 4441 
Q 881 4594 1212 4672 
Q 1544 4750 1819 4750 
Q 2544 4750 2975 4387 
Q 3406 4025 3406 3419 
Q 3406 3131 3298 2873 
Q 3191 2616 2906 2266 
Q 2828 2175 2409 1742 
Q 1991 1309 1228 531 
z
" transform="scale(0.015625)"/>
       </defs>
       <use xlink:href="#DejaVuSans-32"/>
       <use xlink:href="#DejaVuSans-30" x="63.623047"/>
      </g>
     </g>
    </g>
    <g id="xtick_4">
     <g id="line2d_4">
      <g>
       <use xlink:href="#m9bb5e56cf8" x="197.119264" y="162.432" style="stroke: #000000; stroke-width: 0.8"/>
      </g>
     </g>
     <g id="text_4">
      <!-- 30 -->
      <g transform="translate(190.756764 177.030437) scale(0.1 -0.1)">
       <defs>
        <path id="DejaVuSans-33" d="M 2597 2516 
Q 3050 2419 3304 2112 
Q 3559 1806 3559 1356 
Q 3559 666 3084 287 
Q 2609 -91 1734 -91 
Q 1441 -91 1130 -33 
Q 819 25 488 141 
L 488 750 
Q 750 597 1062 519 
Q 1375 441 1716 441 
Q 2309 441 2620 675 
Q 2931 909 2931 1356 
Q 2931 1769 2642 2001 
Q 2353 2234 1838 2234 
L 1294 2234 
L 1294 2753 
L 1863 2753 
Q 2328 2753 2575 2939 
Q 2822 3125 2822 3475 
Q 2822 3834 2567 4026 
Q 2313 4219 1838 4219 
Q 1578 4219 1281 4162 
Q 984 4106 628 3988 
L 628 4550 
Q 988 4650 1302 4700 
Q 1616 4750 1894 4750 
Q 2613 4750 3031 4423 
Q 3450 4097 3450 3541 
Q 3450 3153 3228 2886 
Q 3006 2619 2597 2516 
z
" transform="scale(0.015625)"/>
       </defs>
       <use xlink:href="#DejaVuSans-33"/>
       <use xlink:href="#DejaVuSans-30" x="63.623047"/>
      </g>
     </g>
    </g>
    <g id="xtick_5">
     <g id="line2d_5">
      <g>
       <use xlink:href="#m9bb5e56cf8" x="238.214776" y="162.432" style="stroke: #000000; stroke-width: 0.8"/>
      </g>
     </g>
     <g id="text_5">
      <!-- 40 -->
      <g transform="translate(231.852276 177.030437) scale(0.1 -0.1)">
       <defs>
        <path id="DejaVuSans-34" d="M 2419 4116 
L 825 1625 
L 2419 1625 
L 2419 4116 
z
M 2253 4666 
L 3047 4666 
L 3047 1625 
L 3713 1625 
L 3713 1100 
L 3047 1100 
L 3047 0 
L 2419 0 
L 2419 1100 
L 313 1100 
L 313 1709 
L 2253 4666 
z
" transform="scale(0.015625)"/>
       </defs>
       <use xlink:href="#DejaVuSans-34"/>
       <use xlink:href="#DejaVuSans-30" x="63.623047"/>
      </g>
     </g>
    </g>
    <g id="xtick_6">
     <g id="line2d_6">
      <g>
       <use xlink:href="#m9bb5e56cf8" x="279.310288" y="162.432" style="stroke: #000000; stroke-width: 0.8"/>
      </g>
     </g>
     <g id="text_6">
      <!-- 50 -->
      <g transform="translate(272.947788 177.030437) scale(0.1 -0.1)">
       <defs>
        <path id="DejaVuSans-35" d="M 691 4666 
L 3169 4666 
L 3169 4134 
L 1269 4134 
L 1269 2991 
Q 1406 3038 1543 3061 
Q 1681 3084 1819 3084 
Q 2600 3084 3056 2656 
Q 3513 2228 3513 1497 
Q 3513 744 3044 326 
Q 2575 -91 1722 -91 
Q 1428 -91 1123 -41 
Q 819 9 494 109 
L 494 744 
Q 775 591 1075 516 
Q 1375 441 1709 441 
Q 2250 441 2565 725 
Q 2881 1009 2881 1497 
Q 2881 1984 2565 2268 
Q 2250 2553 1709 2553 
Q 1456 2553 1204 2497 
Q 953 2441 691 2322 
L 691 4666 
z
" transform="scale(0.015625)"/>
       </defs>
       <use xlink:href="#DejaVuSans-35"/>
       <use xlink:href="#DejaVuSans-30" x="63.623047"/>
      </g>
     </g>
    </g>
    <g id="xtick_7">
     <g id="line2d_7">
      <g>
       <use xlink:href="#m9bb5e56cf8" x="320.4058" y="162.432" style="stroke: #000000; stroke-width: 0.8"/>
      </g>
     </g>
     <g id="text_7">
      <!-- 60 -->
      <g transform="translate(314.0433 177.030437) scale(0.1 -0.1)">
       <defs>
        <path id="DejaVuSans-36" d="M 2113 2584 
Q 1688 2584 1439 2293 
Q 1191 2003 1191 1497 
Q 1191 994 1439 701 
Q 1688 409 2113 409 
Q 2538 409 2786 701 
Q 3034 994 3034 1497 
Q 3034 2003 2786 2293 
Q 2538 2584 2113 2584 
z
M 3366 4563 
L 3366 3988 
Q 3128 4100 2886 4159 
Q 2644 4219 2406 4219 
Q 1781 4219 1451 3797 
Q 1122 3375 1075 2522 
Q 1259 2794 1537 2939 
Q 1816 3084 2150 3084 
Q 2853 3084 3261 2657 
Q 3669 2231 3669 1497 
Q 3669 778 3244 343 
Q 2819 -91 2113 -91 
Q 1303 -91 875 529 
Q 447 1150 447 2328 
Q 447 3434 972 4092 
Q 1497 4750 2381 4750 
Q 2619 4750 2861 4703 
Q 3103 4656 3366 4563 
z
" transform="scale(0.015625)"/>
       </defs>
       <use xlink:href="#DejaVuSans-36"/>
       <use xlink:href="#DejaVuSans-30" x="63.623047"/>
      </g>
     </g>
    </g>
    <g id="xtick_8">
     <g id="line2d_8">
      <g>
       <use xlink:href="#m9bb5e56cf8" x="361.501312" y="162.432" style="stroke: #000000; stroke-width: 0.8"/>
      </g>
     </g>
     <g id="text_8">
      <!-- 70 -->
      <g transform="translate(355.138812 177.030437) scale(0.1 -0.1)">
       <defs>
        <path id="DejaVuSans-37" d="M 525 4666 
L 3525 4666 
L 3525 4397 
L 1831 0 
L 1172 0 
L 2766 4134 
L 525 4134 
L 525 4666 
z
" transform="scale(0.015625)"/>
       </defs>
       <use xlink:href="#DejaVuSans-37"/>
       <use xlink:href="#DejaVuSans-30" x="63.623047"/>
      </g>
     </g>
    </g>
    <g id="xtick_9">
     <g id="line2d_9">
      <g>
       <use xlink:href="#m9bb5e56cf8" x="402.596824" y="162.432" style="stroke: #000000; stroke-width: 0.8"/>
      </g>
     </g>
     <g id="text_9">
      <!-- 80 -->
      <g transform="translate(396.234324 177.030437) scale(0.1 -0.1)">
       <defs>
        <path id="DejaVuSans-38" d="M 2034 2216 
Q 1584 2216 1326 1975 
Q 1069 1734 1069 1313 
Q 1069 891 1326 650 
Q 1584 409 2034 409 
Q 2484 409 2743 651 
Q 3003 894 3003 1313 
Q 3003 1734 2745 1975 
Q 2488 2216 2034 2216 
z
M 1403 2484 
Q 997 2584 770 2862 
Q 544 3141 544 3541 
Q 544 4100 942 4425 
Q 1341 4750 2034 4750 
Q 2731 4750 3128 4425 
Q 3525 4100 3525 3541 
Q 3525 3141 3298 2862 
Q 3072 2584 2669 2484 
Q 3125 2378 3379 2068 
Q 3634 1759 3634 1313 
Q 3634 634 3220 271 
Q 2806 -91 2034 -91 
Q 1263 -91 848 271 
Q 434 634 434 1313 
Q 434 1759 690 2068 
Q 947 2378 1403 2484 
z
M 1172 3481 
Q 1172 3119 1398 2916 
Q 1625 2713 2034 2713 
Q 2441 2713 2670 2916 
Q 2900 3119 2900 3481 
Q 2900 3844 2670 4047 
Q 2441 4250 2034 4250 
Q 1625 4250 1398 4047 
Q 1172 3844 1172 3481 
z
" transform="scale(0.015625)"/>
       </defs>
       <use xlink:href="#DejaVuSans-38"/>
       <use xlink:href="#DejaVuSans-30" x="63.623047"/>
      </g>
     </g>
    </g>
   </g>
   <g id="matplotlib.axis_2">
    <g id="ytick_1">
     <g id="line2d_10">
      <defs>
       <path id="m08d6a18c9c" d="M 0 0 
L -3.5 0 
" style="stroke: #000000; stroke-width: 0.8"/>
      </defs>
      <g>
       <use xlink:href="#m08d6a18c9c" x="57.6" y="162.432" style="stroke: #000000; stroke-width: 0.8"/>
      </g>
     </g>
     <g id="text_10">
      <!-- 50% -->
      <g transform="translate(28.373438 166.231219) scale(0.1 -0.1)">
       <defs>
        <path id="DejaVuSans-25" d="M 4653 2053 
Q 4381 2053 4226 1822 
Q 4072 1591 4072 1178 
Q 4072 772 4226 539 
Q 4381 306 4653 306 
Q 4919 306 5073 539 
Q 5228 772 5228 1178 
Q 5228 1588 5073 1820 
Q 4919 2053 4653 2053 
z
M 4653 2450 
Q 5147 2450 5437 2106 
Q 5728 1763 5728 1178 
Q 5728 594 5436 251 
Q 5144 -91 4653 -91 
Q 4153 -91 3862 251 
Q 3572 594 3572 1178 
Q 3572 1766 3864 2108 
Q 4156 2450 4653 2450 
z
M 1428 4353 
Q 1159 4353 1004 4120 
Q 850 3888 850 3481 
Q 850 3069 1003 2837 
Q 1156 2606 1428 2606 
Q 1700 2606 1854 2837 
Q 2009 3069 2009 3481 
Q 2009 3884 1853 4118 
Q 1697 4353 1428 4353 
z
M 4250 4750 
L 4750 4750 
L 1831 -91 
L 1331 -91 
L 4250 4750 
z
M 1428 4750 
Q 1922 4750 2215 4408 
Q 2509 4066 2509 3481 
Q 2509 2891 2217 2550 
Q 1925 2209 1428 2209 
Q 931 2209 642 2551 
Q 353 2894 353 3481 
Q 353 4063 643 4406 
Q 934 4750 1428 4750 
z
" transform="scale(0.015625)"/>
       </defs>
       <use xlink:href="#DejaVuSans-35"/>
       <use xlink:href="#DejaVuSans-30" x="63.623047"/>
       <use xlink:href="#DejaVuSans-25" x="127.246094"/>
      </g>
     </g>
    </g>
    <g id="ytick_2">
     <g id="line2d_11">
      <g>
       <use xlink:href="#m08d6a18c9c" x="57.6" y="138.24" style="stroke: #000000; stroke-width: 0.8"/>
      </g>
     </g>
     <g id="text_11">
      <!-- 60% -->
      <g transform="translate(28.373438 142.039219) scale(0.1 -0.1)">
       <use xlink:href="#DejaVuSans-36"/>
       <use xlink:href="#DejaVuSans-30" x="63.623047"/>
       <use xlink:href="#DejaVuSans-25" x="127.246094"/>
      </g>
     </g>
    </g>
    <g id="ytick_3">
     <g id="line2d_12">
      <g>
       <use xlink:href="#m08d6a18c9c" x="57.6" y="114.048" style="stroke: #000000; stroke-width: 0.8"/>
      </g>
     </g>
     <g id="text_12">
      <!-- 70% -->
      <g transform="translate(28.373438 117.847219) scale(0.1 -0.1)">
       <use xlink:href="#DejaVuSans-37"/>
       <use xlink:href="#DejaVuSans-30" x="63.623047"/>
       <use xlink:href="#DejaVuSans-25" x="127.246094"/>
      </g>
     </g>
    </g>
    <g id="ytick_4">
     <g id="line2d_13">
      <g>
       <use xlink:href="#m08d6a18c9c" x="57.6" y="89.856" style="stroke: #000000; stroke-width: 0.8"/>
      </g>
     </g>
     <g id="text_13">
      <!-- 80% -->
      <g transform="translate(28.373438 93.655219) scale(0.1 -0.1)">
       <use xlink:href="#DejaVuSans-38"/>
       <use xlink:href="#DejaVuSans-30" x="63.623047"/>
       <use xlink:href="#DejaVuSans-25" x="127.246094"/>
      </g>
     </g>
    </g>
    <g id="ytick_5">
     <g id="line2d_14">
      <g>
       <use xlink:href="#m08d6a18c9c" x="57.6" y="65.664" style="stroke: #000000; stroke-width: 0.8"/>
      </g>
     </g>
     <g id="text_14">
      <!-- 90% -->
      <g transform="translate(28.373438 69.463219) scale(0.1 -0.1)">
       <defs>
        <path id="DejaVuSans-39" d="M 703 97 
L 703 672 
Q 941 559 1184 500 
Q 1428 441 1663 441 
Q 2288 441 2617 861 
Q 2947 1281 2994 2138 
Q 2813 1869 2534 1725 
Q 2256 1581 1919 1581 
Q 1219 1581 811 2004 
Q 403 2428 403 3163 
Q 403 3881 828 4315 
Q 1253 4750 1959 4750 
Q 2769 4750 3195 4129 
Q 3622 3509 3622 2328 
Q 3622 1225 3098 567 
Q 2575 -91 1691 -91 
Q 1453 -91 1209 -44 
Q 966 3 703 97 
z
M 1959 2075 
Q 2384 2075 2632 2365 
Q 2881 2656 2881 3163 
Q 2881 3666 2632 3958 
Q 2384 4250 1959 4250 
Q 1534 4250 1286 3958 
Q 1038 3666 1038 3163 
Q 1038 2656 1286 2365 
Q 1534 2075 1959 2075 
z
" transform="scale(0.015625)"/>
       </defs>
       <use xlink:href="#DejaVuSans-39"/>
       <use xlink:href="#DejaVuSans-30" x="63.623047"/>
       <use xlink:href="#DejaVuSans-25" x="127.246094"/>
      </g>
     </g>
    </g>
    <g id="ytick_6">
     <g id="line2d_15">
      <g>
       <use xlink:href="#m08d6a18c9c" x="57.6" y="41.472" style="stroke: #000000; stroke-width: 0.8"/>
      </g>
     </g>
     <g id="text_15">
      <!-- 100% -->
      <g transform="translate(22.010938 45.271219) scale(0.1 -0.1)">
       <use xlink:href="#DejaVuSans-31"/>
       <use xlink:href="#DejaVuSans-30" x="63.623047"/>
       <use xlink:href="#DejaVuSans-30" x="127.246094"/>
       <use xlink:href="#DejaVuSans-25" x="190.869141"/>
      </g>
     </g>
    </g>
    <g id="text_16">
     <!-- Accuracy -->
     <g transform="translate(15.93125 124.780125) rotate(-90) scale(0.1 -0.1)">
      <defs>
       <path id="DejaVuSans-41" d="M 2188 4044 
L 1331 1722 
L 3047 1722 
L 2188 4044 
z
M 1831 4666 
L 2547 4666 
L 4325 0 
L 3669 0 
L 3244 1197 
L 1141 1197 
L 716 0 
L 50 0 
L 1831 4666 
z
" transform="scale(0.015625)"/>
       <path id="DejaVuSans-63" d="M 3122 3366 
L 3122 2828 
Q 2878 2963 2633 3030 
Q 2388 3097 2138 3097 
Q 1578 3097 1268 2742 
Q 959 2388 959 1747 
Q 959 1106 1268 751 
Q 1578 397 2138 397 
Q 2388 397 2633 464 
Q 2878 531 3122 666 
L 3122 134 
Q 2881 22 2623 -34 
Q 2366 -91 2075 -91 
Q 1284 -91 818 406 
Q 353 903 353 1747 
Q 353 2603 823 3093 
Q 1294 3584 2113 3584 
Q 2378 3584 2631 3529 
Q 2884 3475 3122 3366 
z
" transform="scale(0.015625)"/>
       <path id="DejaVuSans-75" d="M 544 1381 
L 544 3500 
L 1119 3500 
L 1119 1403 
Q 1119 906 1312 657 
Q 1506 409 1894 409 
Q 2359 409 2629 706 
Q 2900 1003 2900 1516 
L 2900 3500 
L 3475 3500 
L 3475 0 
L 2900 0 
L 2900 538 
Q 2691 219 2414 64 
Q 2138 -91 1772 -91 
Q 1169 -91 856 284 
Q 544 659 544 1381 
z
M 1991 3584 
L 1991 3584 
z
" transform="scale(0.015625)"/>
       <path id="DejaVuSans-72" d="M 2631 2963 
Q 2534 3019 2420 3045 
Q 2306 3072 2169 3072 
Q 1681 3072 1420 2755 
Q 1159 2438 1159 1844 
L 1159 0 
L 581 0 
L 581 3500 
L 1159 3500 
L 1159 2956 
Q 1341 3275 1631 3429 
Q 1922 3584 2338 3584 
Q 2397 3584 2469 3576 
Q 2541 3569 2628 3553 
L 2631 2963 
z
" transform="scale(0.015625)"/>
       <path id="DejaVuSans-61" d="M 2194 1759 
Q 1497 1759 1228 1600 
Q 959 1441 959 1056 
Q 959 750 1161 570 
Q 1363 391 1709 391 
Q 2188 391 2477 730 
Q 2766 1069 2766 1631 
L 2766 1759 
L 2194 1759 
z
M 3341 1997 
L 3341 0 
L 2766 0 
L 2766 531 
Q 2569 213 2275 61 
Q 1981 -91 1556 -91 
Q 1019 -91 701 211 
Q 384 513 384 1019 
Q 384 1609 779 1909 
Q 1175 2209 1959 2209 
L 2766 2209 
L 2766 2266 
Q 2766 2663 2505 2880 
Q 2244 3097 1772 3097 
Q 1472 3097 1187 3025 
Q 903 2953 641 2809 
L 641 3341 
Q 956 3463 1253 3523 
Q 1550 3584 1831 3584 
Q 2591 3584 2966 3190 
Q 3341 2797 3341 1997 
z
" transform="scale(0.015625)"/>
       <path id="DejaVuSans-79" d="M 2059 -325 
Q 1816 -950 1584 -1140 
Q 1353 -1331 966 -1331 
L 506 -1331 
L 506 -850 
L 844 -850 
Q 1081 -850 1212 -737 
Q 1344 -625 1503 -206 
L 1606 56 
L 191 3500 
L 800 3500 
L 1894 763 
L 2988 3500 
L 3597 3500 
L 2059 -325 
z
" transform="scale(0.015625)"/>
      </defs>
      <use xlink:href="#DejaVuSans-41"/>
      <use xlink:href="#DejaVuSans-63" x="66.658203"/>
      <use xlink:href="#DejaVuSans-63" x="121.638672"/>
      <use xlink:href="#DejaVuSans-75" x="176.619141"/>
      <use xlink:href="#DejaVuSans-72" x="239.998047"/>
      <use xlink:href="#DejaVuSans-61" x="281.111328"/>
      <use xlink:href="#DejaVuSans-63" x="342.390625"/>
      <use xlink:href="#DejaVuSans-79" x="397.371094"/>
     </g>
    </g>
   </g>
   <g id="line2d_16">
    <path d="M 73.832727 170.632675 
L 77.942278 159.698442 
L 82.05183 142.613691 
L 86.161381 133.729629 
L 90.270932 123.478782 
L 94.380483 125.528954 
L 98.490035 127.579112 
L 102.599586 122.111995 
L 106.709137 126.895726 
L 110.818688 128.262512 
L 114.928239 110.494375 
L 119.037791 118.011665 
L 123.147342 117.328264 
L 127.256893 118.695051 
L 131.366444 131.679457 
L 135.475995 112.544548 
L 139.585547 118.011665 
L 143.695098 108.444203 
L 147.804649 114.048003 
L 151.9142 122.111995 
L 156.023751 124.162168 
L 160.133303 107.760817 
L 164.242854 113.227934 
L 168.352405 126.895726 
L 172.461956 115.961492 
L 176.571507 113.91132 
L 180.681059 108.444203 
L 184.79061 111.861147 
L 188.900161 113.91132 
L 193.009712 111.177761 
L 197.119264 112.544548 
L 201.228815 109.127589 
L 205.338366 124.845554 
L 209.447917 108.444203 
L 213.557468 122.111995 
L 217.66702 114.594706 
L 221.776571 122.795396 
L 225.886122 110.494375 
L 229.995673 111.861147 
L 234.105224 116.644878 
L 238.214776 113.227934 
L 242.324327 117.328264 
L 246.433878 126.21234 
L 250.543429 116.644878 
L 254.65298 109.810989 
L 258.762532 112.544548 
L 262.872083 118.695051 
L 266.981634 101.6103 
L 271.091185 98.876741 
L 275.200736 110.494375 
L 279.310288 109.127589 
L 283.419839 105.710645 
L 287.52939 113.91132 
L 291.638941 106.394031 
L 295.748493 109.810989 
L 299.858044 108.444203 
L 303.967595 115.278106 
L 308.077146 102.623995 
L 312.186697 110.494375 
L 316.296249 112.703999 
L 320.4058 109.127589 
L 324.515351 107.760817 
L 328.624902 103.660472 
L 332.734453 110.494375 
L 336.844005 111.177761 
L 340.953556 101.6103 
L 345.063107 107.077417 
L 349.172658 112.544548 
L 353.282209 115.961492 
L 357.391761 107.760817 
L 361.501312 94.776411 
L 365.610863 113.227934 
L 369.720414 108.444203 
L 373.829965 101.6103 
L 377.939517 109.810989 
L 382.049068 98.193355 
L 386.158619 102.977086 
L 390.26817 102.977086 
L 394.377722 103.660472 
L 398.487273 115.961492 
" clip-path="url(#p540465db1c)" style="fill: none; stroke: #1f77b4; stroke-width: 1.5; stroke-linecap: square"/>
    <defs>
     <path id="m1a486b4429" d="M 0 3 
C 0.795609 3 1.55874 2.683901 2.12132 2.12132 
C 2.683901 1.55874 3 0.795609 3 0 
C 3 -0.795609 2.683901 -1.55874 2.12132 -2.12132 
C 1.55874 -2.683901 0.795609 -3 0 -3 
C -0.795609 -3 -1.55874 -2.683901 -2.12132 -2.12132 
C -2.683901 -1.55874 -3 -0.795609 -3 0 
C -3 0.795609 -2.683901 1.55874 -2.12132 2.12132 
C -1.55874 2.683901 -0.795609 3 0 3 
z
" style="stroke: #1f77b4"/>
    </defs>
    <g clip-path="url(#p540465db1c)">
     <use xlink:href="#m1a486b4429" x="73.832727" y="170.632675" style="fill: #1f77b4; stroke: #1f77b4"/>
     <use xlink:href="#m1a486b4429" x="77.942278" y="159.698442" style="fill: #1f77b4; stroke: #1f77b4"/>
     <use xlink:href="#m1a486b4429" x="82.05183" y="142.613691" style="fill: #1f77b4; stroke: #1f77b4"/>
     <use xlink:href="#m1a486b4429" x="86.161381" y="133.729629" style="fill: #1f77b4; stroke: #1f77b4"/>
     <use xlink:href="#m1a486b4429" x="90.270932" y="123.478782" style="fill: #1f77b4; stroke: #1f77b4"/>
     <use xlink:href="#m1a486b4429" x="94.380483" y="125.528954" style="fill: #1f77b4; stroke: #1f77b4"/>
     <use xlink:href="#m1a486b4429" x="98.490035" y="127.579112" style="fill: #1f77b4; stroke: #1f77b4"/>
     <use xlink:href="#m1a486b4429" x="102.599586" y="122.111995" style="fill: #1f77b4; stroke: #1f77b4"/>
     <use xlink:href="#m1a486b4429" x="106.709137" y="126.895726" style="fill: #1f77b4; stroke: #1f77b4"/>
     <use xlink:href="#m1a486b4429" x="110.818688" y="128.262512" style="fill: #1f77b4; stroke: #1f77b4"/>
     <use xlink:href="#m1a486b4429" x="114.928239" y="110.494375" style="fill: #1f77b4; stroke: #1f77b4"/>
     <use xlink:href="#m1a486b4429" x="119.037791" y="118.011665" style="fill: #1f77b4; stroke: #1f77b4"/>
     <use xlink:href="#m1a486b4429" x="123.147342" y="117.328264" style="fill: #1f77b4; stroke: #1f77b4"/>
     <use xlink:href="#m1a486b4429" x="127.256893" y="118.695051" style="fill: #1f77b4; stroke: #1f77b4"/>
     <use xlink:href="#m1a486b4429" x="131.366444" y="131.679457" style="fill: #1f77b4; stroke: #1f77b4"/>
     <use xlink:href="#m1a486b4429" x="135.475995" y="112.544548" style="fill: #1f77b4; stroke: #1f77b4"/>
     <use xlink:href="#m1a486b4429" x="139.585547" y="118.011665" style="fill: #1f77b4; stroke: #1f77b4"/>
     <use xlink:href="#m1a486b4429" x="143.695098" y="108.444203" style="fill: #1f77b4; stroke: #1f77b4"/>
     <use xlink:href="#m1a486b4429" x="147.804649" y="114.048003" style="fill: #1f77b4; stroke: #1f77b4"/>
     <use xlink:href="#m1a486b4429" x="151.9142" y="122.111995" style="fill: #1f77b4; stroke: #1f77b4"/>
     <use xlink:href="#m1a486b4429" x="156.023751" y="124.162168" style="fill: #1f77b4; stroke: #1f77b4"/>
     <use xlink:href="#m1a486b4429" x="160.133303" y="107.760817" style="fill: #1f77b4; stroke: #1f77b4"/>
     <use xlink:href="#m1a486b4429" x="164.242854" y="113.227934" style="fill: #1f77b4; stroke: #1f77b4"/>
     <use xlink:href="#m1a486b4429" x="168.352405" y="126.895726" style="fill: #1f77b4; stroke: #1f77b4"/>
     <use xlink:href="#m1a486b4429" x="172.461956" y="115.961492" style="fill: #1f77b4; stroke: #1f77b4"/>
     <use xlink:href="#m1a486b4429" x="176.571507" y="113.91132" style="fill: #1f77b4; stroke: #1f77b4"/>
     <use xlink:href="#m1a486b4429" x="180.681059" y="108.444203" style="fill: #1f77b4; stroke: #1f77b4"/>
     <use xlink:href="#m1a486b4429" x="184.79061" y="111.861147" style="fill: #1f77b4; stroke: #1f77b4"/>
     <use xlink:href="#m1a486b4429" x="188.900161" y="113.91132" style="fill: #1f77b4; stroke: #1f77b4"/>
     <use xlink:href="#m1a486b4429" x="193.009712" y="111.177761" style="fill: #1f77b4; stroke: #1f77b4"/>
     <use xlink:href="#m1a486b4429" x="197.119264" y="112.544548" style="fill: #1f77b4; stroke: #1f77b4"/>
     <use xlink:href="#m1a486b4429" x="201.228815" y="109.127589" style="fill: #1f77b4; stroke: #1f77b4"/>
     <use xlink:href="#m1a486b4429" x="205.338366" y="124.845554" style="fill: #1f77b4; stroke: #1f77b4"/>
     <use xlink:href="#m1a486b4429" x="209.447917" y="108.444203" style="fill: #1f77b4; stroke: #1f77b4"/>
     <use xlink:href="#m1a486b4429" x="213.557468" y="122.111995" style="fill: #1f77b4; stroke: #1f77b4"/>
     <use xlink:href="#m1a486b4429" x="217.66702" y="114.594706" style="fill: #1f77b4; stroke: #1f77b4"/>
     <use xlink:href="#m1a486b4429" x="221.776571" y="122.795396" style="fill: #1f77b4; stroke: #1f77b4"/>
     <use xlink:href="#m1a486b4429" x="225.886122" y="110.494375" style="fill: #1f77b4; stroke: #1f77b4"/>
     <use xlink:href="#m1a486b4429" x="229.995673" y="111.861147" style="fill: #1f77b4; stroke: #1f77b4"/>
     <use xlink:href="#m1a486b4429" x="234.105224" y="116.644878" style="fill: #1f77b4; stroke: #1f77b4"/>
     <use xlink:href="#m1a486b4429" x="238.214776" y="113.227934" style="fill: #1f77b4; stroke: #1f77b4"/>
     <use xlink:href="#m1a486b4429" x="242.324327" y="117.328264" style="fill: #1f77b4; stroke: #1f77b4"/>
     <use xlink:href="#m1a486b4429" x="246.433878" y="126.21234" style="fill: #1f77b4; stroke: #1f77b4"/>
     <use xlink:href="#m1a486b4429" x="250.543429" y="116.644878" style="fill: #1f77b4; stroke: #1f77b4"/>
     <use xlink:href="#m1a486b4429" x="254.65298" y="109.810989" style="fill: #1f77b4; stroke: #1f77b4"/>
     <use xlink:href="#m1a486b4429" x="258.762532" y="112.544548" style="fill: #1f77b4; stroke: #1f77b4"/>
     <use xlink:href="#m1a486b4429" x="262.872083" y="118.695051" style="fill: #1f77b4; stroke: #1f77b4"/>
     <use xlink:href="#m1a486b4429" x="266.981634" y="101.6103" style="fill: #1f77b4; stroke: #1f77b4"/>
     <use xlink:href="#m1a486b4429" x="271.091185" y="98.876741" style="fill: #1f77b4; stroke: #1f77b4"/>
     <use xlink:href="#m1a486b4429" x="275.200736" y="110.494375" style="fill: #1f77b4; stroke: #1f77b4"/>
     <use xlink:href="#m1a486b4429" x="279.310288" y="109.127589" style="fill: #1f77b4; stroke: #1f77b4"/>
     <use xlink:href="#m1a486b4429" x="283.419839" y="105.710645" style="fill: #1f77b4; stroke: #1f77b4"/>
     <use xlink:href="#m1a486b4429" x="287.52939" y="113.91132" style="fill: #1f77b4; stroke: #1f77b4"/>
     <use xlink:href="#m1a486b4429" x="291.638941" y="106.394031" style="fill: #1f77b4; stroke: #1f77b4"/>
     <use xlink:href="#m1a486b4429" x="295.748493" y="109.810989" style="fill: #1f77b4; stroke: #1f77b4"/>
     <use xlink:href="#m1a486b4429" x="299.858044" y="108.444203" style="fill: #1f77b4; stroke: #1f77b4"/>
     <use xlink:href="#m1a486b4429" x="303.967595" y="115.278106" style="fill: #1f77b4; stroke: #1f77b4"/>
     <use xlink:href="#m1a486b4429" x="308.077146" y="102.623995" style="fill: #1f77b4; stroke: #1f77b4"/>
     <use xlink:href="#m1a486b4429" x="312.186697" y="110.494375" style="fill: #1f77b4; stroke: #1f77b4"/>
     <use xlink:href="#m1a486b4429" x="316.296249" y="112.703999" style="fill: #1f77b4; stroke: #1f77b4"/>
     <use xlink:href="#m1a486b4429" x="320.4058" y="109.127589" style="fill: #1f77b4; stroke: #1f77b4"/>
     <use xlink:href="#m1a486b4429" x="324.515351" y="107.760817" style="fill: #1f77b4; stroke: #1f77b4"/>
     <use xlink:href="#m1a486b4429" x="328.624902" y="103.660472" style="fill: #1f77b4; stroke: #1f77b4"/>
     <use xlink:href="#m1a486b4429" x="332.734453" y="110.494375" style="fill: #1f77b4; stroke: #1f77b4"/>
     <use xlink:href="#m1a486b4429" x="336.844005" y="111.177761" style="fill: #1f77b4; stroke: #1f77b4"/>
     <use xlink:href="#m1a486b4429" x="340.953556" y="101.6103" style="fill: #1f77b4; stroke: #1f77b4"/>
     <use xlink:href="#m1a486b4429" x="345.063107" y="107.077417" style="fill: #1f77b4; stroke: #1f77b4"/>
     <use xlink:href="#m1a486b4429" x="349.172658" y="112.544548" style="fill: #1f77b4; stroke: #1f77b4"/>
     <use xlink:href="#m1a486b4429" x="353.282209" y="115.961492" style="fill: #1f77b4; stroke: #1f77b4"/>
     <use xlink:href="#m1a486b4429" x="357.391761" y="107.760817" style="fill: #1f77b4; stroke: #1f77b4"/>
     <use xlink:href="#m1a486b4429" x="361.501312" y="94.776411" style="fill: #1f77b4; stroke: #1f77b4"/>
     <use xlink:href="#m1a486b4429" x="365.610863" y="113.227934" style="fill: #1f77b4; stroke: #1f77b4"/>
     <use xlink:href="#m1a486b4429" x="369.720414" y="108.444203" style="fill: #1f77b4; stroke: #1f77b4"/>
     <use xlink:href="#m1a486b4429" x="373.829965" y="101.6103" style="fill: #1f77b4; stroke: #1f77b4"/>
     <use xlink:href="#m1a486b4429" x="377.939517" y="109.810989" style="fill: #1f77b4; stroke: #1f77b4"/>
     <use xlink:href="#m1a486b4429" x="382.049068" y="98.193355" style="fill: #1f77b4; stroke: #1f77b4"/>
     <use xlink:href="#m1a486b4429" x="386.158619" y="102.977086" style="fill: #1f77b4; stroke: #1f77b4"/>
     <use xlink:href="#m1a486b4429" x="390.26817" y="102.977086" style="fill: #1f77b4; stroke: #1f77b4"/>
     <use xlink:href="#m1a486b4429" x="394.377722" y="103.660472" style="fill: #1f77b4; stroke: #1f77b4"/>
     <use xlink:href="#m1a486b4429" x="398.487273" y="115.961492" style="fill: #1f77b4; stroke: #1f77b4"/>
    </g>
   </g>
   <g id="line2d_17">
    <path d="M 73.832727 207.792 
L 77.942278 201.312003 
L 82.05183 188.352002 
L 86.161381 155.951996 
L 90.270932 158.112002 
L 94.380483 160.271994 
L 98.490035 147.312 
L 102.599586 136.511998 
L 106.709137 123.552004 
L 110.818688 138.672004 
L 114.928239 149.472006 
L 119.037791 130.031994 
L 123.147342 160.271994 
L 127.256893 145.151994 
L 131.366444 145.151994 
L 135.475995 140.831996 
L 139.585547 127.872002 
L 143.695098 145.151994 
L 147.804649 153.792004 
L 151.9142 147.312 
L 156.023751 112.752002 
L 160.133303 138.672004 
L 164.242854 147.312 
L 168.352405 162.432 
L 172.461956 121.391998 
L 176.571507 127.872002 
L 180.681059 140.831996 
L 184.79061 132.192 
L 188.900161 127.872002 
L 193.009712 125.711996 
L 197.119264 125.711996 
L 201.228815 130.031994 
L 205.338366 160.271994 
L 209.447917 134.352006 
L 213.557468 136.511998 
L 217.66702 136.511998 
L 221.776571 145.151994 
L 225.886122 136.511998 
L 229.995673 140.831996 
L 234.105224 117.072 
L 238.214776 123.552004 
L 242.324327 142.992002 
L 246.433878 125.711996 
L 250.543429 145.151994 
L 254.65298 145.151994 
L 258.762532 134.352006 
L 262.872083 158.112002 
L 266.981634 140.831996 
L 271.091185 125.711996 
L 275.200736 134.352006 
L 279.310288 140.831996 
L 283.419839 151.631998 
L 287.52939 158.112002 
L 291.638941 127.872002 
L 295.748493 127.872002 
L 299.858044 121.391998 
L 303.967595 138.672004 
L 308.077146 130.031994 
L 312.186697 145.151994 
L 316.296249 130.031994 
L 320.4058 153.792004 
L 324.515351 153.792004 
L 328.624902 179.711999 
L 332.734453 138.672004 
L 336.844005 130.031994 
L 340.953556 130.031994 
L 345.063107 121.391998 
L 349.172658 142.992002 
L 353.282209 130.031994 
L 357.391761 117.072 
L 361.501312 145.151994 
L 365.610863 130.031994 
L 369.720414 121.391998 
L 373.829965 140.831996 
L 377.939517 160.271994 
L 382.049068 130.031994 
L 386.158619 136.511998 
L 390.26817 125.711996 
L 394.377722 160.271994 
L 398.487273 142.992002 
" clip-path="url(#p540465db1c)" style="fill: none; stroke: #ff7f0e; stroke-width: 1.5; stroke-linecap: square"/>
    <defs>
     <path id="m9ebfaabb70" d="M 0 3 
C 0.795609 3 1.55874 2.683901 2.12132 2.12132 
C 2.683901 1.55874 3 0.795609 3 0 
C 3 -0.795609 2.683901 -1.55874 2.12132 -2.12132 
C 1.55874 -2.683901 0.795609 -3 0 -3 
C -0.795609 -3 -1.55874 -2.683901 -2.12132 -2.12132 
C -2.683901 -1.55874 -3 -0.795609 -3 0 
C -3 0.795609 -2.683901 1.55874 -2.12132 2.12132 
C -1.55874 2.683901 -0.795609 3 0 3 
z
" style="stroke: #ff7f0e"/>
    </defs>
    <g clip-path="url(#p540465db1c)">
     <use xlink:href="#m9ebfaabb70" x="73.832727" y="207.792" style="fill: #ff7f0e; stroke: #ff7f0e"/>
     <use xlink:href="#m9ebfaabb70" x="77.942278" y="201.312003" style="fill: #ff7f0e; stroke: #ff7f0e"/>
     <use xlink:href="#m9ebfaabb70" x="82.05183" y="188.352002" style="fill: #ff7f0e; stroke: #ff7f0e"/>
     <use xlink:href="#m9ebfaabb70" x="86.161381" y="155.951996" style="fill: #ff7f0e; stroke: #ff7f0e"/>
     <use xlink:href="#m9ebfaabb70" x="90.270932" y="158.112002" style="fill: #ff7f0e; stroke: #ff7f0e"/>
     <use xlink:href="#m9ebfaabb70" x="94.380483" y="160.271994" style="fill: #ff7f0e; stroke: #ff7f0e"/>
     <use xlink:href="#m9ebfaabb70" x="98.490035" y="147.312" style="fill: #ff7f0e; stroke: #ff7f0e"/>
     <use xlink:href="#m9ebfaabb70" x="102.599586" y="136.511998" style="fill: #ff7f0e; stroke: #ff7f0e"/>
     <use xlink:href="#m9ebfaabb70" x="106.709137" y="123.552004" style="fill: #ff7f0e; stroke: #ff7f0e"/>
     <use xlink:href="#m9ebfaabb70" x="110.818688" y="138.672004" style="fill: #ff7f0e; stroke: #ff7f0e"/>
     <use xlink:href="#m9ebfaabb70" x="114.928239" y="149.472006" style="fill: #ff7f0e; stroke: #ff7f0e"/>
     <use xlink:href="#m9ebfaabb70" x="119.037791" y="130.031994" style="fill: #ff7f0e; stroke: #ff7f0e"/>
     <use xlink:href="#m9ebfaabb70" x="123.147342" y="160.271994" style="fill: #ff7f0e; stroke: #ff7f0e"/>
     <use xlink:href="#m9ebfaabb70" x="127.256893" y="145.151994" style="fill: #ff7f0e; stroke: #ff7f0e"/>
     <use xlink:href="#m9ebfaabb70" x="131.366444" y="145.151994" style="fill: #ff7f0e; stroke: #ff7f0e"/>
     <use xlink:href="#m9ebfaabb70" x="135.475995" y="140.831996" style="fill: #ff7f0e; stroke: #ff7f0e"/>
     <use xlink:href="#m9ebfaabb70" x="139.585547" y="127.872002" style="fill: #ff7f0e; stroke: #ff7f0e"/>
     <use xlink:href="#m9ebfaabb70" x="143.695098" y="145.151994" style="fill: #ff7f0e; stroke: #ff7f0e"/>
     <use xlink:href="#m9ebfaabb70" x="147.804649" y="153.792004" style="fill: #ff7f0e; stroke: #ff7f0e"/>
     <use xlink:href="#m9ebfaabb70" x="151.9142" y="147.312" style="fill: #ff7f0e; stroke: #ff7f0e"/>
     <use xlink:href="#m9ebfaabb70" x="156.023751" y="112.752002" style="fill: #ff7f0e; stroke: #ff7f0e"/>
     <use xlink:href="#m9ebfaabb70" x="160.133303" y="138.672004" style="fill: #ff7f0e; stroke: #ff7f0e"/>
     <use xlink:href="#m9ebfaabb70" x="164.242854" y="147.312" style="fill: #ff7f0e; stroke: #ff7f0e"/>
     <use xlink:href="#m9ebfaabb70" x="168.352405" y="162.432" style="fill: #ff7f0e; stroke: #ff7f0e"/>
     <use xlink:href="#m9ebfaabb70" x="172.461956" y="121.391998" style="fill: #ff7f0e; stroke: #ff7f0e"/>
     <use xlink:href="#m9ebfaabb70" x="176.571507" y="127.872002" style="fill: #ff7f0e; stroke: #ff7f0e"/>
     <use xlink:href="#m9ebfaabb70" x="180.681059" y="140.831996" style="fill: #ff7f0e; stroke: #ff7f0e"/>
     <use xlink:href="#m9ebfaabb70" x="184.79061" y="132.192" style="fill: #ff7f0e; stroke: #ff7f0e"/>
     <use xlink:href="#m9ebfaabb70" x="188.900161" y="127.872002" style="fill: #ff7f0e; stroke: #ff7f0e"/>
     <use xlink:href="#m9ebfaabb70" x="193.009712" y="125.711996" style="fill: #ff7f0e; stroke: #ff7f0e"/>
     <use xlink:href="#m9ebfaabb70" x="197.119264" y="125.711996" style="fill: #ff7f0e; stroke: #ff7f0e"/>
     <use xlink:href="#m9ebfaabb70" x="201.228815" y="130.031994" style="fill: #ff7f0e; stroke: #ff7f0e"/>
     <use xlink:href="#m9ebfaabb70" x="205.338366" y="160.271994" style="fill: #ff7f0e; stroke: #ff7f0e"/>
     <use xlink:href="#m9ebfaabb70" x="209.447917" y="134.352006" style="fill: #ff7f0e; stroke: #ff7f0e"/>
     <use xlink:href="#m9ebfaabb70" x="213.557468" y="136.511998" style="fill: #ff7f0e; stroke: #ff7f0e"/>
     <use xlink:href="#m9ebfaabb70" x="217.66702" y="136.511998" style="fill: #ff7f0e; stroke: #ff7f0e"/>
     <use xlink:href="#m9ebfaabb70" x="221.776571" y="145.151994" style="fill: #ff7f0e; stroke: #ff7f0e"/>
     <use xlink:href="#m9ebfaabb70" x="225.886122" y="136.511998" style="fill: #ff7f0e; stroke: #ff7f0e"/>
     <use xlink:href="#m9ebfaabb70" x="229.995673" y="140.831996" style="fill: #ff7f0e; stroke: #ff7f0e"/>
     <use xlink:href="#m9ebfaabb70" x="234.105224" y="117.072" style="fill: #ff7f0e; stroke: #ff7f0e"/>
     <use xlink:href="#m9ebfaabb70" x="238.214776" y="123.552004" style="fill: #ff7f0e; stroke: #ff7f0e"/>
     <use xlink:href="#m9ebfaabb70" x="242.324327" y="142.992002" style="fill: #ff7f0e; stroke: #ff7f0e"/>
     <use xlink:href="#m9ebfaabb70" x="246.433878" y="125.711996" style="fill: #ff7f0e; stroke: #ff7f0e"/>
     <use xlink:href="#m9ebfaabb70" x="250.543429" y="145.151994" style="fill: #ff7f0e; stroke: #ff7f0e"/>
     <use xlink:href="#m9ebfaabb70" x="254.65298" y="145.151994" style="fill: #ff7f0e; stroke: #ff7f0e"/>
     <use xlink:href="#m9ebfaabb70" x="258.762532" y="134.352006" style="fill: #ff7f0e; stroke: #ff7f0e"/>
     <use xlink:href="#m9ebfaabb70" x="262.872083" y="158.112002" style="fill: #ff7f0e; stroke: #ff7f0e"/>
     <use xlink:href="#m9ebfaabb70" x="266.981634" y="140.831996" style="fill: #ff7f0e; stroke: #ff7f0e"/>
     <use xlink:href="#m9ebfaabb70" x="271.091185" y="125.711996" style="fill: #ff7f0e; stroke: #ff7f0e"/>
     <use xlink:href="#m9ebfaabb70" x="275.200736" y="134.352006" style="fill: #ff7f0e; stroke: #ff7f0e"/>
     <use xlink:href="#m9ebfaabb70" x="279.310288" y="140.831996" style="fill: #ff7f0e; stroke: #ff7f0e"/>
     <use xlink:href="#m9ebfaabb70" x="283.419839" y="151.631998" style="fill: #ff7f0e; stroke: #ff7f0e"/>
     <use xlink:href="#m9ebfaabb70" x="287.52939" y="158.112002" style="fill: #ff7f0e; stroke: #ff7f0e"/>
     <use xlink:href="#m9ebfaabb70" x="291.638941" y="127.872002" style="fill: #ff7f0e; stroke: #ff7f0e"/>
     <use xlink:href="#m9ebfaabb70" x="295.748493" y="127.872002" style="fill: #ff7f0e; stroke: #ff7f0e"/>
     <use xlink:href="#m9ebfaabb70" x="299.858044" y="121.391998" style="fill: #ff7f0e; stroke: #ff7f0e"/>
     <use xlink:href="#m9ebfaabb70" x="303.967595" y="138.672004" style="fill: #ff7f0e; stroke: #ff7f0e"/>
     <use xlink:href="#m9ebfaabb70" x="308.077146" y="130.031994" style="fill: #ff7f0e; stroke: #ff7f0e"/>
     <use xlink:href="#m9ebfaabb70" x="312.186697" y="145.151994" style="fill: #ff7f0e; stroke: #ff7f0e"/>
     <use xlink:href="#m9ebfaabb70" x="316.296249" y="130.031994" style="fill: #ff7f0e; stroke: #ff7f0e"/>
     <use xlink:href="#m9ebfaabb70" x="320.4058" y="153.792004" style="fill: #ff7f0e; stroke: #ff7f0e"/>
     <use xlink:href="#m9ebfaabb70" x="324.515351" y="153.792004" style="fill: #ff7f0e; stroke: #ff7f0e"/>
     <use xlink:href="#m9ebfaabb70" x="328.624902" y="179.711999" style="fill: #ff7f0e; stroke: #ff7f0e"/>
     <use xlink:href="#m9ebfaabb70" x="332.734453" y="138.672004" style="fill: #ff7f0e; stroke: #ff7f0e"/>
     <use xlink:href="#m9ebfaabb70" x="336.844005" y="130.031994" style="fill: #ff7f0e; stroke: #ff7f0e"/>
     <use xlink:href="#m9ebfaabb70" x="340.953556" y="130.031994" style="fill: #ff7f0e; stroke: #ff7f0e"/>
     <use xlink:href="#m9ebfaabb70" x="345.063107" y="121.391998" style="fill: #ff7f0e; stroke: #ff7f0e"/>
     <use xlink:href="#m9ebfaabb70" x="349.172658" y="142.992002" style="fill: #ff7f0e; stroke: #ff7f0e"/>
     <use xlink:href="#m9ebfaabb70" x="353.282209" y="130.031994" style="fill: #ff7f0e; stroke: #ff7f0e"/>
     <use xlink:href="#m9ebfaabb70" x="357.391761" y="117.072" style="fill: #ff7f0e; stroke: #ff7f0e"/>
     <use xlink:href="#m9ebfaabb70" x="361.501312" y="145.151994" style="fill: #ff7f0e; stroke: #ff7f0e"/>
     <use xlink:href="#m9ebfaabb70" x="365.610863" y="130.031994" style="fill: #ff7f0e; stroke: #ff7f0e"/>
     <use xlink:href="#m9ebfaabb70" x="369.720414" y="121.391998" style="fill: #ff7f0e; stroke: #ff7f0e"/>
     <use xlink:href="#m9ebfaabb70" x="373.829965" y="140.831996" style="fill: #ff7f0e; stroke: #ff7f0e"/>
     <use xlink:href="#m9ebfaabb70" x="377.939517" y="160.271994" style="fill: #ff7f0e; stroke: #ff7f0e"/>
     <use xlink:href="#m9ebfaabb70" x="382.049068" y="130.031994" style="fill: #ff7f0e; stroke: #ff7f0e"/>
     <use xlink:href="#m9ebfaabb70" x="386.158619" y="136.511998" style="fill: #ff7f0e; stroke: #ff7f0e"/>
     <use xlink:href="#m9ebfaabb70" x="390.26817" y="125.711996" style="fill: #ff7f0e; stroke: #ff7f0e"/>
     <use xlink:href="#m9ebfaabb70" x="394.377722" y="160.271994" style="fill: #ff7f0e; stroke: #ff7f0e"/>
     <use xlink:href="#m9ebfaabb70" x="398.487273" y="142.992002" style="fill: #ff7f0e; stroke: #ff7f0e"/>
    </g>
   </g>
   <g id="patch_3">
    <path d="M 57.6 162.432 
L 57.6 41.472 
" style="fill: none; stroke: #000000; stroke-width: 0.8; stroke-linejoin: miter; stroke-linecap: square"/>
   </g>
   <g id="patch_4">
    <path d="M 414.72 162.432 
L 414.72 41.472 
" style="fill: none; stroke: #000000; stroke-width: 0.8; stroke-linejoin: miter; stroke-linecap: square"/>
   </g>
   <g id="patch_5">
    <path d="M 57.6 162.432 
L 414.72 162.432 
" style="fill: none; stroke: #000000; stroke-width: 0.8; stroke-linejoin: miter; stroke-linecap: square"/>
   </g>
   <g id="patch_6">
    <path d="M 57.6 41.472 
L 414.72 41.472 
" style="fill: none; stroke: #000000; stroke-width: 0.8; stroke-linejoin: miter; stroke-linecap: square"/>
   </g>
   <g id="legend_1">
    <g id="patch_7">
     <path d="M 278.18875 78.82825 
L 407.72 78.82825 
Q 409.72 78.82825 409.72 76.82825 
L 409.72 48.472 
Q 409.72 46.472 407.72 46.472 
L 278.18875 46.472 
Q 276.18875 46.472 276.18875 48.472 
L 276.18875 76.82825 
Q 276.18875 78.82825 278.18875 78.82825 
z
" style="fill: #ffffff; opacity: 0.8; stroke: #cccccc; stroke-linejoin: miter"/>
    </g>
    <g id="line2d_18">
     <path d="M 280.18875 54.570437 
L 290.18875 54.570437 
L 300.18875 54.570437 
" style="fill: none; stroke: #1f77b4; stroke-width: 1.5; stroke-linecap: square"/>
     <g>
      <use xlink:href="#m1a486b4429" x="290.18875" y="54.570437" style="fill: #1f77b4; stroke: #1f77b4"/>
     </g>
    </g>
    <g id="text_17">
     <!-- training accuracy -->
     <g transform="translate(308.18875 58.070437) scale(0.1 -0.1)">
      <defs>
       <path id="DejaVuSans-74" d="M 1172 4494 
L 1172 3500 
L 2356 3500 
L 2356 3053 
L 1172 3053 
L 1172 1153 
Q 1172 725 1289 603 
Q 1406 481 1766 481 
L 2356 481 
L 2356 0 
L 1766 0 
Q 1100 0 847 248 
Q 594 497 594 1153 
L 594 3053 
L 172 3053 
L 172 3500 
L 594 3500 
L 594 4494 
L 1172 4494 
z
" transform="scale(0.015625)"/>
       <path id="DejaVuSans-69" d="M 603 3500 
L 1178 3500 
L 1178 0 
L 603 0 
L 603 3500 
z
M 603 4863 
L 1178 4863 
L 1178 4134 
L 603 4134 
L 603 4863 
z
" transform="scale(0.015625)"/>
       <path id="DejaVuSans-6e" d="M 3513 2113 
L 3513 0 
L 2938 0 
L 2938 2094 
Q 2938 2591 2744 2837 
Q 2550 3084 2163 3084 
Q 1697 3084 1428 2787 
Q 1159 2491 1159 1978 
L 1159 0 
L 581 0 
L 581 3500 
L 1159 3500 
L 1159 2956 
Q 1366 3272 1645 3428 
Q 1925 3584 2291 3584 
Q 2894 3584 3203 3211 
Q 3513 2838 3513 2113 
z
" transform="scale(0.015625)"/>
       <path id="DejaVuSans-67" d="M 2906 1791 
Q 2906 2416 2648 2759 
Q 2391 3103 1925 3103 
Q 1463 3103 1205 2759 
Q 947 2416 947 1791 
Q 947 1169 1205 825 
Q 1463 481 1925 481 
Q 2391 481 2648 825 
Q 2906 1169 2906 1791 
z
M 3481 434 
Q 3481 -459 3084 -895 
Q 2688 -1331 1869 -1331 
Q 1566 -1331 1297 -1286 
Q 1028 -1241 775 -1147 
L 775 -588 
Q 1028 -725 1275 -790 
Q 1522 -856 1778 -856 
Q 2344 -856 2625 -561 
Q 2906 -266 2906 331 
L 2906 616 
Q 2728 306 2450 153 
Q 2172 0 1784 0 
Q 1141 0 747 490 
Q 353 981 353 1791 
Q 353 2603 747 3093 
Q 1141 3584 1784 3584 
Q 2172 3584 2450 3431 
Q 2728 3278 2906 2969 
L 2906 3500 
L 3481 3500 
L 3481 434 
z
" transform="scale(0.015625)"/>
       <path id="DejaVuSans-20" transform="scale(0.015625)"/>
      </defs>
      <use xlink:href="#DejaVuSans-74"/>
      <use xlink:href="#DejaVuSans-72" x="39.208984"/>
      <use xlink:href="#DejaVuSans-61" x="80.322266"/>
      <use xlink:href="#DejaVuSans-69" x="141.601562"/>
      <use xlink:href="#DejaVuSans-6e" x="169.384766"/>
      <use xlink:href="#DejaVuSans-69" x="232.763672"/>
      <use xlink:href="#DejaVuSans-6e" x="260.546875"/>
      <use xlink:href="#DejaVuSans-67" x="323.925781"/>
      <use xlink:href="#DejaVuSans-20" x="387.402344"/>
      <use xlink:href="#DejaVuSans-61" x="419.189453"/>
      <use xlink:href="#DejaVuSans-63" x="480.46875"/>
      <use xlink:href="#DejaVuSans-63" x="535.449219"/>
      <use xlink:href="#DejaVuSans-75" x="590.429688"/>
      <use xlink:href="#DejaVuSans-72" x="653.808594"/>
      <use xlink:href="#DejaVuSans-61" x="694.921875"/>
      <use xlink:href="#DejaVuSans-63" x="756.201172"/>
      <use xlink:href="#DejaVuSans-79" x="811.181641"/>
     </g>
    </g>
    <g id="line2d_19">
     <path d="M 280.18875 69.248562 
L 290.18875 69.248562 
L 300.18875 69.248562 
" style="fill: none; stroke: #ff7f0e; stroke-width: 1.5; stroke-linecap: square"/>
     <g>
      <use xlink:href="#m9ebfaabb70" x="290.18875" y="69.248562" style="fill: #ff7f0e; stroke: #ff7f0e"/>
     </g>
    </g>
    <g id="text_18">
     <!-- validation accuracy -->
     <g transform="translate(308.18875 72.748562) scale(0.1 -0.1)">
      <defs>
       <path id="DejaVuSans-76" d="M 191 3500 
L 800 3500 
L 1894 563 
L 2988 3500 
L 3597 3500 
L 2284 0 
L 1503 0 
L 191 3500 
z
" transform="scale(0.015625)"/>
       <path id="DejaVuSans-6c" d="M 603 4863 
L 1178 4863 
L 1178 0 
L 603 0 
L 603 4863 
z
" transform="scale(0.015625)"/>
       <path id="DejaVuSans-64" d="M 2906 2969 
L 2906 4863 
L 3481 4863 
L 3481 0 
L 2906 0 
L 2906 525 
Q 2725 213 2448 61 
Q 2172 -91 1784 -91 
Q 1150 -91 751 415 
Q 353 922 353 1747 
Q 353 2572 751 3078 
Q 1150 3584 1784 3584 
Q 2172 3584 2448 3432 
Q 2725 3281 2906 2969 
z
M 947 1747 
Q 947 1113 1208 752 
Q 1469 391 1925 391 
Q 2381 391 2643 752 
Q 2906 1113 2906 1747 
Q 2906 2381 2643 2742 
Q 2381 3103 1925 3103 
Q 1469 3103 1208 2742 
Q 947 2381 947 1747 
z
" transform="scale(0.015625)"/>
       <path id="DejaVuSans-6f" d="M 1959 3097 
Q 1497 3097 1228 2736 
Q 959 2375 959 1747 
Q 959 1119 1226 758 
Q 1494 397 1959 397 
Q 2419 397 2687 759 
Q 2956 1122 2956 1747 
Q 2956 2369 2687 2733 
Q 2419 3097 1959 3097 
z
M 1959 3584 
Q 2709 3584 3137 3096 
Q 3566 2609 3566 1747 
Q 3566 888 3137 398 
Q 2709 -91 1959 -91 
Q 1206 -91 779 398 
Q 353 888 353 1747 
Q 353 2609 779 3096 
Q 1206 3584 1959 3584 
z
" transform="scale(0.015625)"/>
      </defs>
      <use xlink:href="#DejaVuSans-76"/>
      <use xlink:href="#DejaVuSans-61" x="59.179688"/>
      <use xlink:href="#DejaVuSans-6c" x="120.458984"/>
      <use xlink:href="#DejaVuSans-69" x="148.242188"/>
      <use xlink:href="#DejaVuSans-64" x="176.025391"/>
      <use xlink:href="#DejaVuSans-61" x="239.501953"/>
      <use xlink:href="#DejaVuSans-74" x="300.78125"/>
      <use xlink:href="#DejaVuSans-69" x="339.990234"/>
      <use xlink:href="#DejaVuSans-6f" x="367.773438"/>
      <use xlink:href="#DejaVuSans-6e" x="428.955078"/>
      <use xlink:href="#DejaVuSans-20" x="492.333984"/>
      <use xlink:href="#DejaVuSans-61" x="524.121094"/>
      <use xlink:href="#DejaVuSans-63" x="585.400391"/>
      <use xlink:href="#DejaVuSans-63" x="640.380859"/>
      <use xlink:href="#DejaVuSans-75" x="695.361328"/>
      <use xlink:href="#DejaVuSans-72" x="758.740234"/>
      <use xlink:href="#DejaVuSans-61" x="799.853516"/>
      <use xlink:href="#DejaVuSans-63" x="861.132812"/>
      <use xlink:href="#DejaVuSans-79" x="916.113281"/>
     </g>
    </g>
   </g>
  </g>
  <g id="axes_2">
   <g id="patch_8">
    <path d="M 57.6 307.584 
L 414.72 307.584 
L 414.72 186.624 
L 57.6 186.624 
z
" style="fill: #ffffff"/>
   </g>
   <g id="matplotlib.axis_3">
    <g id="xtick_10">
     <g id="line2d_20">
      <g>
       <use xlink:href="#m9bb5e56cf8" x="73.832727" y="307.584" style="stroke: #000000; stroke-width: 0.8"/>
      </g>
     </g>
     <g id="text_19">
      <!-- 0 -->
      <g transform="translate(70.651477 322.182437) scale(0.1 -0.1)">
       <use xlink:href="#DejaVuSans-30"/>
      </g>
     </g>
    </g>
    <g id="xtick_11">
     <g id="line2d_21">
      <g>
       <use xlink:href="#m9bb5e56cf8" x="114.928239" y="307.584" style="stroke: #000000; stroke-width: 0.8"/>
      </g>
     </g>
     <g id="text_20">
      <!-- 10 -->
      <g transform="translate(108.565739 322.182437) scale(0.1 -0.1)">
       <use xlink:href="#DejaVuSans-31"/>
       <use xlink:href="#DejaVuSans-30" x="63.623047"/>
      </g>
     </g>
    </g>
    <g id="xtick_12">
     <g id="line2d_22">
      <g>
       <use xlink:href="#m9bb5e56cf8" x="156.023751" y="307.584" style="stroke: #000000; stroke-width: 0.8"/>
      </g>
     </g>
     <g id="text_21">
      <!-- 20 -->
      <g transform="translate(149.661251 322.182437) scale(0.1 -0.1)">
       <use xlink:href="#DejaVuSans-32"/>
       <use xlink:href="#DejaVuSans-30" x="63.623047"/>
      </g>
     </g>
    </g>
    <g id="xtick_13">
     <g id="line2d_23">
      <g>
       <use xlink:href="#m9bb5e56cf8" x="197.119264" y="307.584" style="stroke: #000000; stroke-width: 0.8"/>
      </g>
     </g>
     <g id="text_22">
      <!-- 30 -->
      <g transform="translate(190.756764 322.182437) scale(0.1 -0.1)">
       <use xlink:href="#DejaVuSans-33"/>
       <use xlink:href="#DejaVuSans-30" x="63.623047"/>
      </g>
     </g>
    </g>
    <g id="xtick_14">
     <g id="line2d_24">
      <g>
       <use xlink:href="#m9bb5e56cf8" x="238.214776" y="307.584" style="stroke: #000000; stroke-width: 0.8"/>
      </g>
     </g>
     <g id="text_23">
      <!-- 40 -->
      <g transform="translate(231.852276 322.182437) scale(0.1 -0.1)">
       <use xlink:href="#DejaVuSans-34"/>
       <use xlink:href="#DejaVuSans-30" x="63.623047"/>
      </g>
     </g>
    </g>
    <g id="xtick_15">
     <g id="line2d_25">
      <g>
       <use xlink:href="#m9bb5e56cf8" x="279.310288" y="307.584" style="stroke: #000000; stroke-width: 0.8"/>
      </g>
     </g>
     <g id="text_24">
      <!-- 50 -->
      <g transform="translate(272.947788 322.182437) scale(0.1 -0.1)">
       <use xlink:href="#DejaVuSans-35"/>
       <use xlink:href="#DejaVuSans-30" x="63.623047"/>
      </g>
     </g>
    </g>
    <g id="xtick_16">
     <g id="line2d_26">
      <g>
       <use xlink:href="#m9bb5e56cf8" x="320.4058" y="307.584" style="stroke: #000000; stroke-width: 0.8"/>
      </g>
     </g>
     <g id="text_25">
      <!-- 60 -->
      <g transform="translate(314.0433 322.182437) scale(0.1 -0.1)">
       <use xlink:href="#DejaVuSans-36"/>
       <use xlink:href="#DejaVuSans-30" x="63.623047"/>
      </g>
     </g>
    </g>
    <g id="xtick_17">
     <g id="line2d_27">
      <g>
       <use xlink:href="#m9bb5e56cf8" x="361.501312" y="307.584" style="stroke: #000000; stroke-width: 0.8"/>
      </g>
     </g>
     <g id="text_26">
      <!-- 70 -->
      <g transform="translate(355.138812 322.182437) scale(0.1 -0.1)">
       <use xlink:href="#DejaVuSans-37"/>
       <use xlink:href="#DejaVuSans-30" x="63.623047"/>
      </g>
     </g>
    </g>
    <g id="xtick_18">
     <g id="line2d_28">
      <g>
       <use xlink:href="#m9bb5e56cf8" x="402.596824" y="307.584" style="stroke: #000000; stroke-width: 0.8"/>
      </g>
     </g>
     <g id="text_27">
      <!-- 80 -->
      <g transform="translate(396.234324 322.182437) scale(0.1 -0.1)">
       <use xlink:href="#DejaVuSans-38"/>
       <use xlink:href="#DejaVuSans-30" x="63.623047"/>
      </g>
     </g>
    </g>
    <g id="text_28">
     <!-- Number of epoch -->
     <g transform="translate(192.848281 335.860562) scale(0.1 -0.1)">
      <defs>
       <path id="DejaVuSans-4e" d="M 628 4666 
L 1478 4666 
L 3547 763 
L 3547 4666 
L 4159 4666 
L 4159 0 
L 3309 0 
L 1241 3903 
L 1241 0 
L 628 0 
L 628 4666 
z
" transform="scale(0.015625)"/>
       <path id="DejaVuSans-6d" d="M 3328 2828 
Q 3544 3216 3844 3400 
Q 4144 3584 4550 3584 
Q 5097 3584 5394 3201 
Q 5691 2819 5691 2113 
L 5691 0 
L 5113 0 
L 5113 2094 
Q 5113 2597 4934 2840 
Q 4756 3084 4391 3084 
Q 3944 3084 3684 2787 
Q 3425 2491 3425 1978 
L 3425 0 
L 2847 0 
L 2847 2094 
Q 2847 2600 2669 2842 
Q 2491 3084 2119 3084 
Q 1678 3084 1418 2786 
Q 1159 2488 1159 1978 
L 1159 0 
L 581 0 
L 581 3500 
L 1159 3500 
L 1159 2956 
Q 1356 3278 1631 3431 
Q 1906 3584 2284 3584 
Q 2666 3584 2933 3390 
Q 3200 3197 3328 2828 
z
" transform="scale(0.015625)"/>
       <path id="DejaVuSans-62" d="M 3116 1747 
Q 3116 2381 2855 2742 
Q 2594 3103 2138 3103 
Q 1681 3103 1420 2742 
Q 1159 2381 1159 1747 
Q 1159 1113 1420 752 
Q 1681 391 2138 391 
Q 2594 391 2855 752 
Q 3116 1113 3116 1747 
z
M 1159 2969 
Q 1341 3281 1617 3432 
Q 1894 3584 2278 3584 
Q 2916 3584 3314 3078 
Q 3713 2572 3713 1747 
Q 3713 922 3314 415 
Q 2916 -91 2278 -91 
Q 1894 -91 1617 61 
Q 1341 213 1159 525 
L 1159 0 
L 581 0 
L 581 4863 
L 1159 4863 
L 1159 2969 
z
" transform="scale(0.015625)"/>
       <path id="DejaVuSans-65" d="M 3597 1894 
L 3597 1613 
L 953 1613 
Q 991 1019 1311 708 
Q 1631 397 2203 397 
Q 2534 397 2845 478 
Q 3156 559 3463 722 
L 3463 178 
Q 3153 47 2828 -22 
Q 2503 -91 2169 -91 
Q 1331 -91 842 396 
Q 353 884 353 1716 
Q 353 2575 817 3079 
Q 1281 3584 2069 3584 
Q 2775 3584 3186 3129 
Q 3597 2675 3597 1894 
z
M 3022 2063 
Q 3016 2534 2758 2815 
Q 2500 3097 2075 3097 
Q 1594 3097 1305 2825 
Q 1016 2553 972 2059 
L 3022 2063 
z
" transform="scale(0.015625)"/>
       <path id="DejaVuSans-66" d="M 2375 4863 
L 2375 4384 
L 1825 4384 
Q 1516 4384 1395 4259 
Q 1275 4134 1275 3809 
L 1275 3500 
L 2222 3500 
L 2222 3053 
L 1275 3053 
L 1275 0 
L 697 0 
L 697 3053 
L 147 3053 
L 147 3500 
L 697 3500 
L 697 3744 
Q 697 4328 969 4595 
Q 1241 4863 1831 4863 
L 2375 4863 
z
" transform="scale(0.015625)"/>
       <path id="DejaVuSans-70" d="M 1159 525 
L 1159 -1331 
L 581 -1331 
L 581 3500 
L 1159 3500 
L 1159 2969 
Q 1341 3281 1617 3432 
Q 1894 3584 2278 3584 
Q 2916 3584 3314 3078 
Q 3713 2572 3713 1747 
Q 3713 922 3314 415 
Q 2916 -91 2278 -91 
Q 1894 -91 1617 61 
Q 1341 213 1159 525 
z
M 3116 1747 
Q 3116 2381 2855 2742 
Q 2594 3103 2138 3103 
Q 1681 3103 1420 2742 
Q 1159 2381 1159 1747 
Q 1159 1113 1420 752 
Q 1681 391 2138 391 
Q 2594 391 2855 752 
Q 3116 1113 3116 1747 
z
" transform="scale(0.015625)"/>
       <path id="DejaVuSans-68" d="M 3513 2113 
L 3513 0 
L 2938 0 
L 2938 2094 
Q 2938 2591 2744 2837 
Q 2550 3084 2163 3084 
Q 1697 3084 1428 2787 
Q 1159 2491 1159 1978 
L 1159 0 
L 581 0 
L 581 4863 
L 1159 4863 
L 1159 2956 
Q 1366 3272 1645 3428 
Q 1925 3584 2291 3584 
Q 2894 3584 3203 3211 
Q 3513 2838 3513 2113 
z
" transform="scale(0.015625)"/>
      </defs>
      <use xlink:href="#DejaVuSans-4e"/>
      <use xlink:href="#DejaVuSans-75" x="74.804688"/>
      <use xlink:href="#DejaVuSans-6d" x="138.183594"/>
      <use xlink:href="#DejaVuSans-62" x="235.595703"/>
      <use xlink:href="#DejaVuSans-65" x="299.072266"/>
      <use xlink:href="#DejaVuSans-72" x="360.595703"/>
      <use xlink:href="#DejaVuSans-20" x="401.708984"/>
      <use xlink:href="#DejaVuSans-6f" x="433.496094"/>
      <use xlink:href="#DejaVuSans-66" x="494.677734"/>
      <use xlink:href="#DejaVuSans-20" x="529.882812"/>
      <use xlink:href="#DejaVuSans-65" x="561.669922"/>
      <use xlink:href="#DejaVuSans-70" x="623.193359"/>
      <use xlink:href="#DejaVuSans-6f" x="686.669922"/>
      <use xlink:href="#DejaVuSans-63" x="747.851562"/>
      <use xlink:href="#DejaVuSans-68" x="802.832031"/>
     </g>
    </g>
   </g>
   <g id="matplotlib.axis_4">
    <g id="ytick_7">
     <g id="line2d_29">
      <g>
       <use xlink:href="#m08d6a18c9c" x="57.6" y="289.496337" style="stroke: #000000; stroke-width: 0.8"/>
      </g>
     </g>
     <g id="text_29">
      <!-- 250% -->
      <g transform="translate(22.010938 293.295556) scale(0.1 -0.1)">
       <use xlink:href="#DejaVuSans-32"/>
       <use xlink:href="#DejaVuSans-35" x="63.623047"/>
       <use xlink:href="#DejaVuSans-30" x="127.246094"/>
       <use xlink:href="#DejaVuSans-25" x="190.869141"/>
      </g>
     </g>
    </g>
    <g id="ytick_8">
     <g id="line2d_30">
      <g>
       <use xlink:href="#m08d6a18c9c" x="57.6" y="268.144123" style="stroke: #000000; stroke-width: 0.8"/>
      </g>
     </g>
     <g id="text_30">
      <!-- 500% -->
      <g transform="translate(22.010938 271.943342) scale(0.1 -0.1)">
       <use xlink:href="#DejaVuSans-35"/>
       <use xlink:href="#DejaVuSans-30" x="63.623047"/>
       <use xlink:href="#DejaVuSans-30" x="127.246094"/>
       <use xlink:href="#DejaVuSans-25" x="190.869141"/>
      </g>
     </g>
    </g>
    <g id="ytick_9">
     <g id="line2d_31">
      <g>
       <use xlink:href="#m08d6a18c9c" x="57.6" y="246.79191" style="stroke: #000000; stroke-width: 0.8"/>
      </g>
     </g>
     <g id="text_31">
      <!-- 750% -->
      <g transform="translate(22.010938 250.591128) scale(0.1 -0.1)">
       <use xlink:href="#DejaVuSans-37"/>
       <use xlink:href="#DejaVuSans-35" x="63.623047"/>
       <use xlink:href="#DejaVuSans-30" x="127.246094"/>
       <use xlink:href="#DejaVuSans-25" x="190.869141"/>
      </g>
     </g>
    </g>
    <g id="ytick_10">
     <g id="line2d_32">
      <g>
       <use xlink:href="#m08d6a18c9c" x="57.6" y="225.439696" style="stroke: #000000; stroke-width: 0.8"/>
      </g>
     </g>
     <g id="text_32">
      <!-- 1000% -->
      <g transform="translate(15.648438 229.238915) scale(0.1 -0.1)">
       <use xlink:href="#DejaVuSans-31"/>
       <use xlink:href="#DejaVuSans-30" x="63.623047"/>
       <use xlink:href="#DejaVuSans-30" x="127.246094"/>
       <use xlink:href="#DejaVuSans-30" x="190.869141"/>
       <use xlink:href="#DejaVuSans-25" x="254.492188"/>
      </g>
     </g>
    </g>
    <g id="ytick_11">
     <g id="line2d_33">
      <g>
       <use xlink:href="#m08d6a18c9c" x="57.6" y="204.087482" style="stroke: #000000; stroke-width: 0.8"/>
      </g>
     </g>
     <g id="text_33">
      <!-- 1250% -->
      <g transform="translate(15.648438 207.886701) scale(0.1 -0.1)">
       <use xlink:href="#DejaVuSans-31"/>
       <use xlink:href="#DejaVuSans-32" x="63.623047"/>
       <use xlink:href="#DejaVuSans-35" x="127.246094"/>
       <use xlink:href="#DejaVuSans-30" x="190.869141"/>
       <use xlink:href="#DejaVuSans-25" x="254.492188"/>
      </g>
     </g>
    </g>
    <g id="text_34">
     <!-- loss -->
     <g transform="translate(9.56875 256.761812) rotate(-90) scale(0.1 -0.1)">
      <defs>
       <path id="DejaVuSans-73" d="M 2834 3397 
L 2834 2853 
Q 2591 2978 2328 3040 
Q 2066 3103 1784 3103 
Q 1356 3103 1142 2972 
Q 928 2841 928 2578 
Q 928 2378 1081 2264 
Q 1234 2150 1697 2047 
L 1894 2003 
Q 2506 1872 2764 1633 
Q 3022 1394 3022 966 
Q 3022 478 2636 193 
Q 2250 -91 1575 -91 
Q 1294 -91 989 -36 
Q 684 19 347 128 
L 347 722 
Q 666 556 975 473 
Q 1284 391 1588 391 
Q 1994 391 2212 530 
Q 2431 669 2431 922 
Q 2431 1156 2273 1281 
Q 2116 1406 1581 1522 
L 1381 1569 
Q 847 1681 609 1914 
Q 372 2147 372 2553 
Q 372 3047 722 3315 
Q 1072 3584 1716 3584 
Q 2034 3584 2315 3537 
Q 2597 3491 2834 3397 
z
" transform="scale(0.015625)"/>
      </defs>
      <use xlink:href="#DejaVuSans-6c"/>
      <use xlink:href="#DejaVuSans-6f" x="27.783203"/>
      <use xlink:href="#DejaVuSans-73" x="88.964844"/>
      <use xlink:href="#DejaVuSans-73" x="141.064453"/>
     </g>
    </g>
   </g>
   <g id="line2d_34">
    <path d="M 73.832727 192.122182 
L 77.942278 236.213725 
L 82.05183 251.107448 
L 86.161381 260.415891 
L 90.270932 267.639111 
L 94.380483 274.53456 
L 98.490035 277.325368 
L 102.599586 281.779712 
L 106.709137 284.287986 
L 110.818688 286.980653 
L 114.928239 289.434012 
L 119.037791 290.803232 
L 123.147342 292.068165 
L 127.256893 293.082109 
L 131.366444 293.679095 
L 135.475995 295.430678 
L 139.585547 295.510315 
L 143.695098 297.143671 
L 147.804649 297.287052 
L 151.9142 297.110897 
L 156.023751 296.388363 
L 160.133303 298.738245 
L 164.242854 298.401366 
L 168.352405 297.818623 
L 172.461956 298.468036 
L 176.571507 299.194153 
L 180.681059 299.187425 
L 184.79061 299.118025 
L 188.900161 299.180244 
L 193.009712 299.84631 
L 197.119264 299.451459 
L 201.228815 299.272766 
L 205.338366 298.952631 
L 209.447917 300.037649 
L 213.557468 299.226546 
L 217.66702 299.842127 
L 221.776571 299.679299 
L 225.886122 299.840524 
L 229.995673 300.409393 
L 234.105224 299.61916 
L 238.214776 300.064937 
L 242.324327 300.0315 
L 246.433878 299.599048 
L 250.543429 299.966959 
L 254.65298 300.941328 
L 258.762532 300.118478 
L 262.872083 299.940647 
L 266.981634 300.465105 
L 271.091185 300.718374 
L 275.200736 300.852534 
L 279.310288 300.764546 
L 283.419839 300.993035 
L 287.52939 300.518203 
L 291.638941 300.569042 
L 295.748493 301.207529 
L 299.858044 300.250539 
L 303.967595 300.737005 
L 308.077146 301.711674 
L 312.186697 300.961219 
L 316.296249 301.072111 
L 320.4058 301.084977 
L 324.515351 300.689089 
L 328.624902 300.604083 
L 332.734453 301.071737 
L 336.844005 301.278534 
L 340.953556 301.28765 
L 345.063107 301.409791 
L 349.172658 300.597152 
L 353.282209 300.327797 
L 357.391761 301.262009 
L 361.501312 301.563969 
L 365.610863 300.563584 
L 369.720414 301.441377 
L 373.829965 301.362634 
L 377.939517 300.960723 
L 382.049068 301.497556 
L 386.158619 301.792607 
L 390.26817 301.589227 
L 394.377722 302.085818 
L 398.487273 301.073077 
" clip-path="url(#p4ff49b10dd)" style="fill: none; stroke: #1f77b4; stroke-width: 1.5; stroke-linecap: square"/>
    <g clip-path="url(#p4ff49b10dd)">
     <use xlink:href="#m1a486b4429" x="73.832727" y="192.122182" style="fill: #1f77b4; stroke: #1f77b4"/>
     <use xlink:href="#m1a486b4429" x="77.942278" y="236.213725" style="fill: #1f77b4; stroke: #1f77b4"/>
     <use xlink:href="#m1a486b4429" x="82.05183" y="251.107448" style="fill: #1f77b4; stroke: #1f77b4"/>
     <use xlink:href="#m1a486b4429" x="86.161381" y="260.415891" style="fill: #1f77b4; stroke: #1f77b4"/>
     <use xlink:href="#m1a486b4429" x="90.270932" y="267.639111" style="fill: #1f77b4; stroke: #1f77b4"/>
     <use xlink:href="#m1a486b4429" x="94.380483" y="274.53456" style="fill: #1f77b4; stroke: #1f77b4"/>
     <use xlink:href="#m1a486b4429" x="98.490035" y="277.325368" style="fill: #1f77b4; stroke: #1f77b4"/>
     <use xlink:href="#m1a486b4429" x="102.599586" y="281.779712" style="fill: #1f77b4; stroke: #1f77b4"/>
     <use xlink:href="#m1a486b4429" x="106.709137" y="284.287986" style="fill: #1f77b4; stroke: #1f77b4"/>
     <use xlink:href="#m1a486b4429" x="110.818688" y="286.980653" style="fill: #1f77b4; stroke: #1f77b4"/>
     <use xlink:href="#m1a486b4429" x="114.928239" y="289.434012" style="fill: #1f77b4; stroke: #1f77b4"/>
     <use xlink:href="#m1a486b4429" x="119.037791" y="290.803232" style="fill: #1f77b4; stroke: #1f77b4"/>
     <use xlink:href="#m1a486b4429" x="123.147342" y="292.068165" style="fill: #1f77b4; stroke: #1f77b4"/>
     <use xlink:href="#m1a486b4429" x="127.256893" y="293.082109" style="fill: #1f77b4; stroke: #1f77b4"/>
     <use xlink:href="#m1a486b4429" x="131.366444" y="293.679095" style="fill: #1f77b4; stroke: #1f77b4"/>
     <use xlink:href="#m1a486b4429" x="135.475995" y="295.430678" style="fill: #1f77b4; stroke: #1f77b4"/>
     <use xlink:href="#m1a486b4429" x="139.585547" y="295.510315" style="fill: #1f77b4; stroke: #1f77b4"/>
     <use xlink:href="#m1a486b4429" x="143.695098" y="297.143671" style="fill: #1f77b4; stroke: #1f77b4"/>
     <use xlink:href="#m1a486b4429" x="147.804649" y="297.287052" style="fill: #1f77b4; stroke: #1f77b4"/>
     <use xlink:href="#m1a486b4429" x="151.9142" y="297.110897" style="fill: #1f77b4; stroke: #1f77b4"/>
     <use xlink:href="#m1a486b4429" x="156.023751" y="296.388363" style="fill: #1f77b4; stroke: #1f77b4"/>
     <use xlink:href="#m1a486b4429" x="160.133303" y="298.738245" style="fill: #1f77b4; stroke: #1f77b4"/>
     <use xlink:href="#m1a486b4429" x="164.242854" y="298.401366" style="fill: #1f77b4; stroke: #1f77b4"/>
     <use xlink:href="#m1a486b4429" x="168.352405" y="297.818623" style="fill: #1f77b4; stroke: #1f77b4"/>
     <use xlink:href="#m1a486b4429" x="172.461956" y="298.468036" style="fill: #1f77b4; stroke: #1f77b4"/>
     <use xlink:href="#m1a486b4429" x="176.571507" y="299.194153" style="fill: #1f77b4; stroke: #1f77b4"/>
     <use xlink:href="#m1a486b4429" x="180.681059" y="299.187425" style="fill: #1f77b4; stroke: #1f77b4"/>
     <use xlink:href="#m1a486b4429" x="184.79061" y="299.118025" style="fill: #1f77b4; stroke: #1f77b4"/>
     <use xlink:href="#m1a486b4429" x="188.900161" y="299.180244" style="fill: #1f77b4; stroke: #1f77b4"/>
     <use xlink:href="#m1a486b4429" x="193.009712" y="299.84631" style="fill: #1f77b4; stroke: #1f77b4"/>
     <use xlink:href="#m1a486b4429" x="197.119264" y="299.451459" style="fill: #1f77b4; stroke: #1f77b4"/>
     <use xlink:href="#m1a486b4429" x="201.228815" y="299.272766" style="fill: #1f77b4; stroke: #1f77b4"/>
     <use xlink:href="#m1a486b4429" x="205.338366" y="298.952631" style="fill: #1f77b4; stroke: #1f77b4"/>
     <use xlink:href="#m1a486b4429" x="209.447917" y="300.037649" style="fill: #1f77b4; stroke: #1f77b4"/>
     <use xlink:href="#m1a486b4429" x="213.557468" y="299.226546" style="fill: #1f77b4; stroke: #1f77b4"/>
     <use xlink:href="#m1a486b4429" x="217.66702" y="299.842127" style="fill: #1f77b4; stroke: #1f77b4"/>
     <use xlink:href="#m1a486b4429" x="221.776571" y="299.679299" style="fill: #1f77b4; stroke: #1f77b4"/>
     <use xlink:href="#m1a486b4429" x="225.886122" y="299.840524" style="fill: #1f77b4; stroke: #1f77b4"/>
     <use xlink:href="#m1a486b4429" x="229.995673" y="300.409393" style="fill: #1f77b4; stroke: #1f77b4"/>
     <use xlink:href="#m1a486b4429" x="234.105224" y="299.61916" style="fill: #1f77b4; stroke: #1f77b4"/>
     <use xlink:href="#m1a486b4429" x="238.214776" y="300.064937" style="fill: #1f77b4; stroke: #1f77b4"/>
     <use xlink:href="#m1a486b4429" x="242.324327" y="300.0315" style="fill: #1f77b4; stroke: #1f77b4"/>
     <use xlink:href="#m1a486b4429" x="246.433878" y="299.599048" style="fill: #1f77b4; stroke: #1f77b4"/>
     <use xlink:href="#m1a486b4429" x="250.543429" y="299.966959" style="fill: #1f77b4; stroke: #1f77b4"/>
     <use xlink:href="#m1a486b4429" x="254.65298" y="300.941328" style="fill: #1f77b4; stroke: #1f77b4"/>
     <use xlink:href="#m1a486b4429" x="258.762532" y="300.118478" style="fill: #1f77b4; stroke: #1f77b4"/>
     <use xlink:href="#m1a486b4429" x="262.872083" y="299.940647" style="fill: #1f77b4; stroke: #1f77b4"/>
     <use xlink:href="#m1a486b4429" x="266.981634" y="300.465105" style="fill: #1f77b4; stroke: #1f77b4"/>
     <use xlink:href="#m1a486b4429" x="271.091185" y="300.718374" style="fill: #1f77b4; stroke: #1f77b4"/>
     <use xlink:href="#m1a486b4429" x="275.200736" y="300.852534" style="fill: #1f77b4; stroke: #1f77b4"/>
     <use xlink:href="#m1a486b4429" x="279.310288" y="300.764546" style="fill: #1f77b4; stroke: #1f77b4"/>
     <use xlink:href="#m1a486b4429" x="283.419839" y="300.993035" style="fill: #1f77b4; stroke: #1f77b4"/>
     <use xlink:href="#m1a486b4429" x="287.52939" y="300.518203" style="fill: #1f77b4; stroke: #1f77b4"/>
     <use xlink:href="#m1a486b4429" x="291.638941" y="300.569042" style="fill: #1f77b4; stroke: #1f77b4"/>
     <use xlink:href="#m1a486b4429" x="295.748493" y="301.207529" style="fill: #1f77b4; stroke: #1f77b4"/>
     <use xlink:href="#m1a486b4429" x="299.858044" y="300.250539" style="fill: #1f77b4; stroke: #1f77b4"/>
     <use xlink:href="#m1a486b4429" x="303.967595" y="300.737005" style="fill: #1f77b4; stroke: #1f77b4"/>
     <use xlink:href="#m1a486b4429" x="308.077146" y="301.711674" style="fill: #1f77b4; stroke: #1f77b4"/>
     <use xlink:href="#m1a486b4429" x="312.186697" y="300.961219" style="fill: #1f77b4; stroke: #1f77b4"/>
     <use xlink:href="#m1a486b4429" x="316.296249" y="301.072111" style="fill: #1f77b4; stroke: #1f77b4"/>
     <use xlink:href="#m1a486b4429" x="320.4058" y="301.084977" style="fill: #1f77b4; stroke: #1f77b4"/>
     <use xlink:href="#m1a486b4429" x="324.515351" y="300.689089" style="fill: #1f77b4; stroke: #1f77b4"/>
     <use xlink:href="#m1a486b4429" x="328.624902" y="300.604083" style="fill: #1f77b4; stroke: #1f77b4"/>
     <use xlink:href="#m1a486b4429" x="332.734453" y="301.071737" style="fill: #1f77b4; stroke: #1f77b4"/>
     <use xlink:href="#m1a486b4429" x="336.844005" y="301.278534" style="fill: #1f77b4; stroke: #1f77b4"/>
     <use xlink:href="#m1a486b4429" x="340.953556" y="301.28765" style="fill: #1f77b4; stroke: #1f77b4"/>
     <use xlink:href="#m1a486b4429" x="345.063107" y="301.409791" style="fill: #1f77b4; stroke: #1f77b4"/>
     <use xlink:href="#m1a486b4429" x="349.172658" y="300.597152" style="fill: #1f77b4; stroke: #1f77b4"/>
     <use xlink:href="#m1a486b4429" x="353.282209" y="300.327797" style="fill: #1f77b4; stroke: #1f77b4"/>
     <use xlink:href="#m1a486b4429" x="357.391761" y="301.262009" style="fill: #1f77b4; stroke: #1f77b4"/>
     <use xlink:href="#m1a486b4429" x="361.501312" y="301.563969" style="fill: #1f77b4; stroke: #1f77b4"/>
     <use xlink:href="#m1a486b4429" x="365.610863" y="300.563584" style="fill: #1f77b4; stroke: #1f77b4"/>
     <use xlink:href="#m1a486b4429" x="369.720414" y="301.441377" style="fill: #1f77b4; stroke: #1f77b4"/>
     <use xlink:href="#m1a486b4429" x="373.829965" y="301.362634" style="fill: #1f77b4; stroke: #1f77b4"/>
     <use xlink:href="#m1a486b4429" x="377.939517" y="300.960723" style="fill: #1f77b4; stroke: #1f77b4"/>
     <use xlink:href="#m1a486b4429" x="382.049068" y="301.497556" style="fill: #1f77b4; stroke: #1f77b4"/>
     <use xlink:href="#m1a486b4429" x="386.158619" y="301.792607" style="fill: #1f77b4; stroke: #1f77b4"/>
     <use xlink:href="#m1a486b4429" x="390.26817" y="301.589227" style="fill: #1f77b4; stroke: #1f77b4"/>
     <use xlink:href="#m1a486b4429" x="394.377722" y="302.085818" style="fill: #1f77b4; stroke: #1f77b4"/>
     <use xlink:href="#m1a486b4429" x="398.487273" y="301.073077" style="fill: #1f77b4; stroke: #1f77b4"/>
    </g>
   </g>
   <g id="line2d_35">
    <path d="M 73.832727 220.019074 
L 77.942278 242.08564 
L 82.05183 250.955507 
L 86.161381 260.430569 
L 90.270932 266.032185 
L 94.380483 270.423589 
L 98.490035 276.9712 
L 102.599586 281.198348 
L 106.709137 283.049544 
L 110.818688 285.720314 
L 114.928239 286.445106 
L 119.037791 286.722286 
L 123.147342 286.807636 
L 127.256893 287.860734 
L 131.366444 290.697589 
L 135.475995 291.929102 
L 139.585547 293.083557 
L 143.695098 293.06152 
L 147.804649 293.929638 
L 151.9142 291.724883 
L 156.023751 295.556741 
L 160.133303 293.57621 
L 164.242854 290.72153 
L 168.352405 290.498658 
L 172.461956 295.366165 
L 176.571507 295.558893 
L 180.681059 293.678708 
L 184.79061 294.779261 
L 188.900161 296.729882 
L 193.009712 295.507713 
L 197.119264 297.469028 
L 201.228815 296.029197 
L 205.338366 294.436472 
L 209.447917 295.47009 
L 213.557468 295.80718 
L 217.66702 295.779669 
L 221.776571 295.386911 
L 225.886122 297.457797 
L 229.995673 293.97269 
L 234.105224 298.152831 
L 238.214776 297.809681 
L 242.324327 296.047819 
L 246.433878 298.591014 
L 250.543429 296.138618 
L 254.65298 295.809811 
L 258.762532 298.232668 
L 262.872083 294.819879 
L 266.981634 298.012761 
L 271.091185 298.284316 
L 275.200736 297.138962 
L 279.310288 296.939252 
L 283.419839 292.84134 
L 287.52939 288.705583 
L 291.638941 298.141902 
L 295.748493 294.990836 
L 299.858044 298.546317 
L 303.967595 296.219526 
L 308.077146 296.927843 
L 312.186697 297.336983 
L 316.296249 296.206058 
L 320.4058 295.643507 
L 324.515351 297.441022 
L 328.624902 294.271815 
L 332.734453 296.577813 
L 336.844005 297.294402 
L 340.953556 297.38841 
L 345.063107 297.715098 
L 349.172658 296.764574 
L 353.282209 298.531562 
L 357.391761 299.539789 
L 361.501312 296.399554 
L 365.610863 299.229115 
L 369.720414 297.152857 
L 373.829965 296.071769 
L 377.939517 297.577343 
L 382.049068 298.460311 
L 386.158619 297.602529 
L 390.26817 297.398998 
L 394.377722 296.113516 
L 398.487273 296.216441 
" clip-path="url(#p4ff49b10dd)" style="fill: none; stroke: #ff7f0e; stroke-width: 1.5; stroke-linecap: square"/>
    <g clip-path="url(#p4ff49b10dd)">
     <use xlink:href="#m9ebfaabb70" x="73.832727" y="220.019074" style="fill: #ff7f0e; stroke: #ff7f0e"/>
     <use xlink:href="#m9ebfaabb70" x="77.942278" y="242.08564" style="fill: #ff7f0e; stroke: #ff7f0e"/>
     <use xlink:href="#m9ebfaabb70" x="82.05183" y="250.955507" style="fill: #ff7f0e; stroke: #ff7f0e"/>
     <use xlink:href="#m9ebfaabb70" x="86.161381" y="260.430569" style="fill: #ff7f0e; stroke: #ff7f0e"/>
     <use xlink:href="#m9ebfaabb70" x="90.270932" y="266.032185" style="fill: #ff7f0e; stroke: #ff7f0e"/>
     <use xlink:href="#m9ebfaabb70" x="94.380483" y="270.423589" style="fill: #ff7f0e; stroke: #ff7f0e"/>
     <use xlink:href="#m9ebfaabb70" x="98.490035" y="276.9712" style="fill: #ff7f0e; stroke: #ff7f0e"/>
     <use xlink:href="#m9ebfaabb70" x="102.599586" y="281.198348" style="fill: #ff7f0e; stroke: #ff7f0e"/>
     <use xlink:href="#m9ebfaabb70" x="106.709137" y="283.049544" style="fill: #ff7f0e; stroke: #ff7f0e"/>
     <use xlink:href="#m9ebfaabb70" x="110.818688" y="285.720314" style="fill: #ff7f0e; stroke: #ff7f0e"/>
     <use xlink:href="#m9ebfaabb70" x="114.928239" y="286.445106" style="fill: #ff7f0e; stroke: #ff7f0e"/>
     <use xlink:href="#m9ebfaabb70" x="119.037791" y="286.722286" style="fill: #ff7f0e; stroke: #ff7f0e"/>
     <use xlink:href="#m9ebfaabb70" x="123.147342" y="286.807636" style="fill: #ff7f0e; stroke: #ff7f0e"/>
     <use xlink:href="#m9ebfaabb70" x="127.256893" y="287.860734" style="fill: #ff7f0e; stroke: #ff7f0e"/>
     <use xlink:href="#m9ebfaabb70" x="131.366444" y="290.697589" style="fill: #ff7f0e; stroke: #ff7f0e"/>
     <use xlink:href="#m9ebfaabb70" x="135.475995" y="291.929102" style="fill: #ff7f0e; stroke: #ff7f0e"/>
     <use xlink:href="#m9ebfaabb70" x="139.585547" y="293.083557" style="fill: #ff7f0e; stroke: #ff7f0e"/>
     <use xlink:href="#m9ebfaabb70" x="143.695098" y="293.06152" style="fill: #ff7f0e; stroke: #ff7f0e"/>
     <use xlink:href="#m9ebfaabb70" x="147.804649" y="293.929638" style="fill: #ff7f0e; stroke: #ff7f0e"/>
     <use xlink:href="#m9ebfaabb70" x="151.9142" y="291.724883" style="fill: #ff7f0e; stroke: #ff7f0e"/>
     <use xlink:href="#m9ebfaabb70" x="156.023751" y="295.556741" style="fill: #ff7f0e; stroke: #ff7f0e"/>
     <use xlink:href="#m9ebfaabb70" x="160.133303" y="293.57621" style="fill: #ff7f0e; stroke: #ff7f0e"/>
     <use xlink:href="#m9ebfaabb70" x="164.242854" y="290.72153" style="fill: #ff7f0e; stroke: #ff7f0e"/>
     <use xlink:href="#m9ebfaabb70" x="168.352405" y="290.498658" style="fill: #ff7f0e; stroke: #ff7f0e"/>
     <use xlink:href="#m9ebfaabb70" x="172.461956" y="295.366165" style="fill: #ff7f0e; stroke: #ff7f0e"/>
     <use xlink:href="#m9ebfaabb70" x="176.571507" y="295.558893" style="fill: #ff7f0e; stroke: #ff7f0e"/>
     <use xlink:href="#m9ebfaabb70" x="180.681059" y="293.678708" style="fill: #ff7f0e; stroke: #ff7f0e"/>
     <use xlink:href="#m9ebfaabb70" x="184.79061" y="294.779261" style="fill: #ff7f0e; stroke: #ff7f0e"/>
     <use xlink:href="#m9ebfaabb70" x="188.900161" y="296.729882" style="fill: #ff7f0e; stroke: #ff7f0e"/>
     <use xlink:href="#m9ebfaabb70" x="193.009712" y="295.507713" style="fill: #ff7f0e; stroke: #ff7f0e"/>
     <use xlink:href="#m9ebfaabb70" x="197.119264" y="297.469028" style="fill: #ff7f0e; stroke: #ff7f0e"/>
     <use xlink:href="#m9ebfaabb70" x="201.228815" y="296.029197" style="fill: #ff7f0e; stroke: #ff7f0e"/>
     <use xlink:href="#m9ebfaabb70" x="205.338366" y="294.436472" style="fill: #ff7f0e; stroke: #ff7f0e"/>
     <use xlink:href="#m9ebfaabb70" x="209.447917" y="295.47009" style="fill: #ff7f0e; stroke: #ff7f0e"/>
     <use xlink:href="#m9ebfaabb70" x="213.557468" y="295.80718" style="fill: #ff7f0e; stroke: #ff7f0e"/>
     <use xlink:href="#m9ebfaabb70" x="217.66702" y="295.779669" style="fill: #ff7f0e; stroke: #ff7f0e"/>
     <use xlink:href="#m9ebfaabb70" x="221.776571" y="295.386911" style="fill: #ff7f0e; stroke: #ff7f0e"/>
     <use xlink:href="#m9ebfaabb70" x="225.886122" y="297.457797" style="fill: #ff7f0e; stroke: #ff7f0e"/>
     <use xlink:href="#m9ebfaabb70" x="229.995673" y="293.97269" style="fill: #ff7f0e; stroke: #ff7f0e"/>
     <use xlink:href="#m9ebfaabb70" x="234.105224" y="298.152831" style="fill: #ff7f0e; stroke: #ff7f0e"/>
     <use xlink:href="#m9ebfaabb70" x="238.214776" y="297.809681" style="fill: #ff7f0e; stroke: #ff7f0e"/>
     <use xlink:href="#m9ebfaabb70" x="242.324327" y="296.047819" style="fill: #ff7f0e; stroke: #ff7f0e"/>
     <use xlink:href="#m9ebfaabb70" x="246.433878" y="298.591014" style="fill: #ff7f0e; stroke: #ff7f0e"/>
     <use xlink:href="#m9ebfaabb70" x="250.543429" y="296.138618" style="fill: #ff7f0e; stroke: #ff7f0e"/>
     <use xlink:href="#m9ebfaabb70" x="254.65298" y="295.809811" style="fill: #ff7f0e; stroke: #ff7f0e"/>
     <use xlink:href="#m9ebfaabb70" x="258.762532" y="298.232668" style="fill: #ff7f0e; stroke: #ff7f0e"/>
     <use xlink:href="#m9ebfaabb70" x="262.872083" y="294.819879" style="fill: #ff7f0e; stroke: #ff7f0e"/>
     <use xlink:href="#m9ebfaabb70" x="266.981634" y="298.012761" style="fill: #ff7f0e; stroke: #ff7f0e"/>
     <use xlink:href="#m9ebfaabb70" x="271.091185" y="298.284316" style="fill: #ff7f0e; stroke: #ff7f0e"/>
     <use xlink:href="#m9ebfaabb70" x="275.200736" y="297.138962" style="fill: #ff7f0e; stroke: #ff7f0e"/>
     <use xlink:href="#m9ebfaabb70" x="279.310288" y="296.939252" style="fill: #ff7f0e; stroke: #ff7f0e"/>
     <use xlink:href="#m9ebfaabb70" x="283.419839" y="292.84134" style="fill: #ff7f0e; stroke: #ff7f0e"/>
     <use xlink:href="#m9ebfaabb70" x="287.52939" y="288.705583" style="fill: #ff7f0e; stroke: #ff7f0e"/>
     <use xlink:href="#m9ebfaabb70" x="291.638941" y="298.141902" style="fill: #ff7f0e; stroke: #ff7f0e"/>
     <use xlink:href="#m9ebfaabb70" x="295.748493" y="294.990836" style="fill: #ff7f0e; stroke: #ff7f0e"/>
     <use xlink:href="#m9ebfaabb70" x="299.858044" y="298.546317" style="fill: #ff7f0e; stroke: #ff7f0e"/>
     <use xlink:href="#m9ebfaabb70" x="303.967595" y="296.219526" style="fill: #ff7f0e; stroke: #ff7f0e"/>
     <use xlink:href="#m9ebfaabb70" x="308.077146" y="296.927843" style="fill: #ff7f0e; stroke: #ff7f0e"/>
     <use xlink:href="#m9ebfaabb70" x="312.186697" y="297.336983" style="fill: #ff7f0e; stroke: #ff7f0e"/>
     <use xlink:href="#m9ebfaabb70" x="316.296249" y="296.206058" style="fill: #ff7f0e; stroke: #ff7f0e"/>
     <use xlink:href="#m9ebfaabb70" x="320.4058" y="295.643507" style="fill: #ff7f0e; stroke: #ff7f0e"/>
     <use xlink:href="#m9ebfaabb70" x="324.515351" y="297.441022" style="fill: #ff7f0e; stroke: #ff7f0e"/>
     <use xlink:href="#m9ebfaabb70" x="328.624902" y="294.271815" style="fill: #ff7f0e; stroke: #ff7f0e"/>
     <use xlink:href="#m9ebfaabb70" x="332.734453" y="296.577813" style="fill: #ff7f0e; stroke: #ff7f0e"/>
     <use xlink:href="#m9ebfaabb70" x="336.844005" y="297.294402" style="fill: #ff7f0e; stroke: #ff7f0e"/>
     <use xlink:href="#m9ebfaabb70" x="340.953556" y="297.38841" style="fill: #ff7f0e; stroke: #ff7f0e"/>
     <use xlink:href="#m9ebfaabb70" x="345.063107" y="297.715098" style="fill: #ff7f0e; stroke: #ff7f0e"/>
     <use xlink:href="#m9ebfaabb70" x="349.172658" y="296.764574" style="fill: #ff7f0e; stroke: #ff7f0e"/>
     <use xlink:href="#m9ebfaabb70" x="353.282209" y="298.531562" style="fill: #ff7f0e; stroke: #ff7f0e"/>
     <use xlink:href="#m9ebfaabb70" x="357.391761" y="299.539789" style="fill: #ff7f0e; stroke: #ff7f0e"/>
     <use xlink:href="#m9ebfaabb70" x="361.501312" y="296.399554" style="fill: #ff7f0e; stroke: #ff7f0e"/>
     <use xlink:href="#m9ebfaabb70" x="365.610863" y="299.229115" style="fill: #ff7f0e; stroke: #ff7f0e"/>
     <use xlink:href="#m9ebfaabb70" x="369.720414" y="297.152857" style="fill: #ff7f0e; stroke: #ff7f0e"/>
     <use xlink:href="#m9ebfaabb70" x="373.829965" y="296.071769" style="fill: #ff7f0e; stroke: #ff7f0e"/>
     <use xlink:href="#m9ebfaabb70" x="377.939517" y="297.577343" style="fill: #ff7f0e; stroke: #ff7f0e"/>
     <use xlink:href="#m9ebfaabb70" x="382.049068" y="298.460311" style="fill: #ff7f0e; stroke: #ff7f0e"/>
     <use xlink:href="#m9ebfaabb70" x="386.158619" y="297.602529" style="fill: #ff7f0e; stroke: #ff7f0e"/>
     <use xlink:href="#m9ebfaabb70" x="390.26817" y="297.398998" style="fill: #ff7f0e; stroke: #ff7f0e"/>
     <use xlink:href="#m9ebfaabb70" x="394.377722" y="296.113516" style="fill: #ff7f0e; stroke: #ff7f0e"/>
     <use xlink:href="#m9ebfaabb70" x="398.487273" y="296.216441" style="fill: #ff7f0e; stroke: #ff7f0e"/>
    </g>
   </g>
   <g id="patch_9">
    <path d="M 57.6 307.584 
L 57.6 186.624 
" style="fill: none; stroke: #000000; stroke-width: 0.8; stroke-linejoin: miter; stroke-linecap: square"/>
   </g>
   <g id="patch_10">
    <path d="M 414.72 307.584 
L 414.72 186.624 
" style="fill: none; stroke: #000000; stroke-width: 0.8; stroke-linejoin: miter; stroke-linecap: square"/>
   </g>
   <g id="patch_11">
    <path d="M 57.6 307.584 
L 414.72 307.584 
" style="fill: none; stroke: #000000; stroke-width: 0.8; stroke-linejoin: miter; stroke-linecap: square"/>
   </g>
   <g id="patch_12">
    <path d="M 57.6 186.624 
L 414.72 186.624 
" style="fill: none; stroke: #000000; stroke-width: 0.8; stroke-linejoin: miter; stroke-linecap: square"/>
   </g>
   <g id="legend_2">
    <g id="patch_13">
     <path d="M 303.991875 223.98025 
L 407.72 223.98025 
Q 409.72 223.98025 409.72 221.98025 
L 409.72 193.624 
Q 409.72 191.624 407.72 191.624 
L 303.991875 191.624 
Q 301.991875 191.624 301.991875 193.624 
L 301.991875 221.98025 
Q 301.991875 223.98025 303.991875 223.98025 
z
" style="fill: #ffffff; opacity: 0.8; stroke: #cccccc; stroke-linejoin: miter"/>
    </g>
    <g id="line2d_36">
     <path d="M 305.991875 199.722437 
L 315.991875 199.722437 
L 325.991875 199.722437 
" style="fill: none; stroke: #1f77b4; stroke-width: 1.5; stroke-linecap: square"/>
     <g>
      <use xlink:href="#m1a486b4429" x="315.991875" y="199.722437" style="fill: #1f77b4; stroke: #1f77b4"/>
     </g>
    </g>
    <g id="text_35">
     <!-- training loss -->
     <g transform="translate(333.991875 203.222437) scale(0.1 -0.1)">
      <use xlink:href="#DejaVuSans-74"/>
      <use xlink:href="#DejaVuSans-72" x="39.208984"/>
      <use xlink:href="#DejaVuSans-61" x="80.322266"/>
      <use xlink:href="#DejaVuSans-69" x="141.601562"/>
      <use xlink:href="#DejaVuSans-6e" x="169.384766"/>
      <use xlink:href="#DejaVuSans-69" x="232.763672"/>
      <use xlink:href="#DejaVuSans-6e" x="260.546875"/>
      <use xlink:href="#DejaVuSans-67" x="323.925781"/>
      <use xlink:href="#DejaVuSans-20" x="387.402344"/>
      <use xlink:href="#DejaVuSans-6c" x="419.189453"/>
      <use xlink:href="#DejaVuSans-6f" x="446.972656"/>
      <use xlink:href="#DejaVuSans-73" x="508.154297"/>
      <use xlink:href="#DejaVuSans-73" x="560.253906"/>
     </g>
    </g>
    <g id="line2d_37">
     <path d="M 305.991875 214.400562 
L 315.991875 214.400562 
L 325.991875 214.400562 
" style="fill: none; stroke: #ff7f0e; stroke-width: 1.5; stroke-linecap: square"/>
     <g>
      <use xlink:href="#m9ebfaabb70" x="315.991875" y="214.400562" style="fill: #ff7f0e; stroke: #ff7f0e"/>
     </g>
    </g>
    <g id="text_36">
     <!-- validation loss -->
     <g transform="translate(333.991875 217.900562) scale(0.1 -0.1)">
      <use xlink:href="#DejaVuSans-76"/>
      <use xlink:href="#DejaVuSans-61" x="59.179688"/>
      <use xlink:href="#DejaVuSans-6c" x="120.458984"/>
      <use xlink:href="#DejaVuSans-69" x="148.242188"/>
      <use xlink:href="#DejaVuSans-64" x="176.025391"/>
      <use xlink:href="#DejaVuSans-61" x="239.501953"/>
      <use xlink:href="#DejaVuSans-74" x="300.78125"/>
      <use xlink:href="#DejaVuSans-69" x="339.990234"/>
      <use xlink:href="#DejaVuSans-6f" x="367.773438"/>
      <use xlink:href="#DejaVuSans-6e" x="428.955078"/>
      <use xlink:href="#DejaVuSans-20" x="492.333984"/>
      <use xlink:href="#DejaVuSans-6c" x="524.121094"/>
      <use xlink:href="#DejaVuSans-6f" x="551.904297"/>
      <use xlink:href="#DejaVuSans-73" x="613.085938"/>
      <use xlink:href="#DejaVuSans-73" x="665.185547"/>
     </g>
    </g>
   </g>
  </g>
 </g>
 <defs>
  <clipPath id="p540465db1c">
   <rect x="57.6" y="41.472" width="357.12" height="120.96"/>
  </clipPath>
  <clipPath id="p4ff49b10dd">
   <rect x="57.6" y="186.624" width="357.12" height="120.96"/>
  </clipPath>
 </defs>
</svg>
