<?xml version="1.0" encoding="utf-8" standalone="no"?>
<!DOCTYPE svg PUBLIC "-//W3C//DTD SVG 1.1//EN"
  "http://www.w3.org/Graphics/SVG/1.1/DTD/svg11.dtd">
<svg xmlns:xlink="http://www.w3.org/1999/xlink" width="460.8pt" height="345.6pt" viewBox="0 0 460.8 345.6" xmlns="http://www.w3.org/2000/svg" version="1.1">
 <metadata>
  <rdf:RDF xmlns:dc="http://purl.org/dc/elements/1.1/" xmlns:cc="http://creativecommons.org/ns#" xmlns:rdf="http://www.w3.org/1999/02/22-rdf-syntax-ns#">
   <cc:Work>
    <dc:type rdf:resource="http://purl.org/dc/dcmitype/StillImage"/>
    <dc:date>2023-12-18T21:52:01.073003</dc:date>
    <dc:format>image/svg+xml</dc:format>
    <dc:creator>
     <cc:Agent>
      <dc:title>Matplotlib v3.8.0, https://matplotlib.org/</dc:title>
     </cc:Agent>
    </dc:creator>
   </cc:Work>
  </rdf:RDF>
 </metadata>
 <defs>
  <style type="text/css">*{stroke-linejoin: round; stroke-linecap: butt}</style>
 </defs>
 <g id="figure_1">
  <g id="patch_1">
   <path d="M 0 345.6 
L 460.8 345.6 
L 460.8 0 
L 0 0 
z
" style="fill: #ffffff"/>
  </g>
  <g id="axes_1">
   <g id="patch_2">
    <path d="M 57.6 162.432 
L 414.72 162.432 
L 414.72 41.472 
L 57.6 41.472 
z
" style="fill: #ffffff"/>
   </g>
   <g id="matplotlib.axis_1">
    <g id="xtick_1">
     <g id="line2d_1">
      <defs>
       <path id="m1f51f82658" d="M 0 0 
L 0 3.5 
" style="stroke: #000000; stroke-width: 0.8"/>
      </defs>
      <g>
       <use xlink:href="#m1f51f82658" x="73.832727" y="162.432" style="stroke: #000000; stroke-width: 0.8"/>
      </g>
     </g>
     <g id="text_1">
      <!-- 0 -->
      <g transform="translate(70.651477 177.030437) scale(0.1 -0.1)">
       <defs>
        <path id="DejaVuSans-30" d="M 2034 4250 
Q 1547 4250 1301 3770 
Q 1056 3291 1056 2328 
Q 1056 1369 1301 889 
Q 1547 409 2034 409 
Q 2525 409 2770 889 
Q 3016 1369 3016 2328 
Q 3016 3291 2770 3770 
Q 2525 4250 2034 4250 
z
M 2034 4750 
Q 2819 4750 3233 4129 
Q 3647 3509 3647 2328 
Q 3647 1150 3233 529 
Q 2819 -91 2034 -91 
Q 1250 -91 836 529 
Q 422 1150 422 2328 
Q 422 3509 836 4129 
Q 1250 4750 2034 4750 
z
" transform="scale(0.015625)"/>
       </defs>
       <use xlink:href="#DejaVuSans-30"/>
      </g>
     </g>
    </g>
    <g id="xtick_2">
     <g id="line2d_2">
      <g>
       <use xlink:href="#m1f51f82658" x="114.928239" y="162.432" style="stroke: #000000; stroke-width: 0.8"/>
      </g>
     </g>
     <g id="text_2">
      <!-- 10 -->
      <g transform="translate(108.565739 177.030437) scale(0.1 -0.1)">
       <defs>
        <path id="DejaVuSans-31" d="M 794 531 
L 1825 531 
L 1825 4091 
L 703 3866 
L 703 4441 
L 1819 4666 
L 2450 4666 
L 2450 531 
L 3481 531 
L 3481 0 
L 794 0 
L 794 531 
z
" transform="scale(0.015625)"/>
       </defs>
       <use xlink:href="#DejaVuSans-31"/>
       <use xlink:href="#DejaVuSans-30" x="63.623047"/>
      </g>
     </g>
    </g>
    <g id="xtick_3">
     <g id="line2d_3">
      <g>
       <use xlink:href="#m1f51f82658" x="156.023751" y="162.432" style="stroke: #000000; stroke-width: 0.8"/>
      </g>
     </g>
     <g id="text_3">
      <!-- 20 -->
      <g transform="translate(149.661251 177.030437) scale(0.1 -0.1)">
       <defs>
        <path id="DejaVuSans-32" d="M 1228 531 
L 3431 531 
L 3431 0 
L 469 0 
L 469 531 
Q 828 903 1448 1529 
Q 2069 2156 2228 2338 
Q 2531 2678 2651 2914 
Q 2772 3150 2772 3378 
Q 2772 3750 2511 3984 
Q 2250 4219 1831 4219 
Q 1534 4219 1204 4116 
Q 875 4013 500 3803 
L 500 4441 
Q 881 4594 1212 4672 
Q 1544 4750 1819 4750 
Q 2544 4750 2975 4387 
Q 3406 4025 3406 3419 
Q 3406 3131 3298 2873 
Q 3191 2616 2906 2266 
Q 2828 2175 2409 1742 
Q 1991 1309 1228 531 
z
" transform="scale(0.015625)"/>
       </defs>
       <use xlink:href="#DejaVuSans-32"/>
       <use xlink:href="#DejaVuSans-30" x="63.623047"/>
      </g>
     </g>
    </g>
    <g id="xtick_4">
     <g id="line2d_4">
      <g>
       <use xlink:href="#m1f51f82658" x="197.119264" y="162.432" style="stroke: #000000; stroke-width: 0.8"/>
      </g>
     </g>
     <g id="text_4">
      <!-- 30 -->
      <g transform="translate(190.756764 177.030437) scale(0.1 -0.1)">
       <defs>
        <path id="DejaVuSans-33" d="M 2597 2516 
Q 3050 2419 3304 2112 
Q 3559 1806 3559 1356 
Q 3559 666 3084 287 
Q 2609 -91 1734 -91 
Q 1441 -91 1130 -33 
Q 819 25 488 141 
L 488 750 
Q 750 597 1062 519 
Q 1375 441 1716 441 
Q 2309 441 2620 675 
Q 2931 909 2931 1356 
Q 2931 1769 2642 2001 
Q 2353 2234 1838 2234 
L 1294 2234 
L 1294 2753 
L 1863 2753 
Q 2328 2753 2575 2939 
Q 2822 3125 2822 3475 
Q 2822 3834 2567 4026 
Q 2313 4219 1838 4219 
Q 1578 4219 1281 4162 
Q 984 4106 628 3988 
L 628 4550 
Q 988 4650 1302 4700 
Q 1616 4750 1894 4750 
Q 2613 4750 3031 4423 
Q 3450 4097 3450 3541 
Q 3450 3153 3228 2886 
Q 3006 2619 2597 2516 
z
" transform="scale(0.015625)"/>
       </defs>
       <use xlink:href="#DejaVuSans-33"/>
       <use xlink:href="#DejaVuSans-30" x="63.623047"/>
      </g>
     </g>
    </g>
    <g id="xtick_5">
     <g id="line2d_5">
      <g>
       <use xlink:href="#m1f51f82658" x="238.214776" y="162.432" style="stroke: #000000; stroke-width: 0.8"/>
      </g>
     </g>
     <g id="text_5">
      <!-- 40 -->
      <g transform="translate(231.852276 177.030437) scale(0.1 -0.1)">
       <defs>
        <path id="DejaVuSans-34" d="M 2419 4116 
L 825 1625 
L 2419 1625 
L 2419 4116 
z
M 2253 4666 
L 3047 4666 
L 3047 1625 
L 3713 1625 
L 3713 1100 
L 3047 1100 
L 3047 0 
L 2419 0 
L 2419 1100 
L 313 1100 
L 313 1709 
L 2253 4666 
z
" transform="scale(0.015625)"/>
       </defs>
       <use xlink:href="#DejaVuSans-34"/>
       <use xlink:href="#DejaVuSans-30" x="63.623047"/>
      </g>
     </g>
    </g>
    <g id="xtick_6">
     <g id="line2d_6">
      <g>
       <use xlink:href="#m1f51f82658" x="279.310288" y="162.432" style="stroke: #000000; stroke-width: 0.8"/>
      </g>
     </g>
     <g id="text_6">
      <!-- 50 -->
      <g transform="translate(272.947788 177.030437) scale(0.1 -0.1)">
       <defs>
        <path id="DejaVuSans-35" d="M 691 4666 
L 3169 4666 
L 3169 4134 
L 1269 4134 
L 1269 2991 
Q 1406 3038 1543 3061 
Q 1681 3084 1819 3084 
Q 2600 3084 3056 2656 
Q 3513 2228 3513 1497 
Q 3513 744 3044 326 
Q 2575 -91 1722 -91 
Q 1428 -91 1123 -41 
Q 819 9 494 109 
L 494 744 
Q 775 591 1075 516 
Q 1375 441 1709 441 
Q 2250 441 2565 725 
Q 2881 1009 2881 1497 
Q 2881 1984 2565 2268 
Q 2250 2553 1709 2553 
Q 1456 2553 1204 2497 
Q 953 2441 691 2322 
L 691 4666 
z
" transform="scale(0.015625)"/>
       </defs>
       <use xlink:href="#DejaVuSans-35"/>
       <use xlink:href="#DejaVuSans-30" x="63.623047"/>
      </g>
     </g>
    </g>
    <g id="xtick_7">
     <g id="line2d_7">
      <g>
       <use xlink:href="#m1f51f82658" x="320.4058" y="162.432" style="stroke: #000000; stroke-width: 0.8"/>
      </g>
     </g>
     <g id="text_7">
      <!-- 60 -->
      <g transform="translate(314.0433 177.030437) scale(0.1 -0.1)">
       <defs>
        <path id="DejaVuSans-36" d="M 2113 2584 
Q 1688 2584 1439 2293 
Q 1191 2003 1191 1497 
Q 1191 994 1439 701 
Q 1688 409 2113 409 
Q 2538 409 2786 701 
Q 3034 994 3034 1497 
Q 3034 2003 2786 2293 
Q 2538 2584 2113 2584 
z
M 3366 4563 
L 3366 3988 
Q 3128 4100 2886 4159 
Q 2644 4219 2406 4219 
Q 1781 4219 1451 3797 
Q 1122 3375 1075 2522 
Q 1259 2794 1537 2939 
Q 1816 3084 2150 3084 
Q 2853 3084 3261 2657 
Q 3669 2231 3669 1497 
Q 3669 778 3244 343 
Q 2819 -91 2113 -91 
Q 1303 -91 875 529 
Q 447 1150 447 2328 
Q 447 3434 972 4092 
Q 1497 4750 2381 4750 
Q 2619 4750 2861 4703 
Q 3103 4656 3366 4563 
z
" transform="scale(0.015625)"/>
       </defs>
       <use xlink:href="#DejaVuSans-36"/>
       <use xlink:href="#DejaVuSans-30" x="63.623047"/>
      </g>
     </g>
    </g>
    <g id="xtick_8">
     <g id="line2d_8">
      <g>
       <use xlink:href="#m1f51f82658" x="361.501312" y="162.432" style="stroke: #000000; stroke-width: 0.8"/>
      </g>
     </g>
     <g id="text_8">
      <!-- 70 -->
      <g transform="translate(355.138812 177.030437) scale(0.1 -0.1)">
       <defs>
        <path id="DejaVuSans-37" d="M 525 4666 
L 3525 4666 
L 3525 4397 
L 1831 0 
L 1172 0 
L 2766 4134 
L 525 4134 
L 525 4666 
z
" transform="scale(0.015625)"/>
       </defs>
       <use xlink:href="#DejaVuSans-37"/>
       <use xlink:href="#DejaVuSans-30" x="63.623047"/>
      </g>
     </g>
    </g>
    <g id="xtick_9">
     <g id="line2d_9">
      <g>
       <use xlink:href="#m1f51f82658" x="402.596824" y="162.432" style="stroke: #000000; stroke-width: 0.8"/>
      </g>
     </g>
     <g id="text_9">
      <!-- 80 -->
      <g transform="translate(396.234324 177.030437) scale(0.1 -0.1)">
       <defs>
        <path id="DejaVuSans-38" d="M 2034 2216 
Q 1584 2216 1326 1975 
Q 1069 1734 1069 1313 
Q 1069 891 1326 650 
Q 1584 409 2034 409 
Q 2484 409 2743 651 
Q 3003 894 3003 1313 
Q 3003 1734 2745 1975 
Q 2488 2216 2034 2216 
z
M 1403 2484 
Q 997 2584 770 2862 
Q 544 3141 544 3541 
Q 544 4100 942 4425 
Q 1341 4750 2034 4750 
Q 2731 4750 3128 4425 
Q 3525 4100 3525 3541 
Q 3525 3141 3298 2862 
Q 3072 2584 2669 2484 
Q 3125 2378 3379 2068 
Q 3634 1759 3634 1313 
Q 3634 634 3220 271 
Q 2806 -91 2034 -91 
Q 1263 -91 848 271 
Q 434 634 434 1313 
Q 434 1759 690 2068 
Q 947 2378 1403 2484 
z
M 1172 3481 
Q 1172 3119 1398 2916 
Q 1625 2713 2034 2713 
Q 2441 2713 2670 2916 
Q 2900 3119 2900 3481 
Q 2900 3844 2670 4047 
Q 2441 4250 2034 4250 
Q 1625 4250 1398 4047 
Q 1172 3844 1172 3481 
z
" transform="scale(0.015625)"/>
       </defs>
       <use xlink:href="#DejaVuSans-38"/>
       <use xlink:href="#DejaVuSans-30" x="63.623047"/>
      </g>
     </g>
    </g>
   </g>
   <g id="matplotlib.axis_2">
    <g id="ytick_1">
     <g id="line2d_10">
      <defs>
       <path id="m1579c377d4" d="M 0 0 
L -3.5 0 
" style="stroke: #000000; stroke-width: 0.8"/>
      </defs>
      <g>
       <use xlink:href="#m1579c377d4" x="57.6" y="162.432" style="stroke: #000000; stroke-width: 0.8"/>
      </g>
     </g>
     <g id="text_10">
      <!-- 50% -->
      <g transform="translate(28.373438 166.231219) scale(0.1 -0.1)">
       <defs>
        <path id="DejaVuSans-25" d="M 4653 2053 
Q 4381 2053 4226 1822 
Q 4072 1591 4072 1178 
Q 4072 772 4226 539 
Q 4381 306 4653 306 
Q 4919 306 5073 539 
Q 5228 772 5228 1178 
Q 5228 1588 5073 1820 
Q 4919 2053 4653 2053 
z
M 4653 2450 
Q 5147 2450 5437 2106 
Q 5728 1763 5728 1178 
Q 5728 594 5436 251 
Q 5144 -91 4653 -91 
Q 4153 -91 3862 251 
Q 3572 594 3572 1178 
Q 3572 1766 3864 2108 
Q 4156 2450 4653 2450 
z
M 1428 4353 
Q 1159 4353 1004 4120 
Q 850 3888 850 3481 
Q 850 3069 1003 2837 
Q 1156 2606 1428 2606 
Q 1700 2606 1854 2837 
Q 2009 3069 2009 3481 
Q 2009 3884 1853 4118 
Q 1697 4353 1428 4353 
z
M 4250 4750 
L 4750 4750 
L 1831 -91 
L 1331 -91 
L 4250 4750 
z
M 1428 4750 
Q 1922 4750 2215 4408 
Q 2509 4066 2509 3481 
Q 2509 2891 2217 2550 
Q 1925 2209 1428 2209 
Q 931 2209 642 2551 
Q 353 2894 353 3481 
Q 353 4063 643 4406 
Q 934 4750 1428 4750 
z
" transform="scale(0.015625)"/>
       </defs>
       <use xlink:href="#DejaVuSans-35"/>
       <use xlink:href="#DejaVuSans-30" x="63.623047"/>
       <use xlink:href="#DejaVuSans-25" x="127.246094"/>
      </g>
     </g>
    </g>
    <g id="ytick_2">
     <g id="line2d_11">
      <g>
       <use xlink:href="#m1579c377d4" x="57.6" y="138.24" style="stroke: #000000; stroke-width: 0.8"/>
      </g>
     </g>
     <g id="text_11">
      <!-- 60% -->
      <g transform="translate(28.373438 142.039219) scale(0.1 -0.1)">
       <use xlink:href="#DejaVuSans-36"/>
       <use xlink:href="#DejaVuSans-30" x="63.623047"/>
       <use xlink:href="#DejaVuSans-25" x="127.246094"/>
      </g>
     </g>
    </g>
    <g id="ytick_3">
     <g id="line2d_12">
      <g>
       <use xlink:href="#m1579c377d4" x="57.6" y="114.048" style="stroke: #000000; stroke-width: 0.8"/>
      </g>
     </g>
     <g id="text_12">
      <!-- 70% -->
      <g transform="translate(28.373438 117.847219) scale(0.1 -0.1)">
       <use xlink:href="#DejaVuSans-37"/>
       <use xlink:href="#DejaVuSans-30" x="63.623047"/>
       <use xlink:href="#DejaVuSans-25" x="127.246094"/>
      </g>
     </g>
    </g>
    <g id="ytick_4">
     <g id="line2d_13">
      <g>
       <use xlink:href="#m1579c377d4" x="57.6" y="89.856" style="stroke: #000000; stroke-width: 0.8"/>
      </g>
     </g>
     <g id="text_13">
      <!-- 80% -->
      <g transform="translate(28.373438 93.655219) scale(0.1 -0.1)">
       <use xlink:href="#DejaVuSans-38"/>
       <use xlink:href="#DejaVuSans-30" x="63.623047"/>
       <use xlink:href="#DejaVuSans-25" x="127.246094"/>
      </g>
     </g>
    </g>
    <g id="ytick_5">
     <g id="line2d_14">
      <g>
       <use xlink:href="#m1579c377d4" x="57.6" y="65.664" style="stroke: #000000; stroke-width: 0.8"/>
      </g>
     </g>
     <g id="text_14">
      <!-- 90% -->
      <g transform="translate(28.373438 69.463219) scale(0.1 -0.1)">
       <defs>
        <path id="DejaVuSans-39" d="M 703 97 
L 703 672 
Q 941 559 1184 500 
Q 1428 441 1663 441 
Q 2288 441 2617 861 
Q 2947 1281 2994 2138 
Q 2813 1869 2534 1725 
Q 2256 1581 1919 1581 
Q 1219 1581 811 2004 
Q 403 2428 403 3163 
Q 403 3881 828 4315 
Q 1253 4750 1959 4750 
Q 2769 4750 3195 4129 
Q 3622 3509 3622 2328 
Q 3622 1225 3098 567 
Q 2575 -91 1691 -91 
Q 1453 -91 1209 -44 
Q 966 3 703 97 
z
M 1959 2075 
Q 2384 2075 2632 2365 
Q 2881 2656 2881 3163 
Q 2881 3666 2632 3958 
Q 2384 4250 1959 4250 
Q 1534 4250 1286 3958 
Q 1038 3666 1038 3163 
Q 1038 2656 1286 2365 
Q 1534 2075 1959 2075 
z
" transform="scale(0.015625)"/>
       </defs>
       <use xlink:href="#DejaVuSans-39"/>
       <use xlink:href="#DejaVuSans-30" x="63.623047"/>
       <use xlink:href="#DejaVuSans-25" x="127.246094"/>
      </g>
     </g>
    </g>
    <g id="ytick_6">
     <g id="line2d_15">
      <g>
       <use xlink:href="#m1579c377d4" x="57.6" y="41.472" style="stroke: #000000; stroke-width: 0.8"/>
      </g>
     </g>
     <g id="text_15">
      <!-- 100% -->
      <g transform="translate(22.010938 45.271219) scale(0.1 -0.1)">
       <use xlink:href="#DejaVuSans-31"/>
       <use xlink:href="#DejaVuSans-30" x="63.623047"/>
       <use xlink:href="#DejaVuSans-30" x="127.246094"/>
       <use xlink:href="#DejaVuSans-25" x="190.869141"/>
      </g>
     </g>
    </g>
    <g id="text_16">
     <!-- Accuracy -->
     <g transform="translate(15.93125 124.780125) rotate(-90) scale(0.1 -0.1)">
      <defs>
       <path id="DejaVuSans-41" d="M 2188 4044 
L 1331 1722 
L 3047 1722 
L 2188 4044 
z
M 1831 4666 
L 2547 4666 
L 4325 0 
L 3669 0 
L 3244 1197 
L 1141 1197 
L 716 0 
L 50 0 
L 1831 4666 
z
" transform="scale(0.015625)"/>
       <path id="DejaVuSans-63" d="M 3122 3366 
L 3122 2828 
Q 2878 2963 2633 3030 
Q 2388 3097 2138 3097 
Q 1578 3097 1268 2742 
Q 959 2388 959 1747 
Q 959 1106 1268 751 
Q 1578 397 2138 397 
Q 2388 397 2633 464 
Q 2878 531 3122 666 
L 3122 134 
Q 2881 22 2623 -34 
Q 2366 -91 2075 -91 
Q 1284 -91 818 406 
Q 353 903 353 1747 
Q 353 2603 823 3093 
Q 1294 3584 2113 3584 
Q 2378 3584 2631 3529 
Q 2884 3475 3122 3366 
z
" transform="scale(0.015625)"/>
       <path id="DejaVuSans-75" d="M 544 1381 
L 544 3500 
L 1119 3500 
L 1119 1403 
Q 1119 906 1312 657 
Q 1506 409 1894 409 
Q 2359 409 2629 706 
Q 2900 1003 2900 1516 
L 2900 3500 
L 3475 3500 
L 3475 0 
L 2900 0 
L 2900 538 
Q 2691 219 2414 64 
Q 2138 -91 1772 -91 
Q 1169 -91 856 284 
Q 544 659 544 1381 
z
M 1991 3584 
L 1991 3584 
z
" transform="scale(0.015625)"/>
       <path id="DejaVuSans-72" d="M 2631 2963 
Q 2534 3019 2420 3045 
Q 2306 3072 2169 3072 
Q 1681 3072 1420 2755 
Q 1159 2438 1159 1844 
L 1159 0 
L 581 0 
L 581 3500 
L 1159 3500 
L 1159 2956 
Q 1341 3275 1631 3429 
Q 1922 3584 2338 3584 
Q 2397 3584 2469 3576 
Q 2541 3569 2628 3553 
L 2631 2963 
z
" transform="scale(0.015625)"/>
       <path id="DejaVuSans-61" d="M 2194 1759 
Q 1497 1759 1228 1600 
Q 959 1441 959 1056 
Q 959 750 1161 570 
Q 1363 391 1709 391 
Q 2188 391 2477 730 
Q 2766 1069 2766 1631 
L 2766 1759 
L 2194 1759 
z
M 3341 1997 
L 3341 0 
L 2766 0 
L 2766 531 
Q 2569 213 2275 61 
Q 1981 -91 1556 -91 
Q 1019 -91 701 211 
Q 384 513 384 1019 
Q 384 1609 779 1909 
Q 1175 2209 1959 2209 
L 2766 2209 
L 2766 2266 
Q 2766 2663 2505 2880 
Q 2244 3097 1772 3097 
Q 1472 3097 1187 3025 
Q 903 2953 641 2809 
L 641 3341 
Q 956 3463 1253 3523 
Q 1550 3584 1831 3584 
Q 2591 3584 2966 3190 
Q 3341 2797 3341 1997 
z
" transform="scale(0.015625)"/>
       <path id="DejaVuSans-79" d="M 2059 -325 
Q 1816 -950 1584 -1140 
Q 1353 -1331 966 -1331 
L 506 -1331 
L 506 -850 
L 844 -850 
Q 1081 -850 1212 -737 
Q 1344 -625 1503 -206 
L 1606 56 
L 191 3500 
L 800 3500 
L 1894 763 
L 2988 3500 
L 3597 3500 
L 2059 -325 
z
" transform="scale(0.015625)"/>
      </defs>
      <use xlink:href="#DejaVuSans-41"/>
      <use xlink:href="#DejaVuSans-63" x="66.658203"/>
      <use xlink:href="#DejaVuSans-63" x="121.638672"/>
      <use xlink:href="#DejaVuSans-75" x="176.619141"/>
      <use xlink:href="#DejaVuSans-72" x="239.998047"/>
      <use xlink:href="#DejaVuSans-61" x="281.111328"/>
      <use xlink:href="#DejaVuSans-63" x="342.390625"/>
      <use xlink:href="#DejaVuSans-79" x="397.371094"/>
     </g>
    </g>
   </g>
   <g id="line2d_16">
    <path d="M 73.832727 150.545758 
L 77.942278 105.797551 
L 82.05183 114.887034 
L 86.161381 94.6105 
L 90.270932 84.821827 
L 94.380483 83.423448 
L 98.490035 92.51293 
L 102.599586 84.821827 
L 106.709137 84.122638 
L 110.818688 79.927484 
L 114.928239 76.431535 
L 119.037791 88.317777 
L 123.147342 83.423448 
L 127.256893 83.423448 
L 131.366444 83.423448 
L 135.475995 90.415346 
L 139.585547 77.829915 
L 143.695098 75.033155 
L 147.804649 82.724258 
L 151.9142 77.130725 
L 156.023751 75.148368 
L 160.133303 79.927484 
L 164.242854 96.008879 
L 168.352405 84.821827 
L 172.461956 75.033155 
L 176.571507 82.025068 
L 180.681059 75.033155 
L 184.79061 79.927484 
L 188.900161 71.537206 
L 193.009712 82.025068 
L 197.119264 78.529104 
L 201.228815 78.529104 
L 205.338366 86.919397 
L 209.447917 73.634776 
L 213.557468 68.041243 
L 217.66702 73.634776 
L 221.776571 77.130725 
L 225.886122 86.220207 
L 229.995673 84.122638 
L 234.105224 76.431535 
L 238.214776 81.325878 
L 242.324327 70.138826 
L 246.433878 75.732345 
L 250.543429 70.138826 
L 254.65298 70.138826 
L 258.762532 77.829915 
L 262.872083 84.122638 
L 266.981634 72.935586 
L 271.091185 72.935586 
L 275.200736 75.033155 
L 279.310288 83.423448 
L 283.419839 79.927484 
L 287.52939 79.927484 
L 291.638941 77.829915 
L 295.748493 73.634776 
L 299.858044 80.626688 
L 303.967595 72.935586 
L 308.077146 79.228294 
L 312.186697 70.838016 
L 316.296249 71.537206 
L 320.4058 77.829915 
L 324.515351 77.130725 
L 328.624902 82.025068 
L 332.734453 74.333965 
L 336.844005 86.919397 
L 340.953556 76.431535 
L 345.063107 78.529104 
L 349.172658 66.642863 
L 353.282209 75.732345 
L 357.391761 70.838016 
L 361.501312 76.522912 
L 365.610863 75.732345 
L 369.720414 77.130725 
L 373.829965 76.431535 
L 377.939517 78.529104 
L 382.049068 75.033155 
L 386.158619 77.130725 
L 390.26817 74.333965 
L 394.377722 77.829915 
L 398.487273 85.521017 
" clip-path="url(#p5fcc2925e5)" style="fill: none; stroke: #1f77b4; stroke-width: 1.5; stroke-linecap: square"/>
    <defs>
     <path id="m56ebd22612" d="M 0 3 
C 0.795609 3 1.55874 2.683901 2.12132 2.12132 
C 2.683901 1.55874 3 0.795609 3 0 
C 3 -0.795609 2.683901 -1.55874 2.12132 -2.12132 
C 1.55874 -2.683901 0.795609 -3 0 -3 
C -0.795609 -3 -1.55874 -2.683901 -2.12132 -2.12132 
C -2.683901 -1.55874 -3 -0.795609 -3 0 
C -3 0.795609 -2.683901 1.55874 -2.12132 2.12132 
C -1.55874 2.683901 -0.795609 3 0 3 
z
" style="stroke: #1f77b4"/>
    </defs>
    <g clip-path="url(#p5fcc2925e5)">
     <use xlink:href="#m56ebd22612" x="73.832727" y="150.545758" style="fill: #1f77b4; stroke: #1f77b4"/>
     <use xlink:href="#m56ebd22612" x="77.942278" y="105.797551" style="fill: #1f77b4; stroke: #1f77b4"/>
     <use xlink:href="#m56ebd22612" x="82.05183" y="114.887034" style="fill: #1f77b4; stroke: #1f77b4"/>
     <use xlink:href="#m56ebd22612" x="86.161381" y="94.6105" style="fill: #1f77b4; stroke: #1f77b4"/>
     <use xlink:href="#m56ebd22612" x="90.270932" y="84.821827" style="fill: #1f77b4; stroke: #1f77b4"/>
     <use xlink:href="#m56ebd22612" x="94.380483" y="83.423448" style="fill: #1f77b4; stroke: #1f77b4"/>
     <use xlink:href="#m56ebd22612" x="98.490035" y="92.51293" style="fill: #1f77b4; stroke: #1f77b4"/>
     <use xlink:href="#m56ebd22612" x="102.599586" y="84.821827" style="fill: #1f77b4; stroke: #1f77b4"/>
     <use xlink:href="#m56ebd22612" x="106.709137" y="84.122638" style="fill: #1f77b4; stroke: #1f77b4"/>
     <use xlink:href="#m56ebd22612" x="110.818688" y="79.927484" style="fill: #1f77b4; stroke: #1f77b4"/>
     <use xlink:href="#m56ebd22612" x="114.928239" y="76.431535" style="fill: #1f77b4; stroke: #1f77b4"/>
     <use xlink:href="#m56ebd22612" x="119.037791" y="88.317777" style="fill: #1f77b4; stroke: #1f77b4"/>
     <use xlink:href="#m56ebd22612" x="123.147342" y="83.423448" style="fill: #1f77b4; stroke: #1f77b4"/>
     <use xlink:href="#m56ebd22612" x="127.256893" y="83.423448" style="fill: #1f77b4; stroke: #1f77b4"/>
     <use xlink:href="#m56ebd22612" x="131.366444" y="83.423448" style="fill: #1f77b4; stroke: #1f77b4"/>
     <use xlink:href="#m56ebd22612" x="135.475995" y="90.415346" style="fill: #1f77b4; stroke: #1f77b4"/>
     <use xlink:href="#m56ebd22612" x="139.585547" y="77.829915" style="fill: #1f77b4; stroke: #1f77b4"/>
     <use xlink:href="#m56ebd22612" x="143.695098" y="75.033155" style="fill: #1f77b4; stroke: #1f77b4"/>
     <use xlink:href="#m56ebd22612" x="147.804649" y="82.724258" style="fill: #1f77b4; stroke: #1f77b4"/>
     <use xlink:href="#m56ebd22612" x="151.9142" y="77.130725" style="fill: #1f77b4; stroke: #1f77b4"/>
     <use xlink:href="#m56ebd22612" x="156.023751" y="75.148368" style="fill: #1f77b4; stroke: #1f77b4"/>
     <use xlink:href="#m56ebd22612" x="160.133303" y="79.927484" style="fill: #1f77b4; stroke: #1f77b4"/>
     <use xlink:href="#m56ebd22612" x="164.242854" y="96.008879" style="fill: #1f77b4; stroke: #1f77b4"/>
     <use xlink:href="#m56ebd22612" x="168.352405" y="84.821827" style="fill: #1f77b4; stroke: #1f77b4"/>
     <use xlink:href="#m56ebd22612" x="172.461956" y="75.033155" style="fill: #1f77b4; stroke: #1f77b4"/>
     <use xlink:href="#m56ebd22612" x="176.571507" y="82.025068" style="fill: #1f77b4; stroke: #1f77b4"/>
     <use xlink:href="#m56ebd22612" x="180.681059" y="75.033155" style="fill: #1f77b4; stroke: #1f77b4"/>
     <use xlink:href="#m56ebd22612" x="184.79061" y="79.927484" style="fill: #1f77b4; stroke: #1f77b4"/>
     <use xlink:href="#m56ebd22612" x="188.900161" y="71.537206" style="fill: #1f77b4; stroke: #1f77b4"/>
     <use xlink:href="#m56ebd22612" x="193.009712" y="82.025068" style="fill: #1f77b4; stroke: #1f77b4"/>
     <use xlink:href="#m56ebd22612" x="197.119264" y="78.529104" style="fill: #1f77b4; stroke: #1f77b4"/>
     <use xlink:href="#m56ebd22612" x="201.228815" y="78.529104" style="fill: #1f77b4; stroke: #1f77b4"/>
     <use xlink:href="#m56ebd22612" x="205.338366" y="86.919397" style="fill: #1f77b4; stroke: #1f77b4"/>
     <use xlink:href="#m56ebd22612" x="209.447917" y="73.634776" style="fill: #1f77b4; stroke: #1f77b4"/>
     <use xlink:href="#m56ebd22612" x="213.557468" y="68.041243" style="fill: #1f77b4; stroke: #1f77b4"/>
     <use xlink:href="#m56ebd22612" x="217.66702" y="73.634776" style="fill: #1f77b4; stroke: #1f77b4"/>
     <use xlink:href="#m56ebd22612" x="221.776571" y="77.130725" style="fill: #1f77b4; stroke: #1f77b4"/>
     <use xlink:href="#m56ebd22612" x="225.886122" y="86.220207" style="fill: #1f77b4; stroke: #1f77b4"/>
     <use xlink:href="#m56ebd22612" x="229.995673" y="84.122638" style="fill: #1f77b4; stroke: #1f77b4"/>
     <use xlink:href="#m56ebd22612" x="234.105224" y="76.431535" style="fill: #1f77b4; stroke: #1f77b4"/>
     <use xlink:href="#m56ebd22612" x="238.214776" y="81.325878" style="fill: #1f77b4; stroke: #1f77b4"/>
     <use xlink:href="#m56ebd22612" x="242.324327" y="70.138826" style="fill: #1f77b4; stroke: #1f77b4"/>
     <use xlink:href="#m56ebd22612" x="246.433878" y="75.732345" style="fill: #1f77b4; stroke: #1f77b4"/>
     <use xlink:href="#m56ebd22612" x="250.543429" y="70.138826" style="fill: #1f77b4; stroke: #1f77b4"/>
     <use xlink:href="#m56ebd22612" x="254.65298" y="70.138826" style="fill: #1f77b4; stroke: #1f77b4"/>
     <use xlink:href="#m56ebd22612" x="258.762532" y="77.829915" style="fill: #1f77b4; stroke: #1f77b4"/>
     <use xlink:href="#m56ebd22612" x="262.872083" y="84.122638" style="fill: #1f77b4; stroke: #1f77b4"/>
     <use xlink:href="#m56ebd22612" x="266.981634" y="72.935586" style="fill: #1f77b4; stroke: #1f77b4"/>
     <use xlink:href="#m56ebd22612" x="271.091185" y="72.935586" style="fill: #1f77b4; stroke: #1f77b4"/>
     <use xlink:href="#m56ebd22612" x="275.200736" y="75.033155" style="fill: #1f77b4; stroke: #1f77b4"/>
     <use xlink:href="#m56ebd22612" x="279.310288" y="83.423448" style="fill: #1f77b4; stroke: #1f77b4"/>
     <use xlink:href="#m56ebd22612" x="283.419839" y="79.927484" style="fill: #1f77b4; stroke: #1f77b4"/>
     <use xlink:href="#m56ebd22612" x="287.52939" y="79.927484" style="fill: #1f77b4; stroke: #1f77b4"/>
     <use xlink:href="#m56ebd22612" x="291.638941" y="77.829915" style="fill: #1f77b4; stroke: #1f77b4"/>
     <use xlink:href="#m56ebd22612" x="295.748493" y="73.634776" style="fill: #1f77b4; stroke: #1f77b4"/>
     <use xlink:href="#m56ebd22612" x="299.858044" y="80.626688" style="fill: #1f77b4; stroke: #1f77b4"/>
     <use xlink:href="#m56ebd22612" x="303.967595" y="72.935586" style="fill: #1f77b4; stroke: #1f77b4"/>
     <use xlink:href="#m56ebd22612" x="308.077146" y="79.228294" style="fill: #1f77b4; stroke: #1f77b4"/>
     <use xlink:href="#m56ebd22612" x="312.186697" y="70.838016" style="fill: #1f77b4; stroke: #1f77b4"/>
     <use xlink:href="#m56ebd22612" x="316.296249" y="71.537206" style="fill: #1f77b4; stroke: #1f77b4"/>
     <use xlink:href="#m56ebd22612" x="320.4058" y="77.829915" style="fill: #1f77b4; stroke: #1f77b4"/>
     <use xlink:href="#m56ebd22612" x="324.515351" y="77.130725" style="fill: #1f77b4; stroke: #1f77b4"/>
     <use xlink:href="#m56ebd22612" x="328.624902" y="82.025068" style="fill: #1f77b4; stroke: #1f77b4"/>
     <use xlink:href="#m56ebd22612" x="332.734453" y="74.333965" style="fill: #1f77b4; stroke: #1f77b4"/>
     <use xlink:href="#m56ebd22612" x="336.844005" y="86.919397" style="fill: #1f77b4; stroke: #1f77b4"/>
     <use xlink:href="#m56ebd22612" x="340.953556" y="76.431535" style="fill: #1f77b4; stroke: #1f77b4"/>
     <use xlink:href="#m56ebd22612" x="345.063107" y="78.529104" style="fill: #1f77b4; stroke: #1f77b4"/>
     <use xlink:href="#m56ebd22612" x="349.172658" y="66.642863" style="fill: #1f77b4; stroke: #1f77b4"/>
     <use xlink:href="#m56ebd22612" x="353.282209" y="75.732345" style="fill: #1f77b4; stroke: #1f77b4"/>
     <use xlink:href="#m56ebd22612" x="357.391761" y="70.838016" style="fill: #1f77b4; stroke: #1f77b4"/>
     <use xlink:href="#m56ebd22612" x="361.501312" y="76.522912" style="fill: #1f77b4; stroke: #1f77b4"/>
     <use xlink:href="#m56ebd22612" x="365.610863" y="75.732345" style="fill: #1f77b4; stroke: #1f77b4"/>
     <use xlink:href="#m56ebd22612" x="369.720414" y="77.130725" style="fill: #1f77b4; stroke: #1f77b4"/>
     <use xlink:href="#m56ebd22612" x="373.829965" y="76.431535" style="fill: #1f77b4; stroke: #1f77b4"/>
     <use xlink:href="#m56ebd22612" x="377.939517" y="78.529104" style="fill: #1f77b4; stroke: #1f77b4"/>
     <use xlink:href="#m56ebd22612" x="382.049068" y="75.033155" style="fill: #1f77b4; stroke: #1f77b4"/>
     <use xlink:href="#m56ebd22612" x="386.158619" y="77.130725" style="fill: #1f77b4; stroke: #1f77b4"/>
     <use xlink:href="#m56ebd22612" x="390.26817" y="74.333965" style="fill: #1f77b4; stroke: #1f77b4"/>
     <use xlink:href="#m56ebd22612" x="394.377722" y="77.829915" style="fill: #1f77b4; stroke: #1f77b4"/>
     <use xlink:href="#m56ebd22612" x="398.487273" y="85.521017" style="fill: #1f77b4; stroke: #1f77b4"/>
    </g>
   </g>
   <g id="line2d_17">
    <path d="M 73.832727 201.312003 
L 77.942278 168.911997 
L 82.05183 142.992002 
L 86.161381 151.631998 
L 90.270932 155.951996 
L 94.380483 138.672004 
L 98.490035 138.672004 
L 102.599586 153.792004 
L 106.709137 142.992002 
L 110.818688 147.312 
L 114.928239 123.552004 
L 119.037791 114.911994 
L 123.147342 142.992002 
L 127.256893 173.232002 
L 131.366444 145.151994 
L 135.475995 132.192 
L 139.585547 145.151994 
L 143.695098 147.312 
L 147.804649 153.792004 
L 151.9142 138.672004 
L 156.023751 130.031994 
L 160.133303 117.072 
L 164.242854 134.352006 
L 168.352405 171.072003 
L 172.461956 147.312 
L 176.571507 136.511998 
L 180.681059 138.672004 
L 184.79061 147.312 
L 188.900161 121.391998 
L 193.009712 123.552004 
L 197.119264 127.872002 
L 201.228815 140.831996 
L 205.338366 166.751998 
L 209.447917 134.352006 
L 213.557468 132.192 
L 217.66702 153.792004 
L 221.776571 119.232006 
L 225.886122 151.631998 
L 229.995673 162.432 
L 234.105224 123.552004 
L 238.214776 125.711996 
L 242.324327 130.031994 
L 246.433878 136.511998 
L 250.543429 147.312 
L 254.65298 121.391998 
L 258.762532 130.031994 
L 262.872083 168.911997 
L 266.981634 147.312 
L 271.091185 199.151997 
L 275.200736 140.831996 
L 279.310288 149.472006 
L 283.419839 140.831996 
L 287.52939 151.631998 
L 291.638941 123.552004 
L 295.748493 142.992002 
L 299.858044 184.031997 
L 303.967595 125.711996 
L 308.077146 147.312 
L 312.186697 145.151994 
L 316.296249 149.472006 
L 320.4058 123.552004 
L 324.515351 119.232006 
L 328.624902 132.192 
L 332.734453 138.672004 
L 336.844005 158.112002 
L 340.953556 127.872002 
L 345.063107 121.391998 
L 349.172658 125.711996 
L 353.282209 119.232006 
L 357.391761 127.872002 
L 361.501312 151.631998 
L 365.610863 145.151994 
L 369.720414 125.711996 
L 373.829965 134.352006 
L 377.939517 134.352006 
L 382.049068 134.352006 
L 386.158619 134.352006 
L 390.26817 147.312 
L 394.377722 132.192 
L 398.487273 162.432 
" clip-path="url(#p5fcc2925e5)" style="fill: none; stroke: #ff7f0e; stroke-width: 1.5; stroke-linecap: square"/>
    <defs>
     <path id="m3cd4865be0" d="M 0 3 
C 0.795609 3 1.55874 2.683901 2.12132 2.12132 
C 2.683901 1.55874 3 0.795609 3 0 
C 3 -0.795609 2.683901 -1.55874 2.12132 -2.12132 
C 1.55874 -2.683901 0.795609 -3 0 -3 
C -0.795609 -3 -1.55874 -2.683901 -2.12132 -2.12132 
C -2.683901 -1.55874 -3 -0.795609 -3 0 
C -3 0.795609 -2.683901 1.55874 -2.12132 2.12132 
C -1.55874 2.683901 -0.795609 3 0 3 
z
" style="stroke: #ff7f0e"/>
    </defs>
    <g clip-path="url(#p5fcc2925e5)">
     <use xlink:href="#m3cd4865be0" x="73.832727" y="201.312003" style="fill: #ff7f0e; stroke: #ff7f0e"/>
     <use xlink:href="#m3cd4865be0" x="77.942278" y="168.911997" style="fill: #ff7f0e; stroke: #ff7f0e"/>
     <use xlink:href="#m3cd4865be0" x="82.05183" y="142.992002" style="fill: #ff7f0e; stroke: #ff7f0e"/>
     <use xlink:href="#m3cd4865be0" x="86.161381" y="151.631998" style="fill: #ff7f0e; stroke: #ff7f0e"/>
     <use xlink:href="#m3cd4865be0" x="90.270932" y="155.951996" style="fill: #ff7f0e; stroke: #ff7f0e"/>
     <use xlink:href="#m3cd4865be0" x="94.380483" y="138.672004" style="fill: #ff7f0e; stroke: #ff7f0e"/>
     <use xlink:href="#m3cd4865be0" x="98.490035" y="138.672004" style="fill: #ff7f0e; stroke: #ff7f0e"/>
     <use xlink:href="#m3cd4865be0" x="102.599586" y="153.792004" style="fill: #ff7f0e; stroke: #ff7f0e"/>
     <use xlink:href="#m3cd4865be0" x="106.709137" y="142.992002" style="fill: #ff7f0e; stroke: #ff7f0e"/>
     <use xlink:href="#m3cd4865be0" x="110.818688" y="147.312" style="fill: #ff7f0e; stroke: #ff7f0e"/>
     <use xlink:href="#m3cd4865be0" x="114.928239" y="123.552004" style="fill: #ff7f0e; stroke: #ff7f0e"/>
     <use xlink:href="#m3cd4865be0" x="119.037791" y="114.911994" style="fill: #ff7f0e; stroke: #ff7f0e"/>
     <use xlink:href="#m3cd4865be0" x="123.147342" y="142.992002" style="fill: #ff7f0e; stroke: #ff7f0e"/>
     <use xlink:href="#m3cd4865be0" x="127.256893" y="173.232002" style="fill: #ff7f0e; stroke: #ff7f0e"/>
     <use xlink:href="#m3cd4865be0" x="131.366444" y="145.151994" style="fill: #ff7f0e; stroke: #ff7f0e"/>
     <use xlink:href="#m3cd4865be0" x="135.475995" y="132.192" style="fill: #ff7f0e; stroke: #ff7f0e"/>
     <use xlink:href="#m3cd4865be0" x="139.585547" y="145.151994" style="fill: #ff7f0e; stroke: #ff7f0e"/>
     <use xlink:href="#m3cd4865be0" x="143.695098" y="147.312" style="fill: #ff7f0e; stroke: #ff7f0e"/>
     <use xlink:href="#m3cd4865be0" x="147.804649" y="153.792004" style="fill: #ff7f0e; stroke: #ff7f0e"/>
     <use xlink:href="#m3cd4865be0" x="151.9142" y="138.672004" style="fill: #ff7f0e; stroke: #ff7f0e"/>
     <use xlink:href="#m3cd4865be0" x="156.023751" y="130.031994" style="fill: #ff7f0e; stroke: #ff7f0e"/>
     <use xlink:href="#m3cd4865be0" x="160.133303" y="117.072" style="fill: #ff7f0e; stroke: #ff7f0e"/>
     <use xlink:href="#m3cd4865be0" x="164.242854" y="134.352006" style="fill: #ff7f0e; stroke: #ff7f0e"/>
     <use xlink:href="#m3cd4865be0" x="168.352405" y="171.072003" style="fill: #ff7f0e; stroke: #ff7f0e"/>
     <use xlink:href="#m3cd4865be0" x="172.461956" y="147.312" style="fill: #ff7f0e; stroke: #ff7f0e"/>
     <use xlink:href="#m3cd4865be0" x="176.571507" y="136.511998" style="fill: #ff7f0e; stroke: #ff7f0e"/>
     <use xlink:href="#m3cd4865be0" x="180.681059" y="138.672004" style="fill: #ff7f0e; stroke: #ff7f0e"/>
     <use xlink:href="#m3cd4865be0" x="184.79061" y="147.312" style="fill: #ff7f0e; stroke: #ff7f0e"/>
     <use xlink:href="#m3cd4865be0" x="188.900161" y="121.391998" style="fill: #ff7f0e; stroke: #ff7f0e"/>
     <use xlink:href="#m3cd4865be0" x="193.009712" y="123.552004" style="fill: #ff7f0e; stroke: #ff7f0e"/>
     <use xlink:href="#m3cd4865be0" x="197.119264" y="127.872002" style="fill: #ff7f0e; stroke: #ff7f0e"/>
     <use xlink:href="#m3cd4865be0" x="201.228815" y="140.831996" style="fill: #ff7f0e; stroke: #ff7f0e"/>
     <use xlink:href="#m3cd4865be0" x="205.338366" y="166.751998" style="fill: #ff7f0e; stroke: #ff7f0e"/>
     <use xlink:href="#m3cd4865be0" x="209.447917" y="134.352006" style="fill: #ff7f0e; stroke: #ff7f0e"/>
     <use xlink:href="#m3cd4865be0" x="213.557468" y="132.192" style="fill: #ff7f0e; stroke: #ff7f0e"/>
     <use xlink:href="#m3cd4865be0" x="217.66702" y="153.792004" style="fill: #ff7f0e; stroke: #ff7f0e"/>
     <use xlink:href="#m3cd4865be0" x="221.776571" y="119.232006" style="fill: #ff7f0e; stroke: #ff7f0e"/>
     <use xlink:href="#m3cd4865be0" x="225.886122" y="151.631998" style="fill: #ff7f0e; stroke: #ff7f0e"/>
     <use xlink:href="#m3cd4865be0" x="229.995673" y="162.432" style="fill: #ff7f0e; stroke: #ff7f0e"/>
     <use xlink:href="#m3cd4865be0" x="234.105224" y="123.552004" style="fill: #ff7f0e; stroke: #ff7f0e"/>
     <use xlink:href="#m3cd4865be0" x="238.214776" y="125.711996" style="fill: #ff7f0e; stroke: #ff7f0e"/>
     <use xlink:href="#m3cd4865be0" x="242.324327" y="130.031994" style="fill: #ff7f0e; stroke: #ff7f0e"/>
     <use xlink:href="#m3cd4865be0" x="246.433878" y="136.511998" style="fill: #ff7f0e; stroke: #ff7f0e"/>
     <use xlink:href="#m3cd4865be0" x="250.543429" y="147.312" style="fill: #ff7f0e; stroke: #ff7f0e"/>
     <use xlink:href="#m3cd4865be0" x="254.65298" y="121.391998" style="fill: #ff7f0e; stroke: #ff7f0e"/>
     <use xlink:href="#m3cd4865be0" x="258.762532" y="130.031994" style="fill: #ff7f0e; stroke: #ff7f0e"/>
     <use xlink:href="#m3cd4865be0" x="262.872083" y="168.911997" style="fill: #ff7f0e; stroke: #ff7f0e"/>
     <use xlink:href="#m3cd4865be0" x="266.981634" y="147.312" style="fill: #ff7f0e; stroke: #ff7f0e"/>
     <use xlink:href="#m3cd4865be0" x="271.091185" y="199.151997" style="fill: #ff7f0e; stroke: #ff7f0e"/>
     <use xlink:href="#m3cd4865be0" x="275.200736" y="140.831996" style="fill: #ff7f0e; stroke: #ff7f0e"/>
     <use xlink:href="#m3cd4865be0" x="279.310288" y="149.472006" style="fill: #ff7f0e; stroke: #ff7f0e"/>
     <use xlink:href="#m3cd4865be0" x="283.419839" y="140.831996" style="fill: #ff7f0e; stroke: #ff7f0e"/>
     <use xlink:href="#m3cd4865be0" x="287.52939" y="151.631998" style="fill: #ff7f0e; stroke: #ff7f0e"/>
     <use xlink:href="#m3cd4865be0" x="291.638941" y="123.552004" style="fill: #ff7f0e; stroke: #ff7f0e"/>
     <use xlink:href="#m3cd4865be0" x="295.748493" y="142.992002" style="fill: #ff7f0e; stroke: #ff7f0e"/>
     <use xlink:href="#m3cd4865be0" x="299.858044" y="184.031997" style="fill: #ff7f0e; stroke: #ff7f0e"/>
     <use xlink:href="#m3cd4865be0" x="303.967595" y="125.711996" style="fill: #ff7f0e; stroke: #ff7f0e"/>
     <use xlink:href="#m3cd4865be0" x="308.077146" y="147.312" style="fill: #ff7f0e; stroke: #ff7f0e"/>
     <use xlink:href="#m3cd4865be0" x="312.186697" y="145.151994" style="fill: #ff7f0e; stroke: #ff7f0e"/>
     <use xlink:href="#m3cd4865be0" x="316.296249" y="149.472006" style="fill: #ff7f0e; stroke: #ff7f0e"/>
     <use xlink:href="#m3cd4865be0" x="320.4058" y="123.552004" style="fill: #ff7f0e; stroke: #ff7f0e"/>
     <use xlink:href="#m3cd4865be0" x="324.515351" y="119.232006" style="fill: #ff7f0e; stroke: #ff7f0e"/>
     <use xlink:href="#m3cd4865be0" x="328.624902" y="132.192" style="fill: #ff7f0e; stroke: #ff7f0e"/>
     <use xlink:href="#m3cd4865be0" x="332.734453" y="138.672004" style="fill: #ff7f0e; stroke: #ff7f0e"/>
     <use xlink:href="#m3cd4865be0" x="336.844005" y="158.112002" style="fill: #ff7f0e; stroke: #ff7f0e"/>
     <use xlink:href="#m3cd4865be0" x="340.953556" y="127.872002" style="fill: #ff7f0e; stroke: #ff7f0e"/>
     <use xlink:href="#m3cd4865be0" x="345.063107" y="121.391998" style="fill: #ff7f0e; stroke: #ff7f0e"/>
     <use xlink:href="#m3cd4865be0" x="349.172658" y="125.711996" style="fill: #ff7f0e; stroke: #ff7f0e"/>
     <use xlink:href="#m3cd4865be0" x="353.282209" y="119.232006" style="fill: #ff7f0e; stroke: #ff7f0e"/>
     <use xlink:href="#m3cd4865be0" x="357.391761" y="127.872002" style="fill: #ff7f0e; stroke: #ff7f0e"/>
     <use xlink:href="#m3cd4865be0" x="361.501312" y="151.631998" style="fill: #ff7f0e; stroke: #ff7f0e"/>
     <use xlink:href="#m3cd4865be0" x="365.610863" y="145.151994" style="fill: #ff7f0e; stroke: #ff7f0e"/>
     <use xlink:href="#m3cd4865be0" x="369.720414" y="125.711996" style="fill: #ff7f0e; stroke: #ff7f0e"/>
     <use xlink:href="#m3cd4865be0" x="373.829965" y="134.352006" style="fill: #ff7f0e; stroke: #ff7f0e"/>
     <use xlink:href="#m3cd4865be0" x="377.939517" y="134.352006" style="fill: #ff7f0e; stroke: #ff7f0e"/>
     <use xlink:href="#m3cd4865be0" x="382.049068" y="134.352006" style="fill: #ff7f0e; stroke: #ff7f0e"/>
     <use xlink:href="#m3cd4865be0" x="386.158619" y="134.352006" style="fill: #ff7f0e; stroke: #ff7f0e"/>
     <use xlink:href="#m3cd4865be0" x="390.26817" y="147.312" style="fill: #ff7f0e; stroke: #ff7f0e"/>
     <use xlink:href="#m3cd4865be0" x="394.377722" y="132.192" style="fill: #ff7f0e; stroke: #ff7f0e"/>
     <use xlink:href="#m3cd4865be0" x="398.487273" y="162.432" style="fill: #ff7f0e; stroke: #ff7f0e"/>
    </g>
   </g>
   <g id="patch_3">
    <path d="M 57.6 162.432 
L 57.6 41.472 
" style="fill: none; stroke: #000000; stroke-width: 0.8; stroke-linejoin: miter; stroke-linecap: square"/>
   </g>
   <g id="patch_4">
    <path d="M 414.72 162.432 
L 414.72 41.472 
" style="fill: none; stroke: #000000; stroke-width: 0.8; stroke-linejoin: miter; stroke-linecap: square"/>
   </g>
   <g id="patch_5">
    <path d="M 57.6 162.432 
L 414.72 162.432 
" style="fill: none; stroke: #000000; stroke-width: 0.8; stroke-linejoin: miter; stroke-linecap: square"/>
   </g>
   <g id="patch_6">
    <path d="M 57.6 41.472 
L 414.72 41.472 
" style="fill: none; stroke: #000000; stroke-width: 0.8; stroke-linejoin: miter; stroke-linecap: square"/>
   </g>
   <g id="legend_1">
    <g id="patch_7">
     <path d="M 278.18875 118.130125 
L 407.72 118.130125 
Q 409.72 118.130125 409.72 116.130125 
L 409.72 87.773875 
Q 409.72 85.773875 407.72 85.773875 
L 278.18875 85.773875 
Q 276.18875 85.773875 276.18875 87.773875 
L 276.18875 116.130125 
Q 276.18875 118.130125 278.18875 118.130125 
z
" style="fill: #ffffff; opacity: 0.8; stroke: #cccccc; stroke-linejoin: miter"/>
    </g>
    <g id="line2d_18">
     <path d="M 280.18875 93.872312 
L 290.18875 93.872312 
L 300.18875 93.872312 
" style="fill: none; stroke: #1f77b4; stroke-width: 1.5; stroke-linecap: square"/>
     <g>
      <use xlink:href="#m56ebd22612" x="290.18875" y="93.872312" style="fill: #1f77b4; stroke: #1f77b4"/>
     </g>
    </g>
    <g id="text_17">
     <!-- training accuracy -->
     <g transform="translate(308.18875 97.372312) scale(0.1 -0.1)">
      <defs>
       <path id="DejaVuSans-74" d="M 1172 4494 
L 1172 3500 
L 2356 3500 
L 2356 3053 
L 1172 3053 
L 1172 1153 
Q 1172 725 1289 603 
Q 1406 481 1766 481 
L 2356 481 
L 2356 0 
L 1766 0 
Q 1100 0 847 248 
Q 594 497 594 1153 
L 594 3053 
L 172 3053 
L 172 3500 
L 594 3500 
L 594 4494 
L 1172 4494 
z
" transform="scale(0.015625)"/>
       <path id="DejaVuSans-69" d="M 603 3500 
L 1178 3500 
L 1178 0 
L 603 0 
L 603 3500 
z
M 603 4863 
L 1178 4863 
L 1178 4134 
L 603 4134 
L 603 4863 
z
" transform="scale(0.015625)"/>
       <path id="DejaVuSans-6e" d="M 3513 2113 
L 3513 0 
L 2938 0 
L 2938 2094 
Q 2938 2591 2744 2837 
Q 2550 3084 2163 3084 
Q 1697 3084 1428 2787 
Q 1159 2491 1159 1978 
L 1159 0 
L 581 0 
L 581 3500 
L 1159 3500 
L 1159 2956 
Q 1366 3272 1645 3428 
Q 1925 3584 2291 3584 
Q 2894 3584 3203 3211 
Q 3513 2838 3513 2113 
z
" transform="scale(0.015625)"/>
       <path id="DejaVuSans-67" d="M 2906 1791 
Q 2906 2416 2648 2759 
Q 2391 3103 1925 3103 
Q 1463 3103 1205 2759 
Q 947 2416 947 1791 
Q 947 1169 1205 825 
Q 1463 481 1925 481 
Q 2391 481 2648 825 
Q 2906 1169 2906 1791 
z
M 3481 434 
Q 3481 -459 3084 -895 
Q 2688 -1331 1869 -1331 
Q 1566 -1331 1297 -1286 
Q 1028 -1241 775 -1147 
L 775 -588 
Q 1028 -725 1275 -790 
Q 1522 -856 1778 -856 
Q 2344 -856 2625 -561 
Q 2906 -266 2906 331 
L 2906 616 
Q 2728 306 2450 153 
Q 2172 0 1784 0 
Q 1141 0 747 490 
Q 353 981 353 1791 
Q 353 2603 747 3093 
Q 1141 3584 1784 3584 
Q 2172 3584 2450 3431 
Q 2728 3278 2906 2969 
L 2906 3500 
L 3481 3500 
L 3481 434 
z
" transform="scale(0.015625)"/>
       <path id="DejaVuSans-20" transform="scale(0.015625)"/>
      </defs>
      <use xlink:href="#DejaVuSans-74"/>
      <use xlink:href="#DejaVuSans-72" x="39.208984"/>
      <use xlink:href="#DejaVuSans-61" x="80.322266"/>
      <use xlink:href="#DejaVuSans-69" x="141.601562"/>
      <use xlink:href="#DejaVuSans-6e" x="169.384766"/>
      <use xlink:href="#DejaVuSans-69" x="232.763672"/>
      <use xlink:href="#DejaVuSans-6e" x="260.546875"/>
      <use xlink:href="#DejaVuSans-67" x="323.925781"/>
      <use xlink:href="#DejaVuSans-20" x="387.402344"/>
      <use xlink:href="#DejaVuSans-61" x="419.189453"/>
      <use xlink:href="#DejaVuSans-63" x="480.46875"/>
      <use xlink:href="#DejaVuSans-63" x="535.449219"/>
      <use xlink:href="#DejaVuSans-75" x="590.429688"/>
      <use xlink:href="#DejaVuSans-72" x="653.808594"/>
      <use xlink:href="#DejaVuSans-61" x="694.921875"/>
      <use xlink:href="#DejaVuSans-63" x="756.201172"/>
      <use xlink:href="#DejaVuSans-79" x="811.181641"/>
     </g>
    </g>
    <g id="line2d_19">
     <path d="M 280.18875 108.550437 
L 290.18875 108.550437 
L 300.18875 108.550437 
" style="fill: none; stroke: #ff7f0e; stroke-width: 1.5; stroke-linecap: square"/>
     <g>
      <use xlink:href="#m3cd4865be0" x="290.18875" y="108.550437" style="fill: #ff7f0e; stroke: #ff7f0e"/>
     </g>
    </g>
    <g id="text_18">
     <!-- validation accuracy -->
     <g transform="translate(308.18875 112.050437) scale(0.1 -0.1)">
      <defs>
       <path id="DejaVuSans-76" d="M 191 3500 
L 800 3500 
L 1894 563 
L 2988 3500 
L 3597 3500 
L 2284 0 
L 1503 0 
L 191 3500 
z
" transform="scale(0.015625)"/>
       <path id="DejaVuSans-6c" d="M 603 4863 
L 1178 4863 
L 1178 0 
L 603 0 
L 603 4863 
z
" transform="scale(0.015625)"/>
       <path id="DejaVuSans-64" d="M 2906 2969 
L 2906 4863 
L 3481 4863 
L 3481 0 
L 2906 0 
L 2906 525 
Q 2725 213 2448 61 
Q 2172 -91 1784 -91 
Q 1150 -91 751 415 
Q 353 922 353 1747 
Q 353 2572 751 3078 
Q 1150 3584 1784 3584 
Q 2172 3584 2448 3432 
Q 2725 3281 2906 2969 
z
M 947 1747 
Q 947 1113 1208 752 
Q 1469 391 1925 391 
Q 2381 391 2643 752 
Q 2906 1113 2906 1747 
Q 2906 2381 2643 2742 
Q 2381 3103 1925 3103 
Q 1469 3103 1208 2742 
Q 947 2381 947 1747 
z
" transform="scale(0.015625)"/>
       <path id="DejaVuSans-6f" d="M 1959 3097 
Q 1497 3097 1228 2736 
Q 959 2375 959 1747 
Q 959 1119 1226 758 
Q 1494 397 1959 397 
Q 2419 397 2687 759 
Q 2956 1122 2956 1747 
Q 2956 2369 2687 2733 
Q 2419 3097 1959 3097 
z
M 1959 3584 
Q 2709 3584 3137 3096 
Q 3566 2609 3566 1747 
Q 3566 888 3137 398 
Q 2709 -91 1959 -91 
Q 1206 -91 779 398 
Q 353 888 353 1747 
Q 353 2609 779 3096 
Q 1206 3584 1959 3584 
z
" transform="scale(0.015625)"/>
      </defs>
      <use xlink:href="#DejaVuSans-76"/>
      <use xlink:href="#DejaVuSans-61" x="59.179688"/>
      <use xlink:href="#DejaVuSans-6c" x="120.458984"/>
      <use xlink:href="#DejaVuSans-69" x="148.242188"/>
      <use xlink:href="#DejaVuSans-64" x="176.025391"/>
      <use xlink:href="#DejaVuSans-61" x="239.501953"/>
      <use xlink:href="#DejaVuSans-74" x="300.78125"/>
      <use xlink:href="#DejaVuSans-69" x="339.990234"/>
      <use xlink:href="#DejaVuSans-6f" x="367.773438"/>
      <use xlink:href="#DejaVuSans-6e" x="428.955078"/>
      <use xlink:href="#DejaVuSans-20" x="492.333984"/>
      <use xlink:href="#DejaVuSans-61" x="524.121094"/>
      <use xlink:href="#DejaVuSans-63" x="585.400391"/>
      <use xlink:href="#DejaVuSans-63" x="640.380859"/>
      <use xlink:href="#DejaVuSans-75" x="695.361328"/>
      <use xlink:href="#DejaVuSans-72" x="758.740234"/>
      <use xlink:href="#DejaVuSans-61" x="799.853516"/>
      <use xlink:href="#DejaVuSans-63" x="861.132812"/>
      <use xlink:href="#DejaVuSans-79" x="916.113281"/>
     </g>
    </g>
   </g>
  </g>
  <g id="axes_2">
   <g id="patch_8">
    <path d="M 57.6 307.584 
L 414.72 307.584 
L 414.72 186.624 
L 57.6 186.624 
z
" style="fill: #ffffff"/>
   </g>
   <g id="matplotlib.axis_3">
    <g id="xtick_10">
     <g id="line2d_20">
      <g>
       <use xlink:href="#m1f51f82658" x="73.832727" y="307.584" style="stroke: #000000; stroke-width: 0.8"/>
      </g>
     </g>
     <g id="text_19">
      <!-- 0 -->
      <g transform="translate(70.651477 322.182437) scale(0.1 -0.1)">
       <use xlink:href="#DejaVuSans-30"/>
      </g>
     </g>
    </g>
    <g id="xtick_11">
     <g id="line2d_21">
      <g>
       <use xlink:href="#m1f51f82658" x="114.928239" y="307.584" style="stroke: #000000; stroke-width: 0.8"/>
      </g>
     </g>
     <g id="text_20">
      <!-- 10 -->
      <g transform="translate(108.565739 322.182437) scale(0.1 -0.1)">
       <use xlink:href="#DejaVuSans-31"/>
       <use xlink:href="#DejaVuSans-30" x="63.623047"/>
      </g>
     </g>
    </g>
    <g id="xtick_12">
     <g id="line2d_22">
      <g>
       <use xlink:href="#m1f51f82658" x="156.023751" y="307.584" style="stroke: #000000; stroke-width: 0.8"/>
      </g>
     </g>
     <g id="text_21">
      <!-- 20 -->
      <g transform="translate(149.661251 322.182437) scale(0.1 -0.1)">
       <use xlink:href="#DejaVuSans-32"/>
       <use xlink:href="#DejaVuSans-30" x="63.623047"/>
      </g>
     </g>
    </g>
    <g id="xtick_13">
     <g id="line2d_23">
      <g>
       <use xlink:href="#m1f51f82658" x="197.119264" y="307.584" style="stroke: #000000; stroke-width: 0.8"/>
      </g>
     </g>
     <g id="text_22">
      <!-- 30 -->
      <g transform="translate(190.756764 322.182437) scale(0.1 -0.1)">
       <use xlink:href="#DejaVuSans-33"/>
       <use xlink:href="#DejaVuSans-30" x="63.623047"/>
      </g>
     </g>
    </g>
    <g id="xtick_14">
     <g id="line2d_24">
      <g>
       <use xlink:href="#m1f51f82658" x="238.214776" y="307.584" style="stroke: #000000; stroke-width: 0.8"/>
      </g>
     </g>
     <g id="text_23">
      <!-- 40 -->
      <g transform="translate(231.852276 322.182437) scale(0.1 -0.1)">
       <use xlink:href="#DejaVuSans-34"/>
       <use xlink:href="#DejaVuSans-30" x="63.623047"/>
      </g>
     </g>
    </g>
    <g id="xtick_15">
     <g id="line2d_25">
      <g>
       <use xlink:href="#m1f51f82658" x="279.310288" y="307.584" style="stroke: #000000; stroke-width: 0.8"/>
      </g>
     </g>
     <g id="text_24">
      <!-- 50 -->
      <g transform="translate(272.947788 322.182437) scale(0.1 -0.1)">
       <use xlink:href="#DejaVuSans-35"/>
       <use xlink:href="#DejaVuSans-30" x="63.623047"/>
      </g>
     </g>
    </g>
    <g id="xtick_16">
     <g id="line2d_26">
      <g>
       <use xlink:href="#m1f51f82658" x="320.4058" y="307.584" style="stroke: #000000; stroke-width: 0.8"/>
      </g>
     </g>
     <g id="text_25">
      <!-- 60 -->
      <g transform="translate(314.0433 322.182437) scale(0.1 -0.1)">
       <use xlink:href="#DejaVuSans-36"/>
       <use xlink:href="#DejaVuSans-30" x="63.623047"/>
      </g>
     </g>
    </g>
    <g id="xtick_17">
     <g id="line2d_27">
      <g>
       <use xlink:href="#m1f51f82658" x="361.501312" y="307.584" style="stroke: #000000; stroke-width: 0.8"/>
      </g>
     </g>
     <g id="text_26">
      <!-- 70 -->
      <g transform="translate(355.138812 322.182437) scale(0.1 -0.1)">
       <use xlink:href="#DejaVuSans-37"/>
       <use xlink:href="#DejaVuSans-30" x="63.623047"/>
      </g>
     </g>
    </g>
    <g id="xtick_18">
     <g id="line2d_28">
      <g>
       <use xlink:href="#m1f51f82658" x="402.596824" y="307.584" style="stroke: #000000; stroke-width: 0.8"/>
      </g>
     </g>
     <g id="text_27">
      <!-- 80 -->
      <g transform="translate(396.234324 322.182437) scale(0.1 -0.1)">
       <use xlink:href="#DejaVuSans-38"/>
       <use xlink:href="#DejaVuSans-30" x="63.623047"/>
      </g>
     </g>
    </g>
    <g id="text_28">
     <!-- Number of epoch -->
     <g transform="translate(192.848281 335.860562) scale(0.1 -0.1)">
      <defs>
       <path id="DejaVuSans-4e" d="M 628 4666 
L 1478 4666 
L 3547 763 
L 3547 4666 
L 4159 4666 
L 4159 0 
L 3309 0 
L 1241 3903 
L 1241 0 
L 628 0 
L 628 4666 
z
" transform="scale(0.015625)"/>
       <path id="DejaVuSans-6d" d="M 3328 2828 
Q 3544 3216 3844 3400 
Q 4144 3584 4550 3584 
Q 5097 3584 5394 3201 
Q 5691 2819 5691 2113 
L 5691 0 
L 5113 0 
L 5113 2094 
Q 5113 2597 4934 2840 
Q 4756 3084 4391 3084 
Q 3944 3084 3684 2787 
Q 3425 2491 3425 1978 
L 3425 0 
L 2847 0 
L 2847 2094 
Q 2847 2600 2669 2842 
Q 2491 3084 2119 3084 
Q 1678 3084 1418 2786 
Q 1159 2488 1159 1978 
L 1159 0 
L 581 0 
L 581 3500 
L 1159 3500 
L 1159 2956 
Q 1356 3278 1631 3431 
Q 1906 3584 2284 3584 
Q 2666 3584 2933 3390 
Q 3200 3197 3328 2828 
z
" transform="scale(0.015625)"/>
       <path id="DejaVuSans-62" d="M 3116 1747 
Q 3116 2381 2855 2742 
Q 2594 3103 2138 3103 
Q 1681 3103 1420 2742 
Q 1159 2381 1159 1747 
Q 1159 1113 1420 752 
Q 1681 391 2138 391 
Q 2594 391 2855 752 
Q 3116 1113 3116 1747 
z
M 1159 2969 
Q 1341 3281 1617 3432 
Q 1894 3584 2278 3584 
Q 2916 3584 3314 3078 
Q 3713 2572 3713 1747 
Q 3713 922 3314 415 
Q 2916 -91 2278 -91 
Q 1894 -91 1617 61 
Q 1341 213 1159 525 
L 1159 0 
L 581 0 
L 581 4863 
L 1159 4863 
L 1159 2969 
z
" transform="scale(0.015625)"/>
       <path id="DejaVuSans-65" d="M 3597 1894 
L 3597 1613 
L 953 1613 
Q 991 1019 1311 708 
Q 1631 397 2203 397 
Q 2534 397 2845 478 
Q 3156 559 3463 722 
L 3463 178 
Q 3153 47 2828 -22 
Q 2503 -91 2169 -91 
Q 1331 -91 842 396 
Q 353 884 353 1716 
Q 353 2575 817 3079 
Q 1281 3584 2069 3584 
Q 2775 3584 3186 3129 
Q 3597 2675 3597 1894 
z
M 3022 2063 
Q 3016 2534 2758 2815 
Q 2500 3097 2075 3097 
Q 1594 3097 1305 2825 
Q 1016 2553 972 2059 
L 3022 2063 
z
" transform="scale(0.015625)"/>
       <path id="DejaVuSans-66" d="M 2375 4863 
L 2375 4384 
L 1825 4384 
Q 1516 4384 1395 4259 
Q 1275 4134 1275 3809 
L 1275 3500 
L 2222 3500 
L 2222 3053 
L 1275 3053 
L 1275 0 
L 697 0 
L 697 3053 
L 147 3053 
L 147 3500 
L 697 3500 
L 697 3744 
Q 697 4328 969 4595 
Q 1241 4863 1831 4863 
L 2375 4863 
z
" transform="scale(0.015625)"/>
       <path id="DejaVuSans-70" d="M 1159 525 
L 1159 -1331 
L 581 -1331 
L 581 3500 
L 1159 3500 
L 1159 2969 
Q 1341 3281 1617 3432 
Q 1894 3584 2278 3584 
Q 2916 3584 3314 3078 
Q 3713 2572 3713 1747 
Q 3713 922 3314 415 
Q 2916 -91 2278 -91 
Q 1894 -91 1617 61 
Q 1341 213 1159 525 
z
M 3116 1747 
Q 3116 2381 2855 2742 
Q 2594 3103 2138 3103 
Q 1681 3103 1420 2742 
Q 1159 2381 1159 1747 
Q 1159 1113 1420 752 
Q 1681 391 2138 391 
Q 2594 391 2855 752 
Q 3116 1113 3116 1747 
z
" transform="scale(0.015625)"/>
       <path id="DejaVuSans-68" d="M 3513 2113 
L 3513 0 
L 2938 0 
L 2938 2094 
Q 2938 2591 2744 2837 
Q 2550 3084 2163 3084 
Q 1697 3084 1428 2787 
Q 1159 2491 1159 1978 
L 1159 0 
L 581 0 
L 581 4863 
L 1159 4863 
L 1159 2956 
Q 1366 3272 1645 3428 
Q 1925 3584 2291 3584 
Q 2894 3584 3203 3211 
Q 3513 2838 3513 2113 
z
" transform="scale(0.015625)"/>
      </defs>
      <use xlink:href="#DejaVuSans-4e"/>
      <use xlink:href="#DejaVuSans-75" x="74.804688"/>
      <use xlink:href="#DejaVuSans-6d" x="138.183594"/>
      <use xlink:href="#DejaVuSans-62" x="235.595703"/>
      <use xlink:href="#DejaVuSans-65" x="299.072266"/>
      <use xlink:href="#DejaVuSans-72" x="360.595703"/>
      <use xlink:href="#DejaVuSans-20" x="401.708984"/>
      <use xlink:href="#DejaVuSans-6f" x="433.496094"/>
      <use xlink:href="#DejaVuSans-66" x="494.677734"/>
      <use xlink:href="#DejaVuSans-20" x="529.882812"/>
      <use xlink:href="#DejaVuSans-65" x="561.669922"/>
      <use xlink:href="#DejaVuSans-70" x="623.193359"/>
      <use xlink:href="#DejaVuSans-6f" x="686.669922"/>
      <use xlink:href="#DejaVuSans-63" x="747.851562"/>
      <use xlink:href="#DejaVuSans-68" x="802.832031"/>
     </g>
    </g>
   </g>
   <g id="matplotlib.axis_4">
    <g id="ytick_7">
     <g id="line2d_29">
      <g>
       <use xlink:href="#m1579c377d4" x="57.6" y="277.408401" style="stroke: #000000; stroke-width: 0.8"/>
      </g>
     </g>
     <g id="text_29">
      <!-- 500% -->
      <g transform="translate(22.010938 281.207619) scale(0.1 -0.1)">
       <use xlink:href="#DejaVuSans-35"/>
       <use xlink:href="#DejaVuSans-30" x="63.623047"/>
       <use xlink:href="#DejaVuSans-30" x="127.246094"/>
       <use xlink:href="#DejaVuSans-25" x="190.869141"/>
      </g>
     </g>
    </g>
    <g id="ytick_8">
     <g id="line2d_30">
      <g>
       <use xlink:href="#m1579c377d4" x="57.6" y="246.689644" style="stroke: #000000; stroke-width: 0.8"/>
      </g>
     </g>
     <g id="text_30">
      <!-- 1000% -->
      <g transform="translate(15.648438 250.488863) scale(0.1 -0.1)">
       <use xlink:href="#DejaVuSans-31"/>
       <use xlink:href="#DejaVuSans-30" x="63.623047"/>
       <use xlink:href="#DejaVuSans-30" x="127.246094"/>
       <use xlink:href="#DejaVuSans-30" x="190.869141"/>
       <use xlink:href="#DejaVuSans-25" x="254.492188"/>
      </g>
     </g>
    </g>
    <g id="ytick_9">
     <g id="line2d_31">
      <g>
       <use xlink:href="#m1579c377d4" x="57.6" y="215.970888" style="stroke: #000000; stroke-width: 0.8"/>
      </g>
     </g>
     <g id="text_31">
      <!-- 1500% -->
      <g transform="translate(15.648438 219.770107) scale(0.1 -0.1)">
       <use xlink:href="#DejaVuSans-31"/>
       <use xlink:href="#DejaVuSans-35" x="63.623047"/>
       <use xlink:href="#DejaVuSans-30" x="127.246094"/>
       <use xlink:href="#DejaVuSans-30" x="190.869141"/>
       <use xlink:href="#DejaVuSans-25" x="254.492188"/>
      </g>
     </g>
    </g>
    <g id="text_32">
     <!-- loss -->
     <g transform="translate(9.56875 256.761812) rotate(-90) scale(0.1 -0.1)">
      <defs>
       <path id="DejaVuSans-73" d="M 2834 3397 
L 2834 2853 
Q 2591 2978 2328 3040 
Q 2066 3103 1784 3103 
Q 1356 3103 1142 2972 
Q 928 2841 928 2578 
Q 928 2378 1081 2264 
Q 1234 2150 1697 2047 
L 1894 2003 
Q 2506 1872 2764 1633 
Q 3022 1394 3022 966 
Q 3022 478 2636 193 
Q 2250 -91 1575 -91 
Q 1294 -91 989 -36 
Q 684 19 347 128 
L 347 722 
Q 666 556 975 473 
Q 1284 391 1588 391 
Q 1994 391 2212 530 
Q 2431 669 2431 922 
Q 2431 1156 2273 1281 
Q 2116 1406 1581 1522 
L 1381 1569 
Q 847 1681 609 1914 
Q 372 2147 372 2553 
Q 372 3047 722 3315 
Q 1072 3584 1716 3584 
Q 2034 3584 2315 3537 
Q 2597 3491 2834 3397 
z
" transform="scale(0.015625)"/>
      </defs>
      <use xlink:href="#DejaVuSans-6c"/>
      <use xlink:href="#DejaVuSans-6f" x="27.783203"/>
      <use xlink:href="#DejaVuSans-73" x="88.964844"/>
      <use xlink:href="#DejaVuSans-73" x="141.064453"/>
     </g>
    </g>
   </g>
   <g id="line2d_32">
    <path d="M 73.832727 192.122182 
L 77.942278 222.347798 
L 82.05183 234.917887 
L 86.161381 247.204124 
L 90.270932 255.991992 
L 94.380483 262.624639 
L 98.490035 268.302814 
L 102.599586 272.23189 
L 106.709137 276.182528 
L 110.818688 279.380663 
L 114.928239 282.839452 
L 119.037791 284.587498 
L 123.147342 287.256354 
L 127.256893 288.425019 
L 131.366444 290.124451 
L 135.475995 291.379553 
L 139.585547 292.922565 
L 143.695098 294.118921 
L 147.804649 294.394048 
L 151.9142 295.508096 
L 156.023751 296.564523 
L 160.133303 296.603027 
L 164.242854 296.131865 
L 168.352405 297.008181 
L 172.461956 297.788081 
L 176.571507 298.008807 
L 180.681059 298.672999 
L 184.79061 298.703924 
L 188.900161 299.0647 
L 193.009712 299.057154 
L 197.119264 299.576478 
L 201.228815 299.4794 
L 205.338366 299.141103 
L 209.447917 300.09402 
L 213.557468 300.5623 
L 217.66702 300.620539 
L 221.776571 300.702291 
L 225.886122 299.818036 
L 229.995673 299.978219 
L 234.105224 300.42122 
L 238.214776 300.199681 
L 242.324327 300.94906 
L 246.433878 300.978875 
L 250.543429 301.147227 
L 254.65298 300.917296 
L 258.762532 300.734894 
L 262.872083 300.200734 
L 266.981634 300.994607 
L 271.091185 300.959244 
L 275.200736 301.366263 
L 279.310288 300.71593 
L 283.419839 300.78508 
L 287.52939 300.775753 
L 291.638941 300.826915 
L 295.748493 301.064658 
L 299.858044 300.590012 
L 303.967595 301.443085 
L 308.077146 300.928898 
L 312.186697 301.231532 
L 316.296249 301.391219 
L 320.4058 301.48627 
L 324.515351 301.556269 
L 328.624902 301.255866 
L 332.734453 301.75398 
L 336.844005 300.814501 
L 340.953556 301.210676 
L 345.063107 301.211176 
L 349.172658 301.92308 
L 353.282209 301.661521 
L 357.391761 301.870563 
L 361.501312 301.689738 
L 365.610863 301.689517 
L 369.720414 301.488964 
L 373.829965 301.44482 
L 377.939517 301.283891 
L 382.049068 301.71811 
L 386.158619 301.65567 
L 390.26817 302.085818 
L 394.377722 301.838979 
L 398.487273 301.333672 
" clip-path="url(#p354a83f4b4)" style="fill: none; stroke: #1f77b4; stroke-width: 1.5; stroke-linecap: square"/>
    <g clip-path="url(#p354a83f4b4)">
     <use xlink:href="#m56ebd22612" x="73.832727" y="192.122182" style="fill: #1f77b4; stroke: #1f77b4"/>
     <use xlink:href="#m56ebd22612" x="77.942278" y="222.347798" style="fill: #1f77b4; stroke: #1f77b4"/>
     <use xlink:href="#m56ebd22612" x="82.05183" y="234.917887" style="fill: #1f77b4; stroke: #1f77b4"/>
     <use xlink:href="#m56ebd22612" x="86.161381" y="247.204124" style="fill: #1f77b4; stroke: #1f77b4"/>
     <use xlink:href="#m56ebd22612" x="90.270932" y="255.991992" style="fill: #1f77b4; stroke: #1f77b4"/>
     <use xlink:href="#m56ebd22612" x="94.380483" y="262.624639" style="fill: #1f77b4; stroke: #1f77b4"/>
     <use xlink:href="#m56ebd22612" x="98.490035" y="268.302814" style="fill: #1f77b4; stroke: #1f77b4"/>
     <use xlink:href="#m56ebd22612" x="102.599586" y="272.23189" style="fill: #1f77b4; stroke: #1f77b4"/>
     <use xlink:href="#m56ebd22612" x="106.709137" y="276.182528" style="fill: #1f77b4; stroke: #1f77b4"/>
     <use xlink:href="#m56ebd22612" x="110.818688" y="279.380663" style="fill: #1f77b4; stroke: #1f77b4"/>
     <use xlink:href="#m56ebd22612" x="114.928239" y="282.839452" style="fill: #1f77b4; stroke: #1f77b4"/>
     <use xlink:href="#m56ebd22612" x="119.037791" y="284.587498" style="fill: #1f77b4; stroke: #1f77b4"/>
     <use xlink:href="#m56ebd22612" x="123.147342" y="287.256354" style="fill: #1f77b4; stroke: #1f77b4"/>
     <use xlink:href="#m56ebd22612" x="127.256893" y="288.425019" style="fill: #1f77b4; stroke: #1f77b4"/>
     <use xlink:href="#m56ebd22612" x="131.366444" y="290.124451" style="fill: #1f77b4; stroke: #1f77b4"/>
     <use xlink:href="#m56ebd22612" x="135.475995" y="291.379553" style="fill: #1f77b4; stroke: #1f77b4"/>
     <use xlink:href="#m56ebd22612" x="139.585547" y="292.922565" style="fill: #1f77b4; stroke: #1f77b4"/>
     <use xlink:href="#m56ebd22612" x="143.695098" y="294.118921" style="fill: #1f77b4; stroke: #1f77b4"/>
     <use xlink:href="#m56ebd22612" x="147.804649" y="294.394048" style="fill: #1f77b4; stroke: #1f77b4"/>
     <use xlink:href="#m56ebd22612" x="151.9142" y="295.508096" style="fill: #1f77b4; stroke: #1f77b4"/>
     <use xlink:href="#m56ebd22612" x="156.023751" y="296.564523" style="fill: #1f77b4; stroke: #1f77b4"/>
     <use xlink:href="#m56ebd22612" x="160.133303" y="296.603027" style="fill: #1f77b4; stroke: #1f77b4"/>
     <use xlink:href="#m56ebd22612" x="164.242854" y="296.131865" style="fill: #1f77b4; stroke: #1f77b4"/>
     <use xlink:href="#m56ebd22612" x="168.352405" y="297.008181" style="fill: #1f77b4; stroke: #1f77b4"/>
     <use xlink:href="#m56ebd22612" x="172.461956" y="297.788081" style="fill: #1f77b4; stroke: #1f77b4"/>
     <use xlink:href="#m56ebd22612" x="176.571507" y="298.008807" style="fill: #1f77b4; stroke: #1f77b4"/>
     <use xlink:href="#m56ebd22612" x="180.681059" y="298.672999" style="fill: #1f77b4; stroke: #1f77b4"/>
     <use xlink:href="#m56ebd22612" x="184.79061" y="298.703924" style="fill: #1f77b4; stroke: #1f77b4"/>
     <use xlink:href="#m56ebd22612" x="188.900161" y="299.0647" style="fill: #1f77b4; stroke: #1f77b4"/>
     <use xlink:href="#m56ebd22612" x="193.009712" y="299.057154" style="fill: #1f77b4; stroke: #1f77b4"/>
     <use xlink:href="#m56ebd22612" x="197.119264" y="299.576478" style="fill: #1f77b4; stroke: #1f77b4"/>
     <use xlink:href="#m56ebd22612" x="201.228815" y="299.4794" style="fill: #1f77b4; stroke: #1f77b4"/>
     <use xlink:href="#m56ebd22612" x="205.338366" y="299.141103" style="fill: #1f77b4; stroke: #1f77b4"/>
     <use xlink:href="#m56ebd22612" x="209.447917" y="300.09402" style="fill: #1f77b4; stroke: #1f77b4"/>
     <use xlink:href="#m56ebd22612" x="213.557468" y="300.5623" style="fill: #1f77b4; stroke: #1f77b4"/>
     <use xlink:href="#m56ebd22612" x="217.66702" y="300.620539" style="fill: #1f77b4; stroke: #1f77b4"/>
     <use xlink:href="#m56ebd22612" x="221.776571" y="300.702291" style="fill: #1f77b4; stroke: #1f77b4"/>
     <use xlink:href="#m56ebd22612" x="225.886122" y="299.818036" style="fill: #1f77b4; stroke: #1f77b4"/>
     <use xlink:href="#m56ebd22612" x="229.995673" y="299.978219" style="fill: #1f77b4; stroke: #1f77b4"/>
     <use xlink:href="#m56ebd22612" x="234.105224" y="300.42122" style="fill: #1f77b4; stroke: #1f77b4"/>
     <use xlink:href="#m56ebd22612" x="238.214776" y="300.199681" style="fill: #1f77b4; stroke: #1f77b4"/>
     <use xlink:href="#m56ebd22612" x="242.324327" y="300.94906" style="fill: #1f77b4; stroke: #1f77b4"/>
     <use xlink:href="#m56ebd22612" x="246.433878" y="300.978875" style="fill: #1f77b4; stroke: #1f77b4"/>
     <use xlink:href="#m56ebd22612" x="250.543429" y="301.147227" style="fill: #1f77b4; stroke: #1f77b4"/>
     <use xlink:href="#m56ebd22612" x="254.65298" y="300.917296" style="fill: #1f77b4; stroke: #1f77b4"/>
     <use xlink:href="#m56ebd22612" x="258.762532" y="300.734894" style="fill: #1f77b4; stroke: #1f77b4"/>
     <use xlink:href="#m56ebd22612" x="262.872083" y="300.200734" style="fill: #1f77b4; stroke: #1f77b4"/>
     <use xlink:href="#m56ebd22612" x="266.981634" y="300.994607" style="fill: #1f77b4; stroke: #1f77b4"/>
     <use xlink:href="#m56ebd22612" x="271.091185" y="300.959244" style="fill: #1f77b4; stroke: #1f77b4"/>
     <use xlink:href="#m56ebd22612" x="275.200736" y="301.366263" style="fill: #1f77b4; stroke: #1f77b4"/>
     <use xlink:href="#m56ebd22612" x="279.310288" y="300.71593" style="fill: #1f77b4; stroke: #1f77b4"/>
     <use xlink:href="#m56ebd22612" x="283.419839" y="300.78508" style="fill: #1f77b4; stroke: #1f77b4"/>
     <use xlink:href="#m56ebd22612" x="287.52939" y="300.775753" style="fill: #1f77b4; stroke: #1f77b4"/>
     <use xlink:href="#m56ebd22612" x="291.638941" y="300.826915" style="fill: #1f77b4; stroke: #1f77b4"/>
     <use xlink:href="#m56ebd22612" x="295.748493" y="301.064658" style="fill: #1f77b4; stroke: #1f77b4"/>
     <use xlink:href="#m56ebd22612" x="299.858044" y="300.590012" style="fill: #1f77b4; stroke: #1f77b4"/>
     <use xlink:href="#m56ebd22612" x="303.967595" y="301.443085" style="fill: #1f77b4; stroke: #1f77b4"/>
     <use xlink:href="#m56ebd22612" x="308.077146" y="300.928898" style="fill: #1f77b4; stroke: #1f77b4"/>
     <use xlink:href="#m56ebd22612" x="312.186697" y="301.231532" style="fill: #1f77b4; stroke: #1f77b4"/>
     <use xlink:href="#m56ebd22612" x="316.296249" y="301.391219" style="fill: #1f77b4; stroke: #1f77b4"/>
     <use xlink:href="#m56ebd22612" x="320.4058" y="301.48627" style="fill: #1f77b4; stroke: #1f77b4"/>
     <use xlink:href="#m56ebd22612" x="324.515351" y="301.556269" style="fill: #1f77b4; stroke: #1f77b4"/>
     <use xlink:href="#m56ebd22612" x="328.624902" y="301.255866" style="fill: #1f77b4; stroke: #1f77b4"/>
     <use xlink:href="#m56ebd22612" x="332.734453" y="301.75398" style="fill: #1f77b4; stroke: #1f77b4"/>
     <use xlink:href="#m56ebd22612" x="336.844005" y="300.814501" style="fill: #1f77b4; stroke: #1f77b4"/>
     <use xlink:href="#m56ebd22612" x="340.953556" y="301.210676" style="fill: #1f77b4; stroke: #1f77b4"/>
     <use xlink:href="#m56ebd22612" x="345.063107" y="301.211176" style="fill: #1f77b4; stroke: #1f77b4"/>
     <use xlink:href="#m56ebd22612" x="349.172658" y="301.92308" style="fill: #1f77b4; stroke: #1f77b4"/>
     <use xlink:href="#m56ebd22612" x="353.282209" y="301.661521" style="fill: #1f77b4; stroke: #1f77b4"/>
     <use xlink:href="#m56ebd22612" x="357.391761" y="301.870563" style="fill: #1f77b4; stroke: #1f77b4"/>
     <use xlink:href="#m56ebd22612" x="361.501312" y="301.689738" style="fill: #1f77b4; stroke: #1f77b4"/>
     <use xlink:href="#m56ebd22612" x="365.610863" y="301.689517" style="fill: #1f77b4; stroke: #1f77b4"/>
     <use xlink:href="#m56ebd22612" x="369.720414" y="301.488964" style="fill: #1f77b4; stroke: #1f77b4"/>
     <use xlink:href="#m56ebd22612" x="373.829965" y="301.44482" style="fill: #1f77b4; stroke: #1f77b4"/>
     <use xlink:href="#m56ebd22612" x="377.939517" y="301.283891" style="fill: #1f77b4; stroke: #1f77b4"/>
     <use xlink:href="#m56ebd22612" x="382.049068" y="301.71811" style="fill: #1f77b4; stroke: #1f77b4"/>
     <use xlink:href="#m56ebd22612" x="386.158619" y="301.65567" style="fill: #1f77b4; stroke: #1f77b4"/>
     <use xlink:href="#m56ebd22612" x="390.26817" y="302.085818" style="fill: #1f77b4; stroke: #1f77b4"/>
     <use xlink:href="#m56ebd22612" x="394.377722" y="301.838979" style="fill: #1f77b4; stroke: #1f77b4"/>
     <use xlink:href="#m56ebd22612" x="398.487273" y="301.333672" style="fill: #1f77b4; stroke: #1f77b4"/>
    </g>
   </g>
   <g id="line2d_33">
    <path d="M 73.832727 198.575049 
L 77.942278 218.190757 
L 82.05183 239.709864 
L 86.161381 244.395927 
L 90.270932 253.135235 
L 94.380483 259.449373 
L 98.490035 265.971068 
L 102.599586 267.534936 
L 106.709137 273.137707 
L 110.818688 275.783747 
L 114.928239 279.68636 
L 119.037791 282.387469 
L 123.147342 280.117177 
L 127.256893 280.056344 
L 131.366444 283.311209 
L 135.475995 287.892402 
L 139.585547 287.036253 
L 143.695098 287.63611 
L 147.804649 288.943943 
L 151.9142 290.552593 
L 156.023751 291.60173 
L 160.133303 292.889488 
L 164.242854 292.079693 
L 168.352405 288.809728 
L 172.461956 290.558125 
L 176.571507 291.338088 
L 180.681059 293.082543 
L 184.79061 292.00397 
L 188.900161 295.256503 
L 193.009712 296.182901 
L 197.119264 294.419417 
L 201.228815 293.880302 
L 205.338366 292.171321 
L 209.447917 295.945032 
L 213.557468 295.499767 
L 217.66702 290.455599 
L 221.776571 296.926209 
L 225.886122 294.29405 
L 229.995673 294.041035 
L 234.105224 296.039548 
L 238.214776 295.761118 
L 242.324327 296.106648 
L 246.433878 295.232841 
L 250.543429 293.48972 
L 254.65298 296.586015 
L 258.762532 296.914972 
L 262.872083 292.089011 
L 266.981634 296.427097 
L 271.091185 281.740688 
L 275.200736 295.382662 
L 279.310288 294.550829 
L 283.419839 294.795647 
L 287.52939 293.285353 
L 291.638941 295.977333 
L 295.748493 294.176636 
L 299.858044 286.738191 
L 303.967595 296.943053 
L 308.077146 294.454228 
L 312.186697 295.661006 
L 316.296249 294.961403 
L 320.4058 296.196466 
L 324.515351 296.653212 
L 328.624902 296.123406 
L 332.734453 295.387386 
L 336.844005 288.626807 
L 340.953556 296.881402 
L 345.063107 296.817732 
L 349.172658 297.143897 
L 353.282209 295.997188 
L 357.391761 297.806718 
L 361.501312 295.445447 
L 365.610863 295.396601 
L 369.720414 297.088248 
L 373.829965 294.484762 
L 377.939517 295.179059 
L 382.049068 297.106968 
L 386.158619 296.222207 
L 390.26817 295.071016 
L 394.377722 296.006366 
L 398.487273 294.657235 
" clip-path="url(#p354a83f4b4)" style="fill: none; stroke: #ff7f0e; stroke-width: 1.5; stroke-linecap: square"/>
    <g clip-path="url(#p354a83f4b4)">
     <use xlink:href="#m3cd4865be0" x="73.832727" y="198.575049" style="fill: #ff7f0e; stroke: #ff7f0e"/>
     <use xlink:href="#m3cd4865be0" x="77.942278" y="218.190757" style="fill: #ff7f0e; stroke: #ff7f0e"/>
     <use xlink:href="#m3cd4865be0" x="82.05183" y="239.709864" style="fill: #ff7f0e; stroke: #ff7f0e"/>
     <use xlink:href="#m3cd4865be0" x="86.161381" y="244.395927" style="fill: #ff7f0e; stroke: #ff7f0e"/>
     <use xlink:href="#m3cd4865be0" x="90.270932" y="253.135235" style="fill: #ff7f0e; stroke: #ff7f0e"/>
     <use xlink:href="#m3cd4865be0" x="94.380483" y="259.449373" style="fill: #ff7f0e; stroke: #ff7f0e"/>
     <use xlink:href="#m3cd4865be0" x="98.490035" y="265.971068" style="fill: #ff7f0e; stroke: #ff7f0e"/>
     <use xlink:href="#m3cd4865be0" x="102.599586" y="267.534936" style="fill: #ff7f0e; stroke: #ff7f0e"/>
     <use xlink:href="#m3cd4865be0" x="106.709137" y="273.137707" style="fill: #ff7f0e; stroke: #ff7f0e"/>
     <use xlink:href="#m3cd4865be0" x="110.818688" y="275.783747" style="fill: #ff7f0e; stroke: #ff7f0e"/>
     <use xlink:href="#m3cd4865be0" x="114.928239" y="279.68636" style="fill: #ff7f0e; stroke: #ff7f0e"/>
     <use xlink:href="#m3cd4865be0" x="119.037791" y="282.387469" style="fill: #ff7f0e; stroke: #ff7f0e"/>
     <use xlink:href="#m3cd4865be0" x="123.147342" y="280.117177" style="fill: #ff7f0e; stroke: #ff7f0e"/>
     <use xlink:href="#m3cd4865be0" x="127.256893" y="280.056344" style="fill: #ff7f0e; stroke: #ff7f0e"/>
     <use xlink:href="#m3cd4865be0" x="131.366444" y="283.311209" style="fill: #ff7f0e; stroke: #ff7f0e"/>
     <use xlink:href="#m3cd4865be0" x="135.475995" y="287.892402" style="fill: #ff7f0e; stroke: #ff7f0e"/>
     <use xlink:href="#m3cd4865be0" x="139.585547" y="287.036253" style="fill: #ff7f0e; stroke: #ff7f0e"/>
     <use xlink:href="#m3cd4865be0" x="143.695098" y="287.63611" style="fill: #ff7f0e; stroke: #ff7f0e"/>
     <use xlink:href="#m3cd4865be0" x="147.804649" y="288.943943" style="fill: #ff7f0e; stroke: #ff7f0e"/>
     <use xlink:href="#m3cd4865be0" x="151.9142" y="290.552593" style="fill: #ff7f0e; stroke: #ff7f0e"/>
     <use xlink:href="#m3cd4865be0" x="156.023751" y="291.60173" style="fill: #ff7f0e; stroke: #ff7f0e"/>
     <use xlink:href="#m3cd4865be0" x="160.133303" y="292.889488" style="fill: #ff7f0e; stroke: #ff7f0e"/>
     <use xlink:href="#m3cd4865be0" x="164.242854" y="292.079693" style="fill: #ff7f0e; stroke: #ff7f0e"/>
     <use xlink:href="#m3cd4865be0" x="168.352405" y="288.809728" style="fill: #ff7f0e; stroke: #ff7f0e"/>
     <use xlink:href="#m3cd4865be0" x="172.461956" y="290.558125" style="fill: #ff7f0e; stroke: #ff7f0e"/>
     <use xlink:href="#m3cd4865be0" x="176.571507" y="291.338088" style="fill: #ff7f0e; stroke: #ff7f0e"/>
     <use xlink:href="#m3cd4865be0" x="180.681059" y="293.082543" style="fill: #ff7f0e; stroke: #ff7f0e"/>
     <use xlink:href="#m3cd4865be0" x="184.79061" y="292.00397" style="fill: #ff7f0e; stroke: #ff7f0e"/>
     <use xlink:href="#m3cd4865be0" x="188.900161" y="295.256503" style="fill: #ff7f0e; stroke: #ff7f0e"/>
     <use xlink:href="#m3cd4865be0" x="193.009712" y="296.182901" style="fill: #ff7f0e; stroke: #ff7f0e"/>
     <use xlink:href="#m3cd4865be0" x="197.119264" y="294.419417" style="fill: #ff7f0e; stroke: #ff7f0e"/>
     <use xlink:href="#m3cd4865be0" x="201.228815" y="293.880302" style="fill: #ff7f0e; stroke: #ff7f0e"/>
     <use xlink:href="#m3cd4865be0" x="205.338366" y="292.171321" style="fill: #ff7f0e; stroke: #ff7f0e"/>
     <use xlink:href="#m3cd4865be0" x="209.447917" y="295.945032" style="fill: #ff7f0e; stroke: #ff7f0e"/>
     <use xlink:href="#m3cd4865be0" x="213.557468" y="295.499767" style="fill: #ff7f0e; stroke: #ff7f0e"/>
     <use xlink:href="#m3cd4865be0" x="217.66702" y="290.455599" style="fill: #ff7f0e; stroke: #ff7f0e"/>
     <use xlink:href="#m3cd4865be0" x="221.776571" y="296.926209" style="fill: #ff7f0e; stroke: #ff7f0e"/>
     <use xlink:href="#m3cd4865be0" x="225.886122" y="294.29405" style="fill: #ff7f0e; stroke: #ff7f0e"/>
     <use xlink:href="#m3cd4865be0" x="229.995673" y="294.041035" style="fill: #ff7f0e; stroke: #ff7f0e"/>
     <use xlink:href="#m3cd4865be0" x="234.105224" y="296.039548" style="fill: #ff7f0e; stroke: #ff7f0e"/>
     <use xlink:href="#m3cd4865be0" x="238.214776" y="295.761118" style="fill: #ff7f0e; stroke: #ff7f0e"/>
     <use xlink:href="#m3cd4865be0" x="242.324327" y="296.106648" style="fill: #ff7f0e; stroke: #ff7f0e"/>
     <use xlink:href="#m3cd4865be0" x="246.433878" y="295.232841" style="fill: #ff7f0e; stroke: #ff7f0e"/>
     <use xlink:href="#m3cd4865be0" x="250.543429" y="293.48972" style="fill: #ff7f0e; stroke: #ff7f0e"/>
     <use xlink:href="#m3cd4865be0" x="254.65298" y="296.586015" style="fill: #ff7f0e; stroke: #ff7f0e"/>
     <use xlink:href="#m3cd4865be0" x="258.762532" y="296.914972" style="fill: #ff7f0e; stroke: #ff7f0e"/>
     <use xlink:href="#m3cd4865be0" x="262.872083" y="292.089011" style="fill: #ff7f0e; stroke: #ff7f0e"/>
     <use xlink:href="#m3cd4865be0" x="266.981634" y="296.427097" style="fill: #ff7f0e; stroke: #ff7f0e"/>
     <use xlink:href="#m3cd4865be0" x="271.091185" y="281.740688" style="fill: #ff7f0e; stroke: #ff7f0e"/>
     <use xlink:href="#m3cd4865be0" x="275.200736" y="295.382662" style="fill: #ff7f0e; stroke: #ff7f0e"/>
     <use xlink:href="#m3cd4865be0" x="279.310288" y="294.550829" style="fill: #ff7f0e; stroke: #ff7f0e"/>
     <use xlink:href="#m3cd4865be0" x="283.419839" y="294.795647" style="fill: #ff7f0e; stroke: #ff7f0e"/>
     <use xlink:href="#m3cd4865be0" x="287.52939" y="293.285353" style="fill: #ff7f0e; stroke: #ff7f0e"/>
     <use xlink:href="#m3cd4865be0" x="291.638941" y="295.977333" style="fill: #ff7f0e; stroke: #ff7f0e"/>
     <use xlink:href="#m3cd4865be0" x="295.748493" y="294.176636" style="fill: #ff7f0e; stroke: #ff7f0e"/>
     <use xlink:href="#m3cd4865be0" x="299.858044" y="286.738191" style="fill: #ff7f0e; stroke: #ff7f0e"/>
     <use xlink:href="#m3cd4865be0" x="303.967595" y="296.943053" style="fill: #ff7f0e; stroke: #ff7f0e"/>
     <use xlink:href="#m3cd4865be0" x="308.077146" y="294.454228" style="fill: #ff7f0e; stroke: #ff7f0e"/>
     <use xlink:href="#m3cd4865be0" x="312.186697" y="295.661006" style="fill: #ff7f0e; stroke: #ff7f0e"/>
     <use xlink:href="#m3cd4865be0" x="316.296249" y="294.961403" style="fill: #ff7f0e; stroke: #ff7f0e"/>
     <use xlink:href="#m3cd4865be0" x="320.4058" y="296.196466" style="fill: #ff7f0e; stroke: #ff7f0e"/>
     <use xlink:href="#m3cd4865be0" x="324.515351" y="296.653212" style="fill: #ff7f0e; stroke: #ff7f0e"/>
     <use xlink:href="#m3cd4865be0" x="328.624902" y="296.123406" style="fill: #ff7f0e; stroke: #ff7f0e"/>
     <use xlink:href="#m3cd4865be0" x="332.734453" y="295.387386" style="fill: #ff7f0e; stroke: #ff7f0e"/>
     <use xlink:href="#m3cd4865be0" x="336.844005" y="288.626807" style="fill: #ff7f0e; stroke: #ff7f0e"/>
     <use xlink:href="#m3cd4865be0" x="340.953556" y="296.881402" style="fill: #ff7f0e; stroke: #ff7f0e"/>
     <use xlink:href="#m3cd4865be0" x="345.063107" y="296.817732" style="fill: #ff7f0e; stroke: #ff7f0e"/>
     <use xlink:href="#m3cd4865be0" x="349.172658" y="297.143897" style="fill: #ff7f0e; stroke: #ff7f0e"/>
     <use xlink:href="#m3cd4865be0" x="353.282209" y="295.997188" style="fill: #ff7f0e; stroke: #ff7f0e"/>
     <use xlink:href="#m3cd4865be0" x="357.391761" y="297.806718" style="fill: #ff7f0e; stroke: #ff7f0e"/>
     <use xlink:href="#m3cd4865be0" x="361.501312" y="295.445447" style="fill: #ff7f0e; stroke: #ff7f0e"/>
     <use xlink:href="#m3cd4865be0" x="365.610863" y="295.396601" style="fill: #ff7f0e; stroke: #ff7f0e"/>
     <use xlink:href="#m3cd4865be0" x="369.720414" y="297.088248" style="fill: #ff7f0e; stroke: #ff7f0e"/>
     <use xlink:href="#m3cd4865be0" x="373.829965" y="294.484762" style="fill: #ff7f0e; stroke: #ff7f0e"/>
     <use xlink:href="#m3cd4865be0" x="377.939517" y="295.179059" style="fill: #ff7f0e; stroke: #ff7f0e"/>
     <use xlink:href="#m3cd4865be0" x="382.049068" y="297.106968" style="fill: #ff7f0e; stroke: #ff7f0e"/>
     <use xlink:href="#m3cd4865be0" x="386.158619" y="296.222207" style="fill: #ff7f0e; stroke: #ff7f0e"/>
     <use xlink:href="#m3cd4865be0" x="390.26817" y="295.071016" style="fill: #ff7f0e; stroke: #ff7f0e"/>
     <use xlink:href="#m3cd4865be0" x="394.377722" y="296.006366" style="fill: #ff7f0e; stroke: #ff7f0e"/>
     <use xlink:href="#m3cd4865be0" x="398.487273" y="294.657235" style="fill: #ff7f0e; stroke: #ff7f0e"/>
    </g>
   </g>
   <g id="patch_9">
    <path d="M 57.6 307.584 
L 57.6 186.624 
" style="fill: none; stroke: #000000; stroke-width: 0.8; stroke-linejoin: miter; stroke-linecap: square"/>
   </g>
   <g id="patch_10">
    <path d="M 414.72 307.584 
L 414.72 186.624 
" style="fill: none; stroke: #000000; stroke-width: 0.8; stroke-linejoin: miter; stroke-linecap: square"/>
   </g>
   <g id="patch_11">
    <path d="M 57.6 307.584 
L 414.72 307.584 
" style="fill: none; stroke: #000000; stroke-width: 0.8; stroke-linejoin: miter; stroke-linecap: square"/>
   </g>
   <g id="patch_12">
    <path d="M 57.6 186.624 
L 414.72 186.624 
" style="fill: none; stroke: #000000; stroke-width: 0.8; stroke-linejoin: miter; stroke-linecap: square"/>
   </g>
   <g id="legend_2">
    <g id="patch_13">
     <path d="M 303.991875 223.98025 
L 407.72 223.98025 
Q 409.72 223.98025 409.72 221.98025 
L 409.72 193.624 
Q 409.72 191.624 407.72 191.624 
L 303.991875 191.624 
Q 301.991875 191.624 301.991875 193.624 
L 301.991875 221.98025 
Q 301.991875 223.98025 303.991875 223.98025 
z
" style="fill: #ffffff; opacity: 0.8; stroke: #cccccc; stroke-linejoin: miter"/>
    </g>
    <g id="line2d_34">
     <path d="M 305.991875 199.722437 
L 315.991875 199.722437 
L 325.991875 199.722437 
" style="fill: none; stroke: #1f77b4; stroke-width: 1.5; stroke-linecap: square"/>
     <g>
      <use xlink:href="#m56ebd22612" x="315.991875" y="199.722437" style="fill: #1f77b4; stroke: #1f77b4"/>
     </g>
    </g>
    <g id="text_33">
     <!-- training loss -->
     <g transform="translate(333.991875 203.222437) scale(0.1 -0.1)">
      <use xlink:href="#DejaVuSans-74"/>
      <use xlink:href="#DejaVuSans-72" x="39.208984"/>
      <use xlink:href="#DejaVuSans-61" x="80.322266"/>
      <use xlink:href="#DejaVuSans-69" x="141.601562"/>
      <use xlink:href="#DejaVuSans-6e" x="169.384766"/>
      <use xlink:href="#DejaVuSans-69" x="232.763672"/>
      <use xlink:href="#DejaVuSans-6e" x="260.546875"/>
      <use xlink:href="#DejaVuSans-67" x="323.925781"/>
      <use xlink:href="#DejaVuSans-20" x="387.402344"/>
      <use xlink:href="#DejaVuSans-6c" x="419.189453"/>
      <use xlink:href="#DejaVuSans-6f" x="446.972656"/>
      <use xlink:href="#DejaVuSans-73" x="508.154297"/>
      <use xlink:href="#DejaVuSans-73" x="560.253906"/>
     </g>
    </g>
    <g id="line2d_35">
     <path d="M 305.991875 214.400562 
L 315.991875 214.400562 
L 325.991875 214.400562 
" style="fill: none; stroke: #ff7f0e; stroke-width: 1.5; stroke-linecap: square"/>
     <g>
      <use xlink:href="#m3cd4865be0" x="315.991875" y="214.400562" style="fill: #ff7f0e; stroke: #ff7f0e"/>
     </g>
    </g>
    <g id="text_34">
     <!-- validation loss -->
     <g transform="translate(333.991875 217.900562) scale(0.1 -0.1)">
      <use xlink:href="#DejaVuSans-76"/>
      <use xlink:href="#DejaVuSans-61" x="59.179688"/>
      <use xlink:href="#DejaVuSans-6c" x="120.458984"/>
      <use xlink:href="#DejaVuSans-69" x="148.242188"/>
      <use xlink:href="#DejaVuSans-64" x="176.025391"/>
      <use xlink:href="#DejaVuSans-61" x="239.501953"/>
      <use xlink:href="#DejaVuSans-74" x="300.78125"/>
      <use xlink:href="#DejaVuSans-69" x="339.990234"/>
      <use xlink:href="#DejaVuSans-6f" x="367.773438"/>
      <use xlink:href="#DejaVuSans-6e" x="428.955078"/>
      <use xlink:href="#DejaVuSans-20" x="492.333984"/>
      <use xlink:href="#DejaVuSans-6c" x="524.121094"/>
      <use xlink:href="#DejaVuSans-6f" x="551.904297"/>
      <use xlink:href="#DejaVuSans-73" x="613.085938"/>
      <use xlink:href="#DejaVuSans-73" x="665.185547"/>
     </g>
    </g>
   </g>
  </g>
 </g>
 <defs>
  <clipPath id="p5fcc2925e5">
   <rect x="57.6" y="41.472" width="357.12" height="120.96"/>
  </clipPath>
  <clipPath id="p354a83f4b4">
   <rect x="57.6" y="186.624" width="357.12" height="120.96"/>
  </clipPath>
 </defs>
</svg>
