<?xml version="1.0" encoding="utf-8" standalone="no"?>
<!DOCTYPE svg PUBLIC "-//W3C//DTD SVG 1.1//EN"
  "http://www.w3.org/Graphics/SVG/1.1/DTD/svg11.dtd">
<svg xmlns:xlink="http://www.w3.org/1999/xlink" width="460.8pt" height="345.6pt" viewBox="0 0 460.8 345.6" xmlns="http://www.w3.org/2000/svg" version="1.1">
 <metadata>
  <rdf:RDF xmlns:dc="http://purl.org/dc/elements/1.1/" xmlns:cc="http://creativecommons.org/ns#" xmlns:rdf="http://www.w3.org/1999/02/22-rdf-syntax-ns#">
   <cc:Work>
    <dc:type rdf:resource="http://purl.org/dc/dcmitype/StillImage"/>
    <dc:date>2023-12-18T21:03:09.593588</dc:date>
    <dc:format>image/svg+xml</dc:format>
    <dc:creator>
     <cc:Agent>
      <dc:title>Matplotlib v3.8.0, https://matplotlib.org/</dc:title>
     </cc:Agent>
    </dc:creator>
   </cc:Work>
  </rdf:RDF>
 </metadata>
 <defs>
  <style type="text/css">*{stroke-linejoin: round; stroke-linecap: butt}</style>
 </defs>
 <g id="figure_1">
  <g id="patch_1">
   <path d="M 0 345.6 
L 460.8 345.6 
L 460.8 0 
L 0 0 
z
" style="fill: #ffffff"/>
  </g>
  <g id="axes_1">
   <g id="patch_2">
    <path d="M 57.6 162.432 
L 414.72 162.432 
L 414.72 41.472 
L 57.6 41.472 
z
" style="fill: #ffffff"/>
   </g>
   <g id="matplotlib.axis_1">
    <g id="xtick_1">
     <g id="line2d_1">
      <defs>
       <path id="me052f538c1" d="M 0 0 
L 0 3.5 
" style="stroke: #000000; stroke-width: 0.8"/>
      </defs>
      <g>
       <use xlink:href="#me052f538c1" x="73.832727" y="162.432" style="stroke: #000000; stroke-width: 0.8"/>
      </g>
     </g>
     <g id="text_1">
      <!-- 0 -->
      <g transform="translate(70.651477 177.030437) scale(0.1 -0.1)">
       <defs>
        <path id="DejaVuSans-30" d="M 2034 4250 
Q 1547 4250 1301 3770 
Q 1056 3291 1056 2328 
Q 1056 1369 1301 889 
Q 1547 409 2034 409 
Q 2525 409 2770 889 
Q 3016 1369 3016 2328 
Q 3016 3291 2770 3770 
Q 2525 4250 2034 4250 
z
M 2034 4750 
Q 2819 4750 3233 4129 
Q 3647 3509 3647 2328 
Q 3647 1150 3233 529 
Q 2819 -91 2034 -91 
Q 1250 -91 836 529 
Q 422 1150 422 2328 
Q 422 3509 836 4129 
Q 1250 4750 2034 4750 
z
" transform="scale(0.015625)"/>
       </defs>
       <use xlink:href="#DejaVuSans-30"/>
      </g>
     </g>
    </g>
    <g id="xtick_2">
     <g id="line2d_2">
      <g>
       <use xlink:href="#me052f538c1" x="114.928239" y="162.432" style="stroke: #000000; stroke-width: 0.8"/>
      </g>
     </g>
     <g id="text_2">
      <!-- 10 -->
      <g transform="translate(108.565739 177.030437) scale(0.1 -0.1)">
       <defs>
        <path id="DejaVuSans-31" d="M 794 531 
L 1825 531 
L 1825 4091 
L 703 3866 
L 703 4441 
L 1819 4666 
L 2450 4666 
L 2450 531 
L 3481 531 
L 3481 0 
L 794 0 
L 794 531 
z
" transform="scale(0.015625)"/>
       </defs>
       <use xlink:href="#DejaVuSans-31"/>
       <use xlink:href="#DejaVuSans-30" x="63.623047"/>
      </g>
     </g>
    </g>
    <g id="xtick_3">
     <g id="line2d_3">
      <g>
       <use xlink:href="#me052f538c1" x="156.023751" y="162.432" style="stroke: #000000; stroke-width: 0.8"/>
      </g>
     </g>
     <g id="text_3">
      <!-- 20 -->
      <g transform="translate(149.661251 177.030437) scale(0.1 -0.1)">
       <defs>
        <path id="DejaVuSans-32" d="M 1228 531 
L 3431 531 
L 3431 0 
L 469 0 
L 469 531 
Q 828 903 1448 1529 
Q 2069 2156 2228 2338 
Q 2531 2678 2651 2914 
Q 2772 3150 2772 3378 
Q 2772 3750 2511 3984 
Q 2250 4219 1831 4219 
Q 1534 4219 1204 4116 
Q 875 4013 500 3803 
L 500 4441 
Q 881 4594 1212 4672 
Q 1544 4750 1819 4750 
Q 2544 4750 2975 4387 
Q 3406 4025 3406 3419 
Q 3406 3131 3298 2873 
Q 3191 2616 2906 2266 
Q 2828 2175 2409 1742 
Q 1991 1309 1228 531 
z
" transform="scale(0.015625)"/>
       </defs>
       <use xlink:href="#DejaVuSans-32"/>
       <use xlink:href="#DejaVuSans-30" x="63.623047"/>
      </g>
     </g>
    </g>
    <g id="xtick_4">
     <g id="line2d_4">
      <g>
       <use xlink:href="#me052f538c1" x="197.119264" y="162.432" style="stroke: #000000; stroke-width: 0.8"/>
      </g>
     </g>
     <g id="text_4">
      <!-- 30 -->
      <g transform="translate(190.756764 177.030437) scale(0.1 -0.1)">
       <defs>
        <path id="DejaVuSans-33" d="M 2597 2516 
Q 3050 2419 3304 2112 
Q 3559 1806 3559 1356 
Q 3559 666 3084 287 
Q 2609 -91 1734 -91 
Q 1441 -91 1130 -33 
Q 819 25 488 141 
L 488 750 
Q 750 597 1062 519 
Q 1375 441 1716 441 
Q 2309 441 2620 675 
Q 2931 909 2931 1356 
Q 2931 1769 2642 2001 
Q 2353 2234 1838 2234 
L 1294 2234 
L 1294 2753 
L 1863 2753 
Q 2328 2753 2575 2939 
Q 2822 3125 2822 3475 
Q 2822 3834 2567 4026 
Q 2313 4219 1838 4219 
Q 1578 4219 1281 4162 
Q 984 4106 628 3988 
L 628 4550 
Q 988 4650 1302 4700 
Q 1616 4750 1894 4750 
Q 2613 4750 3031 4423 
Q 3450 4097 3450 3541 
Q 3450 3153 3228 2886 
Q 3006 2619 2597 2516 
z
" transform="scale(0.015625)"/>
       </defs>
       <use xlink:href="#DejaVuSans-33"/>
       <use xlink:href="#DejaVuSans-30" x="63.623047"/>
      </g>
     </g>
    </g>
    <g id="xtick_5">
     <g id="line2d_5">
      <g>
       <use xlink:href="#me052f538c1" x="238.214776" y="162.432" style="stroke: #000000; stroke-width: 0.8"/>
      </g>
     </g>
     <g id="text_5">
      <!-- 40 -->
      <g transform="translate(231.852276 177.030437) scale(0.1 -0.1)">
       <defs>
        <path id="DejaVuSans-34" d="M 2419 4116 
L 825 1625 
L 2419 1625 
L 2419 4116 
z
M 2253 4666 
L 3047 4666 
L 3047 1625 
L 3713 1625 
L 3713 1100 
L 3047 1100 
L 3047 0 
L 2419 0 
L 2419 1100 
L 313 1100 
L 313 1709 
L 2253 4666 
z
" transform="scale(0.015625)"/>
       </defs>
       <use xlink:href="#DejaVuSans-34"/>
       <use xlink:href="#DejaVuSans-30" x="63.623047"/>
      </g>
     </g>
    </g>
    <g id="xtick_6">
     <g id="line2d_6">
      <g>
       <use xlink:href="#me052f538c1" x="279.310288" y="162.432" style="stroke: #000000; stroke-width: 0.8"/>
      </g>
     </g>
     <g id="text_6">
      <!-- 50 -->
      <g transform="translate(272.947788 177.030437) scale(0.1 -0.1)">
       <defs>
        <path id="DejaVuSans-35" d="M 691 4666 
L 3169 4666 
L 3169 4134 
L 1269 4134 
L 1269 2991 
Q 1406 3038 1543 3061 
Q 1681 3084 1819 3084 
Q 2600 3084 3056 2656 
Q 3513 2228 3513 1497 
Q 3513 744 3044 326 
Q 2575 -91 1722 -91 
Q 1428 -91 1123 -41 
Q 819 9 494 109 
L 494 744 
Q 775 591 1075 516 
Q 1375 441 1709 441 
Q 2250 441 2565 725 
Q 2881 1009 2881 1497 
Q 2881 1984 2565 2268 
Q 2250 2553 1709 2553 
Q 1456 2553 1204 2497 
Q 953 2441 691 2322 
L 691 4666 
z
" transform="scale(0.015625)"/>
       </defs>
       <use xlink:href="#DejaVuSans-35"/>
       <use xlink:href="#DejaVuSans-30" x="63.623047"/>
      </g>
     </g>
    </g>
    <g id="xtick_7">
     <g id="line2d_7">
      <g>
       <use xlink:href="#me052f538c1" x="320.4058" y="162.432" style="stroke: #000000; stroke-width: 0.8"/>
      </g>
     </g>
     <g id="text_7">
      <!-- 60 -->
      <g transform="translate(314.0433 177.030437) scale(0.1 -0.1)">
       <defs>
        <path id="DejaVuSans-36" d="M 2113 2584 
Q 1688 2584 1439 2293 
Q 1191 2003 1191 1497 
Q 1191 994 1439 701 
Q 1688 409 2113 409 
Q 2538 409 2786 701 
Q 3034 994 3034 1497 
Q 3034 2003 2786 2293 
Q 2538 2584 2113 2584 
z
M 3366 4563 
L 3366 3988 
Q 3128 4100 2886 4159 
Q 2644 4219 2406 4219 
Q 1781 4219 1451 3797 
Q 1122 3375 1075 2522 
Q 1259 2794 1537 2939 
Q 1816 3084 2150 3084 
Q 2853 3084 3261 2657 
Q 3669 2231 3669 1497 
Q 3669 778 3244 343 
Q 2819 -91 2113 -91 
Q 1303 -91 875 529 
Q 447 1150 447 2328 
Q 447 3434 972 4092 
Q 1497 4750 2381 4750 
Q 2619 4750 2861 4703 
Q 3103 4656 3366 4563 
z
" transform="scale(0.015625)"/>
       </defs>
       <use xlink:href="#DejaVuSans-36"/>
       <use xlink:href="#DejaVuSans-30" x="63.623047"/>
      </g>
     </g>
    </g>
    <g id="xtick_8">
     <g id="line2d_8">
      <g>
       <use xlink:href="#me052f538c1" x="361.501312" y="162.432" style="stroke: #000000; stroke-width: 0.8"/>
      </g>
     </g>
     <g id="text_8">
      <!-- 70 -->
      <g transform="translate(355.138812 177.030437) scale(0.1 -0.1)">
       <defs>
        <path id="DejaVuSans-37" d="M 525 4666 
L 3525 4666 
L 3525 4397 
L 1831 0 
L 1172 0 
L 2766 4134 
L 525 4134 
L 525 4666 
z
" transform="scale(0.015625)"/>
       </defs>
       <use xlink:href="#DejaVuSans-37"/>
       <use xlink:href="#DejaVuSans-30" x="63.623047"/>
      </g>
     </g>
    </g>
    <g id="xtick_9">
     <g id="line2d_9">
      <g>
       <use xlink:href="#me052f538c1" x="402.596824" y="162.432" style="stroke: #000000; stroke-width: 0.8"/>
      </g>
     </g>
     <g id="text_9">
      <!-- 80 -->
      <g transform="translate(396.234324 177.030437) scale(0.1 -0.1)">
       <defs>
        <path id="DejaVuSans-38" d="M 2034 2216 
Q 1584 2216 1326 1975 
Q 1069 1734 1069 1313 
Q 1069 891 1326 650 
Q 1584 409 2034 409 
Q 2484 409 2743 651 
Q 3003 894 3003 1313 
Q 3003 1734 2745 1975 
Q 2488 2216 2034 2216 
z
M 1403 2484 
Q 997 2584 770 2862 
Q 544 3141 544 3541 
Q 544 4100 942 4425 
Q 1341 4750 2034 4750 
Q 2731 4750 3128 4425 
Q 3525 4100 3525 3541 
Q 3525 3141 3298 2862 
Q 3072 2584 2669 2484 
Q 3125 2378 3379 2068 
Q 3634 1759 3634 1313 
Q 3634 634 3220 271 
Q 2806 -91 2034 -91 
Q 1263 -91 848 271 
Q 434 634 434 1313 
Q 434 1759 690 2068 
Q 947 2378 1403 2484 
z
M 1172 3481 
Q 1172 3119 1398 2916 
Q 1625 2713 2034 2713 
Q 2441 2713 2670 2916 
Q 2900 3119 2900 3481 
Q 2900 3844 2670 4047 
Q 2441 4250 2034 4250 
Q 1625 4250 1398 4047 
Q 1172 3844 1172 3481 
z
" transform="scale(0.015625)"/>
       </defs>
       <use xlink:href="#DejaVuSans-38"/>
       <use xlink:href="#DejaVuSans-30" x="63.623047"/>
      </g>
     </g>
    </g>
   </g>
   <g id="matplotlib.axis_2">
    <g id="ytick_1">
     <g id="line2d_10">
      <defs>
       <path id="m1a1cc3b62c" d="M 0 0 
L -3.5 0 
" style="stroke: #000000; stroke-width: 0.8"/>
      </defs>
      <g>
       <use xlink:href="#m1a1cc3b62c" x="57.6" y="162.432" style="stroke: #000000; stroke-width: 0.8"/>
      </g>
     </g>
     <g id="text_10">
      <!-- 50% -->
      <g transform="translate(28.373438 166.231219) scale(0.1 -0.1)">
       <defs>
        <path id="DejaVuSans-25" d="M 4653 2053 
Q 4381 2053 4226 1822 
Q 4072 1591 4072 1178 
Q 4072 772 4226 539 
Q 4381 306 4653 306 
Q 4919 306 5073 539 
Q 5228 772 5228 1178 
Q 5228 1588 5073 1820 
Q 4919 2053 4653 2053 
z
M 4653 2450 
Q 5147 2450 5437 2106 
Q 5728 1763 5728 1178 
Q 5728 594 5436 251 
Q 5144 -91 4653 -91 
Q 4153 -91 3862 251 
Q 3572 594 3572 1178 
Q 3572 1766 3864 2108 
Q 4156 2450 4653 2450 
z
M 1428 4353 
Q 1159 4353 1004 4120 
Q 850 3888 850 3481 
Q 850 3069 1003 2837 
Q 1156 2606 1428 2606 
Q 1700 2606 1854 2837 
Q 2009 3069 2009 3481 
Q 2009 3884 1853 4118 
Q 1697 4353 1428 4353 
z
M 4250 4750 
L 4750 4750 
L 1831 -91 
L 1331 -91 
L 4250 4750 
z
M 1428 4750 
Q 1922 4750 2215 4408 
Q 2509 4066 2509 3481 
Q 2509 2891 2217 2550 
Q 1925 2209 1428 2209 
Q 931 2209 642 2551 
Q 353 2894 353 3481 
Q 353 4063 643 4406 
Q 934 4750 1428 4750 
z
" transform="scale(0.015625)"/>
       </defs>
       <use xlink:href="#DejaVuSans-35"/>
       <use xlink:href="#DejaVuSans-30" x="63.623047"/>
       <use xlink:href="#DejaVuSans-25" x="127.246094"/>
      </g>
     </g>
    </g>
    <g id="ytick_2">
     <g id="line2d_11">
      <g>
       <use xlink:href="#m1a1cc3b62c" x="57.6" y="138.24" style="stroke: #000000; stroke-width: 0.8"/>
      </g>
     </g>
     <g id="text_11">
      <!-- 60% -->
      <g transform="translate(28.373438 142.039219) scale(0.1 -0.1)">
       <use xlink:href="#DejaVuSans-36"/>
       <use xlink:href="#DejaVuSans-30" x="63.623047"/>
       <use xlink:href="#DejaVuSans-25" x="127.246094"/>
      </g>
     </g>
    </g>
    <g id="ytick_3">
     <g id="line2d_12">
      <g>
       <use xlink:href="#m1a1cc3b62c" x="57.6" y="114.048" style="stroke: #000000; stroke-width: 0.8"/>
      </g>
     </g>
     <g id="text_12">
      <!-- 70% -->
      <g transform="translate(28.373438 117.847219) scale(0.1 -0.1)">
       <use xlink:href="#DejaVuSans-37"/>
       <use xlink:href="#DejaVuSans-30" x="63.623047"/>
       <use xlink:href="#DejaVuSans-25" x="127.246094"/>
      </g>
     </g>
    </g>
    <g id="ytick_4">
     <g id="line2d_13">
      <g>
       <use xlink:href="#m1a1cc3b62c" x="57.6" y="89.856" style="stroke: #000000; stroke-width: 0.8"/>
      </g>
     </g>
     <g id="text_13">
      <!-- 80% -->
      <g transform="translate(28.373438 93.655219) scale(0.1 -0.1)">
       <use xlink:href="#DejaVuSans-38"/>
       <use xlink:href="#DejaVuSans-30" x="63.623047"/>
       <use xlink:href="#DejaVuSans-25" x="127.246094"/>
      </g>
     </g>
    </g>
    <g id="ytick_5">
     <g id="line2d_14">
      <g>
       <use xlink:href="#m1a1cc3b62c" x="57.6" y="65.664" style="stroke: #000000; stroke-width: 0.8"/>
      </g>
     </g>
     <g id="text_14">
      <!-- 90% -->
      <g transform="translate(28.373438 69.463219) scale(0.1 -0.1)">
       <defs>
        <path id="DejaVuSans-39" d="M 703 97 
L 703 672 
Q 941 559 1184 500 
Q 1428 441 1663 441 
Q 2288 441 2617 861 
Q 2947 1281 2994 2138 
Q 2813 1869 2534 1725 
Q 2256 1581 1919 1581 
Q 1219 1581 811 2004 
Q 403 2428 403 3163 
Q 403 3881 828 4315 
Q 1253 4750 1959 4750 
Q 2769 4750 3195 4129 
Q 3622 3509 3622 2328 
Q 3622 1225 3098 567 
Q 2575 -91 1691 -91 
Q 1453 -91 1209 -44 
Q 966 3 703 97 
z
M 1959 2075 
Q 2384 2075 2632 2365 
Q 2881 2656 2881 3163 
Q 2881 3666 2632 3958 
Q 2384 4250 1959 4250 
Q 1534 4250 1286 3958 
Q 1038 3666 1038 3163 
Q 1038 2656 1286 2365 
Q 1534 2075 1959 2075 
z
" transform="scale(0.015625)"/>
       </defs>
       <use xlink:href="#DejaVuSans-39"/>
       <use xlink:href="#DejaVuSans-30" x="63.623047"/>
       <use xlink:href="#DejaVuSans-25" x="127.246094"/>
      </g>
     </g>
    </g>
    <g id="ytick_6">
     <g id="line2d_15">
      <g>
       <use xlink:href="#m1a1cc3b62c" x="57.6" y="41.472" style="stroke: #000000; stroke-width: 0.8"/>
      </g>
     </g>
     <g id="text_15">
      <!-- 100% -->
      <g transform="translate(22.010938 45.271219) scale(0.1 -0.1)">
       <use xlink:href="#DejaVuSans-31"/>
       <use xlink:href="#DejaVuSans-30" x="63.623047"/>
       <use xlink:href="#DejaVuSans-30" x="127.246094"/>
       <use xlink:href="#DejaVuSans-25" x="190.869141"/>
      </g>
     </g>
    </g>
    <g id="text_16">
     <!-- Accuracy -->
     <g transform="translate(15.93125 124.780125) rotate(-90) scale(0.1 -0.1)">
      <defs>
       <path id="DejaVuSans-41" d="M 2188 4044 
L 1331 1722 
L 3047 1722 
L 2188 4044 
z
M 1831 4666 
L 2547 4666 
L 4325 0 
L 3669 0 
L 3244 1197 
L 1141 1197 
L 716 0 
L 50 0 
L 1831 4666 
z
" transform="scale(0.015625)"/>
       <path id="DejaVuSans-63" d="M 3122 3366 
L 3122 2828 
Q 2878 2963 2633 3030 
Q 2388 3097 2138 3097 
Q 1578 3097 1268 2742 
Q 959 2388 959 1747 
Q 959 1106 1268 751 
Q 1578 397 2138 397 
Q 2388 397 2633 464 
Q 2878 531 3122 666 
L 3122 134 
Q 2881 22 2623 -34 
Q 2366 -91 2075 -91 
Q 1284 -91 818 406 
Q 353 903 353 1747 
Q 353 2603 823 3093 
Q 1294 3584 2113 3584 
Q 2378 3584 2631 3529 
Q 2884 3475 3122 3366 
z
" transform="scale(0.015625)"/>
       <path id="DejaVuSans-75" d="M 544 1381 
L 544 3500 
L 1119 3500 
L 1119 1403 
Q 1119 906 1312 657 
Q 1506 409 1894 409 
Q 2359 409 2629 706 
Q 2900 1003 2900 1516 
L 2900 3500 
L 3475 3500 
L 3475 0 
L 2900 0 
L 2900 538 
Q 2691 219 2414 64 
Q 2138 -91 1772 -91 
Q 1169 -91 856 284 
Q 544 659 544 1381 
z
M 1991 3584 
L 1991 3584 
z
" transform="scale(0.015625)"/>
       <path id="DejaVuSans-72" d="M 2631 2963 
Q 2534 3019 2420 3045 
Q 2306 3072 2169 3072 
Q 1681 3072 1420 2755 
Q 1159 2438 1159 1844 
L 1159 0 
L 581 0 
L 581 3500 
L 1159 3500 
L 1159 2956 
Q 1341 3275 1631 3429 
Q 1922 3584 2338 3584 
Q 2397 3584 2469 3576 
Q 2541 3569 2628 3553 
L 2631 2963 
z
" transform="scale(0.015625)"/>
       <path id="DejaVuSans-61" d="M 2194 1759 
Q 1497 1759 1228 1600 
Q 959 1441 959 1056 
Q 959 750 1161 570 
Q 1363 391 1709 391 
Q 2188 391 2477 730 
Q 2766 1069 2766 1631 
L 2766 1759 
L 2194 1759 
z
M 3341 1997 
L 3341 0 
L 2766 0 
L 2766 531 
Q 2569 213 2275 61 
Q 1981 -91 1556 -91 
Q 1019 -91 701 211 
Q 384 513 384 1019 
Q 384 1609 779 1909 
Q 1175 2209 1959 2209 
L 2766 2209 
L 2766 2266 
Q 2766 2663 2505 2880 
Q 2244 3097 1772 3097 
Q 1472 3097 1187 3025 
Q 903 2953 641 2809 
L 641 3341 
Q 956 3463 1253 3523 
Q 1550 3584 1831 3584 
Q 2591 3584 2966 3190 
Q 3341 2797 3341 1997 
z
" transform="scale(0.015625)"/>
       <path id="DejaVuSans-79" d="M 2059 -325 
Q 1816 -950 1584 -1140 
Q 1353 -1331 966 -1331 
L 506 -1331 
L 506 -850 
L 844 -850 
Q 1081 -850 1212 -737 
Q 1344 -625 1503 -206 
L 1606 56 
L 191 3500 
L 800 3500 
L 1894 763 
L 2988 3500 
L 3597 3500 
L 2059 -325 
z
" transform="scale(0.015625)"/>
      </defs>
      <use xlink:href="#DejaVuSans-41"/>
      <use xlink:href="#DejaVuSans-63" x="66.658203"/>
      <use xlink:href="#DejaVuSans-63" x="121.638672"/>
      <use xlink:href="#DejaVuSans-75" x="176.619141"/>
      <use xlink:href="#DejaVuSans-72" x="239.998047"/>
      <use xlink:href="#DejaVuSans-61" x="281.111328"/>
      <use xlink:href="#DejaVuSans-63" x="342.390625"/>
      <use xlink:href="#DejaVuSans-79" x="397.371094"/>
     </g>
    </g>
   </g>
   <g id="line2d_16">
    <path d="M 73.832727 160.381828 
L 77.942278 121.428609 
L 82.05183 115.278106 
L 86.161381 111.177761 
L 90.270932 118.695051 
L 94.380483 107.077417 
L 98.490035 113.91132 
L 102.599586 109.127589 
L 106.709137 117.328264 
L 110.818688 100.926914 
L 114.928239 105.027259 
L 119.037791 96.143183 
L 123.147342 99.936002 
L 127.256893 105.710645 
L 131.366444 97.509969 
L 135.475995 101.6103 
L 139.585547 95.459797 
L 143.695098 111.177761 
L 147.804649 100.243528 
L 151.9142 113.227934 
L 156.023751 99.560142 
L 160.133303 104.343858 
L 164.242854 105.710645 
L 168.352405 104.343858 
L 172.461956 103.660472 
L 176.571507 98.876741 
L 180.681059 98.876741 
L 184.79061 100.926914 
L 188.900161 94.093011 
L 193.009712 109.127589 
L 197.119264 103.660472 
L 201.228815 96.826583 
L 205.338366 98.876741 
L 209.447917 108.444203 
L 213.557468 92.042853 
L 217.66702 97.509969 
L 221.776571 100.243528 
L 225.886122 109.810989 
L 229.995673 107.999994 
L 234.105224 96.143183 
L 238.214776 109.127589 
L 242.324327 110.494375 
L 246.433878 104.343858 
L 250.543429 109.127589 
L 254.65298 95.459797 
L 258.762532 98.876741 
L 262.872083 104.343858 
L 266.981634 105.027259 
L 271.091185 98.193355 
L 275.200736 95.459797 
L 279.310288 106.394031 
L 283.419839 88.625894 
L 287.52939 94.093011 
L 291.638941 102.977086 
L 295.748493 110.494375 
L 299.858044 90.676066 
L 303.967595 89.309294 
L 308.077146 98.193355 
L 312.186697 103.660472 
L 316.296249 102.2937 
L 320.4058 101.6103 
L 324.515351 111.177761 
L 328.624902 96.826583 
L 332.734453 100.243528 
L 336.844005 90.676066 
L 340.953556 105.710645 
L 345.063107 95.459797 
L 349.172658 90.676066 
L 353.282209 101.6103 
L 357.391761 95.459797 
L 361.501312 92.042853 
L 365.610863 83.842163 
L 369.720414 94.776411 
L 373.829965 91.359452 
L 377.939517 91.359452 
L 382.049068 102.977086 
L 386.158619 102.977086 
L 390.26817 89.309294 
L 394.377722 95.459797 
L 398.487273 96.826583 
" clip-path="url(#p8af4aa4ad1)" style="fill: none; stroke: #1f77b4; stroke-width: 1.5; stroke-linecap: square"/>
    <defs>
     <path id="m79b992ef92" d="M 0 3 
C 0.795609 3 1.55874 2.683901 2.12132 2.12132 
C 2.683901 1.55874 3 0.795609 3 0 
C 3 -0.795609 2.683901 -1.55874 2.12132 -2.12132 
C 1.55874 -2.683901 0.795609 -3 0 -3 
C -0.795609 -3 -1.55874 -2.683901 -2.12132 -2.12132 
C -2.683901 -1.55874 -3 -0.795609 -3 0 
C -3 0.795609 -2.683901 1.55874 -2.12132 2.12132 
C -1.55874 2.683901 -0.795609 3 0 3 
z
" style="stroke: #1f77b4"/>
    </defs>
    <g clip-path="url(#p8af4aa4ad1)">
     <use xlink:href="#m79b992ef92" x="73.832727" y="160.381828" style="fill: #1f77b4; stroke: #1f77b4"/>
     <use xlink:href="#m79b992ef92" x="77.942278" y="121.428609" style="fill: #1f77b4; stroke: #1f77b4"/>
     <use xlink:href="#m79b992ef92" x="82.05183" y="115.278106" style="fill: #1f77b4; stroke: #1f77b4"/>
     <use xlink:href="#m79b992ef92" x="86.161381" y="111.177761" style="fill: #1f77b4; stroke: #1f77b4"/>
     <use xlink:href="#m79b992ef92" x="90.270932" y="118.695051" style="fill: #1f77b4; stroke: #1f77b4"/>
     <use xlink:href="#m79b992ef92" x="94.380483" y="107.077417" style="fill: #1f77b4; stroke: #1f77b4"/>
     <use xlink:href="#m79b992ef92" x="98.490035" y="113.91132" style="fill: #1f77b4; stroke: #1f77b4"/>
     <use xlink:href="#m79b992ef92" x="102.599586" y="109.127589" style="fill: #1f77b4; stroke: #1f77b4"/>
     <use xlink:href="#m79b992ef92" x="106.709137" y="117.328264" style="fill: #1f77b4; stroke: #1f77b4"/>
     <use xlink:href="#m79b992ef92" x="110.818688" y="100.926914" style="fill: #1f77b4; stroke: #1f77b4"/>
     <use xlink:href="#m79b992ef92" x="114.928239" y="105.027259" style="fill: #1f77b4; stroke: #1f77b4"/>
     <use xlink:href="#m79b992ef92" x="119.037791" y="96.143183" style="fill: #1f77b4; stroke: #1f77b4"/>
     <use xlink:href="#m79b992ef92" x="123.147342" y="99.936002" style="fill: #1f77b4; stroke: #1f77b4"/>
     <use xlink:href="#m79b992ef92" x="127.256893" y="105.710645" style="fill: #1f77b4; stroke: #1f77b4"/>
     <use xlink:href="#m79b992ef92" x="131.366444" y="97.509969" style="fill: #1f77b4; stroke: #1f77b4"/>
     <use xlink:href="#m79b992ef92" x="135.475995" y="101.6103" style="fill: #1f77b4; stroke: #1f77b4"/>
     <use xlink:href="#m79b992ef92" x="139.585547" y="95.459797" style="fill: #1f77b4; stroke: #1f77b4"/>
     <use xlink:href="#m79b992ef92" x="143.695098" y="111.177761" style="fill: #1f77b4; stroke: #1f77b4"/>
     <use xlink:href="#m79b992ef92" x="147.804649" y="100.243528" style="fill: #1f77b4; stroke: #1f77b4"/>
     <use xlink:href="#m79b992ef92" x="151.9142" y="113.227934" style="fill: #1f77b4; stroke: #1f77b4"/>
     <use xlink:href="#m79b992ef92" x="156.023751" y="99.560142" style="fill: #1f77b4; stroke: #1f77b4"/>
     <use xlink:href="#m79b992ef92" x="160.133303" y="104.343858" style="fill: #1f77b4; stroke: #1f77b4"/>
     <use xlink:href="#m79b992ef92" x="164.242854" y="105.710645" style="fill: #1f77b4; stroke: #1f77b4"/>
     <use xlink:href="#m79b992ef92" x="168.352405" y="104.343858" style="fill: #1f77b4; stroke: #1f77b4"/>
     <use xlink:href="#m79b992ef92" x="172.461956" y="103.660472" style="fill: #1f77b4; stroke: #1f77b4"/>
     <use xlink:href="#m79b992ef92" x="176.571507" y="98.876741" style="fill: #1f77b4; stroke: #1f77b4"/>
     <use xlink:href="#m79b992ef92" x="180.681059" y="98.876741" style="fill: #1f77b4; stroke: #1f77b4"/>
     <use xlink:href="#m79b992ef92" x="184.79061" y="100.926914" style="fill: #1f77b4; stroke: #1f77b4"/>
     <use xlink:href="#m79b992ef92" x="188.900161" y="94.093011" style="fill: #1f77b4; stroke: #1f77b4"/>
     <use xlink:href="#m79b992ef92" x="193.009712" y="109.127589" style="fill: #1f77b4; stroke: #1f77b4"/>
     <use xlink:href="#m79b992ef92" x="197.119264" y="103.660472" style="fill: #1f77b4; stroke: #1f77b4"/>
     <use xlink:href="#m79b992ef92" x="201.228815" y="96.826583" style="fill: #1f77b4; stroke: #1f77b4"/>
     <use xlink:href="#m79b992ef92" x="205.338366" y="98.876741" style="fill: #1f77b4; stroke: #1f77b4"/>
     <use xlink:href="#m79b992ef92" x="209.447917" y="108.444203" style="fill: #1f77b4; stroke: #1f77b4"/>
     <use xlink:href="#m79b992ef92" x="213.557468" y="92.042853" style="fill: #1f77b4; stroke: #1f77b4"/>
     <use xlink:href="#m79b992ef92" x="217.66702" y="97.509969" style="fill: #1f77b4; stroke: #1f77b4"/>
     <use xlink:href="#m79b992ef92" x="221.776571" y="100.243528" style="fill: #1f77b4; stroke: #1f77b4"/>
     <use xlink:href="#m79b992ef92" x="225.886122" y="109.810989" style="fill: #1f77b4; stroke: #1f77b4"/>
     <use xlink:href="#m79b992ef92" x="229.995673" y="107.999994" style="fill: #1f77b4; stroke: #1f77b4"/>
     <use xlink:href="#m79b992ef92" x="234.105224" y="96.143183" style="fill: #1f77b4; stroke: #1f77b4"/>
     <use xlink:href="#m79b992ef92" x="238.214776" y="109.127589" style="fill: #1f77b4; stroke: #1f77b4"/>
     <use xlink:href="#m79b992ef92" x="242.324327" y="110.494375" style="fill: #1f77b4; stroke: #1f77b4"/>
     <use xlink:href="#m79b992ef92" x="246.433878" y="104.343858" style="fill: #1f77b4; stroke: #1f77b4"/>
     <use xlink:href="#m79b992ef92" x="250.543429" y="109.127589" style="fill: #1f77b4; stroke: #1f77b4"/>
     <use xlink:href="#m79b992ef92" x="254.65298" y="95.459797" style="fill: #1f77b4; stroke: #1f77b4"/>
     <use xlink:href="#m79b992ef92" x="258.762532" y="98.876741" style="fill: #1f77b4; stroke: #1f77b4"/>
     <use xlink:href="#m79b992ef92" x="262.872083" y="104.343858" style="fill: #1f77b4; stroke: #1f77b4"/>
     <use xlink:href="#m79b992ef92" x="266.981634" y="105.027259" style="fill: #1f77b4; stroke: #1f77b4"/>
     <use xlink:href="#m79b992ef92" x="271.091185" y="98.193355" style="fill: #1f77b4; stroke: #1f77b4"/>
     <use xlink:href="#m79b992ef92" x="275.200736" y="95.459797" style="fill: #1f77b4; stroke: #1f77b4"/>
     <use xlink:href="#m79b992ef92" x="279.310288" y="106.394031" style="fill: #1f77b4; stroke: #1f77b4"/>
     <use xlink:href="#m79b992ef92" x="283.419839" y="88.625894" style="fill: #1f77b4; stroke: #1f77b4"/>
     <use xlink:href="#m79b992ef92" x="287.52939" y="94.093011" style="fill: #1f77b4; stroke: #1f77b4"/>
     <use xlink:href="#m79b992ef92" x="291.638941" y="102.977086" style="fill: #1f77b4; stroke: #1f77b4"/>
     <use xlink:href="#m79b992ef92" x="295.748493" y="110.494375" style="fill: #1f77b4; stroke: #1f77b4"/>
     <use xlink:href="#m79b992ef92" x="299.858044" y="90.676066" style="fill: #1f77b4; stroke: #1f77b4"/>
     <use xlink:href="#m79b992ef92" x="303.967595" y="89.309294" style="fill: #1f77b4; stroke: #1f77b4"/>
     <use xlink:href="#m79b992ef92" x="308.077146" y="98.193355" style="fill: #1f77b4; stroke: #1f77b4"/>
     <use xlink:href="#m79b992ef92" x="312.186697" y="103.660472" style="fill: #1f77b4; stroke: #1f77b4"/>
     <use xlink:href="#m79b992ef92" x="316.296249" y="102.2937" style="fill: #1f77b4; stroke: #1f77b4"/>
     <use xlink:href="#m79b992ef92" x="320.4058" y="101.6103" style="fill: #1f77b4; stroke: #1f77b4"/>
     <use xlink:href="#m79b992ef92" x="324.515351" y="111.177761" style="fill: #1f77b4; stroke: #1f77b4"/>
     <use xlink:href="#m79b992ef92" x="328.624902" y="96.826583" style="fill: #1f77b4; stroke: #1f77b4"/>
     <use xlink:href="#m79b992ef92" x="332.734453" y="100.243528" style="fill: #1f77b4; stroke: #1f77b4"/>
     <use xlink:href="#m79b992ef92" x="336.844005" y="90.676066" style="fill: #1f77b4; stroke: #1f77b4"/>
     <use xlink:href="#m79b992ef92" x="340.953556" y="105.710645" style="fill: #1f77b4; stroke: #1f77b4"/>
     <use xlink:href="#m79b992ef92" x="345.063107" y="95.459797" style="fill: #1f77b4; stroke: #1f77b4"/>
     <use xlink:href="#m79b992ef92" x="349.172658" y="90.676066" style="fill: #1f77b4; stroke: #1f77b4"/>
     <use xlink:href="#m79b992ef92" x="353.282209" y="101.6103" style="fill: #1f77b4; stroke: #1f77b4"/>
     <use xlink:href="#m79b992ef92" x="357.391761" y="95.459797" style="fill: #1f77b4; stroke: #1f77b4"/>
     <use xlink:href="#m79b992ef92" x="361.501312" y="92.042853" style="fill: #1f77b4; stroke: #1f77b4"/>
     <use xlink:href="#m79b992ef92" x="365.610863" y="83.842163" style="fill: #1f77b4; stroke: #1f77b4"/>
     <use xlink:href="#m79b992ef92" x="369.720414" y="94.776411" style="fill: #1f77b4; stroke: #1f77b4"/>
     <use xlink:href="#m79b992ef92" x="373.829965" y="91.359452" style="fill: #1f77b4; stroke: #1f77b4"/>
     <use xlink:href="#m79b992ef92" x="377.939517" y="91.359452" style="fill: #1f77b4; stroke: #1f77b4"/>
     <use xlink:href="#m79b992ef92" x="382.049068" y="102.977086" style="fill: #1f77b4; stroke: #1f77b4"/>
     <use xlink:href="#m79b992ef92" x="386.158619" y="102.977086" style="fill: #1f77b4; stroke: #1f77b4"/>
     <use xlink:href="#m79b992ef92" x="390.26817" y="89.309294" style="fill: #1f77b4; stroke: #1f77b4"/>
     <use xlink:href="#m79b992ef92" x="394.377722" y="95.459797" style="fill: #1f77b4; stroke: #1f77b4"/>
     <use xlink:href="#m79b992ef92" x="398.487273" y="96.826583" style="fill: #1f77b4; stroke: #1f77b4"/>
    </g>
   </g>
   <g id="line2d_17">
    <path d="M 73.832727 138.672004 
L 77.942278 160.271994 
L 82.05183 149.472006 
L 86.161381 147.312 
L 90.270932 158.112002 
L 94.380483 153.792004 
L 98.490035 142.992002 
L 102.599586 173.232002 
L 106.709137 164.591999 
L 110.818688 145.151994 
L 114.928239 136.511998 
L 119.037791 127.872002 
L 123.147342 136.511998 
L 127.256893 151.631998 
L 131.366444 151.631998 
L 135.475995 138.672004 
L 139.585547 127.872002 
L 143.695098 151.631998 
L 147.804649 125.711996 
L 151.9142 138.672004 
L 156.023751 119.232006 
L 160.133303 140.831996 
L 164.242854 140.831996 
L 168.352405 142.992002 
L 172.461956 132.192 
L 176.571507 117.072 
L 180.681059 130.031994 
L 184.79061 130.031994 
L 188.900161 145.151994 
L 193.009712 151.631998 
L 197.119264 151.631998 
L 201.228815 127.872002 
L 205.338366 153.792004 
L 209.447917 138.672004 
L 213.557468 134.352006 
L 217.66702 140.831996 
L 221.776571 130.031994 
L 225.886122 142.992002 
L 229.995673 132.192 
L 234.105224 142.992002 
L 238.214776 151.631998 
L 242.324327 134.352006 
L 246.433878 188.352002 
L 250.543429 138.672004 
L 254.65298 130.031994 
L 258.762532 145.151994 
L 262.872083 151.631998 
L 266.981634 145.151994 
L 271.091185 127.872002 
L 275.200736 147.312 
L 279.310288 147.312 
L 283.419839 119.232006 
L 287.52939 136.511998 
L 291.638941 145.151994 
L 295.748493 149.472006 
L 299.858044 117.072 
L 303.967595 140.831996 
L 308.077146 140.831996 
L 312.186697 130.031994 
L 316.296249 140.831996 
L 320.4058 147.312 
L 324.515351 155.951996 
L 328.624902 138.672004 
L 332.734453 136.511998 
L 336.844005 132.192 
L 340.953556 132.192 
L 345.063107 138.672004 
L 349.172658 123.552004 
L 353.282209 136.511998 
L 357.391761 127.872002 
L 361.501312 138.672004 
L 365.610863 119.232006 
L 369.720414 134.352006 
L 373.829965 127.872002 
L 377.939517 127.872002 
L 382.049068 127.872002 
L 386.158619 149.472006 
L 390.26817 119.232006 
L 394.377722 136.511998 
L 398.487273 119.232006 
" clip-path="url(#p8af4aa4ad1)" style="fill: none; stroke: #ff7f0e; stroke-width: 1.5; stroke-linecap: square"/>
    <defs>
     <path id="m67f3cdb6ba" d="M 0 3 
C 0.795609 3 1.55874 2.683901 2.12132 2.12132 
C 2.683901 1.55874 3 0.795609 3 0 
C 3 -0.795609 2.683901 -1.55874 2.12132 -2.12132 
C 1.55874 -2.683901 0.795609 -3 0 -3 
C -0.795609 -3 -1.55874 -2.683901 -2.12132 -2.12132 
C -2.683901 -1.55874 -3 -0.795609 -3 0 
C -3 0.795609 -2.683901 1.55874 -2.12132 2.12132 
C -1.55874 2.683901 -0.795609 3 0 3 
z
" style="stroke: #ff7f0e"/>
    </defs>
    <g clip-path="url(#p8af4aa4ad1)">
     <use xlink:href="#m67f3cdb6ba" x="73.832727" y="138.672004" style="fill: #ff7f0e; stroke: #ff7f0e"/>
     <use xlink:href="#m67f3cdb6ba" x="77.942278" y="160.271994" style="fill: #ff7f0e; stroke: #ff7f0e"/>
     <use xlink:href="#m67f3cdb6ba" x="82.05183" y="149.472006" style="fill: #ff7f0e; stroke: #ff7f0e"/>
     <use xlink:href="#m67f3cdb6ba" x="86.161381" y="147.312" style="fill: #ff7f0e; stroke: #ff7f0e"/>
     <use xlink:href="#m67f3cdb6ba" x="90.270932" y="158.112002" style="fill: #ff7f0e; stroke: #ff7f0e"/>
     <use xlink:href="#m67f3cdb6ba" x="94.380483" y="153.792004" style="fill: #ff7f0e; stroke: #ff7f0e"/>
     <use xlink:href="#m67f3cdb6ba" x="98.490035" y="142.992002" style="fill: #ff7f0e; stroke: #ff7f0e"/>
     <use xlink:href="#m67f3cdb6ba" x="102.599586" y="173.232002" style="fill: #ff7f0e; stroke: #ff7f0e"/>
     <use xlink:href="#m67f3cdb6ba" x="106.709137" y="164.591999" style="fill: #ff7f0e; stroke: #ff7f0e"/>
     <use xlink:href="#m67f3cdb6ba" x="110.818688" y="145.151994" style="fill: #ff7f0e; stroke: #ff7f0e"/>
     <use xlink:href="#m67f3cdb6ba" x="114.928239" y="136.511998" style="fill: #ff7f0e; stroke: #ff7f0e"/>
     <use xlink:href="#m67f3cdb6ba" x="119.037791" y="127.872002" style="fill: #ff7f0e; stroke: #ff7f0e"/>
     <use xlink:href="#m67f3cdb6ba" x="123.147342" y="136.511998" style="fill: #ff7f0e; stroke: #ff7f0e"/>
     <use xlink:href="#m67f3cdb6ba" x="127.256893" y="151.631998" style="fill: #ff7f0e; stroke: #ff7f0e"/>
     <use xlink:href="#m67f3cdb6ba" x="131.366444" y="151.631998" style="fill: #ff7f0e; stroke: #ff7f0e"/>
     <use xlink:href="#m67f3cdb6ba" x="135.475995" y="138.672004" style="fill: #ff7f0e; stroke: #ff7f0e"/>
     <use xlink:href="#m67f3cdb6ba" x="139.585547" y="127.872002" style="fill: #ff7f0e; stroke: #ff7f0e"/>
     <use xlink:href="#m67f3cdb6ba" x="143.695098" y="151.631998" style="fill: #ff7f0e; stroke: #ff7f0e"/>
     <use xlink:href="#m67f3cdb6ba" x="147.804649" y="125.711996" style="fill: #ff7f0e; stroke: #ff7f0e"/>
     <use xlink:href="#m67f3cdb6ba" x="151.9142" y="138.672004" style="fill: #ff7f0e; stroke: #ff7f0e"/>
     <use xlink:href="#m67f3cdb6ba" x="156.023751" y="119.232006" style="fill: #ff7f0e; stroke: #ff7f0e"/>
     <use xlink:href="#m67f3cdb6ba" x="160.133303" y="140.831996" style="fill: #ff7f0e; stroke: #ff7f0e"/>
     <use xlink:href="#m67f3cdb6ba" x="164.242854" y="140.831996" style="fill: #ff7f0e; stroke: #ff7f0e"/>
     <use xlink:href="#m67f3cdb6ba" x="168.352405" y="142.992002" style="fill: #ff7f0e; stroke: #ff7f0e"/>
     <use xlink:href="#m67f3cdb6ba" x="172.461956" y="132.192" style="fill: #ff7f0e; stroke: #ff7f0e"/>
     <use xlink:href="#m67f3cdb6ba" x="176.571507" y="117.072" style="fill: #ff7f0e; stroke: #ff7f0e"/>
     <use xlink:href="#m67f3cdb6ba" x="180.681059" y="130.031994" style="fill: #ff7f0e; stroke: #ff7f0e"/>
     <use xlink:href="#m67f3cdb6ba" x="184.79061" y="130.031994" style="fill: #ff7f0e; stroke: #ff7f0e"/>
     <use xlink:href="#m67f3cdb6ba" x="188.900161" y="145.151994" style="fill: #ff7f0e; stroke: #ff7f0e"/>
     <use xlink:href="#m67f3cdb6ba" x="193.009712" y="151.631998" style="fill: #ff7f0e; stroke: #ff7f0e"/>
     <use xlink:href="#m67f3cdb6ba" x="197.119264" y="151.631998" style="fill: #ff7f0e; stroke: #ff7f0e"/>
     <use xlink:href="#m67f3cdb6ba" x="201.228815" y="127.872002" style="fill: #ff7f0e; stroke: #ff7f0e"/>
     <use xlink:href="#m67f3cdb6ba" x="205.338366" y="153.792004" style="fill: #ff7f0e; stroke: #ff7f0e"/>
     <use xlink:href="#m67f3cdb6ba" x="209.447917" y="138.672004" style="fill: #ff7f0e; stroke: #ff7f0e"/>
     <use xlink:href="#m67f3cdb6ba" x="213.557468" y="134.352006" style="fill: #ff7f0e; stroke: #ff7f0e"/>
     <use xlink:href="#m67f3cdb6ba" x="217.66702" y="140.831996" style="fill: #ff7f0e; stroke: #ff7f0e"/>
     <use xlink:href="#m67f3cdb6ba" x="221.776571" y="130.031994" style="fill: #ff7f0e; stroke: #ff7f0e"/>
     <use xlink:href="#m67f3cdb6ba" x="225.886122" y="142.992002" style="fill: #ff7f0e; stroke: #ff7f0e"/>
     <use xlink:href="#m67f3cdb6ba" x="229.995673" y="132.192" style="fill: #ff7f0e; stroke: #ff7f0e"/>
     <use xlink:href="#m67f3cdb6ba" x="234.105224" y="142.992002" style="fill: #ff7f0e; stroke: #ff7f0e"/>
     <use xlink:href="#m67f3cdb6ba" x="238.214776" y="151.631998" style="fill: #ff7f0e; stroke: #ff7f0e"/>
     <use xlink:href="#m67f3cdb6ba" x="242.324327" y="134.352006" style="fill: #ff7f0e; stroke: #ff7f0e"/>
     <use xlink:href="#m67f3cdb6ba" x="246.433878" y="188.352002" style="fill: #ff7f0e; stroke: #ff7f0e"/>
     <use xlink:href="#m67f3cdb6ba" x="250.543429" y="138.672004" style="fill: #ff7f0e; stroke: #ff7f0e"/>
     <use xlink:href="#m67f3cdb6ba" x="254.65298" y="130.031994" style="fill: #ff7f0e; stroke: #ff7f0e"/>
     <use xlink:href="#m67f3cdb6ba" x="258.762532" y="145.151994" style="fill: #ff7f0e; stroke: #ff7f0e"/>
     <use xlink:href="#m67f3cdb6ba" x="262.872083" y="151.631998" style="fill: #ff7f0e; stroke: #ff7f0e"/>
     <use xlink:href="#m67f3cdb6ba" x="266.981634" y="145.151994" style="fill: #ff7f0e; stroke: #ff7f0e"/>
     <use xlink:href="#m67f3cdb6ba" x="271.091185" y="127.872002" style="fill: #ff7f0e; stroke: #ff7f0e"/>
     <use xlink:href="#m67f3cdb6ba" x="275.200736" y="147.312" style="fill: #ff7f0e; stroke: #ff7f0e"/>
     <use xlink:href="#m67f3cdb6ba" x="279.310288" y="147.312" style="fill: #ff7f0e; stroke: #ff7f0e"/>
     <use xlink:href="#m67f3cdb6ba" x="283.419839" y="119.232006" style="fill: #ff7f0e; stroke: #ff7f0e"/>
     <use xlink:href="#m67f3cdb6ba" x="287.52939" y="136.511998" style="fill: #ff7f0e; stroke: #ff7f0e"/>
     <use xlink:href="#m67f3cdb6ba" x="291.638941" y="145.151994" style="fill: #ff7f0e; stroke: #ff7f0e"/>
     <use xlink:href="#m67f3cdb6ba" x="295.748493" y="149.472006" style="fill: #ff7f0e; stroke: #ff7f0e"/>
     <use xlink:href="#m67f3cdb6ba" x="299.858044" y="117.072" style="fill: #ff7f0e; stroke: #ff7f0e"/>
     <use xlink:href="#m67f3cdb6ba" x="303.967595" y="140.831996" style="fill: #ff7f0e; stroke: #ff7f0e"/>
     <use xlink:href="#m67f3cdb6ba" x="308.077146" y="140.831996" style="fill: #ff7f0e; stroke: #ff7f0e"/>
     <use xlink:href="#m67f3cdb6ba" x="312.186697" y="130.031994" style="fill: #ff7f0e; stroke: #ff7f0e"/>
     <use xlink:href="#m67f3cdb6ba" x="316.296249" y="140.831996" style="fill: #ff7f0e; stroke: #ff7f0e"/>
     <use xlink:href="#m67f3cdb6ba" x="320.4058" y="147.312" style="fill: #ff7f0e; stroke: #ff7f0e"/>
     <use xlink:href="#m67f3cdb6ba" x="324.515351" y="155.951996" style="fill: #ff7f0e; stroke: #ff7f0e"/>
     <use xlink:href="#m67f3cdb6ba" x="328.624902" y="138.672004" style="fill: #ff7f0e; stroke: #ff7f0e"/>
     <use xlink:href="#m67f3cdb6ba" x="332.734453" y="136.511998" style="fill: #ff7f0e; stroke: #ff7f0e"/>
     <use xlink:href="#m67f3cdb6ba" x="336.844005" y="132.192" style="fill: #ff7f0e; stroke: #ff7f0e"/>
     <use xlink:href="#m67f3cdb6ba" x="340.953556" y="132.192" style="fill: #ff7f0e; stroke: #ff7f0e"/>
     <use xlink:href="#m67f3cdb6ba" x="345.063107" y="138.672004" style="fill: #ff7f0e; stroke: #ff7f0e"/>
     <use xlink:href="#m67f3cdb6ba" x="349.172658" y="123.552004" style="fill: #ff7f0e; stroke: #ff7f0e"/>
     <use xlink:href="#m67f3cdb6ba" x="353.282209" y="136.511998" style="fill: #ff7f0e; stroke: #ff7f0e"/>
     <use xlink:href="#m67f3cdb6ba" x="357.391761" y="127.872002" style="fill: #ff7f0e; stroke: #ff7f0e"/>
     <use xlink:href="#m67f3cdb6ba" x="361.501312" y="138.672004" style="fill: #ff7f0e; stroke: #ff7f0e"/>
     <use xlink:href="#m67f3cdb6ba" x="365.610863" y="119.232006" style="fill: #ff7f0e; stroke: #ff7f0e"/>
     <use xlink:href="#m67f3cdb6ba" x="369.720414" y="134.352006" style="fill: #ff7f0e; stroke: #ff7f0e"/>
     <use xlink:href="#m67f3cdb6ba" x="373.829965" y="127.872002" style="fill: #ff7f0e; stroke: #ff7f0e"/>
     <use xlink:href="#m67f3cdb6ba" x="377.939517" y="127.872002" style="fill: #ff7f0e; stroke: #ff7f0e"/>
     <use xlink:href="#m67f3cdb6ba" x="382.049068" y="127.872002" style="fill: #ff7f0e; stroke: #ff7f0e"/>
     <use xlink:href="#m67f3cdb6ba" x="386.158619" y="149.472006" style="fill: #ff7f0e; stroke: #ff7f0e"/>
     <use xlink:href="#m67f3cdb6ba" x="390.26817" y="119.232006" style="fill: #ff7f0e; stroke: #ff7f0e"/>
     <use xlink:href="#m67f3cdb6ba" x="394.377722" y="136.511998" style="fill: #ff7f0e; stroke: #ff7f0e"/>
     <use xlink:href="#m67f3cdb6ba" x="398.487273" y="119.232006" style="fill: #ff7f0e; stroke: #ff7f0e"/>
    </g>
   </g>
   <g id="patch_3">
    <path d="M 57.6 162.432 
L 57.6 41.472 
" style="fill: none; stroke: #000000; stroke-width: 0.8; stroke-linejoin: miter; stroke-linecap: square"/>
   </g>
   <g id="patch_4">
    <path d="M 414.72 162.432 
L 414.72 41.472 
" style="fill: none; stroke: #000000; stroke-width: 0.8; stroke-linejoin: miter; stroke-linecap: square"/>
   </g>
   <g id="patch_5">
    <path d="M 57.6 162.432 
L 414.72 162.432 
" style="fill: none; stroke: #000000; stroke-width: 0.8; stroke-linejoin: miter; stroke-linecap: square"/>
   </g>
   <g id="patch_6">
    <path d="M 57.6 41.472 
L 414.72 41.472 
" style="fill: none; stroke: #000000; stroke-width: 0.8; stroke-linejoin: miter; stroke-linecap: square"/>
   </g>
   <g id="legend_1">
    <g id="patch_7">
     <path d="M 278.18875 78.82825 
L 407.72 78.82825 
Q 409.72 78.82825 409.72 76.82825 
L 409.72 48.472 
Q 409.72 46.472 407.72 46.472 
L 278.18875 46.472 
Q 276.18875 46.472 276.18875 48.472 
L 276.18875 76.82825 
Q 276.18875 78.82825 278.18875 78.82825 
z
" style="fill: #ffffff; opacity: 0.8; stroke: #cccccc; stroke-linejoin: miter"/>
    </g>
    <g id="line2d_18">
     <path d="M 280.18875 54.570437 
L 290.18875 54.570437 
L 300.18875 54.570437 
" style="fill: none; stroke: #1f77b4; stroke-width: 1.5; stroke-linecap: square"/>
     <g>
      <use xlink:href="#m79b992ef92" x="290.18875" y="54.570437" style="fill: #1f77b4; stroke: #1f77b4"/>
     </g>
    </g>
    <g id="text_17">
     <!-- training accuracy -->
     <g transform="translate(308.18875 58.070437) scale(0.1 -0.1)">
      <defs>
       <path id="DejaVuSans-74" d="M 1172 4494 
L 1172 3500 
L 2356 3500 
L 2356 3053 
L 1172 3053 
L 1172 1153 
Q 1172 725 1289 603 
Q 1406 481 1766 481 
L 2356 481 
L 2356 0 
L 1766 0 
Q 1100 0 847 248 
Q 594 497 594 1153 
L 594 3053 
L 172 3053 
L 172 3500 
L 594 3500 
L 594 4494 
L 1172 4494 
z
" transform="scale(0.015625)"/>
       <path id="DejaVuSans-69" d="M 603 3500 
L 1178 3500 
L 1178 0 
L 603 0 
L 603 3500 
z
M 603 4863 
L 1178 4863 
L 1178 4134 
L 603 4134 
L 603 4863 
z
" transform="scale(0.015625)"/>
       <path id="DejaVuSans-6e" d="M 3513 2113 
L 3513 0 
L 2938 0 
L 2938 2094 
Q 2938 2591 2744 2837 
Q 2550 3084 2163 3084 
Q 1697 3084 1428 2787 
Q 1159 2491 1159 1978 
L 1159 0 
L 581 0 
L 581 3500 
L 1159 3500 
L 1159 2956 
Q 1366 3272 1645 3428 
Q 1925 3584 2291 3584 
Q 2894 3584 3203 3211 
Q 3513 2838 3513 2113 
z
" transform="scale(0.015625)"/>
       <path id="DejaVuSans-67" d="M 2906 1791 
Q 2906 2416 2648 2759 
Q 2391 3103 1925 3103 
Q 1463 3103 1205 2759 
Q 947 2416 947 1791 
Q 947 1169 1205 825 
Q 1463 481 1925 481 
Q 2391 481 2648 825 
Q 2906 1169 2906 1791 
z
M 3481 434 
Q 3481 -459 3084 -895 
Q 2688 -1331 1869 -1331 
Q 1566 -1331 1297 -1286 
Q 1028 -1241 775 -1147 
L 775 -588 
Q 1028 -725 1275 -790 
Q 1522 -856 1778 -856 
Q 2344 -856 2625 -561 
Q 2906 -266 2906 331 
L 2906 616 
Q 2728 306 2450 153 
Q 2172 0 1784 0 
Q 1141 0 747 490 
Q 353 981 353 1791 
Q 353 2603 747 3093 
Q 1141 3584 1784 3584 
Q 2172 3584 2450 3431 
Q 2728 3278 2906 2969 
L 2906 3500 
L 3481 3500 
L 3481 434 
z
" transform="scale(0.015625)"/>
       <path id="DejaVuSans-20" transform="scale(0.015625)"/>
      </defs>
      <use xlink:href="#DejaVuSans-74"/>
      <use xlink:href="#DejaVuSans-72" x="39.208984"/>
      <use xlink:href="#DejaVuSans-61" x="80.322266"/>
      <use xlink:href="#DejaVuSans-69" x="141.601562"/>
      <use xlink:href="#DejaVuSans-6e" x="169.384766"/>
      <use xlink:href="#DejaVuSans-69" x="232.763672"/>
      <use xlink:href="#DejaVuSans-6e" x="260.546875"/>
      <use xlink:href="#DejaVuSans-67" x="323.925781"/>
      <use xlink:href="#DejaVuSans-20" x="387.402344"/>
      <use xlink:href="#DejaVuSans-61" x="419.189453"/>
      <use xlink:href="#DejaVuSans-63" x="480.46875"/>
      <use xlink:href="#DejaVuSans-63" x="535.449219"/>
      <use xlink:href="#DejaVuSans-75" x="590.429688"/>
      <use xlink:href="#DejaVuSans-72" x="653.808594"/>
      <use xlink:href="#DejaVuSans-61" x="694.921875"/>
      <use xlink:href="#DejaVuSans-63" x="756.201172"/>
      <use xlink:href="#DejaVuSans-79" x="811.181641"/>
     </g>
    </g>
    <g id="line2d_19">
     <path d="M 280.18875 69.248562 
L 290.18875 69.248562 
L 300.18875 69.248562 
" style="fill: none; stroke: #ff7f0e; stroke-width: 1.5; stroke-linecap: square"/>
     <g>
      <use xlink:href="#m67f3cdb6ba" x="290.18875" y="69.248562" style="fill: #ff7f0e; stroke: #ff7f0e"/>
     </g>
    </g>
    <g id="text_18">
     <!-- validation accuracy -->
     <g transform="translate(308.18875 72.748562) scale(0.1 -0.1)">
      <defs>
       <path id="DejaVuSans-76" d="M 191 3500 
L 800 3500 
L 1894 563 
L 2988 3500 
L 3597 3500 
L 2284 0 
L 1503 0 
L 191 3500 
z
" transform="scale(0.015625)"/>
       <path id="DejaVuSans-6c" d="M 603 4863 
L 1178 4863 
L 1178 0 
L 603 0 
L 603 4863 
z
" transform="scale(0.015625)"/>
       <path id="DejaVuSans-64" d="M 2906 2969 
L 2906 4863 
L 3481 4863 
L 3481 0 
L 2906 0 
L 2906 525 
Q 2725 213 2448 61 
Q 2172 -91 1784 -91 
Q 1150 -91 751 415 
Q 353 922 353 1747 
Q 353 2572 751 3078 
Q 1150 3584 1784 3584 
Q 2172 3584 2448 3432 
Q 2725 3281 2906 2969 
z
M 947 1747 
Q 947 1113 1208 752 
Q 1469 391 1925 391 
Q 2381 391 2643 752 
Q 2906 1113 2906 1747 
Q 2906 2381 2643 2742 
Q 2381 3103 1925 3103 
Q 1469 3103 1208 2742 
Q 947 2381 947 1747 
z
" transform="scale(0.015625)"/>
       <path id="DejaVuSans-6f" d="M 1959 3097 
Q 1497 3097 1228 2736 
Q 959 2375 959 1747 
Q 959 1119 1226 758 
Q 1494 397 1959 397 
Q 2419 397 2687 759 
Q 2956 1122 2956 1747 
Q 2956 2369 2687 2733 
Q 2419 3097 1959 3097 
z
M 1959 3584 
Q 2709 3584 3137 3096 
Q 3566 2609 3566 1747 
Q 3566 888 3137 398 
Q 2709 -91 1959 -91 
Q 1206 -91 779 398 
Q 353 888 353 1747 
Q 353 2609 779 3096 
Q 1206 3584 1959 3584 
z
" transform="scale(0.015625)"/>
      </defs>
      <use xlink:href="#DejaVuSans-76"/>
      <use xlink:href="#DejaVuSans-61" x="59.179688"/>
      <use xlink:href="#DejaVuSans-6c" x="120.458984"/>
      <use xlink:href="#DejaVuSans-69" x="148.242188"/>
      <use xlink:href="#DejaVuSans-64" x="176.025391"/>
      <use xlink:href="#DejaVuSans-61" x="239.501953"/>
      <use xlink:href="#DejaVuSans-74" x="300.78125"/>
      <use xlink:href="#DejaVuSans-69" x="339.990234"/>
      <use xlink:href="#DejaVuSans-6f" x="367.773438"/>
      <use xlink:href="#DejaVuSans-6e" x="428.955078"/>
      <use xlink:href="#DejaVuSans-20" x="492.333984"/>
      <use xlink:href="#DejaVuSans-61" x="524.121094"/>
      <use xlink:href="#DejaVuSans-63" x="585.400391"/>
      <use xlink:href="#DejaVuSans-63" x="640.380859"/>
      <use xlink:href="#DejaVuSans-75" x="695.361328"/>
      <use xlink:href="#DejaVuSans-72" x="758.740234"/>
      <use xlink:href="#DejaVuSans-61" x="799.853516"/>
      <use xlink:href="#DejaVuSans-63" x="861.132812"/>
      <use xlink:href="#DejaVuSans-79" x="916.113281"/>
     </g>
    </g>
   </g>
  </g>
  <g id="axes_2">
   <g id="patch_8">
    <path d="M 57.6 307.584 
L 414.72 307.584 
L 414.72 186.624 
L 57.6 186.624 
z
" style="fill: #ffffff"/>
   </g>
   <g id="matplotlib.axis_3">
    <g id="xtick_10">
     <g id="line2d_20">
      <g>
       <use xlink:href="#me052f538c1" x="73.832727" y="307.584" style="stroke: #000000; stroke-width: 0.8"/>
      </g>
     </g>
     <g id="text_19">
      <!-- 0 -->
      <g transform="translate(70.651477 322.182437) scale(0.1 -0.1)">
       <use xlink:href="#DejaVuSans-30"/>
      </g>
     </g>
    </g>
    <g id="xtick_11">
     <g id="line2d_21">
      <g>
       <use xlink:href="#me052f538c1" x="114.928239" y="307.584" style="stroke: #000000; stroke-width: 0.8"/>
      </g>
     </g>
     <g id="text_20">
      <!-- 10 -->
      <g transform="translate(108.565739 322.182437) scale(0.1 -0.1)">
       <use xlink:href="#DejaVuSans-31"/>
       <use xlink:href="#DejaVuSans-30" x="63.623047"/>
      </g>
     </g>
    </g>
    <g id="xtick_12">
     <g id="line2d_22">
      <g>
       <use xlink:href="#me052f538c1" x="156.023751" y="307.584" style="stroke: #000000; stroke-width: 0.8"/>
      </g>
     </g>
     <g id="text_21">
      <!-- 20 -->
      <g transform="translate(149.661251 322.182437) scale(0.1 -0.1)">
       <use xlink:href="#DejaVuSans-32"/>
       <use xlink:href="#DejaVuSans-30" x="63.623047"/>
      </g>
     </g>
    </g>
    <g id="xtick_13">
     <g id="line2d_23">
      <g>
       <use xlink:href="#me052f538c1" x="197.119264" y="307.584" style="stroke: #000000; stroke-width: 0.8"/>
      </g>
     </g>
     <g id="text_22">
      <!-- 30 -->
      <g transform="translate(190.756764 322.182437) scale(0.1 -0.1)">
       <use xlink:href="#DejaVuSans-33"/>
       <use xlink:href="#DejaVuSans-30" x="63.623047"/>
      </g>
     </g>
    </g>
    <g id="xtick_14">
     <g id="line2d_24">
      <g>
       <use xlink:href="#me052f538c1" x="238.214776" y="307.584" style="stroke: #000000; stroke-width: 0.8"/>
      </g>
     </g>
     <g id="text_23">
      <!-- 40 -->
      <g transform="translate(231.852276 322.182437) scale(0.1 -0.1)">
       <use xlink:href="#DejaVuSans-34"/>
       <use xlink:href="#DejaVuSans-30" x="63.623047"/>
      </g>
     </g>
    </g>
    <g id="xtick_15">
     <g id="line2d_25">
      <g>
       <use xlink:href="#me052f538c1" x="279.310288" y="307.584" style="stroke: #000000; stroke-width: 0.8"/>
      </g>
     </g>
     <g id="text_24">
      <!-- 50 -->
      <g transform="translate(272.947788 322.182437) scale(0.1 -0.1)">
       <use xlink:href="#DejaVuSans-35"/>
       <use xlink:href="#DejaVuSans-30" x="63.623047"/>
      </g>
     </g>
    </g>
    <g id="xtick_16">
     <g id="line2d_26">
      <g>
       <use xlink:href="#me052f538c1" x="320.4058" y="307.584" style="stroke: #000000; stroke-width: 0.8"/>
      </g>
     </g>
     <g id="text_25">
      <!-- 60 -->
      <g transform="translate(314.0433 322.182437) scale(0.1 -0.1)">
       <use xlink:href="#DejaVuSans-36"/>
       <use xlink:href="#DejaVuSans-30" x="63.623047"/>
      </g>
     </g>
    </g>
    <g id="xtick_17">
     <g id="line2d_27">
      <g>
       <use xlink:href="#me052f538c1" x="361.501312" y="307.584" style="stroke: #000000; stroke-width: 0.8"/>
      </g>
     </g>
     <g id="text_26">
      <!-- 70 -->
      <g transform="translate(355.138812 322.182437) scale(0.1 -0.1)">
       <use xlink:href="#DejaVuSans-37"/>
       <use xlink:href="#DejaVuSans-30" x="63.623047"/>
      </g>
     </g>
    </g>
    <g id="xtick_18">
     <g id="line2d_28">
      <g>
       <use xlink:href="#me052f538c1" x="402.596824" y="307.584" style="stroke: #000000; stroke-width: 0.8"/>
      </g>
     </g>
     <g id="text_27">
      <!-- 80 -->
      <g transform="translate(396.234324 322.182437) scale(0.1 -0.1)">
       <use xlink:href="#DejaVuSans-38"/>
       <use xlink:href="#DejaVuSans-30" x="63.623047"/>
      </g>
     </g>
    </g>
    <g id="text_28">
     <!-- Number of epoch -->
     <g transform="translate(192.848281 335.860562) scale(0.1 -0.1)">
      <defs>
       <path id="DejaVuSans-4e" d="M 628 4666 
L 1478 4666 
L 3547 763 
L 3547 4666 
L 4159 4666 
L 4159 0 
L 3309 0 
L 1241 3903 
L 1241 0 
L 628 0 
L 628 4666 
z
" transform="scale(0.015625)"/>
       <path id="DejaVuSans-6d" d="M 3328 2828 
Q 3544 3216 3844 3400 
Q 4144 3584 4550 3584 
Q 5097 3584 5394 3201 
Q 5691 2819 5691 2113 
L 5691 0 
L 5113 0 
L 5113 2094 
Q 5113 2597 4934 2840 
Q 4756 3084 4391 3084 
Q 3944 3084 3684 2787 
Q 3425 2491 3425 1978 
L 3425 0 
L 2847 0 
L 2847 2094 
Q 2847 2600 2669 2842 
Q 2491 3084 2119 3084 
Q 1678 3084 1418 2786 
Q 1159 2488 1159 1978 
L 1159 0 
L 581 0 
L 581 3500 
L 1159 3500 
L 1159 2956 
Q 1356 3278 1631 3431 
Q 1906 3584 2284 3584 
Q 2666 3584 2933 3390 
Q 3200 3197 3328 2828 
z
" transform="scale(0.015625)"/>
       <path id="DejaVuSans-62" d="M 3116 1747 
Q 3116 2381 2855 2742 
Q 2594 3103 2138 3103 
Q 1681 3103 1420 2742 
Q 1159 2381 1159 1747 
Q 1159 1113 1420 752 
Q 1681 391 2138 391 
Q 2594 391 2855 752 
Q 3116 1113 3116 1747 
z
M 1159 2969 
Q 1341 3281 1617 3432 
Q 1894 3584 2278 3584 
Q 2916 3584 3314 3078 
Q 3713 2572 3713 1747 
Q 3713 922 3314 415 
Q 2916 -91 2278 -91 
Q 1894 -91 1617 61 
Q 1341 213 1159 525 
L 1159 0 
L 581 0 
L 581 4863 
L 1159 4863 
L 1159 2969 
z
" transform="scale(0.015625)"/>
       <path id="DejaVuSans-65" d="M 3597 1894 
L 3597 1613 
L 953 1613 
Q 991 1019 1311 708 
Q 1631 397 2203 397 
Q 2534 397 2845 478 
Q 3156 559 3463 722 
L 3463 178 
Q 3153 47 2828 -22 
Q 2503 -91 2169 -91 
Q 1331 -91 842 396 
Q 353 884 353 1716 
Q 353 2575 817 3079 
Q 1281 3584 2069 3584 
Q 2775 3584 3186 3129 
Q 3597 2675 3597 1894 
z
M 3022 2063 
Q 3016 2534 2758 2815 
Q 2500 3097 2075 3097 
Q 1594 3097 1305 2825 
Q 1016 2553 972 2059 
L 3022 2063 
z
" transform="scale(0.015625)"/>
       <path id="DejaVuSans-66" d="M 2375 4863 
L 2375 4384 
L 1825 4384 
Q 1516 4384 1395 4259 
Q 1275 4134 1275 3809 
L 1275 3500 
L 2222 3500 
L 2222 3053 
L 1275 3053 
L 1275 0 
L 697 0 
L 697 3053 
L 147 3053 
L 147 3500 
L 697 3500 
L 697 3744 
Q 697 4328 969 4595 
Q 1241 4863 1831 4863 
L 2375 4863 
z
" transform="scale(0.015625)"/>
       <path id="DejaVuSans-70" d="M 1159 525 
L 1159 -1331 
L 581 -1331 
L 581 3500 
L 1159 3500 
L 1159 2969 
Q 1341 3281 1617 3432 
Q 1894 3584 2278 3584 
Q 2916 3584 3314 3078 
Q 3713 2572 3713 1747 
Q 3713 922 3314 415 
Q 2916 -91 2278 -91 
Q 1894 -91 1617 61 
Q 1341 213 1159 525 
z
M 3116 1747 
Q 3116 2381 2855 2742 
Q 2594 3103 2138 3103 
Q 1681 3103 1420 2742 
Q 1159 2381 1159 1747 
Q 1159 1113 1420 752 
Q 1681 391 2138 391 
Q 2594 391 2855 752 
Q 3116 1113 3116 1747 
z
" transform="scale(0.015625)"/>
       <path id="DejaVuSans-68" d="M 3513 2113 
L 3513 0 
L 2938 0 
L 2938 2094 
Q 2938 2591 2744 2837 
Q 2550 3084 2163 3084 
Q 1697 3084 1428 2787 
Q 1159 2491 1159 1978 
L 1159 0 
L 581 0 
L 581 4863 
L 1159 4863 
L 1159 2956 
Q 1366 3272 1645 3428 
Q 1925 3584 2291 3584 
Q 2894 3584 3203 3211 
Q 3513 2838 3513 2113 
z
" transform="scale(0.015625)"/>
      </defs>
      <use xlink:href="#DejaVuSans-4e"/>
      <use xlink:href="#DejaVuSans-75" x="74.804688"/>
      <use xlink:href="#DejaVuSans-6d" x="138.183594"/>
      <use xlink:href="#DejaVuSans-62" x="235.595703"/>
      <use xlink:href="#DejaVuSans-65" x="299.072266"/>
      <use xlink:href="#DejaVuSans-72" x="360.595703"/>
      <use xlink:href="#DejaVuSans-20" x="401.708984"/>
      <use xlink:href="#DejaVuSans-6f" x="433.496094"/>
      <use xlink:href="#DejaVuSans-66" x="494.677734"/>
      <use xlink:href="#DejaVuSans-20" x="529.882812"/>
      <use xlink:href="#DejaVuSans-65" x="561.669922"/>
      <use xlink:href="#DejaVuSans-70" x="623.193359"/>
      <use xlink:href="#DejaVuSans-6f" x="686.669922"/>
      <use xlink:href="#DejaVuSans-63" x="747.851562"/>
      <use xlink:href="#DejaVuSans-68" x="802.832031"/>
     </g>
    </g>
   </g>
   <g id="matplotlib.axis_4">
    <g id="ytick_7">
     <g id="line2d_29">
      <g>
       <use xlink:href="#m1a1cc3b62c" x="57.6" y="281.806336" style="stroke: #000000; stroke-width: 0.8"/>
      </g>
     </g>
     <g id="text_29">
      <!-- 500% -->
      <g transform="translate(22.010938 285.605555) scale(0.1 -0.1)">
       <use xlink:href="#DejaVuSans-35"/>
       <use xlink:href="#DejaVuSans-30" x="63.623047"/>
       <use xlink:href="#DejaVuSans-30" x="127.246094"/>
       <use xlink:href="#DejaVuSans-25" x="190.869141"/>
      </g>
     </g>
    </g>
    <g id="ytick_8">
     <g id="line2d_30">
      <g>
       <use xlink:href="#m1a1cc3b62c" x="57.6" y="244.987074" style="stroke: #000000; stroke-width: 0.8"/>
      </g>
     </g>
     <g id="text_30">
      <!-- 1000% -->
      <g transform="translate(15.648438 248.786293) scale(0.1 -0.1)">
       <use xlink:href="#DejaVuSans-31"/>
       <use xlink:href="#DejaVuSans-30" x="63.623047"/>
       <use xlink:href="#DejaVuSans-30" x="127.246094"/>
       <use xlink:href="#DejaVuSans-30" x="190.869141"/>
       <use xlink:href="#DejaVuSans-25" x="254.492188"/>
      </g>
     </g>
    </g>
    <g id="ytick_9">
     <g id="line2d_31">
      <g>
       <use xlink:href="#m1a1cc3b62c" x="57.6" y="208.167812" style="stroke: #000000; stroke-width: 0.8"/>
      </g>
     </g>
     <g id="text_31">
      <!-- 1500% -->
      <g transform="translate(15.648438 211.967031) scale(0.1 -0.1)">
       <use xlink:href="#DejaVuSans-31"/>
       <use xlink:href="#DejaVuSans-35" x="63.623047"/>
       <use xlink:href="#DejaVuSans-30" x="127.246094"/>
       <use xlink:href="#DejaVuSans-30" x="190.869141"/>
       <use xlink:href="#DejaVuSans-25" x="254.492188"/>
      </g>
     </g>
    </g>
    <g id="text_32">
     <!-- loss -->
     <g transform="translate(9.56875 256.761812) rotate(-90) scale(0.1 -0.1)">
      <defs>
       <path id="DejaVuSans-73" d="M 2834 3397 
L 2834 2853 
Q 2591 2978 2328 3040 
Q 2066 3103 1784 3103 
Q 1356 3103 1142 2972 
Q 928 2841 928 2578 
Q 928 2378 1081 2264 
Q 1234 2150 1697 2047 
L 1894 2003 
Q 2506 1872 2764 1633 
Q 3022 1394 3022 966 
Q 3022 478 2636 193 
Q 2250 -91 1575 -91 
Q 1294 -91 989 -36 
Q 684 19 347 128 
L 347 722 
Q 666 556 975 473 
Q 1284 391 1588 391 
Q 1994 391 2212 530 
Q 2431 669 2431 922 
Q 2431 1156 2273 1281 
Q 2116 1406 1581 1522 
L 1381 1569 
Q 847 1681 609 1914 
Q 372 2147 372 2553 
Q 372 3047 722 3315 
Q 1072 3584 1716 3584 
Q 2034 3584 2315 3537 
Q 2597 3491 2834 3397 
z
" transform="scale(0.015625)"/>
      </defs>
      <use xlink:href="#DejaVuSans-6c"/>
      <use xlink:href="#DejaVuSans-6f" x="27.783203"/>
      <use xlink:href="#DejaVuSans-73" x="88.964844"/>
      <use xlink:href="#DejaVuSans-73" x="141.064453"/>
     </g>
    </g>
   </g>
   <g id="line2d_32">
    <path d="M 73.832727 192.122182 
L 77.942278 230.995813 
L 82.05183 249.053213 
L 86.161381 259.961683 
L 90.270932 264.648796 
L 94.380483 271.717325 
L 98.490035 274.074918 
L 102.599586 278.464169 
L 106.709137 280.808601 
L 110.818688 284.229026 
L 114.928239 287.278841 
L 119.037791 289.52414 
L 123.147342 290.963729 
L 127.256893 290.500532 
L 131.366444 291.567221 
L 135.475995 292.068311 
L 139.585547 294.105004 
L 143.695098 292.819118 
L 147.804649 293.68279 
L 151.9142 292.754906 
L 156.023751 293.682354 
L 160.133303 294.035823 
L 164.242854 294.256651 
L 168.352405 295.003575 
L 172.461956 295.233299 
L 176.571507 294.4544 
L 180.681059 295.327605 
L 184.79061 295.67849 
L 188.900161 296.152028 
L 193.009712 294.377328 
L 197.119264 296.592066 
L 201.228815 297.465797 
L 205.338366 296.419834 
L 209.447917 295.695155 
L 213.557468 297.018807 
L 217.66702 297.552807 
L 221.776571 296.801903 
L 225.886122 296.385284 
L 229.995673 295.132544 
L 234.105224 297.282764 
L 238.214776 297.766008 
L 242.324327 297.019865 
L 246.433878 296.523003 
L 250.543429 294.378917 
L 254.65298 296.716286 
L 258.762532 297.389615 
L 262.872083 297.502909 
L 266.981634 297.010437 
L 271.091185 298.334262 
L 275.200736 298.340496 
L 279.310288 297.60473 
L 283.419839 299.727484 
L 287.52939 298.707937 
L 291.638941 297.434062 
L 295.748493 297.314983 
L 299.858044 298.597496 
L 303.967595 300.193224 
L 308.077146 299.14942 
L 312.186697 299.125411 
L 316.296249 299.018248 
L 320.4058 298.244868 
L 324.515351 297.780859 
L 328.624902 298.746578 
L 332.734453 300.068127 
L 336.844005 300.466994 
L 340.953556 300.235692 
L 345.063107 299.595296 
L 349.172658 299.756769 
L 353.282209 299.270127 
L 357.391761 300.209324 
L 361.501312 301.170193 
L 365.610863 302.085818 
L 369.720414 301.40292 
L 373.829965 301.276543 
L 377.939517 300.784196 
L 382.049068 300.682168 
L 386.158619 299.221456 
L 390.26817 299.504907 
L 394.377722 300.159764 
L 398.487273 300.532716 
" clip-path="url(#pb39aeb3f69)" style="fill: none; stroke: #1f77b4; stroke-width: 1.5; stroke-linecap: square"/>
    <g clip-path="url(#pb39aeb3f69)">
     <use xlink:href="#m79b992ef92" x="73.832727" y="192.122182" style="fill: #1f77b4; stroke: #1f77b4"/>
     <use xlink:href="#m79b992ef92" x="77.942278" y="230.995813" style="fill: #1f77b4; stroke: #1f77b4"/>
     <use xlink:href="#m79b992ef92" x="82.05183" y="249.053213" style="fill: #1f77b4; stroke: #1f77b4"/>
     <use xlink:href="#m79b992ef92" x="86.161381" y="259.961683" style="fill: #1f77b4; stroke: #1f77b4"/>
     <use xlink:href="#m79b992ef92" x="90.270932" y="264.648796" style="fill: #1f77b4; stroke: #1f77b4"/>
     <use xlink:href="#m79b992ef92" x="94.380483" y="271.717325" style="fill: #1f77b4; stroke: #1f77b4"/>
     <use xlink:href="#m79b992ef92" x="98.490035" y="274.074918" style="fill: #1f77b4; stroke: #1f77b4"/>
     <use xlink:href="#m79b992ef92" x="102.599586" y="278.464169" style="fill: #1f77b4; stroke: #1f77b4"/>
     <use xlink:href="#m79b992ef92" x="106.709137" y="280.808601" style="fill: #1f77b4; stroke: #1f77b4"/>
     <use xlink:href="#m79b992ef92" x="110.818688" y="284.229026" style="fill: #1f77b4; stroke: #1f77b4"/>
     <use xlink:href="#m79b992ef92" x="114.928239" y="287.278841" style="fill: #1f77b4; stroke: #1f77b4"/>
     <use xlink:href="#m79b992ef92" x="119.037791" y="289.52414" style="fill: #1f77b4; stroke: #1f77b4"/>
     <use xlink:href="#m79b992ef92" x="123.147342" y="290.963729" style="fill: #1f77b4; stroke: #1f77b4"/>
     <use xlink:href="#m79b992ef92" x="127.256893" y="290.500532" style="fill: #1f77b4; stroke: #1f77b4"/>
     <use xlink:href="#m79b992ef92" x="131.366444" y="291.567221" style="fill: #1f77b4; stroke: #1f77b4"/>
     <use xlink:href="#m79b992ef92" x="135.475995" y="292.068311" style="fill: #1f77b4; stroke: #1f77b4"/>
     <use xlink:href="#m79b992ef92" x="139.585547" y="294.105004" style="fill: #1f77b4; stroke: #1f77b4"/>
     <use xlink:href="#m79b992ef92" x="143.695098" y="292.819118" style="fill: #1f77b4; stroke: #1f77b4"/>
     <use xlink:href="#m79b992ef92" x="147.804649" y="293.68279" style="fill: #1f77b4; stroke: #1f77b4"/>
     <use xlink:href="#m79b992ef92" x="151.9142" y="292.754906" style="fill: #1f77b4; stroke: #1f77b4"/>
     <use xlink:href="#m79b992ef92" x="156.023751" y="293.682354" style="fill: #1f77b4; stroke: #1f77b4"/>
     <use xlink:href="#m79b992ef92" x="160.133303" y="294.035823" style="fill: #1f77b4; stroke: #1f77b4"/>
     <use xlink:href="#m79b992ef92" x="164.242854" y="294.256651" style="fill: #1f77b4; stroke: #1f77b4"/>
     <use xlink:href="#m79b992ef92" x="168.352405" y="295.003575" style="fill: #1f77b4; stroke: #1f77b4"/>
     <use xlink:href="#m79b992ef92" x="172.461956" y="295.233299" style="fill: #1f77b4; stroke: #1f77b4"/>
     <use xlink:href="#m79b992ef92" x="176.571507" y="294.4544" style="fill: #1f77b4; stroke: #1f77b4"/>
     <use xlink:href="#m79b992ef92" x="180.681059" y="295.327605" style="fill: #1f77b4; stroke: #1f77b4"/>
     <use xlink:href="#m79b992ef92" x="184.79061" y="295.67849" style="fill: #1f77b4; stroke: #1f77b4"/>
     <use xlink:href="#m79b992ef92" x="188.900161" y="296.152028" style="fill: #1f77b4; stroke: #1f77b4"/>
     <use xlink:href="#m79b992ef92" x="193.009712" y="294.377328" style="fill: #1f77b4; stroke: #1f77b4"/>
     <use xlink:href="#m79b992ef92" x="197.119264" y="296.592066" style="fill: #1f77b4; stroke: #1f77b4"/>
     <use xlink:href="#m79b992ef92" x="201.228815" y="297.465797" style="fill: #1f77b4; stroke: #1f77b4"/>
     <use xlink:href="#m79b992ef92" x="205.338366" y="296.419834" style="fill: #1f77b4; stroke: #1f77b4"/>
     <use xlink:href="#m79b992ef92" x="209.447917" y="295.695155" style="fill: #1f77b4; stroke: #1f77b4"/>
     <use xlink:href="#m79b992ef92" x="213.557468" y="297.018807" style="fill: #1f77b4; stroke: #1f77b4"/>
     <use xlink:href="#m79b992ef92" x="217.66702" y="297.552807" style="fill: #1f77b4; stroke: #1f77b4"/>
     <use xlink:href="#m79b992ef92" x="221.776571" y="296.801903" style="fill: #1f77b4; stroke: #1f77b4"/>
     <use xlink:href="#m79b992ef92" x="225.886122" y="296.385284" style="fill: #1f77b4; stroke: #1f77b4"/>
     <use xlink:href="#m79b992ef92" x="229.995673" y="295.132544" style="fill: #1f77b4; stroke: #1f77b4"/>
     <use xlink:href="#m79b992ef92" x="234.105224" y="297.282764" style="fill: #1f77b4; stroke: #1f77b4"/>
     <use xlink:href="#m79b992ef92" x="238.214776" y="297.766008" style="fill: #1f77b4; stroke: #1f77b4"/>
     <use xlink:href="#m79b992ef92" x="242.324327" y="297.019865" style="fill: #1f77b4; stroke: #1f77b4"/>
     <use xlink:href="#m79b992ef92" x="246.433878" y="296.523003" style="fill: #1f77b4; stroke: #1f77b4"/>
     <use xlink:href="#m79b992ef92" x="250.543429" y="294.378917" style="fill: #1f77b4; stroke: #1f77b4"/>
     <use xlink:href="#m79b992ef92" x="254.65298" y="296.716286" style="fill: #1f77b4; stroke: #1f77b4"/>
     <use xlink:href="#m79b992ef92" x="258.762532" y="297.389615" style="fill: #1f77b4; stroke: #1f77b4"/>
     <use xlink:href="#m79b992ef92" x="262.872083" y="297.502909" style="fill: #1f77b4; stroke: #1f77b4"/>
     <use xlink:href="#m79b992ef92" x="266.981634" y="297.010437" style="fill: #1f77b4; stroke: #1f77b4"/>
     <use xlink:href="#m79b992ef92" x="271.091185" y="298.334262" style="fill: #1f77b4; stroke: #1f77b4"/>
     <use xlink:href="#m79b992ef92" x="275.200736" y="298.340496" style="fill: #1f77b4; stroke: #1f77b4"/>
     <use xlink:href="#m79b992ef92" x="279.310288" y="297.60473" style="fill: #1f77b4; stroke: #1f77b4"/>
     <use xlink:href="#m79b992ef92" x="283.419839" y="299.727484" style="fill: #1f77b4; stroke: #1f77b4"/>
     <use xlink:href="#m79b992ef92" x="287.52939" y="298.707937" style="fill: #1f77b4; stroke: #1f77b4"/>
     <use xlink:href="#m79b992ef92" x="291.638941" y="297.434062" style="fill: #1f77b4; stroke: #1f77b4"/>
     <use xlink:href="#m79b992ef92" x="295.748493" y="297.314983" style="fill: #1f77b4; stroke: #1f77b4"/>
     <use xlink:href="#m79b992ef92" x="299.858044" y="298.597496" style="fill: #1f77b4; stroke: #1f77b4"/>
     <use xlink:href="#m79b992ef92" x="303.967595" y="300.193224" style="fill: #1f77b4; stroke: #1f77b4"/>
     <use xlink:href="#m79b992ef92" x="308.077146" y="299.14942" style="fill: #1f77b4; stroke: #1f77b4"/>
     <use xlink:href="#m79b992ef92" x="312.186697" y="299.125411" style="fill: #1f77b4; stroke: #1f77b4"/>
     <use xlink:href="#m79b992ef92" x="316.296249" y="299.018248" style="fill: #1f77b4; stroke: #1f77b4"/>
     <use xlink:href="#m79b992ef92" x="320.4058" y="298.244868" style="fill: #1f77b4; stroke: #1f77b4"/>
     <use xlink:href="#m79b992ef92" x="324.515351" y="297.780859" style="fill: #1f77b4; stroke: #1f77b4"/>
     <use xlink:href="#m79b992ef92" x="328.624902" y="298.746578" style="fill: #1f77b4; stroke: #1f77b4"/>
     <use xlink:href="#m79b992ef92" x="332.734453" y="300.068127" style="fill: #1f77b4; stroke: #1f77b4"/>
     <use xlink:href="#m79b992ef92" x="336.844005" y="300.466994" style="fill: #1f77b4; stroke: #1f77b4"/>
     <use xlink:href="#m79b992ef92" x="340.953556" y="300.235692" style="fill: #1f77b4; stroke: #1f77b4"/>
     <use xlink:href="#m79b992ef92" x="345.063107" y="299.595296" style="fill: #1f77b4; stroke: #1f77b4"/>
     <use xlink:href="#m79b992ef92" x="349.172658" y="299.756769" style="fill: #1f77b4; stroke: #1f77b4"/>
     <use xlink:href="#m79b992ef92" x="353.282209" y="299.270127" style="fill: #1f77b4; stroke: #1f77b4"/>
     <use xlink:href="#m79b992ef92" x="357.391761" y="300.209324" style="fill: #1f77b4; stroke: #1f77b4"/>
     <use xlink:href="#m79b992ef92" x="361.501312" y="301.170193" style="fill: #1f77b4; stroke: #1f77b4"/>
     <use xlink:href="#m79b992ef92" x="365.610863" y="302.085818" style="fill: #1f77b4; stroke: #1f77b4"/>
     <use xlink:href="#m79b992ef92" x="369.720414" y="301.40292" style="fill: #1f77b4; stroke: #1f77b4"/>
     <use xlink:href="#m79b992ef92" x="373.829965" y="301.276543" style="fill: #1f77b4; stroke: #1f77b4"/>
     <use xlink:href="#m79b992ef92" x="377.939517" y="300.784196" style="fill: #1f77b4; stroke: #1f77b4"/>
     <use xlink:href="#m79b992ef92" x="382.049068" y="300.682168" style="fill: #1f77b4; stroke: #1f77b4"/>
     <use xlink:href="#m79b992ef92" x="386.158619" y="299.221456" style="fill: #1f77b4; stroke: #1f77b4"/>
     <use xlink:href="#m79b992ef92" x="390.26817" y="299.504907" style="fill: #1f77b4; stroke: #1f77b4"/>
     <use xlink:href="#m79b992ef92" x="394.377722" y="300.159764" style="fill: #1f77b4; stroke: #1f77b4"/>
     <use xlink:href="#m79b992ef92" x="398.487273" y="300.532716" style="fill: #1f77b4; stroke: #1f77b4"/>
    </g>
   </g>
   <g id="line2d_33">
    <path d="M 73.832727 209.606612 
L 77.942278 224.317083 
L 82.05183 244.900084 
L 86.161381 253.587978 
L 90.270932 253.632593 
L 94.380483 265.772339 
L 98.490035 273.128979 
L 102.599586 267.172111 
L 106.709137 273.023277 
L 110.818688 283.078663 
L 114.928239 284.205781 
L 119.037791 284.009313 
L 123.147342 285.274487 
L 127.256893 284.878174 
L 131.366444 285.959483 
L 135.475995 290.549178 
L 139.585547 290.992313 
L 143.695098 286.70769 
L 147.804649 290.663439 
L 151.9142 288.886422 
L 156.023751 291.02834 
L 160.133303 290.426128 
L 164.242854 289.767383 
L 168.352405 292.851804 
L 172.461956 290.628615 
L 176.571507 291.901012 
L 180.681059 293.029882 
L 184.79061 293.556441 
L 188.900161 291.084507 
L 193.009712 289.353848 
L 197.119264 292.719076 
L 201.228815 295.235474 
L 205.338366 291.10777 
L 209.447917 292.183564 
L 213.557468 293.15258 
L 217.66702 293.83907 
L 221.776571 292.989983 
L 225.886122 290.711777 
L 229.995673 292.133722 
L 234.105224 294.473832 
L 238.214776 293.206005 
L 242.324327 294.376859 
L 246.433878 283.742144 
L 250.543429 291.280868 
L 254.65298 292.783812 
L 258.762532 294.358117 
L 262.872083 292.354838 
L 266.981634 292.17191 
L 271.091185 294.612257 
L 275.200736 294.008888 
L 279.310288 294.440946 
L 283.419839 296.602851 
L 287.52939 292.375309 
L 291.638941 293.067468 
L 295.748493 292.599606 
L 299.858044 295.752463 
L 303.967595 294.662689 
L 308.077146 294.31117 
L 312.186697 296.873294 
L 316.296249 292.966134 
L 320.4058 293.474338 
L 324.515351 293.016399 
L 328.624902 296.175965 
L 332.734453 297.417137 
L 336.844005 295.918187 
L 340.953556 295.613528 
L 345.063107 295.261347 
L 349.172658 296.244902 
L 353.282209 295.477008 
L 357.391761 295.841845 
L 361.501312 295.787642 
L 365.610863 298.682969 
L 369.720414 298.020545 
L 373.829965 296.909152 
L 377.939517 297.033814 
L 382.049068 295.688104 
L 386.158619 294.471346 
L 390.26817 296.647907 
L 394.377722 295.135892 
L 398.487273 298.203738 
" clip-path="url(#pb39aeb3f69)" style="fill: none; stroke: #ff7f0e; stroke-width: 1.5; stroke-linecap: square"/>
    <g clip-path="url(#pb39aeb3f69)">
     <use xlink:href="#m67f3cdb6ba" x="73.832727" y="209.606612" style="fill: #ff7f0e; stroke: #ff7f0e"/>
     <use xlink:href="#m67f3cdb6ba" x="77.942278" y="224.317083" style="fill: #ff7f0e; stroke: #ff7f0e"/>
     <use xlink:href="#m67f3cdb6ba" x="82.05183" y="244.900084" style="fill: #ff7f0e; stroke: #ff7f0e"/>
     <use xlink:href="#m67f3cdb6ba" x="86.161381" y="253.587978" style="fill: #ff7f0e; stroke: #ff7f0e"/>
     <use xlink:href="#m67f3cdb6ba" x="90.270932" y="253.632593" style="fill: #ff7f0e; stroke: #ff7f0e"/>
     <use xlink:href="#m67f3cdb6ba" x="94.380483" y="265.772339" style="fill: #ff7f0e; stroke: #ff7f0e"/>
     <use xlink:href="#m67f3cdb6ba" x="98.490035" y="273.128979" style="fill: #ff7f0e; stroke: #ff7f0e"/>
     <use xlink:href="#m67f3cdb6ba" x="102.599586" y="267.172111" style="fill: #ff7f0e; stroke: #ff7f0e"/>
     <use xlink:href="#m67f3cdb6ba" x="106.709137" y="273.023277" style="fill: #ff7f0e; stroke: #ff7f0e"/>
     <use xlink:href="#m67f3cdb6ba" x="110.818688" y="283.078663" style="fill: #ff7f0e; stroke: #ff7f0e"/>
     <use xlink:href="#m67f3cdb6ba" x="114.928239" y="284.205781" style="fill: #ff7f0e; stroke: #ff7f0e"/>
     <use xlink:href="#m67f3cdb6ba" x="119.037791" y="284.009313" style="fill: #ff7f0e; stroke: #ff7f0e"/>
     <use xlink:href="#m67f3cdb6ba" x="123.147342" y="285.274487" style="fill: #ff7f0e; stroke: #ff7f0e"/>
     <use xlink:href="#m67f3cdb6ba" x="127.256893" y="284.878174" style="fill: #ff7f0e; stroke: #ff7f0e"/>
     <use xlink:href="#m67f3cdb6ba" x="131.366444" y="285.959483" style="fill: #ff7f0e; stroke: #ff7f0e"/>
     <use xlink:href="#m67f3cdb6ba" x="135.475995" y="290.549178" style="fill: #ff7f0e; stroke: #ff7f0e"/>
     <use xlink:href="#m67f3cdb6ba" x="139.585547" y="290.992313" style="fill: #ff7f0e; stroke: #ff7f0e"/>
     <use xlink:href="#m67f3cdb6ba" x="143.695098" y="286.70769" style="fill: #ff7f0e; stroke: #ff7f0e"/>
     <use xlink:href="#m67f3cdb6ba" x="147.804649" y="290.663439" style="fill: #ff7f0e; stroke: #ff7f0e"/>
     <use xlink:href="#m67f3cdb6ba" x="151.9142" y="288.886422" style="fill: #ff7f0e; stroke: #ff7f0e"/>
     <use xlink:href="#m67f3cdb6ba" x="156.023751" y="291.02834" style="fill: #ff7f0e; stroke: #ff7f0e"/>
     <use xlink:href="#m67f3cdb6ba" x="160.133303" y="290.426128" style="fill: #ff7f0e; stroke: #ff7f0e"/>
     <use xlink:href="#m67f3cdb6ba" x="164.242854" y="289.767383" style="fill: #ff7f0e; stroke: #ff7f0e"/>
     <use xlink:href="#m67f3cdb6ba" x="168.352405" y="292.851804" style="fill: #ff7f0e; stroke: #ff7f0e"/>
     <use xlink:href="#m67f3cdb6ba" x="172.461956" y="290.628615" style="fill: #ff7f0e; stroke: #ff7f0e"/>
     <use xlink:href="#m67f3cdb6ba" x="176.571507" y="291.901012" style="fill: #ff7f0e; stroke: #ff7f0e"/>
     <use xlink:href="#m67f3cdb6ba" x="180.681059" y="293.029882" style="fill: #ff7f0e; stroke: #ff7f0e"/>
     <use xlink:href="#m67f3cdb6ba" x="184.79061" y="293.556441" style="fill: #ff7f0e; stroke: #ff7f0e"/>
     <use xlink:href="#m67f3cdb6ba" x="188.900161" y="291.084507" style="fill: #ff7f0e; stroke: #ff7f0e"/>
     <use xlink:href="#m67f3cdb6ba" x="193.009712" y="289.353848" style="fill: #ff7f0e; stroke: #ff7f0e"/>
     <use xlink:href="#m67f3cdb6ba" x="197.119264" y="292.719076" style="fill: #ff7f0e; stroke: #ff7f0e"/>
     <use xlink:href="#m67f3cdb6ba" x="201.228815" y="295.235474" style="fill: #ff7f0e; stroke: #ff7f0e"/>
     <use xlink:href="#m67f3cdb6ba" x="205.338366" y="291.10777" style="fill: #ff7f0e; stroke: #ff7f0e"/>
     <use xlink:href="#m67f3cdb6ba" x="209.447917" y="292.183564" style="fill: #ff7f0e; stroke: #ff7f0e"/>
     <use xlink:href="#m67f3cdb6ba" x="213.557468" y="293.15258" style="fill: #ff7f0e; stroke: #ff7f0e"/>
     <use xlink:href="#m67f3cdb6ba" x="217.66702" y="293.83907" style="fill: #ff7f0e; stroke: #ff7f0e"/>
     <use xlink:href="#m67f3cdb6ba" x="221.776571" y="292.989983" style="fill: #ff7f0e; stroke: #ff7f0e"/>
     <use xlink:href="#m67f3cdb6ba" x="225.886122" y="290.711777" style="fill: #ff7f0e; stroke: #ff7f0e"/>
     <use xlink:href="#m67f3cdb6ba" x="229.995673" y="292.133722" style="fill: #ff7f0e; stroke: #ff7f0e"/>
     <use xlink:href="#m67f3cdb6ba" x="234.105224" y="294.473832" style="fill: #ff7f0e; stroke: #ff7f0e"/>
     <use xlink:href="#m67f3cdb6ba" x="238.214776" y="293.206005" style="fill: #ff7f0e; stroke: #ff7f0e"/>
     <use xlink:href="#m67f3cdb6ba" x="242.324327" y="294.376859" style="fill: #ff7f0e; stroke: #ff7f0e"/>
     <use xlink:href="#m67f3cdb6ba" x="246.433878" y="283.742144" style="fill: #ff7f0e; stroke: #ff7f0e"/>
     <use xlink:href="#m67f3cdb6ba" x="250.543429" y="291.280868" style="fill: #ff7f0e; stroke: #ff7f0e"/>
     <use xlink:href="#m67f3cdb6ba" x="254.65298" y="292.783812" style="fill: #ff7f0e; stroke: #ff7f0e"/>
     <use xlink:href="#m67f3cdb6ba" x="258.762532" y="294.358117" style="fill: #ff7f0e; stroke: #ff7f0e"/>
     <use xlink:href="#m67f3cdb6ba" x="262.872083" y="292.354838" style="fill: #ff7f0e; stroke: #ff7f0e"/>
     <use xlink:href="#m67f3cdb6ba" x="266.981634" y="292.17191" style="fill: #ff7f0e; stroke: #ff7f0e"/>
     <use xlink:href="#m67f3cdb6ba" x="271.091185" y="294.612257" style="fill: #ff7f0e; stroke: #ff7f0e"/>
     <use xlink:href="#m67f3cdb6ba" x="275.200736" y="294.008888" style="fill: #ff7f0e; stroke: #ff7f0e"/>
     <use xlink:href="#m67f3cdb6ba" x="279.310288" y="294.440946" style="fill: #ff7f0e; stroke: #ff7f0e"/>
     <use xlink:href="#m67f3cdb6ba" x="283.419839" y="296.602851" style="fill: #ff7f0e; stroke: #ff7f0e"/>
     <use xlink:href="#m67f3cdb6ba" x="287.52939" y="292.375309" style="fill: #ff7f0e; stroke: #ff7f0e"/>
     <use xlink:href="#m67f3cdb6ba" x="291.638941" y="293.067468" style="fill: #ff7f0e; stroke: #ff7f0e"/>
     <use xlink:href="#m67f3cdb6ba" x="295.748493" y="292.599606" style="fill: #ff7f0e; stroke: #ff7f0e"/>
     <use xlink:href="#m67f3cdb6ba" x="299.858044" y="295.752463" style="fill: #ff7f0e; stroke: #ff7f0e"/>
     <use xlink:href="#m67f3cdb6ba" x="303.967595" y="294.662689" style="fill: #ff7f0e; stroke: #ff7f0e"/>
     <use xlink:href="#m67f3cdb6ba" x="308.077146" y="294.31117" style="fill: #ff7f0e; stroke: #ff7f0e"/>
     <use xlink:href="#m67f3cdb6ba" x="312.186697" y="296.873294" style="fill: #ff7f0e; stroke: #ff7f0e"/>
     <use xlink:href="#m67f3cdb6ba" x="316.296249" y="292.966134" style="fill: #ff7f0e; stroke: #ff7f0e"/>
     <use xlink:href="#m67f3cdb6ba" x="320.4058" y="293.474338" style="fill: #ff7f0e; stroke: #ff7f0e"/>
     <use xlink:href="#m67f3cdb6ba" x="324.515351" y="293.016399" style="fill: #ff7f0e; stroke: #ff7f0e"/>
     <use xlink:href="#m67f3cdb6ba" x="328.624902" y="296.175965" style="fill: #ff7f0e; stroke: #ff7f0e"/>
     <use xlink:href="#m67f3cdb6ba" x="332.734453" y="297.417137" style="fill: #ff7f0e; stroke: #ff7f0e"/>
     <use xlink:href="#m67f3cdb6ba" x="336.844005" y="295.918187" style="fill: #ff7f0e; stroke: #ff7f0e"/>
     <use xlink:href="#m67f3cdb6ba" x="340.953556" y="295.613528" style="fill: #ff7f0e; stroke: #ff7f0e"/>
     <use xlink:href="#m67f3cdb6ba" x="345.063107" y="295.261347" style="fill: #ff7f0e; stroke: #ff7f0e"/>
     <use xlink:href="#m67f3cdb6ba" x="349.172658" y="296.244902" style="fill: #ff7f0e; stroke: #ff7f0e"/>
     <use xlink:href="#m67f3cdb6ba" x="353.282209" y="295.477008" style="fill: #ff7f0e; stroke: #ff7f0e"/>
     <use xlink:href="#m67f3cdb6ba" x="357.391761" y="295.841845" style="fill: #ff7f0e; stroke: #ff7f0e"/>
     <use xlink:href="#m67f3cdb6ba" x="361.501312" y="295.787642" style="fill: #ff7f0e; stroke: #ff7f0e"/>
     <use xlink:href="#m67f3cdb6ba" x="365.610863" y="298.682969" style="fill: #ff7f0e; stroke: #ff7f0e"/>
     <use xlink:href="#m67f3cdb6ba" x="369.720414" y="298.020545" style="fill: #ff7f0e; stroke: #ff7f0e"/>
     <use xlink:href="#m67f3cdb6ba" x="373.829965" y="296.909152" style="fill: #ff7f0e; stroke: #ff7f0e"/>
     <use xlink:href="#m67f3cdb6ba" x="377.939517" y="297.033814" style="fill: #ff7f0e; stroke: #ff7f0e"/>
     <use xlink:href="#m67f3cdb6ba" x="382.049068" y="295.688104" style="fill: #ff7f0e; stroke: #ff7f0e"/>
     <use xlink:href="#m67f3cdb6ba" x="386.158619" y="294.471346" style="fill: #ff7f0e; stroke: #ff7f0e"/>
     <use xlink:href="#m67f3cdb6ba" x="390.26817" y="296.647907" style="fill: #ff7f0e; stroke: #ff7f0e"/>
     <use xlink:href="#m67f3cdb6ba" x="394.377722" y="295.135892" style="fill: #ff7f0e; stroke: #ff7f0e"/>
     <use xlink:href="#m67f3cdb6ba" x="398.487273" y="298.203738" style="fill: #ff7f0e; stroke: #ff7f0e"/>
    </g>
   </g>
   <g id="patch_9">
    <path d="M 57.6 307.584 
L 57.6 186.624 
" style="fill: none; stroke: #000000; stroke-width: 0.8; stroke-linejoin: miter; stroke-linecap: square"/>
   </g>
   <g id="patch_10">
    <path d="M 414.72 307.584 
L 414.72 186.624 
" style="fill: none; stroke: #000000; stroke-width: 0.8; stroke-linejoin: miter; stroke-linecap: square"/>
   </g>
   <g id="patch_11">
    <path d="M 57.6 307.584 
L 414.72 307.584 
" style="fill: none; stroke: #000000; stroke-width: 0.8; stroke-linejoin: miter; stroke-linecap: square"/>
   </g>
   <g id="patch_12">
    <path d="M 57.6 186.624 
L 414.72 186.624 
" style="fill: none; stroke: #000000; stroke-width: 0.8; stroke-linejoin: miter; stroke-linecap: square"/>
   </g>
   <g id="legend_2">
    <g id="patch_13">
     <path d="M 303.991875 223.98025 
L 407.72 223.98025 
Q 409.72 223.98025 409.72 221.98025 
L 409.72 193.624 
Q 409.72 191.624 407.72 191.624 
L 303.991875 191.624 
Q 301.991875 191.624 301.991875 193.624 
L 301.991875 221.98025 
Q 301.991875 223.98025 303.991875 223.98025 
z
" style="fill: #ffffff; opacity: 0.8; stroke: #cccccc; stroke-linejoin: miter"/>
    </g>
    <g id="line2d_34">
     <path d="M 305.991875 199.722437 
L 315.991875 199.722437 
L 325.991875 199.722437 
" style="fill: none; stroke: #1f77b4; stroke-width: 1.5; stroke-linecap: square"/>
     <g>
      <use xlink:href="#m79b992ef92" x="315.991875" y="199.722437" style="fill: #1f77b4; stroke: #1f77b4"/>
     </g>
    </g>
    <g id="text_33">
     <!-- training loss -->
     <g transform="translate(333.991875 203.222437) scale(0.1 -0.1)">
      <use xlink:href="#DejaVuSans-74"/>
      <use xlink:href="#DejaVuSans-72" x="39.208984"/>
      <use xlink:href="#DejaVuSans-61" x="80.322266"/>
      <use xlink:href="#DejaVuSans-69" x="141.601562"/>
      <use xlink:href="#DejaVuSans-6e" x="169.384766"/>
      <use xlink:href="#DejaVuSans-69" x="232.763672"/>
      <use xlink:href="#DejaVuSans-6e" x="260.546875"/>
      <use xlink:href="#DejaVuSans-67" x="323.925781"/>
      <use xlink:href="#DejaVuSans-20" x="387.402344"/>
      <use xlink:href="#DejaVuSans-6c" x="419.189453"/>
      <use xlink:href="#DejaVuSans-6f" x="446.972656"/>
      <use xlink:href="#DejaVuSans-73" x="508.154297"/>
      <use xlink:href="#DejaVuSans-73" x="560.253906"/>
     </g>
    </g>
    <g id="line2d_35">
     <path d="M 305.991875 214.400562 
L 315.991875 214.400562 
L 325.991875 214.400562 
" style="fill: none; stroke: #ff7f0e; stroke-width: 1.5; stroke-linecap: square"/>
     <g>
      <use xlink:href="#m67f3cdb6ba" x="315.991875" y="214.400562" style="fill: #ff7f0e; stroke: #ff7f0e"/>
     </g>
    </g>
    <g id="text_34">
     <!-- validation loss -->
     <g transform="translate(333.991875 217.900562) scale(0.1 -0.1)">
      <use xlink:href="#DejaVuSans-76"/>
      <use xlink:href="#DejaVuSans-61" x="59.179688"/>
      <use xlink:href="#DejaVuSans-6c" x="120.458984"/>
      <use xlink:href="#DejaVuSans-69" x="148.242188"/>
      <use xlink:href="#DejaVuSans-64" x="176.025391"/>
      <use xlink:href="#DejaVuSans-61" x="239.501953"/>
      <use xlink:href="#DejaVuSans-74" x="300.78125"/>
      <use xlink:href="#DejaVuSans-69" x="339.990234"/>
      <use xlink:href="#DejaVuSans-6f" x="367.773438"/>
      <use xlink:href="#DejaVuSans-6e" x="428.955078"/>
      <use xlink:href="#DejaVuSans-20" x="492.333984"/>
      <use xlink:href="#DejaVuSans-6c" x="524.121094"/>
      <use xlink:href="#DejaVuSans-6f" x="551.904297"/>
      <use xlink:href="#DejaVuSans-73" x="613.085938"/>
      <use xlink:href="#DejaVuSans-73" x="665.185547"/>
     </g>
    </g>
   </g>
  </g>
 </g>
 <defs>
  <clipPath id="p8af4aa4ad1">
   <rect x="57.6" y="41.472" width="357.12" height="120.96"/>
  </clipPath>
  <clipPath id="pb39aeb3f69">
   <rect x="57.6" y="186.624" width="357.12" height="120.96"/>
  </clipPath>
 </defs>
</svg>
