<?xml version="1.0" encoding="utf-8" standalone="no"?>
<!DOCTYPE svg PUBLIC "-//W3C//DTD SVG 1.1//EN"
  "http://www.w3.org/Graphics/SVG/1.1/DTD/svg11.dtd">
<svg xmlns:xlink="http://www.w3.org/1999/xlink" width="460.8pt" height="345.6pt" viewBox="0 0 460.8 345.6" xmlns="http://www.w3.org/2000/svg" version="1.1">
 <metadata>
  <rdf:RDF xmlns:dc="http://purl.org/dc/elements/1.1/" xmlns:cc="http://creativecommons.org/ns#" xmlns:rdf="http://www.w3.org/1999/02/22-rdf-syntax-ns#">
   <cc:Work>
    <dc:type rdf:resource="http://purl.org/dc/dcmitype/StillImage"/>
    <dc:date>2023-12-18T20:18:54.247096</dc:date>
    <dc:format>image/svg+xml</dc:format>
    <dc:creator>
     <cc:Agent>
      <dc:title>Matplotlib v3.8.0, https://matplotlib.org/</dc:title>
     </cc:Agent>
    </dc:creator>
   </cc:Work>
  </rdf:RDF>
 </metadata>
 <defs>
  <style type="text/css">*{stroke-linejoin: round; stroke-linecap: butt}</style>
 </defs>
 <g id="figure_1">
  <g id="patch_1">
   <path d="M 0 345.6 
L 460.8 345.6 
L 460.8 0 
L 0 0 
z
" style="fill: #ffffff"/>
  </g>
  <g id="axes_1">
   <g id="patch_2">
    <path d="M 57.6 162.432 
L 414.72 162.432 
L 414.72 41.472 
L 57.6 41.472 
z
" style="fill: #ffffff"/>
   </g>
   <g id="matplotlib.axis_1">
    <g id="xtick_1">
     <g id="line2d_1">
      <defs>
       <path id="m297367e5a8" d="M 0 0 
L 0 3.5 
" style="stroke: #000000; stroke-width: 0.8"/>
      </defs>
      <g>
       <use xlink:href="#m297367e5a8" x="73.832727" y="162.432" style="stroke: #000000; stroke-width: 0.8"/>
      </g>
     </g>
     <g id="text_1">
      <!-- 0 -->
      <g transform="translate(70.651477 177.030437) scale(0.1 -0.1)">
       <defs>
        <path id="DejaVuSans-30" d="M 2034 4250 
Q 1547 4250 1301 3770 
Q 1056 3291 1056 2328 
Q 1056 1369 1301 889 
Q 1547 409 2034 409 
Q 2525 409 2770 889 
Q 3016 1369 3016 2328 
Q 3016 3291 2770 3770 
Q 2525 4250 2034 4250 
z
M 2034 4750 
Q 2819 4750 3233 4129 
Q 3647 3509 3647 2328 
Q 3647 1150 3233 529 
Q 2819 -91 2034 -91 
Q 1250 -91 836 529 
Q 422 1150 422 2328 
Q 422 3509 836 4129 
Q 1250 4750 2034 4750 
z
" transform="scale(0.015625)"/>
       </defs>
       <use xlink:href="#DejaVuSans-30"/>
      </g>
     </g>
    </g>
    <g id="xtick_2">
     <g id="line2d_2">
      <g>
       <use xlink:href="#m297367e5a8" x="114.928239" y="162.432" style="stroke: #000000; stroke-width: 0.8"/>
      </g>
     </g>
     <g id="text_2">
      <!-- 10 -->
      <g transform="translate(108.565739 177.030437) scale(0.1 -0.1)">
       <defs>
        <path id="DejaVuSans-31" d="M 794 531 
L 1825 531 
L 1825 4091 
L 703 3866 
L 703 4441 
L 1819 4666 
L 2450 4666 
L 2450 531 
L 3481 531 
L 3481 0 
L 794 0 
L 794 531 
z
" transform="scale(0.015625)"/>
       </defs>
       <use xlink:href="#DejaVuSans-31"/>
       <use xlink:href="#DejaVuSans-30" x="63.623047"/>
      </g>
     </g>
    </g>
    <g id="xtick_3">
     <g id="line2d_3">
      <g>
       <use xlink:href="#m297367e5a8" x="156.023751" y="162.432" style="stroke: #000000; stroke-width: 0.8"/>
      </g>
     </g>
     <g id="text_3">
      <!-- 20 -->
      <g transform="translate(149.661251 177.030437) scale(0.1 -0.1)">
       <defs>
        <path id="DejaVuSans-32" d="M 1228 531 
L 3431 531 
L 3431 0 
L 469 0 
L 469 531 
Q 828 903 1448 1529 
Q 2069 2156 2228 2338 
Q 2531 2678 2651 2914 
Q 2772 3150 2772 3378 
Q 2772 3750 2511 3984 
Q 2250 4219 1831 4219 
Q 1534 4219 1204 4116 
Q 875 4013 500 3803 
L 500 4441 
Q 881 4594 1212 4672 
Q 1544 4750 1819 4750 
Q 2544 4750 2975 4387 
Q 3406 4025 3406 3419 
Q 3406 3131 3298 2873 
Q 3191 2616 2906 2266 
Q 2828 2175 2409 1742 
Q 1991 1309 1228 531 
z
" transform="scale(0.015625)"/>
       </defs>
       <use xlink:href="#DejaVuSans-32"/>
       <use xlink:href="#DejaVuSans-30" x="63.623047"/>
      </g>
     </g>
    </g>
    <g id="xtick_4">
     <g id="line2d_4">
      <g>
       <use xlink:href="#m297367e5a8" x="197.119264" y="162.432" style="stroke: #000000; stroke-width: 0.8"/>
      </g>
     </g>
     <g id="text_4">
      <!-- 30 -->
      <g transform="translate(190.756764 177.030437) scale(0.1 -0.1)">
       <defs>
        <path id="DejaVuSans-33" d="M 2597 2516 
Q 3050 2419 3304 2112 
Q 3559 1806 3559 1356 
Q 3559 666 3084 287 
Q 2609 -91 1734 -91 
Q 1441 -91 1130 -33 
Q 819 25 488 141 
L 488 750 
Q 750 597 1062 519 
Q 1375 441 1716 441 
Q 2309 441 2620 675 
Q 2931 909 2931 1356 
Q 2931 1769 2642 2001 
Q 2353 2234 1838 2234 
L 1294 2234 
L 1294 2753 
L 1863 2753 
Q 2328 2753 2575 2939 
Q 2822 3125 2822 3475 
Q 2822 3834 2567 4026 
Q 2313 4219 1838 4219 
Q 1578 4219 1281 4162 
Q 984 4106 628 3988 
L 628 4550 
Q 988 4650 1302 4700 
Q 1616 4750 1894 4750 
Q 2613 4750 3031 4423 
Q 3450 4097 3450 3541 
Q 3450 3153 3228 2886 
Q 3006 2619 2597 2516 
z
" transform="scale(0.015625)"/>
       </defs>
       <use xlink:href="#DejaVuSans-33"/>
       <use xlink:href="#DejaVuSans-30" x="63.623047"/>
      </g>
     </g>
    </g>
    <g id="xtick_5">
     <g id="line2d_5">
      <g>
       <use xlink:href="#m297367e5a8" x="238.214776" y="162.432" style="stroke: #000000; stroke-width: 0.8"/>
      </g>
     </g>
     <g id="text_5">
      <!-- 40 -->
      <g transform="translate(231.852276 177.030437) scale(0.1 -0.1)">
       <defs>
        <path id="DejaVuSans-34" d="M 2419 4116 
L 825 1625 
L 2419 1625 
L 2419 4116 
z
M 2253 4666 
L 3047 4666 
L 3047 1625 
L 3713 1625 
L 3713 1100 
L 3047 1100 
L 3047 0 
L 2419 0 
L 2419 1100 
L 313 1100 
L 313 1709 
L 2253 4666 
z
" transform="scale(0.015625)"/>
       </defs>
       <use xlink:href="#DejaVuSans-34"/>
       <use xlink:href="#DejaVuSans-30" x="63.623047"/>
      </g>
     </g>
    </g>
    <g id="xtick_6">
     <g id="line2d_6">
      <g>
       <use xlink:href="#m297367e5a8" x="279.310288" y="162.432" style="stroke: #000000; stroke-width: 0.8"/>
      </g>
     </g>
     <g id="text_6">
      <!-- 50 -->
      <g transform="translate(272.947788 177.030437) scale(0.1 -0.1)">
       <defs>
        <path id="DejaVuSans-35" d="M 691 4666 
L 3169 4666 
L 3169 4134 
L 1269 4134 
L 1269 2991 
Q 1406 3038 1543 3061 
Q 1681 3084 1819 3084 
Q 2600 3084 3056 2656 
Q 3513 2228 3513 1497 
Q 3513 744 3044 326 
Q 2575 -91 1722 -91 
Q 1428 -91 1123 -41 
Q 819 9 494 109 
L 494 744 
Q 775 591 1075 516 
Q 1375 441 1709 441 
Q 2250 441 2565 725 
Q 2881 1009 2881 1497 
Q 2881 1984 2565 2268 
Q 2250 2553 1709 2553 
Q 1456 2553 1204 2497 
Q 953 2441 691 2322 
L 691 4666 
z
" transform="scale(0.015625)"/>
       </defs>
       <use xlink:href="#DejaVuSans-35"/>
       <use xlink:href="#DejaVuSans-30" x="63.623047"/>
      </g>
     </g>
    </g>
    <g id="xtick_7">
     <g id="line2d_7">
      <g>
       <use xlink:href="#m297367e5a8" x="320.4058" y="162.432" style="stroke: #000000; stroke-width: 0.8"/>
      </g>
     </g>
     <g id="text_7">
      <!-- 60 -->
      <g transform="translate(314.0433 177.030437) scale(0.1 -0.1)">
       <defs>
        <path id="DejaVuSans-36" d="M 2113 2584 
Q 1688 2584 1439 2293 
Q 1191 2003 1191 1497 
Q 1191 994 1439 701 
Q 1688 409 2113 409 
Q 2538 409 2786 701 
Q 3034 994 3034 1497 
Q 3034 2003 2786 2293 
Q 2538 2584 2113 2584 
z
M 3366 4563 
L 3366 3988 
Q 3128 4100 2886 4159 
Q 2644 4219 2406 4219 
Q 1781 4219 1451 3797 
Q 1122 3375 1075 2522 
Q 1259 2794 1537 2939 
Q 1816 3084 2150 3084 
Q 2853 3084 3261 2657 
Q 3669 2231 3669 1497 
Q 3669 778 3244 343 
Q 2819 -91 2113 -91 
Q 1303 -91 875 529 
Q 447 1150 447 2328 
Q 447 3434 972 4092 
Q 1497 4750 2381 4750 
Q 2619 4750 2861 4703 
Q 3103 4656 3366 4563 
z
" transform="scale(0.015625)"/>
       </defs>
       <use xlink:href="#DejaVuSans-36"/>
       <use xlink:href="#DejaVuSans-30" x="63.623047"/>
      </g>
     </g>
    </g>
    <g id="xtick_8">
     <g id="line2d_8">
      <g>
       <use xlink:href="#m297367e5a8" x="361.501312" y="162.432" style="stroke: #000000; stroke-width: 0.8"/>
      </g>
     </g>
     <g id="text_8">
      <!-- 70 -->
      <g transform="translate(355.138812 177.030437) scale(0.1 -0.1)">
       <defs>
        <path id="DejaVuSans-37" d="M 525 4666 
L 3525 4666 
L 3525 4397 
L 1831 0 
L 1172 0 
L 2766 4134 
L 525 4134 
L 525 4666 
z
" transform="scale(0.015625)"/>
       </defs>
       <use xlink:href="#DejaVuSans-37"/>
       <use xlink:href="#DejaVuSans-30" x="63.623047"/>
      </g>
     </g>
    </g>
    <g id="xtick_9">
     <g id="line2d_9">
      <g>
       <use xlink:href="#m297367e5a8" x="402.596824" y="162.432" style="stroke: #000000; stroke-width: 0.8"/>
      </g>
     </g>
     <g id="text_9">
      <!-- 80 -->
      <g transform="translate(396.234324 177.030437) scale(0.1 -0.1)">
       <defs>
        <path id="DejaVuSans-38" d="M 2034 2216 
Q 1584 2216 1326 1975 
Q 1069 1734 1069 1313 
Q 1069 891 1326 650 
Q 1584 409 2034 409 
Q 2484 409 2743 651 
Q 3003 894 3003 1313 
Q 3003 1734 2745 1975 
Q 2488 2216 2034 2216 
z
M 1403 2484 
Q 997 2584 770 2862 
Q 544 3141 544 3541 
Q 544 4100 942 4425 
Q 1341 4750 2034 4750 
Q 2731 4750 3128 4425 
Q 3525 4100 3525 3541 
Q 3525 3141 3298 2862 
Q 3072 2584 2669 2484 
Q 3125 2378 3379 2068 
Q 3634 1759 3634 1313 
Q 3634 634 3220 271 
Q 2806 -91 2034 -91 
Q 1263 -91 848 271 
Q 434 634 434 1313 
Q 434 1759 690 2068 
Q 947 2378 1403 2484 
z
M 1172 3481 
Q 1172 3119 1398 2916 
Q 1625 2713 2034 2713 
Q 2441 2713 2670 2916 
Q 2900 3119 2900 3481 
Q 2900 3844 2670 4047 
Q 2441 4250 2034 4250 
Q 1625 4250 1398 4047 
Q 1172 3844 1172 3481 
z
" transform="scale(0.015625)"/>
       </defs>
       <use xlink:href="#DejaVuSans-38"/>
       <use xlink:href="#DejaVuSans-30" x="63.623047"/>
      </g>
     </g>
    </g>
   </g>
   <g id="matplotlib.axis_2">
    <g id="ytick_1">
     <g id="line2d_10">
      <defs>
       <path id="m43818188ea" d="M 0 0 
L -3.5 0 
" style="stroke: #000000; stroke-width: 0.8"/>
      </defs>
      <g>
       <use xlink:href="#m43818188ea" x="57.6" y="162.432" style="stroke: #000000; stroke-width: 0.8"/>
      </g>
     </g>
     <g id="text_10">
      <!-- 50% -->
      <g transform="translate(28.373438 166.231219) scale(0.1 -0.1)">
       <defs>
        <path id="DejaVuSans-25" d="M 4653 2053 
Q 4381 2053 4226 1822 
Q 4072 1591 4072 1178 
Q 4072 772 4226 539 
Q 4381 306 4653 306 
Q 4919 306 5073 539 
Q 5228 772 5228 1178 
Q 5228 1588 5073 1820 
Q 4919 2053 4653 2053 
z
M 4653 2450 
Q 5147 2450 5437 2106 
Q 5728 1763 5728 1178 
Q 5728 594 5436 251 
Q 5144 -91 4653 -91 
Q 4153 -91 3862 251 
Q 3572 594 3572 1178 
Q 3572 1766 3864 2108 
Q 4156 2450 4653 2450 
z
M 1428 4353 
Q 1159 4353 1004 4120 
Q 850 3888 850 3481 
Q 850 3069 1003 2837 
Q 1156 2606 1428 2606 
Q 1700 2606 1854 2837 
Q 2009 3069 2009 3481 
Q 2009 3884 1853 4118 
Q 1697 4353 1428 4353 
z
M 4250 4750 
L 4750 4750 
L 1831 -91 
L 1331 -91 
L 4250 4750 
z
M 1428 4750 
Q 1922 4750 2215 4408 
Q 2509 4066 2509 3481 
Q 2509 2891 2217 2550 
Q 1925 2209 1428 2209 
Q 931 2209 642 2551 
Q 353 2894 353 3481 
Q 353 4063 643 4406 
Q 934 4750 1428 4750 
z
" transform="scale(0.015625)"/>
       </defs>
       <use xlink:href="#DejaVuSans-35"/>
       <use xlink:href="#DejaVuSans-30" x="63.623047"/>
       <use xlink:href="#DejaVuSans-25" x="127.246094"/>
      </g>
     </g>
    </g>
    <g id="ytick_2">
     <g id="line2d_11">
      <g>
       <use xlink:href="#m43818188ea" x="57.6" y="138.24" style="stroke: #000000; stroke-width: 0.8"/>
      </g>
     </g>
     <g id="text_11">
      <!-- 60% -->
      <g transform="translate(28.373438 142.039219) scale(0.1 -0.1)">
       <use xlink:href="#DejaVuSans-36"/>
       <use xlink:href="#DejaVuSans-30" x="63.623047"/>
       <use xlink:href="#DejaVuSans-25" x="127.246094"/>
      </g>
     </g>
    </g>
    <g id="ytick_3">
     <g id="line2d_12">
      <g>
       <use xlink:href="#m43818188ea" x="57.6" y="114.048" style="stroke: #000000; stroke-width: 0.8"/>
      </g>
     </g>
     <g id="text_12">
      <!-- 70% -->
      <g transform="translate(28.373438 117.847219) scale(0.1 -0.1)">
       <use xlink:href="#DejaVuSans-37"/>
       <use xlink:href="#DejaVuSans-30" x="63.623047"/>
       <use xlink:href="#DejaVuSans-25" x="127.246094"/>
      </g>
     </g>
    </g>
    <g id="ytick_4">
     <g id="line2d_13">
      <g>
       <use xlink:href="#m43818188ea" x="57.6" y="89.856" style="stroke: #000000; stroke-width: 0.8"/>
      </g>
     </g>
     <g id="text_13">
      <!-- 80% -->
      <g transform="translate(28.373438 93.655219) scale(0.1 -0.1)">
       <use xlink:href="#DejaVuSans-38"/>
       <use xlink:href="#DejaVuSans-30" x="63.623047"/>
       <use xlink:href="#DejaVuSans-25" x="127.246094"/>
      </g>
     </g>
    </g>
    <g id="ytick_5">
     <g id="line2d_14">
      <g>
       <use xlink:href="#m43818188ea" x="57.6" y="65.664" style="stroke: #000000; stroke-width: 0.8"/>
      </g>
     </g>
     <g id="text_14">
      <!-- 90% -->
      <g transform="translate(28.373438 69.463219) scale(0.1 -0.1)">
       <defs>
        <path id="DejaVuSans-39" d="M 703 97 
L 703 672 
Q 941 559 1184 500 
Q 1428 441 1663 441 
Q 2288 441 2617 861 
Q 2947 1281 2994 2138 
Q 2813 1869 2534 1725 
Q 2256 1581 1919 1581 
Q 1219 1581 811 2004 
Q 403 2428 403 3163 
Q 403 3881 828 4315 
Q 1253 4750 1959 4750 
Q 2769 4750 3195 4129 
Q 3622 3509 3622 2328 
Q 3622 1225 3098 567 
Q 2575 -91 1691 -91 
Q 1453 -91 1209 -44 
Q 966 3 703 97 
z
M 1959 2075 
Q 2384 2075 2632 2365 
Q 2881 2656 2881 3163 
Q 2881 3666 2632 3958 
Q 2384 4250 1959 4250 
Q 1534 4250 1286 3958 
Q 1038 3666 1038 3163 
Q 1038 2656 1286 2365 
Q 1534 2075 1959 2075 
z
" transform="scale(0.015625)"/>
       </defs>
       <use xlink:href="#DejaVuSans-39"/>
       <use xlink:href="#DejaVuSans-30" x="63.623047"/>
       <use xlink:href="#DejaVuSans-25" x="127.246094"/>
      </g>
     </g>
    </g>
    <g id="ytick_6">
     <g id="line2d_15">
      <g>
       <use xlink:href="#m43818188ea" x="57.6" y="41.472" style="stroke: #000000; stroke-width: 0.8"/>
      </g>
     </g>
     <g id="text_15">
      <!-- 100% -->
      <g transform="translate(22.010938 45.271219) scale(0.1 -0.1)">
       <use xlink:href="#DejaVuSans-31"/>
       <use xlink:href="#DejaVuSans-30" x="63.623047"/>
       <use xlink:href="#DejaVuSans-30" x="127.246094"/>
       <use xlink:href="#DejaVuSans-25" x="190.869141"/>
      </g>
     </g>
    </g>
    <g id="text_16">
     <!-- Accuracy -->
     <g transform="translate(15.93125 124.780125) rotate(-90) scale(0.1 -0.1)">
      <defs>
       <path id="DejaVuSans-41" d="M 2188 4044 
L 1331 1722 
L 3047 1722 
L 2188 4044 
z
M 1831 4666 
L 2547 4666 
L 4325 0 
L 3669 0 
L 3244 1197 
L 1141 1197 
L 716 0 
L 50 0 
L 1831 4666 
z
" transform="scale(0.015625)"/>
       <path id="DejaVuSans-63" d="M 3122 3366 
L 3122 2828 
Q 2878 2963 2633 3030 
Q 2388 3097 2138 3097 
Q 1578 3097 1268 2742 
Q 959 2388 959 1747 
Q 959 1106 1268 751 
Q 1578 397 2138 397 
Q 2388 397 2633 464 
Q 2878 531 3122 666 
L 3122 134 
Q 2881 22 2623 -34 
Q 2366 -91 2075 -91 
Q 1284 -91 818 406 
Q 353 903 353 1747 
Q 353 2603 823 3093 
Q 1294 3584 2113 3584 
Q 2378 3584 2631 3529 
Q 2884 3475 3122 3366 
z
" transform="scale(0.015625)"/>
       <path id="DejaVuSans-75" d="M 544 1381 
L 544 3500 
L 1119 3500 
L 1119 1403 
Q 1119 906 1312 657 
Q 1506 409 1894 409 
Q 2359 409 2629 706 
Q 2900 1003 2900 1516 
L 2900 3500 
L 3475 3500 
L 3475 0 
L 2900 0 
L 2900 538 
Q 2691 219 2414 64 
Q 2138 -91 1772 -91 
Q 1169 -91 856 284 
Q 544 659 544 1381 
z
M 1991 3584 
L 1991 3584 
z
" transform="scale(0.015625)"/>
       <path id="DejaVuSans-72" d="M 2631 2963 
Q 2534 3019 2420 3045 
Q 2306 3072 2169 3072 
Q 1681 3072 1420 2755 
Q 1159 2438 1159 1844 
L 1159 0 
L 581 0 
L 581 3500 
L 1159 3500 
L 1159 2956 
Q 1341 3275 1631 3429 
Q 1922 3584 2338 3584 
Q 2397 3584 2469 3576 
Q 2541 3569 2628 3553 
L 2631 2963 
z
" transform="scale(0.015625)"/>
       <path id="DejaVuSans-61" d="M 2194 1759 
Q 1497 1759 1228 1600 
Q 959 1441 959 1056 
Q 959 750 1161 570 
Q 1363 391 1709 391 
Q 2188 391 2477 730 
Q 2766 1069 2766 1631 
L 2766 1759 
L 2194 1759 
z
M 3341 1997 
L 3341 0 
L 2766 0 
L 2766 531 
Q 2569 213 2275 61 
Q 1981 -91 1556 -91 
Q 1019 -91 701 211 
Q 384 513 384 1019 
Q 384 1609 779 1909 
Q 1175 2209 1959 2209 
L 2766 2209 
L 2766 2266 
Q 2766 2663 2505 2880 
Q 2244 3097 1772 3097 
Q 1472 3097 1187 3025 
Q 903 2953 641 2809 
L 641 3341 
Q 956 3463 1253 3523 
Q 1550 3584 1831 3584 
Q 2591 3584 2966 3190 
Q 3341 2797 3341 1997 
z
" transform="scale(0.015625)"/>
       <path id="DejaVuSans-79" d="M 2059 -325 
Q 1816 -950 1584 -1140 
Q 1353 -1331 966 -1331 
L 506 -1331 
L 506 -850 
L 844 -850 
Q 1081 -850 1212 -737 
Q 1344 -625 1503 -206 
L 1606 56 
L 191 3500 
L 800 3500 
L 1894 763 
L 2988 3500 
L 3597 3500 
L 2059 -325 
z
" transform="scale(0.015625)"/>
      </defs>
      <use xlink:href="#DejaVuSans-41"/>
      <use xlink:href="#DejaVuSans-63" x="66.658203"/>
      <use xlink:href="#DejaVuSans-63" x="121.638672"/>
      <use xlink:href="#DejaVuSans-75" x="176.619141"/>
      <use xlink:href="#DejaVuSans-72" x="239.998047"/>
      <use xlink:href="#DejaVuSans-61" x="281.111328"/>
      <use xlink:href="#DejaVuSans-63" x="342.390625"/>
      <use xlink:href="#DejaVuSans-79" x="397.371094"/>
     </g>
    </g>
   </g>
   <g id="line2d_16">
    <path d="M 73.832727 208.219122 
L 77.942278 195.918102 
L 82.05183 192.50115 
L 86.161381 194.551322 
L 90.270932 196.601495 
L 94.380483 191.134371 
L 98.490035 191.134371 
L 102.599586 178.833358 
L 106.709137 180.200137 
L 110.818688 191.134371 
L 114.928239 184.300475 
L 119.037791 188.400812 
L 123.147342 181.566916 
L 127.256893 176.099799 
L 131.366444 186.350647 
L 135.475995 184.983868 
L 139.585547 182.250302 
L 143.695098 178.149965 
L 147.804649 171.316068 
L 151.9142 170.632675 
L 156.023751 175.416406 
L 160.133303 188.400812 
L 164.242854 176.099799 
L 168.352405 164.482172 
L 172.461956 178.149965 
L 176.571507 171.999454 
L 180.681059 176.783185 
L 184.79061 163.798779 
L 188.900161 177.466579 
L 193.009712 171.316068 
L 197.119264 169.949289 
L 201.228815 176.099799 
L 205.338366 177.466579 
L 209.447917 179.516744 
L 213.557468 174.049627 
L 217.66702 174.049627 
L 221.776571 176.783185 
L 225.886122 174.73302 
L 229.995673 167.899117 
L 234.105224 169.949289 
L 238.214776 179.516744 
L 242.324327 176.783185 
L 246.433878 174.049627 
L 250.543429 169.265896 
L 254.65298 168.58251 
L 258.762532 175.416406 
L 262.872083 180.200137 
L 266.981634 180.200137 
L 271.091185 183.617081 
L 275.200736 172.682848 
L 279.310288 178.149965 
L 283.419839 169.949289 
L 287.52939 173.366234 
L 291.638941 169.265896 
L 295.748493 175.416406 
L 299.858044 161.065214 
L 303.967595 169.949289 
L 308.077146 174.049627 
L 312.186697 171.999454 
L 316.296249 174.73302 
L 320.4058 174.73302 
L 324.515351 171.316068 
L 328.624902 176.099799 
L 332.734453 170.632675 
L 336.844005 187.034033 
L 340.953556 176.783185 
L 345.063107 165.848952 
L 349.172658 176.783185 
L 353.282209 177.466579 
L 357.391761 175.416406 
L 361.501312 167.215731 
L 365.610863 176.099799 
L 369.720414 166.532338 
L 373.829965 172.682848 
L 377.939517 169.265896 
L 382.049068 184.300475 
L 386.158619 162.432 
L 390.26817 161.748614 
L 394.377722 174.73302 
L 398.487273 177.466579 
" clip-path="url(#pc44bb44b34)" style="fill: none; stroke: #1f77b4; stroke-width: 1.5; stroke-linecap: square"/>
    <defs>
     <path id="mc166099ef3" d="M 0 3 
C 0.795609 3 1.55874 2.683901 2.12132 2.12132 
C 2.683901 1.55874 3 0.795609 3 0 
C 3 -0.795609 2.683901 -1.55874 2.12132 -2.12132 
C 1.55874 -2.683901 0.795609 -3 0 -3 
C -0.795609 -3 -1.55874 -2.683901 -2.12132 -2.12132 
C -2.683901 -1.55874 -3 -0.795609 -3 0 
C -3 0.795609 -2.683901 1.55874 -2.12132 2.12132 
C -1.55874 2.683901 -0.795609 3 0 3 
z
" style="stroke: #1f77b4"/>
    </defs>
    <g clip-path="url(#pc44bb44b34)">
     <use xlink:href="#mc166099ef3" x="73.832727" y="208.219122" style="fill: #1f77b4; stroke: #1f77b4"/>
     <use xlink:href="#mc166099ef3" x="77.942278" y="195.918102" style="fill: #1f77b4; stroke: #1f77b4"/>
     <use xlink:href="#mc166099ef3" x="82.05183" y="192.50115" style="fill: #1f77b4; stroke: #1f77b4"/>
     <use xlink:href="#mc166099ef3" x="86.161381" y="194.551322" style="fill: #1f77b4; stroke: #1f77b4"/>
     <use xlink:href="#mc166099ef3" x="90.270932" y="196.601495" style="fill: #1f77b4; stroke: #1f77b4"/>
     <use xlink:href="#mc166099ef3" x="94.380483" y="191.134371" style="fill: #1f77b4; stroke: #1f77b4"/>
     <use xlink:href="#mc166099ef3" x="98.490035" y="191.134371" style="fill: #1f77b4; stroke: #1f77b4"/>
     <use xlink:href="#mc166099ef3" x="102.599586" y="178.833358" style="fill: #1f77b4; stroke: #1f77b4"/>
     <use xlink:href="#mc166099ef3" x="106.709137" y="180.200137" style="fill: #1f77b4; stroke: #1f77b4"/>
     <use xlink:href="#mc166099ef3" x="110.818688" y="191.134371" style="fill: #1f77b4; stroke: #1f77b4"/>
     <use xlink:href="#mc166099ef3" x="114.928239" y="184.300475" style="fill: #1f77b4; stroke: #1f77b4"/>
     <use xlink:href="#mc166099ef3" x="119.037791" y="188.400812" style="fill: #1f77b4; stroke: #1f77b4"/>
     <use xlink:href="#mc166099ef3" x="123.147342" y="181.566916" style="fill: #1f77b4; stroke: #1f77b4"/>
     <use xlink:href="#mc166099ef3" x="127.256893" y="176.099799" style="fill: #1f77b4; stroke: #1f77b4"/>
     <use xlink:href="#mc166099ef3" x="131.366444" y="186.350647" style="fill: #1f77b4; stroke: #1f77b4"/>
     <use xlink:href="#mc166099ef3" x="135.475995" y="184.983868" style="fill: #1f77b4; stroke: #1f77b4"/>
     <use xlink:href="#mc166099ef3" x="139.585547" y="182.250302" style="fill: #1f77b4; stroke: #1f77b4"/>
     <use xlink:href="#mc166099ef3" x="143.695098" y="178.149965" style="fill: #1f77b4; stroke: #1f77b4"/>
     <use xlink:href="#mc166099ef3" x="147.804649" y="171.316068" style="fill: #1f77b4; stroke: #1f77b4"/>
     <use xlink:href="#mc166099ef3" x="151.9142" y="170.632675" style="fill: #1f77b4; stroke: #1f77b4"/>
     <use xlink:href="#mc166099ef3" x="156.023751" y="175.416406" style="fill: #1f77b4; stroke: #1f77b4"/>
     <use xlink:href="#mc166099ef3" x="160.133303" y="188.400812" style="fill: #1f77b4; stroke: #1f77b4"/>
     <use xlink:href="#mc166099ef3" x="164.242854" y="176.099799" style="fill: #1f77b4; stroke: #1f77b4"/>
     <use xlink:href="#mc166099ef3" x="168.352405" y="164.482172" style="fill: #1f77b4; stroke: #1f77b4"/>
     <use xlink:href="#mc166099ef3" x="172.461956" y="178.149965" style="fill: #1f77b4; stroke: #1f77b4"/>
     <use xlink:href="#mc166099ef3" x="176.571507" y="171.999454" style="fill: #1f77b4; stroke: #1f77b4"/>
     <use xlink:href="#mc166099ef3" x="180.681059" y="176.783185" style="fill: #1f77b4; stroke: #1f77b4"/>
     <use xlink:href="#mc166099ef3" x="184.79061" y="163.798779" style="fill: #1f77b4; stroke: #1f77b4"/>
     <use xlink:href="#mc166099ef3" x="188.900161" y="177.466579" style="fill: #1f77b4; stroke: #1f77b4"/>
     <use xlink:href="#mc166099ef3" x="193.009712" y="171.316068" style="fill: #1f77b4; stroke: #1f77b4"/>
     <use xlink:href="#mc166099ef3" x="197.119264" y="169.949289" style="fill: #1f77b4; stroke: #1f77b4"/>
     <use xlink:href="#mc166099ef3" x="201.228815" y="176.099799" style="fill: #1f77b4; stroke: #1f77b4"/>
     <use xlink:href="#mc166099ef3" x="205.338366" y="177.466579" style="fill: #1f77b4; stroke: #1f77b4"/>
     <use xlink:href="#mc166099ef3" x="209.447917" y="179.516744" style="fill: #1f77b4; stroke: #1f77b4"/>
     <use xlink:href="#mc166099ef3" x="213.557468" y="174.049627" style="fill: #1f77b4; stroke: #1f77b4"/>
     <use xlink:href="#mc166099ef3" x="217.66702" y="174.049627" style="fill: #1f77b4; stroke: #1f77b4"/>
     <use xlink:href="#mc166099ef3" x="221.776571" y="176.783185" style="fill: #1f77b4; stroke: #1f77b4"/>
     <use xlink:href="#mc166099ef3" x="225.886122" y="174.73302" style="fill: #1f77b4; stroke: #1f77b4"/>
     <use xlink:href="#mc166099ef3" x="229.995673" y="167.899117" style="fill: #1f77b4; stroke: #1f77b4"/>
     <use xlink:href="#mc166099ef3" x="234.105224" y="169.949289" style="fill: #1f77b4; stroke: #1f77b4"/>
     <use xlink:href="#mc166099ef3" x="238.214776" y="179.516744" style="fill: #1f77b4; stroke: #1f77b4"/>
     <use xlink:href="#mc166099ef3" x="242.324327" y="176.783185" style="fill: #1f77b4; stroke: #1f77b4"/>
     <use xlink:href="#mc166099ef3" x="246.433878" y="174.049627" style="fill: #1f77b4; stroke: #1f77b4"/>
     <use xlink:href="#mc166099ef3" x="250.543429" y="169.265896" style="fill: #1f77b4; stroke: #1f77b4"/>
     <use xlink:href="#mc166099ef3" x="254.65298" y="168.58251" style="fill: #1f77b4; stroke: #1f77b4"/>
     <use xlink:href="#mc166099ef3" x="258.762532" y="175.416406" style="fill: #1f77b4; stroke: #1f77b4"/>
     <use xlink:href="#mc166099ef3" x="262.872083" y="180.200137" style="fill: #1f77b4; stroke: #1f77b4"/>
     <use xlink:href="#mc166099ef3" x="266.981634" y="180.200137" style="fill: #1f77b4; stroke: #1f77b4"/>
     <use xlink:href="#mc166099ef3" x="271.091185" y="183.617081" style="fill: #1f77b4; stroke: #1f77b4"/>
     <use xlink:href="#mc166099ef3" x="275.200736" y="172.682848" style="fill: #1f77b4; stroke: #1f77b4"/>
     <use xlink:href="#mc166099ef3" x="279.310288" y="178.149965" style="fill: #1f77b4; stroke: #1f77b4"/>
     <use xlink:href="#mc166099ef3" x="283.419839" y="169.949289" style="fill: #1f77b4; stroke: #1f77b4"/>
     <use xlink:href="#mc166099ef3" x="287.52939" y="173.366234" style="fill: #1f77b4; stroke: #1f77b4"/>
     <use xlink:href="#mc166099ef3" x="291.638941" y="169.265896" style="fill: #1f77b4; stroke: #1f77b4"/>
     <use xlink:href="#mc166099ef3" x="295.748493" y="175.416406" style="fill: #1f77b4; stroke: #1f77b4"/>
     <use xlink:href="#mc166099ef3" x="299.858044" y="161.065214" style="fill: #1f77b4; stroke: #1f77b4"/>
     <use xlink:href="#mc166099ef3" x="303.967595" y="169.949289" style="fill: #1f77b4; stroke: #1f77b4"/>
     <use xlink:href="#mc166099ef3" x="308.077146" y="174.049627" style="fill: #1f77b4; stroke: #1f77b4"/>
     <use xlink:href="#mc166099ef3" x="312.186697" y="171.999454" style="fill: #1f77b4; stroke: #1f77b4"/>
     <use xlink:href="#mc166099ef3" x="316.296249" y="174.73302" style="fill: #1f77b4; stroke: #1f77b4"/>
     <use xlink:href="#mc166099ef3" x="320.4058" y="174.73302" style="fill: #1f77b4; stroke: #1f77b4"/>
     <use xlink:href="#mc166099ef3" x="324.515351" y="171.316068" style="fill: #1f77b4; stroke: #1f77b4"/>
     <use xlink:href="#mc166099ef3" x="328.624902" y="176.099799" style="fill: #1f77b4; stroke: #1f77b4"/>
     <use xlink:href="#mc166099ef3" x="332.734453" y="170.632675" style="fill: #1f77b4; stroke: #1f77b4"/>
     <use xlink:href="#mc166099ef3" x="336.844005" y="187.034033" style="fill: #1f77b4; stroke: #1f77b4"/>
     <use xlink:href="#mc166099ef3" x="340.953556" y="176.783185" style="fill: #1f77b4; stroke: #1f77b4"/>
     <use xlink:href="#mc166099ef3" x="345.063107" y="165.848952" style="fill: #1f77b4; stroke: #1f77b4"/>
     <use xlink:href="#mc166099ef3" x="349.172658" y="176.783185" style="fill: #1f77b4; stroke: #1f77b4"/>
     <use xlink:href="#mc166099ef3" x="353.282209" y="177.466579" style="fill: #1f77b4; stroke: #1f77b4"/>
     <use xlink:href="#mc166099ef3" x="357.391761" y="175.416406" style="fill: #1f77b4; stroke: #1f77b4"/>
     <use xlink:href="#mc166099ef3" x="361.501312" y="167.215731" style="fill: #1f77b4; stroke: #1f77b4"/>
     <use xlink:href="#mc166099ef3" x="365.610863" y="176.099799" style="fill: #1f77b4; stroke: #1f77b4"/>
     <use xlink:href="#mc166099ef3" x="369.720414" y="166.532338" style="fill: #1f77b4; stroke: #1f77b4"/>
     <use xlink:href="#mc166099ef3" x="373.829965" y="172.682848" style="fill: #1f77b4; stroke: #1f77b4"/>
     <use xlink:href="#mc166099ef3" x="377.939517" y="169.265896" style="fill: #1f77b4; stroke: #1f77b4"/>
     <use xlink:href="#mc166099ef3" x="382.049068" y="184.300475" style="fill: #1f77b4; stroke: #1f77b4"/>
     <use xlink:href="#mc166099ef3" x="386.158619" y="162.432" style="fill: #1f77b4; stroke: #1f77b4"/>
     <use xlink:href="#mc166099ef3" x="390.26817" y="161.748614" style="fill: #1f77b4; stroke: #1f77b4"/>
     <use xlink:href="#mc166099ef3" x="394.377722" y="174.73302" style="fill: #1f77b4; stroke: #1f77b4"/>
     <use xlink:href="#mc166099ef3" x="398.487273" y="177.466579" style="fill: #1f77b4; stroke: #1f77b4"/>
    </g>
   </g>
   <g id="line2d_17">
    <path d="M 73.832727 242.352002 
L 77.942278 253.152 
L 82.05183 235.872001 
L 86.161381 212.111998 
L 90.270932 229.392001 
L 94.380483 214.271997 
L 98.490035 225.071999 
L 102.599586 205.632001 
L 106.709137 205.632001 
L 110.818688 192.672 
L 114.928239 181.871998 
L 119.037791 209.951999 
L 123.147342 184.031997 
L 127.256893 209.951999 
L 131.366444 218.592002 
L 135.475995 184.031997 
L 139.585547 205.632001 
L 143.695098 201.312003 
L 147.804649 201.312003 
L 151.9142 171.072003 
L 156.023751 199.151997 
L 160.133303 244.512001 
L 164.242854 225.071999 
L 168.352405 212.111998 
L 172.461956 209.951999 
L 176.571507 201.312003 
L 180.681059 209.951999 
L 184.79061 203.472002 
L 188.900161 207.792 
L 193.009712 199.151997 
L 197.119264 186.192003 
L 201.228815 181.871998 
L 205.338366 190.512001 
L 209.447917 209.951999 
L 213.557468 188.352002 
L 217.66702 196.991998 
L 221.776571 240.191999 
L 225.886122 188.352002 
L 229.995673 199.151997 
L 234.105224 225.071999 
L 238.214776 209.951999 
L 242.324327 229.392001 
L 246.433878 227.232002 
L 250.543429 188.352002 
L 254.65298 199.151997 
L 258.762532 212.111998 
L 262.872083 240.191999 
L 266.981634 233.711998 
L 271.091185 194.831999 
L 275.200736 203.472002 
L 279.310288 216.432003 
L 283.419839 205.632001 
L 287.52939 205.632001 
L 291.638941 194.831999 
L 295.748493 196.991998 
L 299.858044 212.111998 
L 303.967595 240.191999 
L 308.077146 229.392001 
L 312.186697 216.432003 
L 316.296249 212.111998 
L 320.4058 227.232002 
L 324.515351 205.632001 
L 328.624902 179.711999 
L 332.734453 207.792 
L 336.844005 194.831999 
L 340.953556 244.512001 
L 345.063107 212.111998 
L 349.172658 203.472002 
L 353.282209 194.831999 
L 357.391761 177.552 
L 361.501312 216.432003 
L 365.610863 220.752001 
L 369.720414 207.792 
L 373.829965 192.672 
L 377.939517 201.312003 
L 382.049068 225.071999 
L 386.158619 205.632001 
L 390.26817 233.711998 
L 394.377722 240.191999 
L 398.487273 177.552 
" clip-path="url(#pc44bb44b34)" style="fill: none; stroke: #ff7f0e; stroke-width: 1.5; stroke-linecap: square"/>
    <defs>
     <path id="m85617be86c" d="M 0 3 
C 0.795609 3 1.55874 2.683901 2.12132 2.12132 
C 2.683901 1.55874 3 0.795609 3 0 
C 3 -0.795609 2.683901 -1.55874 2.12132 -2.12132 
C 1.55874 -2.683901 0.795609 -3 0 -3 
C -0.795609 -3 -1.55874 -2.683901 -2.12132 -2.12132 
C -2.683901 -1.55874 -3 -0.795609 -3 0 
C -3 0.795609 -2.683901 1.55874 -2.12132 2.12132 
C -1.55874 2.683901 -0.795609 3 0 3 
z
" style="stroke: #ff7f0e"/>
    </defs>
    <g clip-path="url(#pc44bb44b34)">
     <use xlink:href="#m85617be86c" x="73.832727" y="242.352002" style="fill: #ff7f0e; stroke: #ff7f0e"/>
     <use xlink:href="#m85617be86c" x="77.942278" y="253.152" style="fill: #ff7f0e; stroke: #ff7f0e"/>
     <use xlink:href="#m85617be86c" x="82.05183" y="235.872001" style="fill: #ff7f0e; stroke: #ff7f0e"/>
     <use xlink:href="#m85617be86c" x="86.161381" y="212.111998" style="fill: #ff7f0e; stroke: #ff7f0e"/>
     <use xlink:href="#m85617be86c" x="90.270932" y="229.392001" style="fill: #ff7f0e; stroke: #ff7f0e"/>
     <use xlink:href="#m85617be86c" x="94.380483" y="214.271997" style="fill: #ff7f0e; stroke: #ff7f0e"/>
     <use xlink:href="#m85617be86c" x="98.490035" y="225.071999" style="fill: #ff7f0e; stroke: #ff7f0e"/>
     <use xlink:href="#m85617be86c" x="102.599586" y="205.632001" style="fill: #ff7f0e; stroke: #ff7f0e"/>
     <use xlink:href="#m85617be86c" x="106.709137" y="205.632001" style="fill: #ff7f0e; stroke: #ff7f0e"/>
     <use xlink:href="#m85617be86c" x="110.818688" y="192.672" style="fill: #ff7f0e; stroke: #ff7f0e"/>
     <use xlink:href="#m85617be86c" x="114.928239" y="181.871998" style="fill: #ff7f0e; stroke: #ff7f0e"/>
     <use xlink:href="#m85617be86c" x="119.037791" y="209.951999" style="fill: #ff7f0e; stroke: #ff7f0e"/>
     <use xlink:href="#m85617be86c" x="123.147342" y="184.031997" style="fill: #ff7f0e; stroke: #ff7f0e"/>
     <use xlink:href="#m85617be86c" x="127.256893" y="209.951999" style="fill: #ff7f0e; stroke: #ff7f0e"/>
     <use xlink:href="#m85617be86c" x="131.366444" y="218.592002" style="fill: #ff7f0e; stroke: #ff7f0e"/>
     <use xlink:href="#m85617be86c" x="135.475995" y="184.031997" style="fill: #ff7f0e; stroke: #ff7f0e"/>
     <use xlink:href="#m85617be86c" x="139.585547" y="205.632001" style="fill: #ff7f0e; stroke: #ff7f0e"/>
     <use xlink:href="#m85617be86c" x="143.695098" y="201.312003" style="fill: #ff7f0e; stroke: #ff7f0e"/>
     <use xlink:href="#m85617be86c" x="147.804649" y="201.312003" style="fill: #ff7f0e; stroke: #ff7f0e"/>
     <use xlink:href="#m85617be86c" x="151.9142" y="171.072003" style="fill: #ff7f0e; stroke: #ff7f0e"/>
     <use xlink:href="#m85617be86c" x="156.023751" y="199.151997" style="fill: #ff7f0e; stroke: #ff7f0e"/>
     <use xlink:href="#m85617be86c" x="160.133303" y="244.512001" style="fill: #ff7f0e; stroke: #ff7f0e"/>
     <use xlink:href="#m85617be86c" x="164.242854" y="225.071999" style="fill: #ff7f0e; stroke: #ff7f0e"/>
     <use xlink:href="#m85617be86c" x="168.352405" y="212.111998" style="fill: #ff7f0e; stroke: #ff7f0e"/>
     <use xlink:href="#m85617be86c" x="172.461956" y="209.951999" style="fill: #ff7f0e; stroke: #ff7f0e"/>
     <use xlink:href="#m85617be86c" x="176.571507" y="201.312003" style="fill: #ff7f0e; stroke: #ff7f0e"/>
     <use xlink:href="#m85617be86c" x="180.681059" y="209.951999" style="fill: #ff7f0e; stroke: #ff7f0e"/>
     <use xlink:href="#m85617be86c" x="184.79061" y="203.472002" style="fill: #ff7f0e; stroke: #ff7f0e"/>
     <use xlink:href="#m85617be86c" x="188.900161" y="207.792" style="fill: #ff7f0e; stroke: #ff7f0e"/>
     <use xlink:href="#m85617be86c" x="193.009712" y="199.151997" style="fill: #ff7f0e; stroke: #ff7f0e"/>
     <use xlink:href="#m85617be86c" x="197.119264" y="186.192003" style="fill: #ff7f0e; stroke: #ff7f0e"/>
     <use xlink:href="#m85617be86c" x="201.228815" y="181.871998" style="fill: #ff7f0e; stroke: #ff7f0e"/>
     <use xlink:href="#m85617be86c" x="205.338366" y="190.512001" style="fill: #ff7f0e; stroke: #ff7f0e"/>
     <use xlink:href="#m85617be86c" x="209.447917" y="209.951999" style="fill: #ff7f0e; stroke: #ff7f0e"/>
     <use xlink:href="#m85617be86c" x="213.557468" y="188.352002" style="fill: #ff7f0e; stroke: #ff7f0e"/>
     <use xlink:href="#m85617be86c" x="217.66702" y="196.991998" style="fill: #ff7f0e; stroke: #ff7f0e"/>
     <use xlink:href="#m85617be86c" x="221.776571" y="240.191999" style="fill: #ff7f0e; stroke: #ff7f0e"/>
     <use xlink:href="#m85617be86c" x="225.886122" y="188.352002" style="fill: #ff7f0e; stroke: #ff7f0e"/>
     <use xlink:href="#m85617be86c" x="229.995673" y="199.151997" style="fill: #ff7f0e; stroke: #ff7f0e"/>
     <use xlink:href="#m85617be86c" x="234.105224" y="225.071999" style="fill: #ff7f0e; stroke: #ff7f0e"/>
     <use xlink:href="#m85617be86c" x="238.214776" y="209.951999" style="fill: #ff7f0e; stroke: #ff7f0e"/>
     <use xlink:href="#m85617be86c" x="242.324327" y="229.392001" style="fill: #ff7f0e; stroke: #ff7f0e"/>
     <use xlink:href="#m85617be86c" x="246.433878" y="227.232002" style="fill: #ff7f0e; stroke: #ff7f0e"/>
     <use xlink:href="#m85617be86c" x="250.543429" y="188.352002" style="fill: #ff7f0e; stroke: #ff7f0e"/>
     <use xlink:href="#m85617be86c" x="254.65298" y="199.151997" style="fill: #ff7f0e; stroke: #ff7f0e"/>
     <use xlink:href="#m85617be86c" x="258.762532" y="212.111998" style="fill: #ff7f0e; stroke: #ff7f0e"/>
     <use xlink:href="#m85617be86c" x="262.872083" y="240.191999" style="fill: #ff7f0e; stroke: #ff7f0e"/>
     <use xlink:href="#m85617be86c" x="266.981634" y="233.711998" style="fill: #ff7f0e; stroke: #ff7f0e"/>
     <use xlink:href="#m85617be86c" x="271.091185" y="194.831999" style="fill: #ff7f0e; stroke: #ff7f0e"/>
     <use xlink:href="#m85617be86c" x="275.200736" y="203.472002" style="fill: #ff7f0e; stroke: #ff7f0e"/>
     <use xlink:href="#m85617be86c" x="279.310288" y="216.432003" style="fill: #ff7f0e; stroke: #ff7f0e"/>
     <use xlink:href="#m85617be86c" x="283.419839" y="205.632001" style="fill: #ff7f0e; stroke: #ff7f0e"/>
     <use xlink:href="#m85617be86c" x="287.52939" y="205.632001" style="fill: #ff7f0e; stroke: #ff7f0e"/>
     <use xlink:href="#m85617be86c" x="291.638941" y="194.831999" style="fill: #ff7f0e; stroke: #ff7f0e"/>
     <use xlink:href="#m85617be86c" x="295.748493" y="196.991998" style="fill: #ff7f0e; stroke: #ff7f0e"/>
     <use xlink:href="#m85617be86c" x="299.858044" y="212.111998" style="fill: #ff7f0e; stroke: #ff7f0e"/>
     <use xlink:href="#m85617be86c" x="303.967595" y="240.191999" style="fill: #ff7f0e; stroke: #ff7f0e"/>
     <use xlink:href="#m85617be86c" x="308.077146" y="229.392001" style="fill: #ff7f0e; stroke: #ff7f0e"/>
     <use xlink:href="#m85617be86c" x="312.186697" y="216.432003" style="fill: #ff7f0e; stroke: #ff7f0e"/>
     <use xlink:href="#m85617be86c" x="316.296249" y="212.111998" style="fill: #ff7f0e; stroke: #ff7f0e"/>
     <use xlink:href="#m85617be86c" x="320.4058" y="227.232002" style="fill: #ff7f0e; stroke: #ff7f0e"/>
     <use xlink:href="#m85617be86c" x="324.515351" y="205.632001" style="fill: #ff7f0e; stroke: #ff7f0e"/>
     <use xlink:href="#m85617be86c" x="328.624902" y="179.711999" style="fill: #ff7f0e; stroke: #ff7f0e"/>
     <use xlink:href="#m85617be86c" x="332.734453" y="207.792" style="fill: #ff7f0e; stroke: #ff7f0e"/>
     <use xlink:href="#m85617be86c" x="336.844005" y="194.831999" style="fill: #ff7f0e; stroke: #ff7f0e"/>
     <use xlink:href="#m85617be86c" x="340.953556" y="244.512001" style="fill: #ff7f0e; stroke: #ff7f0e"/>
     <use xlink:href="#m85617be86c" x="345.063107" y="212.111998" style="fill: #ff7f0e; stroke: #ff7f0e"/>
     <use xlink:href="#m85617be86c" x="349.172658" y="203.472002" style="fill: #ff7f0e; stroke: #ff7f0e"/>
     <use xlink:href="#m85617be86c" x="353.282209" y="194.831999" style="fill: #ff7f0e; stroke: #ff7f0e"/>
     <use xlink:href="#m85617be86c" x="357.391761" y="177.552" style="fill: #ff7f0e; stroke: #ff7f0e"/>
     <use xlink:href="#m85617be86c" x="361.501312" y="216.432003" style="fill: #ff7f0e; stroke: #ff7f0e"/>
     <use xlink:href="#m85617be86c" x="365.610863" y="220.752001" style="fill: #ff7f0e; stroke: #ff7f0e"/>
     <use xlink:href="#m85617be86c" x="369.720414" y="207.792" style="fill: #ff7f0e; stroke: #ff7f0e"/>
     <use xlink:href="#m85617be86c" x="373.829965" y="192.672" style="fill: #ff7f0e; stroke: #ff7f0e"/>
     <use xlink:href="#m85617be86c" x="377.939517" y="201.312003" style="fill: #ff7f0e; stroke: #ff7f0e"/>
     <use xlink:href="#m85617be86c" x="382.049068" y="225.071999" style="fill: #ff7f0e; stroke: #ff7f0e"/>
     <use xlink:href="#m85617be86c" x="386.158619" y="205.632001" style="fill: #ff7f0e; stroke: #ff7f0e"/>
     <use xlink:href="#m85617be86c" x="390.26817" y="233.711998" style="fill: #ff7f0e; stroke: #ff7f0e"/>
     <use xlink:href="#m85617be86c" x="394.377722" y="240.191999" style="fill: #ff7f0e; stroke: #ff7f0e"/>
     <use xlink:href="#m85617be86c" x="398.487273" y="177.552" style="fill: #ff7f0e; stroke: #ff7f0e"/>
    </g>
   </g>
   <g id="patch_3">
    <path d="M 57.6 162.432 
L 57.6 41.472 
" style="fill: none; stroke: #000000; stroke-width: 0.8; stroke-linejoin: miter; stroke-linecap: square"/>
   </g>
   <g id="patch_4">
    <path d="M 414.72 162.432 
L 414.72 41.472 
" style="fill: none; stroke: #000000; stroke-width: 0.8; stroke-linejoin: miter; stroke-linecap: square"/>
   </g>
   <g id="patch_5">
    <path d="M 57.6 162.432 
L 414.72 162.432 
" style="fill: none; stroke: #000000; stroke-width: 0.8; stroke-linejoin: miter; stroke-linecap: square"/>
   </g>
   <g id="patch_6">
    <path d="M 57.6 41.472 
L 414.72 41.472 
" style="fill: none; stroke: #000000; stroke-width: 0.8; stroke-linejoin: miter; stroke-linecap: square"/>
   </g>
   <g id="legend_1">
    <g id="patch_7">
     <path d="M 278.18875 78.82825 
L 407.72 78.82825 
Q 409.72 78.82825 409.72 76.82825 
L 409.72 48.472 
Q 409.72 46.472 407.72 46.472 
L 278.18875 46.472 
Q 276.18875 46.472 276.18875 48.472 
L 276.18875 76.82825 
Q 276.18875 78.82825 278.18875 78.82825 
z
" style="fill: #ffffff; opacity: 0.8; stroke: #cccccc; stroke-linejoin: miter"/>
    </g>
    <g id="line2d_18">
     <path d="M 280.18875 54.570437 
L 290.18875 54.570437 
L 300.18875 54.570437 
" style="fill: none; stroke: #1f77b4; stroke-width: 1.5; stroke-linecap: square"/>
     <g>
      <use xlink:href="#mc166099ef3" x="290.18875" y="54.570437" style="fill: #1f77b4; stroke: #1f77b4"/>
     </g>
    </g>
    <g id="text_17">
     <!-- training accuracy -->
     <g transform="translate(308.18875 58.070437) scale(0.1 -0.1)">
      <defs>
       <path id="DejaVuSans-74" d="M 1172 4494 
L 1172 3500 
L 2356 3500 
L 2356 3053 
L 1172 3053 
L 1172 1153 
Q 1172 725 1289 603 
Q 1406 481 1766 481 
L 2356 481 
L 2356 0 
L 1766 0 
Q 1100 0 847 248 
Q 594 497 594 1153 
L 594 3053 
L 172 3053 
L 172 3500 
L 594 3500 
L 594 4494 
L 1172 4494 
z
" transform="scale(0.015625)"/>
       <path id="DejaVuSans-69" d="M 603 3500 
L 1178 3500 
L 1178 0 
L 603 0 
L 603 3500 
z
M 603 4863 
L 1178 4863 
L 1178 4134 
L 603 4134 
L 603 4863 
z
" transform="scale(0.015625)"/>
       <path id="DejaVuSans-6e" d="M 3513 2113 
L 3513 0 
L 2938 0 
L 2938 2094 
Q 2938 2591 2744 2837 
Q 2550 3084 2163 3084 
Q 1697 3084 1428 2787 
Q 1159 2491 1159 1978 
L 1159 0 
L 581 0 
L 581 3500 
L 1159 3500 
L 1159 2956 
Q 1366 3272 1645 3428 
Q 1925 3584 2291 3584 
Q 2894 3584 3203 3211 
Q 3513 2838 3513 2113 
z
" transform="scale(0.015625)"/>
       <path id="DejaVuSans-67" d="M 2906 1791 
Q 2906 2416 2648 2759 
Q 2391 3103 1925 3103 
Q 1463 3103 1205 2759 
Q 947 2416 947 1791 
Q 947 1169 1205 825 
Q 1463 481 1925 481 
Q 2391 481 2648 825 
Q 2906 1169 2906 1791 
z
M 3481 434 
Q 3481 -459 3084 -895 
Q 2688 -1331 1869 -1331 
Q 1566 -1331 1297 -1286 
Q 1028 -1241 775 -1147 
L 775 -588 
Q 1028 -725 1275 -790 
Q 1522 -856 1778 -856 
Q 2344 -856 2625 -561 
Q 2906 -266 2906 331 
L 2906 616 
Q 2728 306 2450 153 
Q 2172 0 1784 0 
Q 1141 0 747 490 
Q 353 981 353 1791 
Q 353 2603 747 3093 
Q 1141 3584 1784 3584 
Q 2172 3584 2450 3431 
Q 2728 3278 2906 2969 
L 2906 3500 
L 3481 3500 
L 3481 434 
z
" transform="scale(0.015625)"/>
       <path id="DejaVuSans-20" transform="scale(0.015625)"/>
      </defs>
      <use xlink:href="#DejaVuSans-74"/>
      <use xlink:href="#DejaVuSans-72" x="39.208984"/>
      <use xlink:href="#DejaVuSans-61" x="80.322266"/>
      <use xlink:href="#DejaVuSans-69" x="141.601562"/>
      <use xlink:href="#DejaVuSans-6e" x="169.384766"/>
      <use xlink:href="#DejaVuSans-69" x="232.763672"/>
      <use xlink:href="#DejaVuSans-6e" x="260.546875"/>
      <use xlink:href="#DejaVuSans-67" x="323.925781"/>
      <use xlink:href="#DejaVuSans-20" x="387.402344"/>
      <use xlink:href="#DejaVuSans-61" x="419.189453"/>
      <use xlink:href="#DejaVuSans-63" x="480.46875"/>
      <use xlink:href="#DejaVuSans-63" x="535.449219"/>
      <use xlink:href="#DejaVuSans-75" x="590.429688"/>
      <use xlink:href="#DejaVuSans-72" x="653.808594"/>
      <use xlink:href="#DejaVuSans-61" x="694.921875"/>
      <use xlink:href="#DejaVuSans-63" x="756.201172"/>
      <use xlink:href="#DejaVuSans-79" x="811.181641"/>
     </g>
    </g>
    <g id="line2d_19">
     <path d="M 280.18875 69.248562 
L 290.18875 69.248562 
L 300.18875 69.248562 
" style="fill: none; stroke: #ff7f0e; stroke-width: 1.5; stroke-linecap: square"/>
     <g>
      <use xlink:href="#m85617be86c" x="290.18875" y="69.248562" style="fill: #ff7f0e; stroke: #ff7f0e"/>
     </g>
    </g>
    <g id="text_18">
     <!-- validation accuracy -->
     <g transform="translate(308.18875 72.748562) scale(0.1 -0.1)">
      <defs>
       <path id="DejaVuSans-76" d="M 191 3500 
L 800 3500 
L 1894 563 
L 2988 3500 
L 3597 3500 
L 2284 0 
L 1503 0 
L 191 3500 
z
" transform="scale(0.015625)"/>
       <path id="DejaVuSans-6c" d="M 603 4863 
L 1178 4863 
L 1178 0 
L 603 0 
L 603 4863 
z
" transform="scale(0.015625)"/>
       <path id="DejaVuSans-64" d="M 2906 2969 
L 2906 4863 
L 3481 4863 
L 3481 0 
L 2906 0 
L 2906 525 
Q 2725 213 2448 61 
Q 2172 -91 1784 -91 
Q 1150 -91 751 415 
Q 353 922 353 1747 
Q 353 2572 751 3078 
Q 1150 3584 1784 3584 
Q 2172 3584 2448 3432 
Q 2725 3281 2906 2969 
z
M 947 1747 
Q 947 1113 1208 752 
Q 1469 391 1925 391 
Q 2381 391 2643 752 
Q 2906 1113 2906 1747 
Q 2906 2381 2643 2742 
Q 2381 3103 1925 3103 
Q 1469 3103 1208 2742 
Q 947 2381 947 1747 
z
" transform="scale(0.015625)"/>
       <path id="DejaVuSans-6f" d="M 1959 3097 
Q 1497 3097 1228 2736 
Q 959 2375 959 1747 
Q 959 1119 1226 758 
Q 1494 397 1959 397 
Q 2419 397 2687 759 
Q 2956 1122 2956 1747 
Q 2956 2369 2687 2733 
Q 2419 3097 1959 3097 
z
M 1959 3584 
Q 2709 3584 3137 3096 
Q 3566 2609 3566 1747 
Q 3566 888 3137 398 
Q 2709 -91 1959 -91 
Q 1206 -91 779 398 
Q 353 888 353 1747 
Q 353 2609 779 3096 
Q 1206 3584 1959 3584 
z
" transform="scale(0.015625)"/>
      </defs>
      <use xlink:href="#DejaVuSans-76"/>
      <use xlink:href="#DejaVuSans-61" x="59.179688"/>
      <use xlink:href="#DejaVuSans-6c" x="120.458984"/>
      <use xlink:href="#DejaVuSans-69" x="148.242188"/>
      <use xlink:href="#DejaVuSans-64" x="176.025391"/>
      <use xlink:href="#DejaVuSans-61" x="239.501953"/>
      <use xlink:href="#DejaVuSans-74" x="300.78125"/>
      <use xlink:href="#DejaVuSans-69" x="339.990234"/>
      <use xlink:href="#DejaVuSans-6f" x="367.773438"/>
      <use xlink:href="#DejaVuSans-6e" x="428.955078"/>
      <use xlink:href="#DejaVuSans-20" x="492.333984"/>
      <use xlink:href="#DejaVuSans-61" x="524.121094"/>
      <use xlink:href="#DejaVuSans-63" x="585.400391"/>
      <use xlink:href="#DejaVuSans-63" x="640.380859"/>
      <use xlink:href="#DejaVuSans-75" x="695.361328"/>
      <use xlink:href="#DejaVuSans-72" x="758.740234"/>
      <use xlink:href="#DejaVuSans-61" x="799.853516"/>
      <use xlink:href="#DejaVuSans-63" x="861.132812"/>
      <use xlink:href="#DejaVuSans-79" x="916.113281"/>
     </g>
    </g>
   </g>
  </g>
  <g id="axes_2">
   <g id="patch_8">
    <path d="M 57.6 307.584 
L 414.72 307.584 
L 414.72 186.624 
L 57.6 186.624 
z
" style="fill: #ffffff"/>
   </g>
   <g id="matplotlib.axis_3">
    <g id="xtick_10">
     <g id="line2d_20">
      <g>
       <use xlink:href="#m297367e5a8" x="73.832727" y="307.584" style="stroke: #000000; stroke-width: 0.8"/>
      </g>
     </g>
     <g id="text_19">
      <!-- 0 -->
      <g transform="translate(70.651477 322.182437) scale(0.1 -0.1)">
       <use xlink:href="#DejaVuSans-30"/>
      </g>
     </g>
    </g>
    <g id="xtick_11">
     <g id="line2d_21">
      <g>
       <use xlink:href="#m297367e5a8" x="114.928239" y="307.584" style="stroke: #000000; stroke-width: 0.8"/>
      </g>
     </g>
     <g id="text_20">
      <!-- 10 -->
      <g transform="translate(108.565739 322.182437) scale(0.1 -0.1)">
       <use xlink:href="#DejaVuSans-31"/>
       <use xlink:href="#DejaVuSans-30" x="63.623047"/>
      </g>
     </g>
    </g>
    <g id="xtick_12">
     <g id="line2d_22">
      <g>
       <use xlink:href="#m297367e5a8" x="156.023751" y="307.584" style="stroke: #000000; stroke-width: 0.8"/>
      </g>
     </g>
     <g id="text_21">
      <!-- 20 -->
      <g transform="translate(149.661251 322.182437) scale(0.1 -0.1)">
       <use xlink:href="#DejaVuSans-32"/>
       <use xlink:href="#DejaVuSans-30" x="63.623047"/>
      </g>
     </g>
    </g>
    <g id="xtick_13">
     <g id="line2d_23">
      <g>
       <use xlink:href="#m297367e5a8" x="197.119264" y="307.584" style="stroke: #000000; stroke-width: 0.8"/>
      </g>
     </g>
     <g id="text_22">
      <!-- 30 -->
      <g transform="translate(190.756764 322.182437) scale(0.1 -0.1)">
       <use xlink:href="#DejaVuSans-33"/>
       <use xlink:href="#DejaVuSans-30" x="63.623047"/>
      </g>
     </g>
    </g>
    <g id="xtick_14">
     <g id="line2d_24">
      <g>
       <use xlink:href="#m297367e5a8" x="238.214776" y="307.584" style="stroke: #000000; stroke-width: 0.8"/>
      </g>
     </g>
     <g id="text_23">
      <!-- 40 -->
      <g transform="translate(231.852276 322.182437) scale(0.1 -0.1)">
       <use xlink:href="#DejaVuSans-34"/>
       <use xlink:href="#DejaVuSans-30" x="63.623047"/>
      </g>
     </g>
    </g>
    <g id="xtick_15">
     <g id="line2d_25">
      <g>
       <use xlink:href="#m297367e5a8" x="279.310288" y="307.584" style="stroke: #000000; stroke-width: 0.8"/>
      </g>
     </g>
     <g id="text_24">
      <!-- 50 -->
      <g transform="translate(272.947788 322.182437) scale(0.1 -0.1)">
       <use xlink:href="#DejaVuSans-35"/>
       <use xlink:href="#DejaVuSans-30" x="63.623047"/>
      </g>
     </g>
    </g>
    <g id="xtick_16">
     <g id="line2d_26">
      <g>
       <use xlink:href="#m297367e5a8" x="320.4058" y="307.584" style="stroke: #000000; stroke-width: 0.8"/>
      </g>
     </g>
     <g id="text_25">
      <!-- 60 -->
      <g transform="translate(314.0433 322.182437) scale(0.1 -0.1)">
       <use xlink:href="#DejaVuSans-36"/>
       <use xlink:href="#DejaVuSans-30" x="63.623047"/>
      </g>
     </g>
    </g>
    <g id="xtick_17">
     <g id="line2d_27">
      <g>
       <use xlink:href="#m297367e5a8" x="361.501312" y="307.584" style="stroke: #000000; stroke-width: 0.8"/>
      </g>
     </g>
     <g id="text_26">
      <!-- 70 -->
      <g transform="translate(355.138812 322.182437) scale(0.1 -0.1)">
       <use xlink:href="#DejaVuSans-37"/>
       <use xlink:href="#DejaVuSans-30" x="63.623047"/>
      </g>
     </g>
    </g>
    <g id="xtick_18">
     <g id="line2d_28">
      <g>
       <use xlink:href="#m297367e5a8" x="402.596824" y="307.584" style="stroke: #000000; stroke-width: 0.8"/>
      </g>
     </g>
     <g id="text_27">
      <!-- 80 -->
      <g transform="translate(396.234324 322.182437) scale(0.1 -0.1)">
       <use xlink:href="#DejaVuSans-38"/>
       <use xlink:href="#DejaVuSans-30" x="63.623047"/>
      </g>
     </g>
    </g>
    <g id="text_28">
     <!-- Number of epoch -->
     <g transform="translate(192.848281 335.860562) scale(0.1 -0.1)">
      <defs>
       <path id="DejaVuSans-4e" d="M 628 4666 
L 1478 4666 
L 3547 763 
L 3547 4666 
L 4159 4666 
L 4159 0 
L 3309 0 
L 1241 3903 
L 1241 0 
L 628 0 
L 628 4666 
z
" transform="scale(0.015625)"/>
       <path id="DejaVuSans-6d" d="M 3328 2828 
Q 3544 3216 3844 3400 
Q 4144 3584 4550 3584 
Q 5097 3584 5394 3201 
Q 5691 2819 5691 2113 
L 5691 0 
L 5113 0 
L 5113 2094 
Q 5113 2597 4934 2840 
Q 4756 3084 4391 3084 
Q 3944 3084 3684 2787 
Q 3425 2491 3425 1978 
L 3425 0 
L 2847 0 
L 2847 2094 
Q 2847 2600 2669 2842 
Q 2491 3084 2119 3084 
Q 1678 3084 1418 2786 
Q 1159 2488 1159 1978 
L 1159 0 
L 581 0 
L 581 3500 
L 1159 3500 
L 1159 2956 
Q 1356 3278 1631 3431 
Q 1906 3584 2284 3584 
Q 2666 3584 2933 3390 
Q 3200 3197 3328 2828 
z
" transform="scale(0.015625)"/>
       <path id="DejaVuSans-62" d="M 3116 1747 
Q 3116 2381 2855 2742 
Q 2594 3103 2138 3103 
Q 1681 3103 1420 2742 
Q 1159 2381 1159 1747 
Q 1159 1113 1420 752 
Q 1681 391 2138 391 
Q 2594 391 2855 752 
Q 3116 1113 3116 1747 
z
M 1159 2969 
Q 1341 3281 1617 3432 
Q 1894 3584 2278 3584 
Q 2916 3584 3314 3078 
Q 3713 2572 3713 1747 
Q 3713 922 3314 415 
Q 2916 -91 2278 -91 
Q 1894 -91 1617 61 
Q 1341 213 1159 525 
L 1159 0 
L 581 0 
L 581 4863 
L 1159 4863 
L 1159 2969 
z
" transform="scale(0.015625)"/>
       <path id="DejaVuSans-65" d="M 3597 1894 
L 3597 1613 
L 953 1613 
Q 991 1019 1311 708 
Q 1631 397 2203 397 
Q 2534 397 2845 478 
Q 3156 559 3463 722 
L 3463 178 
Q 3153 47 2828 -22 
Q 2503 -91 2169 -91 
Q 1331 -91 842 396 
Q 353 884 353 1716 
Q 353 2575 817 3079 
Q 1281 3584 2069 3584 
Q 2775 3584 3186 3129 
Q 3597 2675 3597 1894 
z
M 3022 2063 
Q 3016 2534 2758 2815 
Q 2500 3097 2075 3097 
Q 1594 3097 1305 2825 
Q 1016 2553 972 2059 
L 3022 2063 
z
" transform="scale(0.015625)"/>
       <path id="DejaVuSans-66" d="M 2375 4863 
L 2375 4384 
L 1825 4384 
Q 1516 4384 1395 4259 
Q 1275 4134 1275 3809 
L 1275 3500 
L 2222 3500 
L 2222 3053 
L 1275 3053 
L 1275 0 
L 697 0 
L 697 3053 
L 147 3053 
L 147 3500 
L 697 3500 
L 697 3744 
Q 697 4328 969 4595 
Q 1241 4863 1831 4863 
L 2375 4863 
z
" transform="scale(0.015625)"/>
       <path id="DejaVuSans-70" d="M 1159 525 
L 1159 -1331 
L 581 -1331 
L 581 3500 
L 1159 3500 
L 1159 2969 
Q 1341 3281 1617 3432 
Q 1894 3584 2278 3584 
Q 2916 3584 3314 3078 
Q 3713 2572 3713 1747 
Q 3713 922 3314 415 
Q 2916 -91 2278 -91 
Q 1894 -91 1617 61 
Q 1341 213 1159 525 
z
M 3116 1747 
Q 3116 2381 2855 2742 
Q 2594 3103 2138 3103 
Q 1681 3103 1420 2742 
Q 1159 2381 1159 1747 
Q 1159 1113 1420 752 
Q 1681 391 2138 391 
Q 2594 391 2855 752 
Q 3116 1113 3116 1747 
z
" transform="scale(0.015625)"/>
       <path id="DejaVuSans-68" d="M 3513 2113 
L 3513 0 
L 2938 0 
L 2938 2094 
Q 2938 2591 2744 2837 
Q 2550 3084 2163 3084 
Q 1697 3084 1428 2787 
Q 1159 2491 1159 1978 
L 1159 0 
L 581 0 
L 581 4863 
L 1159 4863 
L 1159 2956 
Q 1366 3272 1645 3428 
Q 1925 3584 2291 3584 
Q 2894 3584 3203 3211 
Q 3513 2838 3513 2113 
z
" transform="scale(0.015625)"/>
      </defs>
      <use xlink:href="#DejaVuSans-4e"/>
      <use xlink:href="#DejaVuSans-75" x="74.804688"/>
      <use xlink:href="#DejaVuSans-6d" x="138.183594"/>
      <use xlink:href="#DejaVuSans-62" x="235.595703"/>
      <use xlink:href="#DejaVuSans-65" x="299.072266"/>
      <use xlink:href="#DejaVuSans-72" x="360.595703"/>
      <use xlink:href="#DejaVuSans-20" x="401.708984"/>
      <use xlink:href="#DejaVuSans-6f" x="433.496094"/>
      <use xlink:href="#DejaVuSans-66" x="494.677734"/>
      <use xlink:href="#DejaVuSans-20" x="529.882812"/>
      <use xlink:href="#DejaVuSans-65" x="561.669922"/>
      <use xlink:href="#DejaVuSans-70" x="623.193359"/>
      <use xlink:href="#DejaVuSans-6f" x="686.669922"/>
      <use xlink:href="#DejaVuSans-63" x="747.851562"/>
      <use xlink:href="#DejaVuSans-68" x="802.832031"/>
     </g>
    </g>
   </g>
   <g id="matplotlib.axis_4">
    <g id="ytick_7">
     <g id="line2d_29">
      <g>
       <use xlink:href="#m43818188ea" x="57.6" y="296.755875" style="stroke: #000000; stroke-width: 0.8"/>
      </g>
     </g>
     <g id="text_29">
      <!-- 200% -->
      <g transform="translate(22.010938 300.555093) scale(0.1 -0.1)">
       <use xlink:href="#DejaVuSans-32"/>
       <use xlink:href="#DejaVuSans-30" x="63.623047"/>
       <use xlink:href="#DejaVuSans-30" x="127.246094"/>
       <use xlink:href="#DejaVuSans-25" x="190.869141"/>
      </g>
     </g>
    </g>
    <g id="ytick_8">
     <g id="line2d_30">
      <g>
       <use xlink:href="#m43818188ea" x="57.6" y="272.352057" style="stroke: #000000; stroke-width: 0.8"/>
      </g>
     </g>
     <g id="text_30">
      <!-- 400% -->
      <g transform="translate(22.010938 276.151276) scale(0.1 -0.1)">
       <use xlink:href="#DejaVuSans-34"/>
       <use xlink:href="#DejaVuSans-30" x="63.623047"/>
       <use xlink:href="#DejaVuSans-30" x="127.246094"/>
       <use xlink:href="#DejaVuSans-25" x="190.869141"/>
      </g>
     </g>
    </g>
    <g id="ytick_9">
     <g id="line2d_31">
      <g>
       <use xlink:href="#m43818188ea" x="57.6" y="247.948239" style="stroke: #000000; stroke-width: 0.8"/>
      </g>
     </g>
     <g id="text_31">
      <!-- 600% -->
      <g transform="translate(22.010938 251.747458) scale(0.1 -0.1)">
       <use xlink:href="#DejaVuSans-36"/>
       <use xlink:href="#DejaVuSans-30" x="63.623047"/>
       <use xlink:href="#DejaVuSans-30" x="127.246094"/>
       <use xlink:href="#DejaVuSans-25" x="190.869141"/>
      </g>
     </g>
    </g>
    <g id="ytick_10">
     <g id="line2d_32">
      <g>
       <use xlink:href="#m43818188ea" x="57.6" y="223.544422" style="stroke: #000000; stroke-width: 0.8"/>
      </g>
     </g>
     <g id="text_32">
      <!-- 800% -->
      <g transform="translate(22.010938 227.343641) scale(0.1 -0.1)">
       <use xlink:href="#DejaVuSans-38"/>
       <use xlink:href="#DejaVuSans-30" x="63.623047"/>
       <use xlink:href="#DejaVuSans-30" x="127.246094"/>
       <use xlink:href="#DejaVuSans-25" x="190.869141"/>
      </g>
     </g>
    </g>
    <g id="ytick_11">
     <g id="line2d_33">
      <g>
       <use xlink:href="#m43818188ea" x="57.6" y="199.140604" style="stroke: #000000; stroke-width: 0.8"/>
      </g>
     </g>
     <g id="text_33">
      <!-- 1000% -->
      <g transform="translate(15.648438 202.939823) scale(0.1 -0.1)">
       <use xlink:href="#DejaVuSans-31"/>
       <use xlink:href="#DejaVuSans-30" x="63.623047"/>
       <use xlink:href="#DejaVuSans-30" x="127.246094"/>
       <use xlink:href="#DejaVuSans-30" x="190.869141"/>
       <use xlink:href="#DejaVuSans-25" x="254.492188"/>
      </g>
     </g>
    </g>
    <g id="text_34">
     <!-- loss -->
     <g transform="translate(9.56875 256.761812) rotate(-90) scale(0.1 -0.1)">
      <defs>
       <path id="DejaVuSans-73" d="M 2834 3397 
L 2834 2853 
Q 2591 2978 2328 3040 
Q 2066 3103 1784 3103 
Q 1356 3103 1142 2972 
Q 928 2841 928 2578 
Q 928 2378 1081 2264 
Q 1234 2150 1697 2047 
L 1894 2003 
Q 2506 1872 2764 1633 
Q 3022 1394 3022 966 
Q 3022 478 2636 193 
Q 2250 -91 1575 -91 
Q 1294 -91 989 -36 
Q 684 19 347 128 
L 347 722 
Q 666 556 975 473 
Q 1284 391 1588 391 
Q 1994 391 2212 530 
Q 2431 669 2431 922 
Q 2431 1156 2273 1281 
Q 2116 1406 1581 1522 
L 1381 1569 
Q 847 1681 609 1914 
Q 372 2147 372 2553 
Q 372 3047 722 3315 
Q 1072 3584 1716 3584 
Q 2034 3584 2315 3537 
Q 2597 3491 2834 3397 
z
" transform="scale(0.015625)"/>
      </defs>
      <use xlink:href="#DejaVuSans-6c"/>
      <use xlink:href="#DejaVuSans-6f" x="27.783203"/>
      <use xlink:href="#DejaVuSans-73" x="88.964844"/>
      <use xlink:href="#DejaVuSans-73" x="141.064453"/>
     </g>
    </g>
   </g>
   <g id="line2d_34">
    <path d="M 73.832727 192.122182 
L 77.942278 242.377823 
L 82.05183 251.630354 
L 86.161381 255.513614 
L 90.270932 260.797704 
L 94.380483 268.722965 
L 98.490035 270.885031 
L 102.599586 277.909528 
L 106.709137 279.520714 
L 110.818688 281.843514 
L 114.928239 284.290169 
L 119.037791 285.952601 
L 123.147342 288.3174 
L 127.256893 290.484324 
L 131.366444 290.721264 
L 135.475995 290.724536 
L 139.585547 293.26283 
L 143.695098 294.436647 
L 147.804649 295.104989 
L 151.9142 296.480002 
L 156.023751 295.861409 
L 160.133303 294.820581 
L 164.242854 297.578812 
L 168.352405 298.767653 
L 172.461956 297.354296 
L 176.571507 298.282806 
L 180.681059 298.489345 
L 184.79061 299.526073 
L 188.900161 298.831022 
L 193.009712 299.810115 
L 197.119264 299.765366 
L 201.228815 299.173596 
L 205.338366 299.736043 
L 209.447917 299.956785 
L 213.557468 300.446268 
L 217.66702 299.216896 
L 221.776571 299.283362 
L 225.886122 300.152965 
L 229.995673 301.032306 
L 234.105224 300.363621 
L 238.214776 299.822906 
L 242.324327 300.001804 
L 246.433878 300.055932 
L 250.543429 300.111312 
L 254.65298 300.984658 
L 258.762532 299.809604 
L 262.872083 299.692084 
L 266.981634 299.870762 
L 271.091185 299.773315 
L 275.200736 300.603683 
L 279.310288 299.976789 
L 283.419839 301.269427 
L 287.52939 300.409833 
L 291.638941 300.564732 
L 295.748493 299.880387 
L 299.858044 301.343986 
L 303.967595 301.145823 
L 308.077146 300.824679 
L 312.186697 300.901539 
L 316.296249 300.664726 
L 320.4058 299.966161 
L 324.515351 300.678482 
L 328.624902 300.126005 
L 332.734453 301.286893 
L 336.844005 300.845586 
L 340.953556 300.835402 
L 345.063107 301.91631 
L 349.172658 300.457381 
L 353.282209 300.603497 
L 357.391761 300.919672 
L 361.501312 301.788826 
L 365.610863 301.155746 
L 369.720414 300.922428 
L 373.829965 301.164446 
L 377.939517 301.160437 
L 382.049068 301.210121 
L 386.158619 302.085818 
L 390.26817 301.447232 
L 394.377722 301.063203 
L 398.487273 299.94231 
" clip-path="url(#pabe5d8f47d)" style="fill: none; stroke: #1f77b4; stroke-width: 1.5; stroke-linecap: square"/>
    <g clip-path="url(#pabe5d8f47d)">
     <use xlink:href="#mc166099ef3" x="73.832727" y="192.122182" style="fill: #1f77b4; stroke: #1f77b4"/>
     <use xlink:href="#mc166099ef3" x="77.942278" y="242.377823" style="fill: #1f77b4; stroke: #1f77b4"/>
     <use xlink:href="#mc166099ef3" x="82.05183" y="251.630354" style="fill: #1f77b4; stroke: #1f77b4"/>
     <use xlink:href="#mc166099ef3" x="86.161381" y="255.513614" style="fill: #1f77b4; stroke: #1f77b4"/>
     <use xlink:href="#mc166099ef3" x="90.270932" y="260.797704" style="fill: #1f77b4; stroke: #1f77b4"/>
     <use xlink:href="#mc166099ef3" x="94.380483" y="268.722965" style="fill: #1f77b4; stroke: #1f77b4"/>
     <use xlink:href="#mc166099ef3" x="98.490035" y="270.885031" style="fill: #1f77b4; stroke: #1f77b4"/>
     <use xlink:href="#mc166099ef3" x="102.599586" y="277.909528" style="fill: #1f77b4; stroke: #1f77b4"/>
     <use xlink:href="#mc166099ef3" x="106.709137" y="279.520714" style="fill: #1f77b4; stroke: #1f77b4"/>
     <use xlink:href="#mc166099ef3" x="110.818688" y="281.843514" style="fill: #1f77b4; stroke: #1f77b4"/>
     <use xlink:href="#mc166099ef3" x="114.928239" y="284.290169" style="fill: #1f77b4; stroke: #1f77b4"/>
     <use xlink:href="#mc166099ef3" x="119.037791" y="285.952601" style="fill: #1f77b4; stroke: #1f77b4"/>
     <use xlink:href="#mc166099ef3" x="123.147342" y="288.3174" style="fill: #1f77b4; stroke: #1f77b4"/>
     <use xlink:href="#mc166099ef3" x="127.256893" y="290.484324" style="fill: #1f77b4; stroke: #1f77b4"/>
     <use xlink:href="#mc166099ef3" x="131.366444" y="290.721264" style="fill: #1f77b4; stroke: #1f77b4"/>
     <use xlink:href="#mc166099ef3" x="135.475995" y="290.724536" style="fill: #1f77b4; stroke: #1f77b4"/>
     <use xlink:href="#mc166099ef3" x="139.585547" y="293.26283" style="fill: #1f77b4; stroke: #1f77b4"/>
     <use xlink:href="#mc166099ef3" x="143.695098" y="294.436647" style="fill: #1f77b4; stroke: #1f77b4"/>
     <use xlink:href="#mc166099ef3" x="147.804649" y="295.104989" style="fill: #1f77b4; stroke: #1f77b4"/>
     <use xlink:href="#mc166099ef3" x="151.9142" y="296.480002" style="fill: #1f77b4; stroke: #1f77b4"/>
     <use xlink:href="#mc166099ef3" x="156.023751" y="295.861409" style="fill: #1f77b4; stroke: #1f77b4"/>
     <use xlink:href="#mc166099ef3" x="160.133303" y="294.820581" style="fill: #1f77b4; stroke: #1f77b4"/>
     <use xlink:href="#mc166099ef3" x="164.242854" y="297.578812" style="fill: #1f77b4; stroke: #1f77b4"/>
     <use xlink:href="#mc166099ef3" x="168.352405" y="298.767653" style="fill: #1f77b4; stroke: #1f77b4"/>
     <use xlink:href="#mc166099ef3" x="172.461956" y="297.354296" style="fill: #1f77b4; stroke: #1f77b4"/>
     <use xlink:href="#mc166099ef3" x="176.571507" y="298.282806" style="fill: #1f77b4; stroke: #1f77b4"/>
     <use xlink:href="#mc166099ef3" x="180.681059" y="298.489345" style="fill: #1f77b4; stroke: #1f77b4"/>
     <use xlink:href="#mc166099ef3" x="184.79061" y="299.526073" style="fill: #1f77b4; stroke: #1f77b4"/>
     <use xlink:href="#mc166099ef3" x="188.900161" y="298.831022" style="fill: #1f77b4; stroke: #1f77b4"/>
     <use xlink:href="#mc166099ef3" x="193.009712" y="299.810115" style="fill: #1f77b4; stroke: #1f77b4"/>
     <use xlink:href="#mc166099ef3" x="197.119264" y="299.765366" style="fill: #1f77b4; stroke: #1f77b4"/>
     <use xlink:href="#mc166099ef3" x="201.228815" y="299.173596" style="fill: #1f77b4; stroke: #1f77b4"/>
     <use xlink:href="#mc166099ef3" x="205.338366" y="299.736043" style="fill: #1f77b4; stroke: #1f77b4"/>
     <use xlink:href="#mc166099ef3" x="209.447917" y="299.956785" style="fill: #1f77b4; stroke: #1f77b4"/>
     <use xlink:href="#mc166099ef3" x="213.557468" y="300.446268" style="fill: #1f77b4; stroke: #1f77b4"/>
     <use xlink:href="#mc166099ef3" x="217.66702" y="299.216896" style="fill: #1f77b4; stroke: #1f77b4"/>
     <use xlink:href="#mc166099ef3" x="221.776571" y="299.283362" style="fill: #1f77b4; stroke: #1f77b4"/>
     <use xlink:href="#mc166099ef3" x="225.886122" y="300.152965" style="fill: #1f77b4; stroke: #1f77b4"/>
     <use xlink:href="#mc166099ef3" x="229.995673" y="301.032306" style="fill: #1f77b4; stroke: #1f77b4"/>
     <use xlink:href="#mc166099ef3" x="234.105224" y="300.363621" style="fill: #1f77b4; stroke: #1f77b4"/>
     <use xlink:href="#mc166099ef3" x="238.214776" y="299.822906" style="fill: #1f77b4; stroke: #1f77b4"/>
     <use xlink:href="#mc166099ef3" x="242.324327" y="300.001804" style="fill: #1f77b4; stroke: #1f77b4"/>
     <use xlink:href="#mc166099ef3" x="246.433878" y="300.055932" style="fill: #1f77b4; stroke: #1f77b4"/>
     <use xlink:href="#mc166099ef3" x="250.543429" y="300.111312" style="fill: #1f77b4; stroke: #1f77b4"/>
     <use xlink:href="#mc166099ef3" x="254.65298" y="300.984658" style="fill: #1f77b4; stroke: #1f77b4"/>
     <use xlink:href="#mc166099ef3" x="258.762532" y="299.809604" style="fill: #1f77b4; stroke: #1f77b4"/>
     <use xlink:href="#mc166099ef3" x="262.872083" y="299.692084" style="fill: #1f77b4; stroke: #1f77b4"/>
     <use xlink:href="#mc166099ef3" x="266.981634" y="299.870762" style="fill: #1f77b4; stroke: #1f77b4"/>
     <use xlink:href="#mc166099ef3" x="271.091185" y="299.773315" style="fill: #1f77b4; stroke: #1f77b4"/>
     <use xlink:href="#mc166099ef3" x="275.200736" y="300.603683" style="fill: #1f77b4; stroke: #1f77b4"/>
     <use xlink:href="#mc166099ef3" x="279.310288" y="299.976789" style="fill: #1f77b4; stroke: #1f77b4"/>
     <use xlink:href="#mc166099ef3" x="283.419839" y="301.269427" style="fill: #1f77b4; stroke: #1f77b4"/>
     <use xlink:href="#mc166099ef3" x="287.52939" y="300.409833" style="fill: #1f77b4; stroke: #1f77b4"/>
     <use xlink:href="#mc166099ef3" x="291.638941" y="300.564732" style="fill: #1f77b4; stroke: #1f77b4"/>
     <use xlink:href="#mc166099ef3" x="295.748493" y="299.880387" style="fill: #1f77b4; stroke: #1f77b4"/>
     <use xlink:href="#mc166099ef3" x="299.858044" y="301.343986" style="fill: #1f77b4; stroke: #1f77b4"/>
     <use xlink:href="#mc166099ef3" x="303.967595" y="301.145823" style="fill: #1f77b4; stroke: #1f77b4"/>
     <use xlink:href="#mc166099ef3" x="308.077146" y="300.824679" style="fill: #1f77b4; stroke: #1f77b4"/>
     <use xlink:href="#mc166099ef3" x="312.186697" y="300.901539" style="fill: #1f77b4; stroke: #1f77b4"/>
     <use xlink:href="#mc166099ef3" x="316.296249" y="300.664726" style="fill: #1f77b4; stroke: #1f77b4"/>
     <use xlink:href="#mc166099ef3" x="320.4058" y="299.966161" style="fill: #1f77b4; stroke: #1f77b4"/>
     <use xlink:href="#mc166099ef3" x="324.515351" y="300.678482" style="fill: #1f77b4; stroke: #1f77b4"/>
     <use xlink:href="#mc166099ef3" x="328.624902" y="300.126005" style="fill: #1f77b4; stroke: #1f77b4"/>
     <use xlink:href="#mc166099ef3" x="332.734453" y="301.286893" style="fill: #1f77b4; stroke: #1f77b4"/>
     <use xlink:href="#mc166099ef3" x="336.844005" y="300.845586" style="fill: #1f77b4; stroke: #1f77b4"/>
     <use xlink:href="#mc166099ef3" x="340.953556" y="300.835402" style="fill: #1f77b4; stroke: #1f77b4"/>
     <use xlink:href="#mc166099ef3" x="345.063107" y="301.91631" style="fill: #1f77b4; stroke: #1f77b4"/>
     <use xlink:href="#mc166099ef3" x="349.172658" y="300.457381" style="fill: #1f77b4; stroke: #1f77b4"/>
     <use xlink:href="#mc166099ef3" x="353.282209" y="300.603497" style="fill: #1f77b4; stroke: #1f77b4"/>
     <use xlink:href="#mc166099ef3" x="357.391761" y="300.919672" style="fill: #1f77b4; stroke: #1f77b4"/>
     <use xlink:href="#mc166099ef3" x="361.501312" y="301.788826" style="fill: #1f77b4; stroke: #1f77b4"/>
     <use xlink:href="#mc166099ef3" x="365.610863" y="301.155746" style="fill: #1f77b4; stroke: #1f77b4"/>
     <use xlink:href="#mc166099ef3" x="369.720414" y="300.922428" style="fill: #1f77b4; stroke: #1f77b4"/>
     <use xlink:href="#mc166099ef3" x="373.829965" y="301.164446" style="fill: #1f77b4; stroke: #1f77b4"/>
     <use xlink:href="#mc166099ef3" x="377.939517" y="301.160437" style="fill: #1f77b4; stroke: #1f77b4"/>
     <use xlink:href="#mc166099ef3" x="382.049068" y="301.210121" style="fill: #1f77b4; stroke: #1f77b4"/>
     <use xlink:href="#mc166099ef3" x="386.158619" y="302.085818" style="fill: #1f77b4; stroke: #1f77b4"/>
     <use xlink:href="#mc166099ef3" x="390.26817" y="301.447232" style="fill: #1f77b4; stroke: #1f77b4"/>
     <use xlink:href="#mc166099ef3" x="394.377722" y="301.063203" style="fill: #1f77b4; stroke: #1f77b4"/>
     <use xlink:href="#mc166099ef3" x="398.487273" y="299.94231" style="fill: #1f77b4; stroke: #1f77b4"/>
    </g>
   </g>
   <g id="line2d_35">
    <path d="M 73.832727 213.905531 
L 77.942278 212.686348 
L 82.05183 208.983032 
L 86.161381 241.423961 
L 90.270932 241.354886 
L 94.380483 267.709593 
L 98.490035 259.943766 
L 102.599586 269.161585 
L 106.709137 275.637065 
L 110.818688 281.506895 
L 114.928239 283.134231 
L 119.037791 283.847985 
L 123.147342 286.410223 
L 127.256893 281.761301 
L 131.366444 282.482183 
L 135.475995 290.709432 
L 139.585547 290.81324 
L 143.695098 290.423703 
L 147.804649 293.025867 
L 151.9142 295.333329 
L 156.023751 293.465802 
L 160.133303 288.086197 
L 164.242854 291.226992 
L 168.352405 287.452861 
L 172.461956 295.097225 
L 176.571507 295.330254 
L 180.681059 295.59548 
L 184.79061 281.567156 
L 188.900161 295.762352 
L 193.009712 292.235901 
L 197.119264 297.708472 
L 201.228815 297.863307 
L 205.338366 295.908043 
L 209.447917 293.020403 
L 213.557468 294.777595 
L 217.66702 294.304478 
L 221.776571 287.948163 
L 225.886122 296.217845 
L 229.995673 291.59467 
L 234.105224 290.618352 
L 238.214776 296.428949 
L 242.324327 285.250358 
L 246.433878 295.124792 
L 250.543429 297.782983 
L 254.65298 292.704942 
L 258.762532 297.510406 
L 262.872083 288.776716 
L 266.981634 292.450359 
L 271.091185 298.271776 
L 275.200736 284.88385 
L 279.310288 286.372113 
L 283.419839 293.681048 
L 287.52939 296.347897 
L 291.638941 296.3508 
L 295.748493 297.578984 
L 299.858044 295.553492 
L 303.967595 287.673248 
L 308.077146 295.217824 
L 312.186697 293.037119 
L 316.296249 294.722935 
L 320.4058 285.947224 
L 324.515351 297.903462 
L 328.624902 298.661066 
L 332.734453 297.219736 
L 336.844005 298.11035 
L 340.953556 293.16434 
L 345.063107 281.621464 
L 349.172658 293.591492 
L 353.282209 295.181852 
L 357.391761 297.961824 
L 361.501312 293.974556 
L 365.610863 290.794612 
L 369.720414 295.819279 
L 373.829965 298.6563 
L 377.939517 295.981764 
L 382.049068 290.27096 
L 386.158619 295.285829 
L 390.26817 281.78401 
L 394.377722 293.031449 
L 398.487273 300.359571 
" clip-path="url(#pabe5d8f47d)" style="fill: none; stroke: #ff7f0e; stroke-width: 1.5; stroke-linecap: square"/>
    <g clip-path="url(#pabe5d8f47d)">
     <use xlink:href="#m85617be86c" x="73.832727" y="213.905531" style="fill: #ff7f0e; stroke: #ff7f0e"/>
     <use xlink:href="#m85617be86c" x="77.942278" y="212.686348" style="fill: #ff7f0e; stroke: #ff7f0e"/>
     <use xlink:href="#m85617be86c" x="82.05183" y="208.983032" style="fill: #ff7f0e; stroke: #ff7f0e"/>
     <use xlink:href="#m85617be86c" x="86.161381" y="241.423961" style="fill: #ff7f0e; stroke: #ff7f0e"/>
     <use xlink:href="#m85617be86c" x="90.270932" y="241.354886" style="fill: #ff7f0e; stroke: #ff7f0e"/>
     <use xlink:href="#m85617be86c" x="94.380483" y="267.709593" style="fill: #ff7f0e; stroke: #ff7f0e"/>
     <use xlink:href="#m85617be86c" x="98.490035" y="259.943766" style="fill: #ff7f0e; stroke: #ff7f0e"/>
     <use xlink:href="#m85617be86c" x="102.599586" y="269.161585" style="fill: #ff7f0e; stroke: #ff7f0e"/>
     <use xlink:href="#m85617be86c" x="106.709137" y="275.637065" style="fill: #ff7f0e; stroke: #ff7f0e"/>
     <use xlink:href="#m85617be86c" x="110.818688" y="281.506895" style="fill: #ff7f0e; stroke: #ff7f0e"/>
     <use xlink:href="#m85617be86c" x="114.928239" y="283.134231" style="fill: #ff7f0e; stroke: #ff7f0e"/>
     <use xlink:href="#m85617be86c" x="119.037791" y="283.847985" style="fill: #ff7f0e; stroke: #ff7f0e"/>
     <use xlink:href="#m85617be86c" x="123.147342" y="286.410223" style="fill: #ff7f0e; stroke: #ff7f0e"/>
     <use xlink:href="#m85617be86c" x="127.256893" y="281.761301" style="fill: #ff7f0e; stroke: #ff7f0e"/>
     <use xlink:href="#m85617be86c" x="131.366444" y="282.482183" style="fill: #ff7f0e; stroke: #ff7f0e"/>
     <use xlink:href="#m85617be86c" x="135.475995" y="290.709432" style="fill: #ff7f0e; stroke: #ff7f0e"/>
     <use xlink:href="#m85617be86c" x="139.585547" y="290.81324" style="fill: #ff7f0e; stroke: #ff7f0e"/>
     <use xlink:href="#m85617be86c" x="143.695098" y="290.423703" style="fill: #ff7f0e; stroke: #ff7f0e"/>
     <use xlink:href="#m85617be86c" x="147.804649" y="293.025867" style="fill: #ff7f0e; stroke: #ff7f0e"/>
     <use xlink:href="#m85617be86c" x="151.9142" y="295.333329" style="fill: #ff7f0e; stroke: #ff7f0e"/>
     <use xlink:href="#m85617be86c" x="156.023751" y="293.465802" style="fill: #ff7f0e; stroke: #ff7f0e"/>
     <use xlink:href="#m85617be86c" x="160.133303" y="288.086197" style="fill: #ff7f0e; stroke: #ff7f0e"/>
     <use xlink:href="#m85617be86c" x="164.242854" y="291.226992" style="fill: #ff7f0e; stroke: #ff7f0e"/>
     <use xlink:href="#m85617be86c" x="168.352405" y="287.452861" style="fill: #ff7f0e; stroke: #ff7f0e"/>
     <use xlink:href="#m85617be86c" x="172.461956" y="295.097225" style="fill: #ff7f0e; stroke: #ff7f0e"/>
     <use xlink:href="#m85617be86c" x="176.571507" y="295.330254" style="fill: #ff7f0e; stroke: #ff7f0e"/>
     <use xlink:href="#m85617be86c" x="180.681059" y="295.59548" style="fill: #ff7f0e; stroke: #ff7f0e"/>
     <use xlink:href="#m85617be86c" x="184.79061" y="281.567156" style="fill: #ff7f0e; stroke: #ff7f0e"/>
     <use xlink:href="#m85617be86c" x="188.900161" y="295.762352" style="fill: #ff7f0e; stroke: #ff7f0e"/>
     <use xlink:href="#m85617be86c" x="193.009712" y="292.235901" style="fill: #ff7f0e; stroke: #ff7f0e"/>
     <use xlink:href="#m85617be86c" x="197.119264" y="297.708472" style="fill: #ff7f0e; stroke: #ff7f0e"/>
     <use xlink:href="#m85617be86c" x="201.228815" y="297.863307" style="fill: #ff7f0e; stroke: #ff7f0e"/>
     <use xlink:href="#m85617be86c" x="205.338366" y="295.908043" style="fill: #ff7f0e; stroke: #ff7f0e"/>
     <use xlink:href="#m85617be86c" x="209.447917" y="293.020403" style="fill: #ff7f0e; stroke: #ff7f0e"/>
     <use xlink:href="#m85617be86c" x="213.557468" y="294.777595" style="fill: #ff7f0e; stroke: #ff7f0e"/>
     <use xlink:href="#m85617be86c" x="217.66702" y="294.304478" style="fill: #ff7f0e; stroke: #ff7f0e"/>
     <use xlink:href="#m85617be86c" x="221.776571" y="287.948163" style="fill: #ff7f0e; stroke: #ff7f0e"/>
     <use xlink:href="#m85617be86c" x="225.886122" y="296.217845" style="fill: #ff7f0e; stroke: #ff7f0e"/>
     <use xlink:href="#m85617be86c" x="229.995673" y="291.59467" style="fill: #ff7f0e; stroke: #ff7f0e"/>
     <use xlink:href="#m85617be86c" x="234.105224" y="290.618352" style="fill: #ff7f0e; stroke: #ff7f0e"/>
     <use xlink:href="#m85617be86c" x="238.214776" y="296.428949" style="fill: #ff7f0e; stroke: #ff7f0e"/>
     <use xlink:href="#m85617be86c" x="242.324327" y="285.250358" style="fill: #ff7f0e; stroke: #ff7f0e"/>
     <use xlink:href="#m85617be86c" x="246.433878" y="295.124792" style="fill: #ff7f0e; stroke: #ff7f0e"/>
     <use xlink:href="#m85617be86c" x="250.543429" y="297.782983" style="fill: #ff7f0e; stroke: #ff7f0e"/>
     <use xlink:href="#m85617be86c" x="254.65298" y="292.704942" style="fill: #ff7f0e; stroke: #ff7f0e"/>
     <use xlink:href="#m85617be86c" x="258.762532" y="297.510406" style="fill: #ff7f0e; stroke: #ff7f0e"/>
     <use xlink:href="#m85617be86c" x="262.872083" y="288.776716" style="fill: #ff7f0e; stroke: #ff7f0e"/>
     <use xlink:href="#m85617be86c" x="266.981634" y="292.450359" style="fill: #ff7f0e; stroke: #ff7f0e"/>
     <use xlink:href="#m85617be86c" x="271.091185" y="298.271776" style="fill: #ff7f0e; stroke: #ff7f0e"/>
     <use xlink:href="#m85617be86c" x="275.200736" y="284.88385" style="fill: #ff7f0e; stroke: #ff7f0e"/>
     <use xlink:href="#m85617be86c" x="279.310288" y="286.372113" style="fill: #ff7f0e; stroke: #ff7f0e"/>
     <use xlink:href="#m85617be86c" x="283.419839" y="293.681048" style="fill: #ff7f0e; stroke: #ff7f0e"/>
     <use xlink:href="#m85617be86c" x="287.52939" y="296.347897" style="fill: #ff7f0e; stroke: #ff7f0e"/>
     <use xlink:href="#m85617be86c" x="291.638941" y="296.3508" style="fill: #ff7f0e; stroke: #ff7f0e"/>
     <use xlink:href="#m85617be86c" x="295.748493" y="297.578984" style="fill: #ff7f0e; stroke: #ff7f0e"/>
     <use xlink:href="#m85617be86c" x="299.858044" y="295.553492" style="fill: #ff7f0e; stroke: #ff7f0e"/>
     <use xlink:href="#m85617be86c" x="303.967595" y="287.673248" style="fill: #ff7f0e; stroke: #ff7f0e"/>
     <use xlink:href="#m85617be86c" x="308.077146" y="295.217824" style="fill: #ff7f0e; stroke: #ff7f0e"/>
     <use xlink:href="#m85617be86c" x="312.186697" y="293.037119" style="fill: #ff7f0e; stroke: #ff7f0e"/>
     <use xlink:href="#m85617be86c" x="316.296249" y="294.722935" style="fill: #ff7f0e; stroke: #ff7f0e"/>
     <use xlink:href="#m85617be86c" x="320.4058" y="285.947224" style="fill: #ff7f0e; stroke: #ff7f0e"/>
     <use xlink:href="#m85617be86c" x="324.515351" y="297.903462" style="fill: #ff7f0e; stroke: #ff7f0e"/>
     <use xlink:href="#m85617be86c" x="328.624902" y="298.661066" style="fill: #ff7f0e; stroke: #ff7f0e"/>
     <use xlink:href="#m85617be86c" x="332.734453" y="297.219736" style="fill: #ff7f0e; stroke: #ff7f0e"/>
     <use xlink:href="#m85617be86c" x="336.844005" y="298.11035" style="fill: #ff7f0e; stroke: #ff7f0e"/>
     <use xlink:href="#m85617be86c" x="340.953556" y="293.16434" style="fill: #ff7f0e; stroke: #ff7f0e"/>
     <use xlink:href="#m85617be86c" x="345.063107" y="281.621464" style="fill: #ff7f0e; stroke: #ff7f0e"/>
     <use xlink:href="#m85617be86c" x="349.172658" y="293.591492" style="fill: #ff7f0e; stroke: #ff7f0e"/>
     <use xlink:href="#m85617be86c" x="353.282209" y="295.181852" style="fill: #ff7f0e; stroke: #ff7f0e"/>
     <use xlink:href="#m85617be86c" x="357.391761" y="297.961824" style="fill: #ff7f0e; stroke: #ff7f0e"/>
     <use xlink:href="#m85617be86c" x="361.501312" y="293.974556" style="fill: #ff7f0e; stroke: #ff7f0e"/>
     <use xlink:href="#m85617be86c" x="365.610863" y="290.794612" style="fill: #ff7f0e; stroke: #ff7f0e"/>
     <use xlink:href="#m85617be86c" x="369.720414" y="295.819279" style="fill: #ff7f0e; stroke: #ff7f0e"/>
     <use xlink:href="#m85617be86c" x="373.829965" y="298.6563" style="fill: #ff7f0e; stroke: #ff7f0e"/>
     <use xlink:href="#m85617be86c" x="377.939517" y="295.981764" style="fill: #ff7f0e; stroke: #ff7f0e"/>
     <use xlink:href="#m85617be86c" x="382.049068" y="290.27096" style="fill: #ff7f0e; stroke: #ff7f0e"/>
     <use xlink:href="#m85617be86c" x="386.158619" y="295.285829" style="fill: #ff7f0e; stroke: #ff7f0e"/>
     <use xlink:href="#m85617be86c" x="390.26817" y="281.78401" style="fill: #ff7f0e; stroke: #ff7f0e"/>
     <use xlink:href="#m85617be86c" x="394.377722" y="293.031449" style="fill: #ff7f0e; stroke: #ff7f0e"/>
     <use xlink:href="#m85617be86c" x="398.487273" y="300.359571" style="fill: #ff7f0e; stroke: #ff7f0e"/>
    </g>
   </g>
   <g id="patch_9">
    <path d="M 57.6 307.584 
L 57.6 186.624 
" style="fill: none; stroke: #000000; stroke-width: 0.8; stroke-linejoin: miter; stroke-linecap: square"/>
   </g>
   <g id="patch_10">
    <path d="M 414.72 307.584 
L 414.72 186.624 
" style="fill: none; stroke: #000000; stroke-width: 0.8; stroke-linejoin: miter; stroke-linecap: square"/>
   </g>
   <g id="patch_11">
    <path d="M 57.6 307.584 
L 414.72 307.584 
" style="fill: none; stroke: #000000; stroke-width: 0.8; stroke-linejoin: miter; stroke-linecap: square"/>
   </g>
   <g id="patch_12">
    <path d="M 57.6 186.624 
L 414.72 186.624 
" style="fill: none; stroke: #000000; stroke-width: 0.8; stroke-linejoin: miter; stroke-linecap: square"/>
   </g>
   <g id="legend_2">
    <g id="patch_13">
     <path d="M 303.991875 223.98025 
L 407.72 223.98025 
Q 409.72 223.98025 409.72 221.98025 
L 409.72 193.624 
Q 409.72 191.624 407.72 191.624 
L 303.991875 191.624 
Q 301.991875 191.624 301.991875 193.624 
L 301.991875 221.98025 
Q 301.991875 223.98025 303.991875 223.98025 
z
" style="fill: #ffffff; opacity: 0.8; stroke: #cccccc; stroke-linejoin: miter"/>
    </g>
    <g id="line2d_36">
     <path d="M 305.991875 199.722437 
L 315.991875 199.722437 
L 325.991875 199.722437 
" style="fill: none; stroke: #1f77b4; stroke-width: 1.5; stroke-linecap: square"/>
     <g>
      <use xlink:href="#mc166099ef3" x="315.991875" y="199.722437" style="fill: #1f77b4; stroke: #1f77b4"/>
     </g>
    </g>
    <g id="text_35">
     <!-- training loss -->
     <g transform="translate(333.991875 203.222437) scale(0.1 -0.1)">
      <use xlink:href="#DejaVuSans-74"/>
      <use xlink:href="#DejaVuSans-72" x="39.208984"/>
      <use xlink:href="#DejaVuSans-61" x="80.322266"/>
      <use xlink:href="#DejaVuSans-69" x="141.601562"/>
      <use xlink:href="#DejaVuSans-6e" x="169.384766"/>
      <use xlink:href="#DejaVuSans-69" x="232.763672"/>
      <use xlink:href="#DejaVuSans-6e" x="260.546875"/>
      <use xlink:href="#DejaVuSans-67" x="323.925781"/>
      <use xlink:href="#DejaVuSans-20" x="387.402344"/>
      <use xlink:href="#DejaVuSans-6c" x="419.189453"/>
      <use xlink:href="#DejaVuSans-6f" x="446.972656"/>
      <use xlink:href="#DejaVuSans-73" x="508.154297"/>
      <use xlink:href="#DejaVuSans-73" x="560.253906"/>
     </g>
    </g>
    <g id="line2d_37">
     <path d="M 305.991875 214.400562 
L 315.991875 214.400562 
L 325.991875 214.400562 
" style="fill: none; stroke: #ff7f0e; stroke-width: 1.5; stroke-linecap: square"/>
     <g>
      <use xlink:href="#m85617be86c" x="315.991875" y="214.400562" style="fill: #ff7f0e; stroke: #ff7f0e"/>
     </g>
    </g>
    <g id="text_36">
     <!-- validation loss -->
     <g transform="translate(333.991875 217.900562) scale(0.1 -0.1)">
      <use xlink:href="#DejaVuSans-76"/>
      <use xlink:href="#DejaVuSans-61" x="59.179688"/>
      <use xlink:href="#DejaVuSans-6c" x="120.458984"/>
      <use xlink:href="#DejaVuSans-69" x="148.242188"/>
      <use xlink:href="#DejaVuSans-64" x="176.025391"/>
      <use xlink:href="#DejaVuSans-61" x="239.501953"/>
      <use xlink:href="#DejaVuSans-74" x="300.78125"/>
      <use xlink:href="#DejaVuSans-69" x="339.990234"/>
      <use xlink:href="#DejaVuSans-6f" x="367.773438"/>
      <use xlink:href="#DejaVuSans-6e" x="428.955078"/>
      <use xlink:href="#DejaVuSans-20" x="492.333984"/>
      <use xlink:href="#DejaVuSans-6c" x="524.121094"/>
      <use xlink:href="#DejaVuSans-6f" x="551.904297"/>
      <use xlink:href="#DejaVuSans-73" x="613.085938"/>
      <use xlink:href="#DejaVuSans-73" x="665.185547"/>
     </g>
    </g>
   </g>
  </g>
 </g>
 <defs>
  <clipPath id="pc44bb44b34">
   <rect x="57.6" y="41.472" width="357.12" height="120.96"/>
  </clipPath>
  <clipPath id="pabe5d8f47d">
   <rect x="57.6" y="186.624" width="357.12" height="120.96"/>
  </clipPath>
 </defs>
</svg>
